<?xml version="1.0" standalone="no"?>
<!DOCTYPE svg PUBLIC "-//W3C//DTD SVG 1.1//EN" "http://www.w3.org/Graphics/SVG/1.1/DTD/svg11.dtd" >
<svg>
<metadata>
Created by FontForge 20120731 at Fri Oct  6 11:37:41 2017
 By www-data
Generated by Fonts 4 Web (http://fonts4web.org.uk) on behalf of:Company: Luke ShawName: Luke ShaweMail: lukey@snails.emailThis is licensed under Creative Commons - Share Alike which legal transcript can be found at: https://creativecommons.org/licenses/by-sa/4.0/legalcode
</metadata>
<defs>
<font id="labtopbolditalic" horiz-adv-x="285" >
  <font-face 
    font-family="Labtop"
    font-weight="700"
    font-style="italic"
    font-stretch="normal"
    units-per-em="1000"
    panose-1="2 0 8 3 0 0 0 0 0 0"
    ascent="800"
    descent="-200"
    x-height="600"
    cap-height="832"
    bbox="-101 -264 973 1037"
    underline-thickness="31"
    underline-position="-75"
    slope="-12"
    unicode-range="U+000D-FB02"
  />
<missing-glyph horiz-adv-x="399" 
d="M440 266l11 63h-101l14 73h101l14 63h-102l25 129h-65l-25 -129h-45l25 129h-64l-25 -129h-100l-14 -63h101l-14 -73h-101l-11 -63h100l-24 -129h64l24 129h45l-24 -129h65l24 129h102zM254 402h45l-14 -73h-45z" />
    <glyph glyph-name=".notdef" horiz-adv-x="399" 
d="M440 266l11 63h-101l14 73h101l14 63h-102l25 129h-65l-25 -129h-45l25 129h-64l-25 -129h-100l-14 -63h101l-14 -73h-101l-11 -63h100l-24 -129h64l24 129h45l-24 -129h65l24 129h102zM254 402h45l-14 -73h-45z" />
    <glyph glyph-name=".null" horiz-adv-x="0" 
 />
    <glyph glyph-name=".null" horiz-adv-x="0" 
 />
    <glyph glyph-name="nonmarkingreturn" unicode="&#xd;" horiz-adv-x="175" 
 />
    <glyph glyph-name="space" unicode=" " horiz-adv-x="175" 
 />
    <glyph glyph-name="exclam" unicode="!" horiz-adv-x="142" 
d="M126 121l137 713h-65l-137 -713h65zM100 -1l12 67h-62l-12 -67h62z" />
    <glyph glyph-name="quotedbl" unicode="&#x22;" horiz-adv-x="245" 
d="M320 591l42 223h-69l-42 -223h69zM222 591l42 223h-69l-42 -223h69z" />
    <glyph glyph-name="numbersign" unicode="#" horiz-adv-x="399" 
d="M487 467l-101 -1l37 129h-64l-36 -129l-47 -1l37 129h-63l-37 -129h-100l-21 -64l102 1l-21 -73h-100l-19 -64l102 1l-36 -129h63l36 129h45l-35 -127h64l36 127l101 1l17 63h-100l22 74h102zM259 402h44l-20 -72l-46 -1z" />
    <glyph glyph-name="dollar" unicode="$" 
d="M338 412h-3q0 72 -65 86l54 281q14 -9 14 -36q0 -16 -4 -33l-17 -83h64l14 75q0 3 1 7.5t1.5 8.5t0.5 8q2 7 2 22q0 76 -65 90l9 48h-61l-8 -47q-93 -13 -117 -131l-23 -121q0 -1 -1.5 -9.5t-1.5 -13.5q-2 -6 -2 -22q0 -81 69 -93l-77 -395q-15 10 -15 38q0 9 1 14
q2 8 3 18l14 77h-66l-13 -69q-2 -16 -4 -22q0 -4 -0.5 -11.5t-0.5 -11.5q0 -79 69 -92l-8 -45h61l8 44q88 15 112 132zM221 130q-12 -56 -37 -72l74 382q15 -9 15 -31v-10q0 -2 -2 -10zM195 545q0 18 4 33l25 126q9 58 39 74l-53 -271q-15 9 -15 38z" />
    <glyph glyph-name="percent" unicode="%" horiz-adv-x="577" 
d="M352 537l31 160q1 4 2 11.5t1 10.5q1 7 1 22q0 95 -100 95q-117 0 -142 -133l-31 -160q-2 -14 -4 -23q0 -3 -0.5 -10.5t-0.5 -11.5q0 -96 99 -96q118 0 144 135zM588 128l31 160q1 4 2 11t1 11q1 8 1 23q0 96 -99 96q-116 0 -141 -135l-31 -160q-6 -28 -6 -53
q0 -18 4 -31q7 -19 10 -24q2 -2 4 -4.5t4 -4.5q5 -5 6 -7l1 -2q1 -2 2 -2q17 -11 47 -11q41 0 66 7q28 6 47 22t31 41q13 27 20 63zM649 841h-68l-518 -849h68zM523 132q-16 -82 -73 -82q-34 0 -41 18q-1 3 -1 18q0 11 2 18q0 3 1.5 11.5t1.5 11.5v-1l32 165q17 80 73 80
q41 0 41 -43q0 -9 -1 -14t-3 -17zM286 540q-16 -81 -73 -81q-34 0 -38 16q-2 14 -2 22q0 10 1 17q1 6 3 20l33 165q16 81 72 81q41 0 41 -44q0 -9 -1 -14t-3 -17z" />
    <glyph glyph-name="ampersand" unicode="&#x26;" 
d="M321 -97l8 44q-59 0 -59 44q0 9 1 15q1 5 3 17l48 251h-2v11q0 94 -113 94l-10 -57q59 0 59 -43q0 -9 -1 -14t-3 -17l-27 -135q-7 -40 -28 -53q-19 -13 -63 -13q-40 0 -40 44q0 18 4 33l48 248q11 51 19 59v-1q28 25 65 25q82 0 116 57q17 27 27 76l22 114q1 3 2 11t1 11
q1 7 1 22q0 95 -99 95q-117 0 -142 -133l-22 -114q-2 -8 -4 -26q-1 -8 -1 -24q0 -39 17 -59q-28 -17 -41 -37q-14 -24 -23 -71l-48 -245q-5 -28 -5 -45q0 -95 98 -95q42 0 77 11v-12q0 -100 100 -100zM309 592q-16 -82 -74 -82q-40 0 -40 43q0 16 4 33l23 118q16 81 73 81
q41 0 41 -44q0 -9 -1 -14t-3 -17z" />
    <glyph glyph-name="quotesingle" unicode="'" horiz-adv-x="150" 
d="M222 591l42 223h-69l-42 -223h69z" />
    <glyph glyph-name="parenleft" unicode="(" horiz-adv-x="150" 
d="M112 -219l8 42q-50 2 -57 19v-2q-3 8 -3 22q0 9 2 16q0 3 1.5 10.5t1.5 10.5l167 859q9 46 22 59q15 20 64 24l11 56q-86 -5 -118 -40v1q-29 -29 -42 -95l-166 -855q-5 -32 -5 -49q0 -29 11 -49l-1 1q20 -41 89 -42z" />
    <glyph glyph-name="parenright" unicode=")" horiz-adv-x="150" 
d="M136 -98l166 855q2 16 4 25q0 4 0.5 11t0.5 11q0 31 -11 51v-1q-20 39 -102 43l-10 -55q51 -5 55 -16q5 -12 5 -22q0 -8 -5 -40l-167 -859q-9 -44 -22 -60v1q-17 -20 -64 -22l-11 -55q84 2 119 38q30 33 42 95z" />
    <glyph glyph-name="asterisk" unicode="*" horiz-adv-x="356" 
d="M469 699l-20 62l-103 -53l21 106h-69l-21 -108l-83 54l-45 -58l83 -54l-101 -52l22 -62l101 53l-21 -106h69l21 108l84 -55l44 59l-83 53z" />
    <glyph glyph-name="plus" unicode="+" horiz-adv-x="366" 
d="M424 324l11 61h-148l30 147h-64l-29 -147h-148l-11 -61h147l-29 -149h64l28 149h149z" />
    <glyph glyph-name="comma" unicode="," horiz-adv-x="142" 
d="M110 71h-86l-12 -67h14l-30 -77h65l49 125v19z" />
    <glyph glyph-name="hyphen" unicode="-" horiz-adv-x="270" 
d="M307 324l11 61h-223l-11 -61h223z" />
    <glyph glyph-name="period" unicode="." horiz-adv-x="142" 
d="M101 4l12 67h-63l-12 -67h63z" />
    <glyph glyph-name="slash" unicode="/" horiz-adv-x="291" 
d="M469 841h-66l-421 -841h66z" />
    <glyph glyph-name="zero" unicode="0" 
d="M283 126l112 576q1 3 2 11t1 11q1 7 1 22q0 95 -99 95q-117 0 -142 -133l-112 -576q-5 -28 -5 -45q0 -95 99 -95q117 0 143 134zM219 130q-17 -83 -74 -83q-40 0 -40 42q0 6 1 8l184 400zM222 704q16 81 73 81q41 0 41 -40v-4l-185 -400z" />
    <glyph glyph-name="one" unicode="1" horiz-adv-x="132" 
d="M124 0l11 61h-27l152 782l-107 -41l-13 -65l38 14l-135 -690h-26l-11 -61h118z" />
    <glyph glyph-name="two" unicode="2" horiz-adv-x="272" 
d="M259 0l10 57h-174l61 311q7 34 22 47q13 13 49 16q65 6 95 27q31 26 44 93l29 151q1 3 2 11t1 11q1 7 1 22q0 95 -99 95q-117 0 -142 -133l-14 -76h64l14 72q16 81 73 81q41 0 41 -44q0 -9 -1 -14t-3 -17l-30 -151q-9 -45 -21 -55q-9 -9 -62 -14q-59 -4 -87 -30
q-29 -27 -39 -85l-72 -375h238z" />
    <glyph glyph-name="three" unicode="3" horiz-adv-x="265" 
d="M271 126l49 251q3 17 3 34q0 42 -25 64q46 30 60 96l25 131q1 3 2 11t1 11q1 7 1 22q0 95 -99 95q-117 0 -142 -133l-14 -76h64l14 72q16 81 73 81q41 0 41 -44q0 -9 -1 -14t-3 -17l-26 -130q-8 -45 -22 -59q-16 -16 -60 -16h-46l-10 -56h51q41 0 48 -13v1q5 -8 5 -23
q0 -7 -5 -35l-48 -249q-17 -83 -74 -83q-40 0 -40 44q0 18 4 33l15 82h-64l-14 -74q-5 -28 -5 -45q0 -95 99 -95q117 0 143 134z" />
    <glyph glyph-name="four" unicode="4" horiz-adv-x="273" 
d="M373 449l10 56h-53l65 329h-62l-272 -385h194l-86 -449h64l86 449h54zM176 505l125 177l-35 -177h-90z" />
    <glyph glyph-name="five" unicode="5" 
d="M283 126l46 238q4 22 5 31q2 18 2 28q0 27 -10 44l1 -1q-19 40 -94 40h-50l52 270h175l10 58h-238l-75 -384h112q42 0 51 -14q2 -8 2 -16q0 -11 -1 -18q-3 -20 -4 -23l-48 -249q-17 -83 -74 -83q-40 0 -40 44q0 18 4 33l15 82h-64l-14 -74q-5 -28 -5 -45q0 -95 99 -95
q117 0 143 134z" />
    <glyph glyph-name="six" unicode="6" 
d="M283 126l47 241q2 16 4 23q0 4 0.5 12t0.5 11q0 93 -96 93q-26 0 -59 -14l42 212q16 81 73 81q41 0 41 -44q0 -9 -1 -14t-3 -17l-17 -83h66l14 75q1 3 2 11t1 11q1 7 1 22q0 95 -99 95q-117 0 -142 -133l-112 -576q-5 -28 -5 -45q0 -95 99 -95q117 0 143 134zM219 130
q-17 -83 -74 -83q-40 0 -40 44q0 18 4 33l47 244q16 82 77 82q37 0 37 -43q0 -18 -4 -33z" />
    <glyph glyph-name="seven" unicode="7" horiz-adv-x="222" 
d="M401 834h-243l-10 -58h163l-329 -776h64z" />
    <glyph glyph-name="eight" unicode="8" 
d="M283 126l48 245q0 3 1 7.5t1.5 8.5t0.5 8q2 8 2 23q0 39 -19 62q41 32 56 108l22 114q1 3 2 11t1 11q1 7 1 22q0 95 -99 95q-117 0 -142 -133l-22 -114q-2 -8 -4 -26q-1 -8 -1 -24q0 -42 19 -61q-41 -32 -56 -106l-48 -245q-5 -28 -5 -45q0 -95 99 -95q117 0 143 134z
M219 130q-17 -83 -74 -83q-40 0 -40 44q0 18 4 33l48 248q16 82 73 82q41 0 41 -44q0 -9 -1 -14l-3 -18zM309 592q-16 -82 -74 -82q-40 0 -40 43q0 16 4 33l23 118q16 81 73 81q41 0 41 -44q0 -9 -1 -14q-1 -7 -3 -18v1z" />
    <glyph glyph-name="nine" unicode="9" 
d="M283 126l112 576q1 3 2 11t1 11q1 7 1 22q0 95 -99 95q-117 0 -142 -133l-24 -123q-1 -7 -3 -23q-1 -7 -1 -22q0 -93 91 -93q36 0 62 13l-64 -330q-17 -83 -74 -83q-40 0 -40 44q0 18 4 33l15 82h-64l-14 -74q-5 -28 -5 -45q0 -95 99 -95q117 0 143 134zM307 585
q-17 -81 -76 -81q-38 0 -38 43q0 9 1 14q2 7 3 18l25 125q16 81 73 81q41 0 41 -44q0 -9 -1 -14t-3 -17z" />
    <glyph glyph-name="colon" unicode=":" horiz-adv-x="142" 
d="M162 326l15 68h-63l-15 -68h63zM101 4l12 67h-63l-12 -67h63z" />
    <glyph glyph-name="semicolon" unicode=";" horiz-adv-x="142" 
d="M110 71h-86l-12 -67h14l-30 -77h65l49 125v19zM162 326l15 68h-63l-15 -68h63z" />
    <glyph glyph-name="less" unicode="&#x3c;" horiz-adv-x="441" 
d="M433 132l14 69l-235 147l292 144l13 76l-408 -197l-7 -42z" />
    <glyph glyph-name="equal" unicode="=" horiz-adv-x="641" 
d="M632 246l13 65h-533l-13 -65h533zM659 386l13 64h-533l-13 -64h533z" />
    <glyph glyph-name="greater" unicode="&#x3e;" horiz-adv-x="441" 
d="M472 326l7 42l-332 197l-13 -71l235 -144l-292 -146l-15 -76z" />
    <glyph glyph-name="question" unicode="?" horiz-adv-x="251" 
d="M338 583l23 119q1 3 2 11t1 11q1 7 1 22q0 95 -99 95q-119 0 -144 -133l-14 -76h66l14 72q16 81 73 81q41 0 41 -44q0 -9 -1 -14t-3 -17l-24 -122q-10 -51 -27 -66q-17 -17 -77 -17l-73 -384h65l64 332q25 5 42 15q20 10 34 27q15 17 22 37q10 25 14 51zM137 4l12 67h-63
l-12 -67h63z" />
    <glyph glyph-name="at" unicode="@" horiz-adv-x="659" 
d="M641 407q0 76 -22 139q-23 65 -67 114q-79 85 -194 85q-174 0 -274 -178q-68 -122 -68 -281q0 -194 103 -306q83 -93 216 -93q126 0 231 117l-20 48q-108 -105 -215 -105q-125 0 -194 105q-59 89 -59 227q0 201 103 320q72 85 175 85q107 0 169 -83q56 -80 56 -192
q0 -57 -11 -115t-33 -101q-23 -45 -55 -71q-32 -28 -75 -30h-2q-21 0 -22 19l99 423h-63l-4 -18q-19 10 -55 10q-117 0 -146 -134v1l-41 -160q-6 -25 -6 -48q0 -92 99 -92q32 0 57 9q1 -36 23 -54q19 -17 56 -19h2q24 0 57 11q32 12 61 37q31 27 56 63q25 37 42 92
q13 48 16 87q5 36 5 88zM345 231q-18 -83 -74 -83q-41 0 -41 42q0 10 5 35v-1l42 163q10 41 29 63q17 20 49 20q37 0 37 -40q0 -8 -5 -36v1z" />
    <glyph glyph-name="A" unicode="A" horiz-adv-x="280" 
d="M284 0l42 834h-55l-282 -834h62l128 379h63l-21 -379h63zM199 440l55 162l-9 -162h-46z" />
    <glyph glyph-name="B" unicode="B" horiz-adv-x="279" 
d="M283 137l47 241q3 18 3 36q0 42 -24 64q45 28 59 95l26 131q2 10 3 18q1 5 1 19q0 93 -103 93h-114l-161 -834h119q73 0 105 35q26 30 39 102zM219 132q-10 -49 -23 -60q-17 -16 -61 -16h-40l77 395h46q42 0 51 -14v1q3 -4 3 -20q0 -19 -4 -36zM307 583q-9 -48 -31 -67
q-10 -10 -53 -10h-40l52 271h46q43 0 50 -13q5 -8 5 -21q0 -8 -5 -36z" />
    <glyph glyph-name="C" unicode="C" horiz-adv-x="265" 
d="M283 126l15 80h-65l-14 -76q-17 -83 -74 -83q-40 0 -40 44q0 18 4 33l113 580q16 81 73 81q41 0 41 -44q0 -9 -1 -14t-3 -17l-16 -78h66l13 70q1 3 2 11t1 11q1 7 1 22q0 95 -99 95q-117 0 -142 -133l-112 -576q-5 -28 -5 -45q0 -95 99 -95q117 0 143 134z" />
    <glyph glyph-name="D" unicode="D" horiz-adv-x="277" 
d="M283 123l110 568q4 22 5 31q2 18 2 28q0 28 -10 44v-1q-21 41 -94 41h-114l-161 -834h119q60 0 95 30q35 32 48 93zM219 132q-7 -44 -21 -60q-17 -16 -61 -16h-42l140 720h48q41 0 48 -12q5 -8 5 -21q0 -7 -5 -35z" />
    <glyph glyph-name="E" unicode="E" horiz-adv-x="257" 
d="M255 0l10 56h-170l77 395h171l11 55h-171l52 271h171l10 57h-235l-161 -834h235z" />
    <glyph glyph-name="F" unicode="F" horiz-adv-x="250" 
d="M411 776l10 58h-235l-161 -834h65l87 452h148l10 57h-147l52 267h171z" />
    <glyph glyph-name="G" unicode="G" 
d="M283 126l75 383h-122l-11 -62h55l-61 -317q-17 -83 -74 -83q-40 0 -40 44q0 18 4 33l113 580q16 81 73 81q41 0 41 -44q0 -9 -1 -14q-1 -7 -3 -18v1l-16 -78h66l13 70q1 3 2 11t1 11q1 7 1 22q0 95 -99 95q-117 0 -142 -133l-112 -576q-5 -28 -5 -45q0 -95 99 -95
q117 0 143 134z" />
    <glyph glyph-name="H" unicode="H" horiz-adv-x="281" 
d="M261 0l161 834h-63l-63 -328h-109l63 328h-65l-161 -834h65l87 451h109l-88 -451h64z" />
    <glyph glyph-name="I" unicode="I" horiz-adv-x="111" 
d="M108 1l11 61h-22l138 709h23l11 61h-107l-11 -61h20l-138 -709h-21l-11 -61h107z" />
    <glyph glyph-name="J" unicode="J" horiz-adv-x="265" 
d="M263 126l137 708h-65l-136 -704q-17 -83 -74 -83q-31 0 -38 18q-3 6 -3 19q0 11 2 18q0 3 1.5 10.5t1.5 11.5l15 82h-66l-14 -74q0 -4 -1 -11.5t-2 -10.5q-1 -7 -1 -22q0 -96 100 -96q117 0 143 134z" />
    <glyph glyph-name="K" unicode="K" horiz-adv-x="295" 
d="M263 0l73 378q3 18 3 36q0 42 -24 64q45 28 59 95l50 261h-63l-48 -251q-9 -48 -31 -67q-10 -10 -53 -10h-40l63 328h-65l-161 -834h65l87 451h46q42 0 51 -14v1q3 -4 3 -20q0 -19 -4 -36l-75 -382h64z" />
    <glyph glyph-name="L" unicode="L" horiz-adv-x="246" 
d="M259 0l10 56h-171l151 778h-65l-161 -834h236z" />
    <glyph glyph-name="M" unicode="M" horiz-adv-x="459" 
d="M432 0l161 834h-63l-266 -625l-17 625h-63l-161 -834h65l105 545l16 -496h52l213 501l-106 -550h64z" />
    <glyph glyph-name="N" unicode="N" horiz-adv-x="287" 
d="M273 0l156 834h-64l-101 -519l-16 517h-2v2h-62l-161 -834h65l105 545l17 -511l-6 -34h69z" />
    <glyph glyph-name="O" unicode="O" 
d="M283 126l112 576q1 3 2 11t1 11q1 7 1 22q0 95 -99 95q-117 0 -142 -133l-112 -576q-5 -28 -5 -45q0 -95 99 -95q117 0 143 134zM219 130q-17 -83 -74 -83q-40 0 -40 44q0 18 4 33l113 580q16 81 73 81q41 0 41 -44q0 -9 -1 -14q-1 -7 -3 -18v1z" />
    <glyph glyph-name="P" unicode="P" horiz-adv-x="280" 
d="M378 574l23 117q7 29 7 61q0 23 -8 42q-22 40 -95 40h-114l-161 -834h65l87 452h55q118 0 141 122zM317 584q-4 -21 -11 -38q-4 -14 -13 -23l2 1q-18 -15 -62 -15h-40l52 267h46q42 0 51 -13v1q4 -7 4 -21q0 -7 -5 -35z" />
    <glyph glyph-name="Q" unicode="Q" 
d="M283 126l112 576q1 3 2 11t1 11q1 7 1 22q0 95 -99 95q-117 0 -142 -133l-112 -576q0 -4 -1 -11.5t-2 -10.5q-1 -7 -1 -22q0 -81 69 -94l-6 -35q-1 -3 -2 -10.5t-1 -11.5q-1 -7 -1 -22q0 -95 112 -95l10 56q-59 0 -59 44q0 8 1 14q1 5 3 17l9 45q85 19 106 130zM219 130
q-11 -48 -29 -66l61 312q1 4 2 11.5t1 10.5q1 7 1 22q0 81 -71 93l38 191q16 81 73 81q41 0 41 -44q0 -9 -1 -14t-3 -17zM105 90q0 17 4 34l64 331q18 -9 18 -40q0 -9 -1 -14t-3 -17l-64 -332q-18 8 -18 38z" />
    <glyph glyph-name="R" unicode="R" horiz-adv-x="298" 
d="M263 0l71 368q4 15 4 39q0 43 -24 65q45 26 59 97l24 122q7 29 7 61q0 23 -8 42q-22 40 -95 40h-114l-161 -834h65l85 441h46q38 0 48 -16q5 -8 5 -23q0 -9 -1 -14q-2 -8 -3 -18l-71 -370h63zM312 578q-9 -45 -24 -60h1q-9 -7 -23 -12q-13 -4 -38 -4h-40l53 274h46
q42 0 51 -13v1q4 -7 4 -21q0 -7 -5 -35z" />
    <glyph glyph-name="S" unicode="S" horiz-adv-x="267" 
d="M328 412h-3q0 89 -99 89q-41 0 -41 45q0 9 1 14q2 8 3 18l25 126q16 82 73 82q41 0 41 -44q0 -9 -1 -14l-3 -18l-17 -83h64l14 75q5 28 5 45q0 94 -98 94q-119 0 -144 -133l-23 -121q-1 -7 -3 -23q-1 -7 -1 -22q0 -96 100 -96q43 0 43 -36q0 -8 -3 -21l-50 -259
q-16 -81 -73 -81q-41 0 -41 44q0 8 1 13q2 8 3 18l14 77h-66l-13 -69q0 -4 -1 -11.5t-2 -10.5q-1 -7 -1 -22q0 -96 100 -96q115 0 141 134z" />
    <glyph glyph-name="T" unicode="T" horiz-adv-x="274" 
d="M429 776l10 58h-287l-10 -58h112l-151 -776h66l150 776h110z" />
    <glyph glyph-name="U" unicode="U" 
d="M283 126l137 708h-65l-136 -704q-17 -83 -74 -83q-40 0 -40 44q0 18 4 33l137 710h-64l-136 -702q-5 -28 -5 -45q0 -95 99 -95q117 0 143 134z" />
    <glyph glyph-name="V" unicode="V" horiz-adv-x="280" 
d="M447 834h-66l-196 -581l31 581h-64l-42 -834h55z" />
    <glyph glyph-name="W" unicode="W" horiz-adv-x="459" 
d="M457 126l137 708h-65l-136 -704q-17 -83 -74 -83q-26 0 -27 70q0 52 12 116l116 601h-65l-115 -595q-10 -42 -14 -61q-11 -37 -20 -56q-32 -75 -61 -75q-40 0 -40 44q0 18 4 33l137 710h-64l-136 -702q-2 -16 -4 -24q0 -4 -0.5 -11t-0.5 -11q0 -94 96 -94h3q58 0 97 65
q10 -61 76 -65h4q114 0 140 134z" />
    <glyph glyph-name="X" unicode="X" horiz-adv-x="280" 
d="M286 0l-35 416l199 418h-68l-143 -301l-22 301h-67l36 -405l-200 -429h68l142 305l22 -305h68z" />
    <glyph glyph-name="Y" unicode="Y" horiz-adv-x="267" 
d="M445 834h-68l-143 -301l-22 301h-67l37 -404l-83 -430h65l82 424z" />
    <glyph glyph-name="Z" unicode="Z" horiz-adv-x="262" 
d="M423 834h-257l-10 -58h175l-335 -776h258l10 56h-175z" />
    <glyph glyph-name="bracketleft" unicode="[" horiz-adv-x="150" 
d="M109 -224l11 55h-66l195 1000h66l10 56h-130l-217 -1111h131z" />
    <glyph glyph-name="backslash" unicode="\" horiz-adv-x="291" 
d="M304 0l-93 841h-64l93 -841h64z" />
    <glyph glyph-name="bracketright" unicode="]" horiz-adv-x="150" 
d="M109 -224l217 1111h-131l-10 -56h64l-195 -1000h-65l-11 -55h131z" />
    <glyph glyph-name="asciicircum" unicode="^" horiz-adv-x="332" 
d="M338 536l12 288h-55l-100 -288h64l18 51l-2 -51h63z" />
    <glyph glyph-name="underscore" unicode="_" horiz-adv-x="558" 
d="M553 -100l11 63h-591l-11 -63h591z" />
    <glyph glyph-name="grave" unicode="`" horiz-adv-x="150" 
d="M269 672l-48 153l-64 -31l47 -153z" />
    <glyph glyph-name="a" unicode="a" 
d="M258 -4l120 613h-63l-4 -18q-20 10 -56 10q-118 0 -144 -134l-65 -335q0 -4 -1 -11.5t-2 -10.5q-1 -7 -1 -22q0 -96 100 -96q28 0 54 9l-1 -5h63zM219 130q-17 -83 -72 -83q-42 0 -42 45q0 9 1 14q2 8 3 18l66 339q16 82 75 82q39 0 39 -44q0 -9 -1 -15q-1 -5 -3 -17z
" />
    <glyph glyph-name="b" unicode="b" horiz-adv-x="275" 
d="M283 126l65 335q0 3 1 10.5t2 11.5q1 7 1 22q0 96 -99 96q-30 0 -54 -9l45 232h-64l-160 -828h64l1 7q25 -11 55 -11q117 0 143 134zM219 130q-17 -83 -74 -83q-40 0 -40 44q0 18 4 33l66 339q16 82 73 82q41 0 41 -44q0 -9 -1 -15q-1 -5 -3 -17z" />
    <glyph glyph-name="c" unicode="c" horiz-adv-x="272" 
d="M283 126l15 80h-65l-14 -76q-17 -83 -74 -83q-40 0 -40 44q0 18 4 33l66 339q16 82 73 82q41 0 41 -44q0 -9 -1 -15q-1 -5 -3 -17l-16 -77h66l13 69q0 3 1 10.5t2 11.5q1 7 1 22q0 96 -99 96q-116 0 -142 -134l-65 -335q-5 -28 -5 -45q0 -95 99 -95q117 0 143 134z" />
    <glyph glyph-name="d" unicode="d" 
d="M258 -4l160 828h-63l-45 -233q-19 10 -55 10q-118 0 -144 -134l-65 -335q0 -4 -1 -11.5t-2 -10.5q-1 -7 -1 -22q0 -96 100 -96q28 0 54 9l-1 -5h63zM219 130q-17 -83 -72 -83q-42 0 -42 45q0 9 1 14q2 8 3 18l66 339q16 82 75 82q39 0 39 -44q0 -9 -1 -15q-1 -5 -3 -17z
" />
    <glyph glyph-name="e" unicode="e" horiz-adv-x="278" 
d="M283 126l6 35h-65l-5 -32v1q-17 -83 -74 -83q-40 0 -40 44q0 18 4 33l30 156l189 81l20 100q0 3 1 10.5t2 11.5q1 7 1 22q0 96 -99 96q-116 0 -142 -134l-65 -335q-5 -28 -5 -45q0 -95 99 -95q117 0 143 134zM175 463q16 82 73 82q41 0 41 -44q0 -9 -1 -15q-1 -5 -3 -17
l-14 -70l-119 -52z" />
    <glyph glyph-name="f" unicode="f" horiz-adv-x="254" 
d="M395 664l5 29q1 7 3 23q1 7 1 22q0 96 -100 96q-118 0 -143 -135l-138 -707h66l106 548h137l12 60h-137l19 96q16 81 73 81q33 0 40 -18v2q1 -3 1 -9q1 -2 1 -11q0 -2 -0.5 -8t-0.5 -9q-2 -8 -4 -22l-8 -38h67z" />
    <glyph glyph-name="g" unicode="g" 
d="M241 -98l135 697h-63l-2 -9q-27 11 -58 11q-116 0 -142 -134l-65 -335q-5 -28 -5 -45q0 -95 99 -95q31 0 55 9l-18 -96q-17 -81 -73 -81q-32 0 -40 18v-1q-2 10 -2 18q0 11 2 17q0 4 1.5 12t1.5 11l17 83h-67l-14 -74q-1 -3 -2 -11t-1 -11q-1 -7 -1 -22q0 -95 100 -95
q117 0 142 133zM219 130q-17 -83 -74 -83q-40 0 -40 44q0 18 4 33l66 339q16 82 73 82q41 0 41 -44q0 -9 -1 -15q-1 -5 -3 -17z" />
    <glyph glyph-name="h" unicode="h" 
d="M257 -8l92 472q1 3 2 11t1 11q1 7 1 22q0 96 -99 96q-35 0 -56 -10l46 240h-65l-164 -842h68l92 474q17 83 74 83q40 0 40 -44q0 -18 -4 -33l-94 -480h66z" />
    <glyph glyph-name="i" unicode="i" horiz-adv-x="116" 
d="M88 0l118 604h-66l-118 -604h66zM217 664l11 62h-65l-11 -62h65z" />
    <glyph glyph-name="j" unicode="j" horiz-adv-x="104" 
d="M62 -98l135 697h-63l-135 -694q-17 -81 -87 -81l-11 -55q136 0 161 133zM213 665l11 62h-64l-11 -62h64z" />
    <glyph glyph-name="k" unicode="k" horiz-adv-x="281" 
d="M258 0l50 258q4 17 4 40q0 39 -21 60q42 28 55 95l30 153l-64 -2l-28 -141q-7 -46 -24 -61q-16 -16 -60 -16h-40l87 448h-65l-161 -834h65l62 326h46q47 0 51 -7q5 -8 5 -21q0 -8 -5 -36l-50 -262h63z" />
    <glyph glyph-name="l" unicode="l" horiz-adv-x="116" 
d="M88 0l166 858l-77 -63l-155 -795h66z" />
    <glyph glyph-name="m" unicode="m" horiz-adv-x="452" 
d="M432 -8l92 472q0 3 1 11t2 11q1 7 1 22q0 96 -99 96q-58 0 -93 -32q-23 32 -82 32q-31 0 -55 -9l2 9h-66l-120 -612h68l92 474q17 83 74 83q40 0 40 -44q0 -18 -4 -33l-94 -480h67l92 474q17 83 74 83q40 0 40 -44q0 -18 -4 -33l-94 -480h66z" />
    <glyph glyph-name="n" unicode="n" horiz-adv-x="279" 
d="M257 -8l92 472q1 3 2 11t1 11q1 7 1 22q0 96 -99 96q-31 0 -55 -9l2 9h-66l-120 -612h68l92 474q17 83 74 83q40 0 40 -44q0 -18 -4 -33l-94 -480h66z" />
    <glyph glyph-name="o" unicode="o" horiz-adv-x="277" 
d="M283 126l65 335q0 3 1 10.5t2 11.5q1 7 1 22q0 96 -99 96q-116 0 -142 -134l-65 -335q-5 -28 -5 -45q0 -95 99 -95q117 0 143 134zM219 130q-17 -83 -74 -83q-40 0 -40 44q0 18 4 33l66 339q16 82 73 82q41 0 41 -44q0 -9 -1 -15q-2 -8 -3 -18v1z" />
    <glyph glyph-name="p" unicode="p" horiz-adv-x="275" 
d="M278 126l65 335q1 3 2 10.5t1 11.5q1 7 1 22q0 95 -100 95q-27 0 -54 -8l1 4h-63l-161 -827h64l44 232q20 -10 56 -10q118 0 144 135zM214 129q-16 -82 -75 -82q-39 0 -39 42q0 17 4 34l65 339q17 83 73 83q41 0 41 -44q0 -18 -4 -33z" />
    <glyph glyph-name="q" unicode="q" horiz-adv-x="275" 
d="M209 -231l161 827h-66l-1 -5q-22 9 -55 9q-117 0 -142 -133l-65 -335q0 -2 -1.5 -10t-1.5 -12q-2 -8 -2 -23q0 -96 99 -96q26 0 53 8l-44 -230h65zM214 129q-16 -82 -74 -82q-40 0 -40 43q0 16 4 33l65 339q17 83 74 83q40 0 40 -43q0 -17 -4 -34z" />
    <glyph glyph-name="r" unicode="r" horiz-adv-x="259" 
d="M335 385l14 73q6 30 6 55q0 42 -20 65q-19 22 -69 22q-9 0 -31 -2q-14 -2 -32 -8l3 14h-68l-119 -607h67l39 200l26 132l16 86l10 49q3 21 4 24q0 1 0.5 3t1.5 3v-1q21 49 64 49q24 0 33 -10q9 -9 9 -26q0 -11 -5 -39l-15 -82h66z" />
    <glyph glyph-name="s" unicode="s" horiz-adv-x="267" 
d="M303 259h-4q-1 90 -100 90q-40 0 -40 45q0 2 0.5 8t0.5 10q2 8 4 22l6 29q16 82 73 82q41 0 41 -44q0 -9 -1 -15q-1 -5 -3 -17l-12 -65h63l10 57q5 28 5 45q0 95 -98 95q-122 0 -144 -135v1l-6 -34q0 -3 -1 -11t-2 -11q-1 -7 -1 -22q0 -95 100 -95q43 0 43 -37
q0 -6 -1 -9q0 -8 -1 -12v1l-21 -107q-16 -81 -73 -81q-41 0 -41 44q0 8 1 13q1 8 3 18l14 77h-66l-13 -69q-1 -4 -2 -11.5t-1 -10.5q-1 -7 -1 -22q0 -96 100 -96q115 0 141 134z" />
    <glyph glyph-name="t" unicode="t" horiz-adv-x="190" 
d="M305 545l12 60h-112l24 125h-65l-141 -730h65l105 545h112z" />
    <glyph glyph-name="u" unicode="u" 
d="M283 126l94 478h-66l-92 -474q-17 -83 -74 -83q-40 0 -40 44q0 18 4 33l94 480h-65l-92 -472q-5 -28 -5 -45q0 -95 99 -95q117 0 143 134z" />
    <glyph glyph-name="v" unicode="v" horiz-adv-x="219" 
d="M346 602h-66l-126 -361l16 361h-64l-24 -602h54z" />
    <glyph glyph-name="w" unicode="w" horiz-adv-x="459" 
d="M457 126l94 478h-66l-92 -474q-17 -83 -74 -83q-25 0 -27 69q0 52 12 117l73 371h-66l-71 -365q-10 -42 -14 -61q-11 -37 -20 -56q-32 -75 -61 -75q-40 0 -40 44q0 18 4 33l94 480h-65l-92 -472q-2 -16 -4 -24q0 -4 -0.5 -11t-0.5 -11q0 -94 96 -94h3q58 0 97 65
q10 -61 76 -65h4q114 0 140 134z" />
    <glyph glyph-name="x" unicode="x" horiz-adv-x="245" 
d="M254 2l-32 314l141 284h-68l-93 -184l-19 184h-64l27 -287l-156 -311h69l106 216l25 -216h64z" />
    <glyph glyph-name="y" unicode="y" 
d="M241 -98l135 697l1 5h-66l-92 -474q-17 -83 -74 -83q-40 0 -40 44q0 18 4 33l94 480h-65l-92 -472q-5 -28 -5 -45q0 -95 99 -95q31 0 55 9l-18 -96q-17 -81 -73 -81q-32 0 -40 18v-1q-2 10 -2 18q0 11 2 17q0 4 1.5 12t1.5 11l17 83h-67l-14 -74q-1 -3 -2 -11t-1 -11
q-1 -7 -1 -22q0 -95 100 -95q117 0 142 133z" />
    <glyph glyph-name="z" unicode="z" horiz-adv-x="245" 
d="M376 605h-258l-13 -58h174l-297 -547h258l10 56h-173z" />
    <glyph glyph-name="braceleft" unicode="{" horiz-adv-x="270" 
d="M205 -219l8 42q-45 1 -56 18q-3 12 -3 21q0 11 2 17q0 3 0.5 6t1.5 7.5t1 6.5v-1l110 453l-51 18l58 19l50 371v-1q8 42 21 60q14 18 64 23l11 56q-40 -1 -70 -11q-30 -11 -47 -28q-34 -34 -43 -96l-42 -329l-127 -38l-11 -49l113 -37l-99 -401q-6 -26 -6 -48
q0 -45 24 -66q22 -23 75 -25z" />
    <glyph glyph-name="bar" unicode="|" horiz-adv-x="560" 
d="M262 -264l222 1149h-71l-222 -1149h71z" />
    <glyph glyph-name="braceright" unicode="}" horiz-adv-x="270" 
d="M314 345l11 49l-114 37l85 325q6 24 6 47q0 29 -12 52v-1q-20 39 -101 43l-10 -55q35 -5 45 -14q14 -8 14 -26q0 -13 -6 -37l-94 -375l50 -19l-57 -18l-66 -449q-4 -35 -23 -58q-18 -22 -61 -23l-11 -55q79 3 114 38q37 32 46 97l56 405z" />
    <glyph glyph-name="asciitilde" unicode="~" horiz-adv-x="491" 
d="M569 472q-116 -79 -159 -79q-2 0 -4 1h-3q-26 2 -68 38q-53 47 -98 47q-55 -3 -138 -59l-27 -84q122 80 161 80h6q19 -4 57 -33q26 -21 58 -38q26 -13 50 -13q54 0 139 58z" />
    <glyph glyph-name="nonbreakingspace" unicode="&#xa0;" 
 />
    <glyph glyph-name="exclamdown" unicode="&#xa1;" horiz-adv-x="142" 
d="M65 -188l138 714h-65l-138 -714h65zM213 580l12 67h-62l-12 -67h62z" />
    <glyph glyph-name="cent" unicode="&#xa2;" horiz-adv-x="275" 
d="M305 238l15 80h-65l-14 -76q-10 -51 -35 -70l93 477q11 -11 11 -34q0 -17 -4 -34l-14 -77h65l13 69q5 28 5 45q0 76 -64 91l16 87h-65l-16 -86q-90 -16 -113 -131l-65 -335q-4 -17 -4 -43q0 -78 65 -93l-14 -67h66l13 66q43 7 72 41q28 32 39 90zM127 203q0 18 4 33
l65 339q9 52 37 71l-94 -479q-12 11 -12 36z" />
    <glyph glyph-name="sterling" unicode="&#xa3;" horiz-adv-x="246" 
d="M285 322l11 65h-134l15 75h135l11 64h-134l61 308h-66l-60 -308h-43l-11 -64h42l-15 -75h-43l-11 -65h42l-63 -322h237l10 56h-171l52 266h135z" />
    <glyph glyph-name="currency" unicode="&#xa4;" horiz-adv-x="295" 
d="M308 126l15 80h-65l-14 -76q-17 -83 -74 -83q-40 0 -40 44q0 18 4 33l41 217h114l13 65h-114l14 74h141l13 65h-141l32 159q17 81 73 81q41 0 41 -44q0 -9 -1 -14t-3 -17l-16 -78h66l13 70q0 3 1 11t2 11q1 7 1 22q0 95 -99 95q-118 0 -143 -133l-32 -163h-32l-13 -65h32
l-14 -74h-60l-13 -65h60l-40 -209q0 -4 -1 -11.5t-2 -10.5q-1 -7 -1 -22q0 -96 99 -96q117 0 143 134z" />
    <glyph glyph-name="yen" unicode="&#xa5;" horiz-adv-x="263" 
d="M443 834h-68l-143 -301l-22 301h-67l37 -404l-7 -34h-88l-13 -65h88l-9 -47h-88l-11 -65h87l-43 -219h66l42 219h91l11 65h-90l9 47h91l13 65h-91l6 28z" />
    <glyph glyph-name="brokenbar" unicode="&#xa6;" horiz-adv-x="244" 
d="M226 369l85 443h-71l-85 -443h71zM117 -191l85 443h-71l-85 -443h71z" />
    <glyph glyph-name="section" unicode="&#xa7;" 
d="M266 33l2 11q0 2 1 3v8l5 29h-3q0 40 -22 62q42 29 57 95l8 46q5 28 5 45q0 10 -1 14q0 8 -1 11q-14 74 -97 74q-43 0 -43 37q0 6 1 8q0 7 1 11l21 107q16 81 72 81q42 0 42 -44q0 -9 -1 -15q-1 -5 -3 -17v1l-16 -78h66l14 70q4 17 4 42q0 97 -101 97q-115 0 -140 -133
l-27 -133h5q1 -37 22 -61q-42 -28 -57 -96l-8 -45q-2 -16 -4 -24q0 -4 -0.5 -12t-0.5 -11q0 -10 1 -14q0 -8 1 -11q13 -72 98 -72q43 0 43 -37v-10q-1 -2 -1.5 -5.5t-0.5 -5.5v1l-21 -107q-17 -81 -73 -81q-41 0 -41 44q0 8 1 14q1 5 3 17l14 77h-66l-13 -69q0 -3 -1 -11
t-2 -11q-1 -7 -1 -22q0 -96 100 -96q115 0 141 134l10 52zM244 260q-16 -81 -74 -81q-30 0 -38 18q0 1 -1 3t-1 3v8q0 10 2 17q0 4 1.5 12.5t1.5 11.5v-1l8 37q16 82 73 82q30 0 38 -17v1q1 -1 1 -7v-10q0 -11 -1 -17q-2 -9 -3 -21l-6 -28h1z" />
    <glyph glyph-name="dieresis" unicode="&#xa8;" horiz-adv-x="174" 
d="M201 687l12 67h-64l-12 -67h64zM299 687l12 67h-63l-12 -67h63z" />
    <glyph glyph-name="copyright" unicode="&#xa9;" horiz-adv-x="932" 
d="M873 404q13 62 13 124q0 259 -273 259q-167 0 -271 -104q-49 -49 -80 -116q-33 -67 -51 -157q-12 -63 -12 -117q0 -95 39 -157q66 -109 233 -109q165 0 271 104q97 97 131 273zM808 410q-61 -319 -330 -319q-132 0 -183 87q-30 49 -30 125q0 21 3 47q2 13 8 54
q62 318 330 318q214 0 214 -204q0 -46 -12 -108zM634 264l15 80h-65l-14 -76q-16 -82 -75 -82q-39 0 -39 42q0 17 4 34l58 301q16 82 72 82q42 0 42 -45q0 -9 -1 -14q-1 -8 -3 -18v1l-14 -77h65l13 69q4 17 4 42q0 98 -101 98q-115 0 -141 -134l-58 -297q-5 -28 -5 -45
q0 -94 99 -94q119 0 144 133z" />
    <glyph glyph-name="ordfeminine" unicode="&#xaa;" 
d="M350 471l43 220q1 4 2 11t1 11q1 7 1 22q0 96 -100 96q-115 0 -141 -134v1l-7 -27h66l4 22q17 81 72 81q42 0 42 -44q0 -9 -1 -14l-3 -18v1l-11 -58q-22 9 -56 9q-116 0 -141 -133l-8 -40q0 -1 -1.5 -9.5t-1.5 -13.5q-2 -6 -2 -22q0 -96 98 -96q32 0 52 7v-3h65l19 98
l-1 -2q1 7 5 16q0 3 1.5 9zM278 447l1 1q-17 -56 -68 -56q-29 0 -37 18v-1q-3 7 -3 22q0 2 0.5 7t0.5 8q2 8 4 22l8 45q16 81 72 81q42 0 42 -39q0 -7 -1 -10z" />
    <glyph glyph-name="guillemotleft" unicode="&#xab;" horiz-adv-x="482" 
d="M321 127l16 72l-149 148l206 147l14 79l-299 -205l-6 -36zM468 127l16 72l-149 148l206 147l14 80l-297 -205l-6 -37z" />
    <glyph glyph-name="logicalnot" unicode="&#xac;" horiz-adv-x="497" 
d="M525 264l31 156h-457l-13 -64h393l-18 -92h64z" />
    <glyph glyph-name="registered" unicode="&#xae;" horiz-adv-x="932" 
d="M873 404q13 62 13 124q0 259 -273 259q-167 0 -271 -104q-49 -49 -80 -116q-33 -67 -51 -157q-12 -63 -12 -117q0 -95 39 -157q66 -109 233 -109q165 0 271 104q97 97 131 273zM808 410q-61 -319 -330 -319q-132 0 -183 87q-30 49 -30 125q0 21 3 47q2 13 8 54
q62 318 330 318q214 0 214 -204q0 -46 -12 -108zM640 245l13 68q3 18 3 36q0 46 -25 68q24 13 39 38q15 27 22 59l5 29q4 22 5 32q2 20 2 28q0 27 -10 44l1 -1q-19 40 -95 40h-114l-109 -555h66l49 256h47q38 0 49 -17q5 -8 5 -19q0 -9 -5 -34l-37 -186h64l22 114h3z
M628 523q-8 -43 -24 -60h1q-7 -7 -23 -12q-12 -4 -37 -4h-41l35 182h47q42 0 51 -13v1q3 -4 3 -20q0 -9 -2 -15q0 -4 -1.5 -12t-1.5 -10z" />
    <glyph glyph-name="degree" unicode="&#xb0;" horiz-adv-x="369" 
d="M471 656q3 15 3 32q0 29 -10 52q-10 26 -28 43q-16 17 -42 28q-24 10 -55 10q-35 0 -66 -12q-34 -13 -57 -33q-25 -21 -44 -51q-17 -27 -25 -63q-3 -16 -3 -33q0 -59 36 -96q37 -37 100 -37q67 0 122 47v-1q56 45 69 114zM414 662q-5 -25 -16 -43q-13 -21 -30 -35
q-18 -15 -38 -22q-22 -8 -43 -8q-37 0 -61 22q-23 25 -23 58v10q0 2 2 12q5 26 16 42q11 19 29 34t40 24q22 8 44 8q35 0 60 -23q22 -24 22 -58v-10q0 -2 -2 -10v-1z" />
    <glyph glyph-name="plusminus" unicode="&#xb1;" horiz-adv-x="399" 
d="M443 324l11 61h-148l30 147h-64l-29 -147h-148l-11 -61h147l-29 -149h64l28 149h149zM399 100l11 61h-359l-11 -61h359z" />
    <glyph glyph-name="twosuperior" unicode="&#xb2;" horiz-adv-x="229" 
d="M284 317l9 54h-104l35 176q2 7 3 12t6 9q6 4 11 4q8 2 21 4q12 1 35 6q16 7 24 14q10 10 14 23q7 15 11 37l18 91q3 13 3 29q0 65 -70 65q-42 0 -64 -21q-23 -23 -32 -67l-12 -57h61l10 52q1 5 5 18l4 12q9 9 23 9q9 0 14 -4q2 -8 2 -9q0 -6 -3 -20l-17 -90
q-5 -21 -11 -26q-7 -6 -29 -7q-72 -7 -86 -78l-45 -236h164zM274 781l-1 -2q0 1 1 2z" />
    <glyph glyph-name="threesuperior" unicode="&#xb3;" horiz-adv-x="229" 
d="M299 399l29 150v-1q2 8 2 12v14q0 22 -9 35q23 20 30 58l15 77q3 15 3 29q0 67 -70 67q-79 0 -96 -90l-10 -55h60l10 52q5 23 9 30q8 9 23 9q9 0 14 -4q1 -3 1 -9v-9q0 -1 -2 -11l-15 -78q-3 -13 -6 -21l-3 -6t-2 -5l1 2q-8 -8 -29 -8h-37l-9 -53h42q23 0 23 -7
q0 -4 -1 -9q-1 -4 -3 -14l-29 -150q-8 -39 -33 -39q-12 0 -14 5v-1q-1 1 -1 7q0 7 3 22l11 61h-60l-10 -54q-3 -13 -3 -29q0 -66 69 -66q80 0 97 89z" />
    <glyph glyph-name="acute" unicode="&#xb4;" horiz-adv-x="150" 
d="M294 791l-59 33l-103 -149l57 -33z" />
    <glyph glyph-name="paragraph" unicode="&#xb6;" horiz-adv-x="366" 
d="M507 772l11 62h-233q-71 0 -105 -37q-28 -28 -41 -100l-23 -118q-3 -18 -3 -35q0 -92 104 -92h48l-100 -512h66l161 832h19l-162 -832h66l161 832h31z" />
    <glyph glyph-name="periodcentered" unicode="&#xb7;" horiz-adv-x="426" 
d="M448 379l-27 35q19 21 29 42q12 26 16 48q3 15 3 32q0 32 -12 57l41 35l-36 45l-40 -33q-36 30 -89 30q-28 0 -49 -7q-25 -8 -46 -21l-25 31l-49 -42l24 -29q-19 -19 -30 -43q-12 -26 -16 -50q-2 -12 -3 -17q-1 -6 -1 -19q0 -33 14 -59l-38 -31l39 -44l38 31
q34 -25 83 -25q56 0 99 28l28 -34zM408 510q-4 -21 -16 -43q-12 -20 -29 -35q-18 -15 -38 -22q-21 -9 -44 -9q-36 0 -61 23q-23 23 -23 58q0 8 3 22q5 26 16 42q12 20 30 34q17 16 38 23q22 8 44 8q38 0 60 -22t22 -57v-10q0 -3 -2 -11v-1z" />
    <glyph glyph-name="cedilla" unicode="&#xb8;" horiz-adv-x="249" 
d="M159 -132l8 43q1 3 1 8q1 3 1 9q0 36 -36 41l14 66h-54l-23 -116h26q2 0 3 1h3h3q1 -1 3 -1q3 0 3 -1q0 -6 -1 -8l-7 -36q-3 -13 -11 -18h-63l-9 -51h62q32 0 52 15q17 16 25 48z" />
    <glyph glyph-name="onesuperior" unicode="&#xb9;" horiz-adv-x="226" 
d="M245 315l10 57h-16l93 472l-88 -29l-11 -62l22 8l-76 -389h-16l-10 -57h92z" />
    <glyph glyph-name="ordmasculine" unicode="&#xba;" horiz-adv-x="187" 
d="M288 561l36 187q3 14 3 27q0 67 -75 67q-87 0 -103 -88l-36 -187q-3 -13 -3 -28q0 -68 76 -68q86 0 102 90zM226 565q-7 -40 -36 -40q-19 0 -19 19q0 4 1 6q0 7 1 10v-1l37 189q8 41 37 41q18 0 18 -19q0 -4 -1 -8q0 -6 -1 -9v1z" />
    <glyph glyph-name="guillemotright" unicode="&#xbb;" horiz-adv-x="482" 
d="M362 329l6 36l-220 206l-14 -75l149 -146l-206 -147l-17 -80zM509 328l6 37l-218 206l-14 -75l148 -146l-205 -147l-17 -81z" />
    <glyph glyph-name="onequarter" unicode="&#xbc;" horiz-adv-x="291" 
d="M469 841h-66l-421 -841h66zM480 270l12 52h-31l38 198h-55l-177 -250h123l-51 -270h60l51 270h30zM78 321l13 58h-18l92 473l-88 -32l-11 -62l24 9l-76 -388h-14l-13 -58h91zM375 322l36 51l-10 -51h-26z" />
    <glyph glyph-name="onehalf" unicode="&#xbd;" horiz-adv-x="291" 
d="M469 841h-66l-421 -841h66zM423 0l11 55h-105l34 174q5 19 6 21q5 6 37 10q38 8 53 18q21 19 29 61v-1l18 91q3 15 3 29q0 67 -69 67q-78 0 -95 -90l-10 -56h58l9 52q1 10 5 17l5 13q10 10 24 10q12 0 14 -5v-4q1 -1 1 -4q0 -6 -3 -21l-17 -90q-1 -10 -5 -17q-1 -4 -6 -9
q-2 -1 -12 -5q-3 0 -19 -2q-69 -7 -83 -79l-45 -235h162zM78 321l13 58h-18l92 473l-88 -32l-11 -62l24 9l-76 -388h-14l-13 -58h91zM414 464l-1 -2q0 1 1 2z" />
    <glyph glyph-name="threequarters" unicode="&#xbe;" horiz-adv-x="291" 
d="M469 841h-66l-421 -841h66zM135 399l29 150v-1q2 8 2 12v14q0 22 -9 35q23 20 30 58l15 77q3 15 3 29q0 67 -69 67q-80 0 -97 -90l-10 -55h60l10 52q1 7 5 17l4 12q10 10 24 10q12 0 14 -5v-3q1 -1 1 -3q0 -7 -3 -22l-15 -78q-5 -24 -10 -29q-9 -9 -29 -9h-38l-9 -53h43
q22 0 22 -8q0 -7 -3 -22l-29 -150q-8 -39 -32 -39q-12 0 -15 4v8v9q0 2 2 12l11 61h-60l-10 -54q-3 -13 -3 -29q0 -66 70 -66q79 0 96 89zM480 270l12 52h-31l38 198h-55l-177 -250h123l-51 -270h60l51 270h30zM375 322l36 51l-10 -51h-26z" />
    <glyph glyph-name="questiondown" unicode="&#xbf;" horiz-adv-x="275" 
d="M239 -48l14 75h-66l-13 -72q-17 -80 -73 -80q-41 0 -41 43q0 8 1 14q1 5 3 17l24 123q10 50 27 63q20 20 77 20l75 384h-66l-64 -332q-52 -11 -78 -44l1 1q-24 -28 -37 -89l-23 -117q0 -4 -1 -11.5t-2 -10.5q-1 -8 -1 -23q0 -96 99 -96q119 0 144 135zM275 589l15 67h-64
l-15 -67h64z" />
    <glyph glyph-name="Agrave" unicode="&#xc0;" horiz-adv-x="280" 
d="M284 0l42 834h-55l-282 -834h62l128 379h63l-21 -379h63zM375 872l-48 150l-65 -27l48 -154zM199 440l55 162l-9 -162h-46z" />
    <glyph glyph-name="Aacute" unicode="&#xc1;" horiz-adv-x="280" 
d="M284 0l42 834h-55l-282 -834h62l128 379h63l-21 -379h63zM400 991l-59 30l-104 -146l59 -33zM199 440l55 162l-9 -162h-46z" />
    <glyph glyph-name="Acircumflex" unicode="&#xc2;" horiz-adv-x="280" 
d="M284 0l42 834h-55l-282 -834h62l128 379h63l-21 -379h63zM386 842l-19 185h-61l-91 -185h67l32 62l9 -62h63zM199 440l55 162l-9 -162h-46z" />
    <glyph glyph-name="Atilde" unicode="&#xc3;" horiz-adv-x="280" 
d="M284 0l42 834h-55l-282 -834h62l128 379h63l-21 -379h63zM477 1008q-95 -82 -115 -82q-9 2 -30 24q-33 30 -49 31h-4q-21 0 -43 -12q-24 -12 -53 -38l-27 -95q95 83 114 83q7 -3 24 -19h-1l5 -5q16 -16 27 -21q13 -8 27 -10h5q35 0 92 48zM199 440l55 162l-9 -162h-46z
M269 919l-2 1q1 0 2 -1z" />
    <glyph glyph-name="Adieresis" unicode="&#xc4;" horiz-adv-x="280" 
d="M284 0l42 834h-55l-282 -834h62l128 379h63l-21 -379h63zM391 889l12 67h-64l-12 -67h64zM292 889l12 67h-63l-12 -67h63zM199 440l55 162l-9 -162h-46z" />
    <glyph glyph-name="Aring" unicode="&#xc5;" horiz-adv-x="280" 
d="M284 0l41 820q32 7 58 33q24 24 32 60v1q1 3 1 10q1 2 1 9q0 36 -23 59q-22 24 -61 24q-22 0 -39 -8q-13 -4 -35 -20q-18 -16 -27 -32q-10 -18 -15 -38q-1 -3 -1 -9q-1 -3 -1 -10q0 -58 52 -77l-278 -822h62l128 379h63l-21 -379h63zM354 919q-5 -19 -18 -30
q-12 -12 -30 -12q-12 0 -21 7q-7 8 -7 20q0 5 1 8q4 18 17 31q15 12 31 12q12 0 21 -7q7 -8 7 -20q0 -5 -1 -8v-1zM199 440l55 162l-9 -162h-46z" />
    <glyph glyph-name="AE" unicode="&#xc6;" horiz-adv-x="475" 
d="M452 0l10 56h-170l77 395h171l11 55h-171l52 271h171l10 57h-226l-402 -834h65l183 379h61l-76 -379h234zM261 440l76 156l-31 -156h-45z" />
    <glyph glyph-name="Ccedilla" unicode="&#xc7;" horiz-adv-x="275" 
d="M283 126l15 80h-65l-14 -76q-17 -83 -74 -83q-40 0 -40 44q0 18 4 33l113 580q16 81 73 81q41 0 41 -44q0 -9 -1 -14t-3 -17l-16 -78h66l13 70q1 3 2 11t1 11q1 7 1 22q0 95 -99 95q-117 0 -142 -133l-112 -576q-4 -17 -4 -43q0 -77 65 -94l-14 -76h26q1 0 2 1h3h4
q0 -1 3 -1q4 0 4 -1q0 -6 -1 -8l-7 -36q-3 -13 -11 -18h-63l-9 -51h62q32 0 52 15q17 16 25 48l8 43q1 3 1 8q1 3 1 9q0 36 -36 41l5 24q97 13 121 133z" />
    <glyph glyph-name="Egrave" unicode="&#xc8;" horiz-adv-x="290" 
d="M272 0l10 56h-170l77 395h171l11 55h-171l52 271h171l10 57h-235l-161 -834h235zM380 872l-48 150l-65 -27l48 -154z" />
    <glyph glyph-name="Eacute" unicode="&#xc9;" horiz-adv-x="290" 
d="M272 0l10 56h-170l77 395h171l11 55h-171l52 271h171l10 57h-235l-161 -834h235zM405 991l-59 30l-104 -146l59 -33z" />
    <glyph glyph-name="Ecircumflex" unicode="&#xca;" horiz-adv-x="290" 
d="M259 0l10 56h-170l77 395h171l11 55h-171l52 271h171l10 57h-235l-161 -834h235zM390 842l-18 185h-61l-91 -185h67l32 62l9 -62h62z" />
    <glyph glyph-name="Edieresis" unicode="&#xcb;" horiz-adv-x="290" 
d="M259 0l10 56h-170l77 395h171l11 55h-171l52 271h171l10 57h-235l-161 -834h235zM396 889l12 67h-64l-12 -67h64zM297 889l12 67h-63l-12 -67h63z" />
    <glyph glyph-name="Igrave" unicode="&#xcc;" horiz-adv-x="127" 
d="M115 1l11 61h-22l138 709h23l11 61h-25v2h-63v-2h-19l-11 -61h20l-138 -709h-21l-11 -61h24v-1h63v1h20zM298 872l-48 151l-64 -28l49 -154z" />
    <glyph glyph-name="Iacute" unicode="&#xcd;" horiz-adv-x="127" 
d="M115 1l11 61h-22l138 709h23l11 61h-25v2h-63v-2h-19l-11 -61h20l-138 -709h-21l-11 -61h24v-1h63v1h20zM323 991l-57 30l-105 -146l57 -33z" />
    <glyph glyph-name="Icircumflex" unicode="&#xce;" horiz-adv-x="127" 
d="M115 1l11 61h-22l138 709h23l11 61h-25v2h-63v-2h-19l-11 -61h20l-138 -709h-21l-11 -61h24v-1h63v1h20zM310 842l-20 185h-62l-90 -185h67l32 62l10 -62h63z" />
    <glyph glyph-name="Idieresis" unicode="&#xcf;" horiz-adv-x="127" 
d="M115 1l11 61h-22l138 709h23l11 61h-25v2h-63v-2h-19l-11 -61h20l-138 -709h-21l-11 -61h24v-1h63v1h20zM315 889l12 67h-64l-12 -67h64zM216 889l12 67h-62l-12 -67h62z" />
    <glyph glyph-name="Eth" unicode="&#xd0;" 
d="M283 123l110 568q4 22 5 31q2 18 2 28q0 28 -10 44v-1q-21 41 -94 41h-114l-54 -279h-39l-11 -61h38l-95 -494h119q60 0 95 30q35 32 48 93zM219 132q-7 -44 -21 -60q-17 -16 -61 -16h-42l85 438h104l11 61h-103l43 221h48q41 0 48 -12q5 -8 5 -21q0 -7 -5 -35z" />
    <glyph glyph-name="Ntilde" unicode="&#xd1;" horiz-adv-x="287" 
d="M273 0l156 834h-64l-101 -519l-16 517h-2v2h-62l-161 -834h65l105 545l17 -511l-6 -34h69zM478 1008q-35 -32 -74 -62q-28 -19 -37 -20h-1q-9 2 -30 24q-33 30 -51 31h-3q-20 0 -43 -12q-24 -13 -52 -38l-29 -95q98 83 116 83q4 -1 9 -6q1 -1 5.5 -4.5t7.5 -6.5l5 -6
q32 -29 53 -32h5q37 0 95 49zM273 919l-2 1q1 0 2 -1z" />
    <glyph glyph-name="Ograve" unicode="&#xd2;" 
d="M283 126l112 576q1 3 2 11t1 11q1 7 1 22q0 95 -99 95q-117 0 -142 -133l-112 -576q-5 -28 -5 -45q0 -95 99 -95q117 0 143 134zM219 130q-17 -83 -74 -83q-40 0 -40 44q0 18 4 33l113 580q16 81 73 81q41 0 41 -44q0 -9 -1 -14t-3 -17zM377 872l-47 150l-65 -27l47 -154
z" />
    <glyph glyph-name="Oacute" unicode="&#xd3;" 
d="M283 126l112 576q1 3 2 11t1 11q1 7 1 22q0 95 -99 95q-117 0 -142 -133l-112 -576q-5 -28 -5 -45q0 -95 99 -95q117 0 143 134zM219 130q-17 -83 -74 -83q-40 0 -40 44q0 18 4 33l113 580q16 81 73 81q41 0 41 -44q0 -9 -1 -14q-1 -7 -3 -18v1zM402 991l-59 30
l-103 -146l59 -33z" />
    <glyph glyph-name="Ocircumflex" unicode="&#xd4;" 
d="M283 126l112 576q1 3 2 11t1 11q1 7 1 22q0 95 -99 95q-117 0 -142 -133l-112 -576q-5 -28 -5 -45q0 -95 99 -95q117 0 143 134zM219 130q-17 -83 -74 -83q-40 0 -40 44q0 18 4 33l113 580q16 81 73 81q41 0 41 -44q0 -9 -1 -14t-3 -17zM388 842l-19 185h-61l-90 -185h66
l32 62l10 -62h62z" />
    <glyph glyph-name="Otilde" unicode="&#xd5;" 
d="M283 126l112 576q1 3 2 11t1 11q1 7 1 22q0 95 -99 95q-117 0 -142 -133l-112 -576q-5 -28 -5 -45q0 -95 99 -95q117 0 143 134zM219 130q-17 -83 -74 -83q-40 0 -40 44q0 18 4 33l113 580q16 81 73 81q41 0 41 -44q0 -9 -1 -14t-3 -17zM477 1008q-51 -45 -75 -62
q-29 -20 -37 -20q-9 2 -30 24q-31 29 -52 31h-4q-9 0 -20 -3l-21 -9q-18 -9 -53 -38l-29 -96q94 79 114 84q1 0 12 -7q5 -3 18 -16l2 -2v1q29 -28 52 -31h5q37 0 92 48zM272 919h2q1 0 1 -1h1z" />
    <glyph glyph-name="Odieresis" unicode="&#xd6;" 
d="M283 126l112 576q1 3 2 11t1 11q1 7 1 22q0 95 -99 95q-117 0 -142 -133l-112 -576q-5 -28 -5 -45q0 -95 99 -95q117 0 143 134zM219 130q-17 -83 -74 -83q-40 0 -40 44q0 18 4 33l113 580q16 81 73 81q41 0 41 -44q0 -9 -1 -14t-3 -17zM393 889l12 67h-63l-12 -67h63z
M295 889l12 67h-63l-12 -67h63z" />
    <glyph glyph-name="multiply" unicode="&#xd7;" horiz-adv-x="309" 
d="M352 248l-85 104l124 105l-34 46l-127 -105l-83 104l-51 -41l84 -105l-124 -103l37 -48l126 105l84 -105z" />
    <glyph glyph-name="Oslash" unicode="&#xd8;" 
d="M448 841h-68l-10 -21q-26 21 -70 21q-117 0 -142 -133l-112 -577q0 -1 -0.5 -4.5t-1.5 -4.5v-11v-3q-1 0 -1 -1l-50 -107h68l7 15q26 -23 72 -23q117 0 143 134l112 576l3 18l2 18zM219 130q-17 -83 -74 -83q-40 0 -40 37v12l186 406zM222 704q16 81 73 81q41 0 41 -39
v-1l-184 -400z" />
    <glyph glyph-name="Ugrave" unicode="&#xd9;" 
d="M283 126l137 708h-65l-136 -704q-17 -83 -74 -83q-40 0 -40 44q0 18 4 33l137 710h-64l-136 -702q-5 -28 -5 -45q0 -95 99 -95q117 0 143 134zM377 872l-47 150l-65 -27l47 -154z" />
    <glyph glyph-name="Uacute" unicode="&#xda;" 
d="M283 126l137 708h-65l-136 -704q-17 -83 -74 -83q-40 0 -40 44q0 18 4 33l137 710h-64l-136 -702q-5 -28 -5 -45q0 -95 99 -95q117 0 143 134zM402 991l-59 30l-103 -146l59 -33z" />
    <glyph glyph-name="Ucircumflex" unicode="&#xdb;" 
d="M283 126l137 708h-65l-136 -704q-17 -83 -74 -83q-40 0 -40 44q0 18 4 33l137 710h-64l-136 -702q-5 -28 -5 -45q0 -95 99 -95q117 0 143 134zM388 842l-19 185h-61l-90 -185h66l32 62l10 -62h62z" />
    <glyph glyph-name="Udieresis" unicode="&#xdc;" 
d="M283 126l137 708h-65l-136 -704q-17 -83 -74 -83q-40 0 -40 44q0 18 4 33l137 710h-64l-136 -702q-5 -28 -5 -45q0 -95 99 -95q117 0 143 134zM393 889l12 67h-63l-12 -67h63zM295 889l12 67h-63l-12 -67h63z" />
    <glyph glyph-name="Yacute" unicode="&#xdd;" horiz-adv-x="280" 
d="M450 834h-68l-143 -301l-22 301h-67l37 -404l-83 -430h65l82 424l-2 -4zM400 991l-59 30l-104 -146l59 -33z" />
    <glyph glyph-name="Thorn" unicode="&#xde;" horiz-adv-x="284" 
d="M338 367l22 115q7 32 7 63q0 9 -2 25q-1 9 -7 18l1 -2q-19 40 -96 40h-54l40 208h-65l-161 -834h65l47 245h60q120 0 143 122zM275 375q-8 -47 -30 -65q-10 -10 -53 -10h-47l53 269h53q41 0 50 -13v1q3 -4 3 -20q0 -10 -1 -16q-1 -9 -3 -21z" />
    <glyph glyph-name="germandbls" unicode="&#xdf;" horiz-adv-x="326" 
d="M321 61l61 316q3 17 3 40v13q0 8 -1 13q-4 39 -42 54q18 28 28 74l25 131q1 3 2 11t1 11q1 7 1 22q0 95 -99 95q-117 0 -142 -133l-136 -704h64l136 700q16 81 73 81q41 0 41 -44q0 -9 -1 -14t-3 -17l-26 -130q-8 -44 -21 -60q-18 -15 -44 -15h-26l-10 -56h63
q42 0 49 -13v1q4 -7 4 -22q0 -8 -5 -36l-61 -315q-15 -77 -86 -83l-10 -55q137 0 162 135z" />
    <glyph glyph-name="agrave" unicode="&#xe0;" 
d="M338 668l-47 153l-66 -30l47 -151zM258 11l120 613h-63l-4 -18q-20 10 -56 10q-118 0 -144 -134l-65 -335q0 -4 -1 -11.5t-2 -10.5q-1 -7 -1 -22q0 -96 100 -96q28 0 54 9l-1 -5h63zM219 145q-17 -83 -72 -83q-42 0 -42 45q0 9 1 14q2 7 3 18l66 339q16 82 75 82
q39 0 39 -44q0 -9 -1 -14l-3 -18z" />
    <glyph glyph-name="aacute" unicode="&#xe1;" 
d="M362 787l-57 33l-104 -148l58 -31zM258 11l120 613h-63l-4 -18q-20 10 -56 10q-118 0 -144 -134l-65 -335q0 -4 -1 -11.5t-2 -10.5q-1 -7 -1 -22q0 -96 100 -96q28 0 54 9l-1 -5h63zM219 145q-17 -83 -72 -83q-42 0 -42 45q0 9 1 14q2 7 3 18l66 339q16 82 75 82
q39 0 39 -44q0 -9 -1 -14l-3 -18z" />
    <glyph glyph-name="acircumflex" unicode="&#xe2;" 
d="M349 640l-19 186h-61l-90 -185h66l32 63l10 -62zM258 11l120 613h-63l-4 -18q-20 10 -56 10q-118 0 -144 -134l-65 -335q0 -4 -1 -11.5t-2 -10.5q-1 -7 -1 -22q0 -96 100 -96q28 0 54 9l-1 -5h63zM219 145q-17 -83 -72 -83q-42 0 -42 45q0 9 1 14q2 7 3 18l66 339
q16 82 75 82q39 0 39 -44q0 -9 -1 -14l-3 -18z" />
    <glyph glyph-name="atilde" unicode="&#xe3;" 
d="M441 815q-93 -81 -112 -81h-1q-10 2 -31 22q-31 29 -52 31h-6q-35 0 -91 -48l-29 -96q96 81 115 83q10 -6 28 -24l2 -2v1q14 -15 28 -22q11 -6 24 -8h5q40 0 93 50zM258 11l120 613h-63l-4 -18q-20 10 -56 10q-118 0 -144 -134l-65 -335q0 -4 -1 -11.5t-2 -10.5
q-1 -7 -1 -22q0 -96 100 -96q28 0 54 9l-1 -5h63zM219 145q-17 -83 -72 -83q-42 0 -42 45q0 9 1 14q2 7 3 18l66 339q16 82 75 82q39 0 39 -44q0 -9 -1 -14l-3 -18z" />
    <glyph glyph-name="adieresis" unicode="&#xe4;" 
d="M350 676l15 68h-63l-15 -68h63zM252 676l15 68h-63l-15 -68h63zM258 11l120 613h-63l-4 -18q-20 10 -56 10q-118 0 -144 -134l-65 -335q0 -4 -1 -11.5t-2 -10.5q-1 -7 -1 -22q0 -96 100 -96q28 0 54 9l-1 -5h63zM219 145q-17 -83 -72 -83q-42 0 -42 45q0 9 1 14q2 7 3 18
l66 339q16 82 75 82q39 0 39 -44q0 -9 -1 -14l-3 -18z" />
    <glyph glyph-name="aring" unicode="&#xe5;" 
d="M374 709q0 1 0.5 4.5t1.5 4.5v10q0 36 -23 59t-61 23q-22 0 -39 -8q-17 -5 -35 -20q-17 -14 -27 -31q-10 -18 -15 -38q0 -1 -1 -4t-1 -5v-9q0 -34 23 -59q23 -24 61 -24q21 0 40 8q19 6 34 20q16 14 27 30q10 18 15 38v1zM312 714q-5 -19 -17 -30q-13 -12 -30 -12
q-16 0 -21 8q-8 5 -8 19q0 5 1 8q4 18 17 31q15 12 32 12q13 0 20 -8q7 -6 7 -19q0 -5 -1 -8v-1zM258 11l120 613h-63l-4 -18q-20 10 -56 10q-118 0 -144 -134l-65 -335q0 -4 -1 -11.5t-2 -10.5q-1 -7 -1 -22q0 -96 100 -96q28 0 54 9l-1 -5h63zM219 145q-17 -83 -72 -83
q-42 0 -42 45q0 9 1 14q2 7 3 18l66 339q16 82 75 82q39 0 39 -44q0 -9 -1 -14l-3 -18z" />
    <glyph glyph-name="ae" unicode="&#xe6;" horiz-adv-x="462" 
d="M458 126l6 35h-65l-5 -32v1q-17 -83 -74 -83q-40 0 -40 44q0 18 4 33l34 177h175l30 160q1 3 2 10.5t1 11.5q1 7 1 22q0 96 -99 96q-59 0 -93 -34q-24 34 -82 34q-116 0 -142 -134l-8 -47h64l8 43q16 82 73 82q41 0 41 -44q0 -9 -1 -15q-1 -5 -3 -17l-18 -92
q-20 10 -56 10q-116 0 -141 -133l-24 -122q-5 -28 -5 -45q0 -95 99 -95q25 0 52 8l-1 -4h65l1 9q22 -13 58 -13q117 0 143 134zM213 103l1 1q-18 -57 -69 -57q-31 0 -38 18q-3 6 -3 19q0 11 2 18q0 3 1.5 10.5t1.5 11.5l24 127q17 80 73 80q42 0 42 -41v-6zM350 463
q16 82 73 82q41 0 41 -44q0 -9 -1 -15q-1 -5 -3 -17l-21 -107h-109z" />
    <glyph glyph-name="ccedilla" unicode="&#xe7;" horiz-adv-x="275" 
d="M283 126l15 80h-65l-14 -76q-17 -83 -74 -83q-40 0 -40 44q0 18 4 33l66 339q16 82 73 82q41 0 41 -44q0 -9 -1 -15q-2 -8 -3 -18v1l-16 -77h66l13 69q0 3 1 10.5t2 11.5q1 7 1 22q0 96 -99 96q-116 0 -142 -134l-65 -335q0 -4 -1 -11.5t-2 -10.5q-1 -7 -1 -22
q0 -82 72 -94l-14 -75h25q2 0 3 1h3h3q0 -1 2 -1q4 0 4 -1q0 -6 -1 -8l-7 -36q-3 -13 -11 -18h-63l-9 -51h62q33 0 51 15t26 48l8 43q0 1 1 4t1 4v9q0 36 -36 41l5 25q93 16 116 132z" />
    <glyph glyph-name="egrave" unicode="&#xe8;" 
d="M338 668l-47 153l-66 -30l47 -151zM283 141l6 35h-65l-5 -32v1q-17 -83 -74 -83q-40 0 -40 44q0 18 4 33l30 156l189 81l20 100q0 3 1 10.5t2 11.5q1 7 1 22q0 96 -99 96q-116 0 -142 -134l-65 -335q-5 -28 -5 -45q0 -95 99 -95q117 0 143 134zM175 478q16 82 73 82
q41 0 41 -44q0 -9 -1 -14l-3 -18l-14 -70l-119 -52z" />
    <glyph glyph-name="eacute" unicode="&#xe9;" 
d="M362 787l-57 33l-104 -148l58 -31zM283 141l6 35h-65l-5 -32v1q-17 -83 -74 -83q-40 0 -40 44q0 18 4 33l30 156l189 81l20 100q0 3 1 10.5t2 11.5q1 7 1 22q0 96 -99 96q-116 0 -142 -134l-65 -335q-5 -28 -5 -45q0 -95 99 -95q117 0 143 134zM175 478q16 82 73 82
q41 0 41 -44q0 -9 -1 -14l-3 -18l-14 -70l-119 -52z" />
    <glyph glyph-name="ecircumflex" unicode="&#xea;" 
d="M349 640l-19 186h-61l-90 -185h66l32 63l10 -62zM283 141l6 35h-65l-5 -32v1q-17 -83 -74 -83q-40 0 -40 44q0 18 4 33l30 156l189 81l20 100q0 3 1 10.5t2 11.5q1 7 1 22q0 96 -99 96q-116 0 -142 -134l-65 -335q-5 -28 -5 -45q0 -95 99 -95q117 0 143 134zM175 478
q16 82 73 82q41 0 41 -44q0 -9 -1 -14l-3 -18l-14 -70l-119 -52z" />
    <glyph glyph-name="edieresis" unicode="&#xeb;" 
d="M350 676l15 68h-63l-15 -68h63zM252 676l15 68h-63l-15 -68h63zM283 141l6 35h-65l-5 -32v1q-17 -83 -74 -83q-40 0 -40 44q0 18 4 33l30 156l189 81l20 100q0 3 1 10.5t2 11.5q1 7 1 22q0 96 -99 96q-116 0 -142 -134l-65 -335q-5 -28 -5 -45q0 -95 99 -95
q117 0 143 134zM175 478q16 82 73 82q41 0 41 -44q0 -9 -1 -14l-3 -18l-14 -70l-119 -52z" />
    <glyph glyph-name="igrave" unicode="&#xec;" horiz-adv-x="116" 
d="M88 0l118 604h-66l-118 -604h66zM253 668l-47 153l-65 -31l47 -151z" />
    <glyph glyph-name="iacute" unicode="&#xed;" horiz-adv-x="116" 
d="M88 0l118 604h-66l-118 -604h66zM277 787l-56 33l-104 -148l57 -32z" />
    <glyph glyph-name="icircumflex" unicode="&#xee;" horiz-adv-x="116" 
d="M88 0l118 604h-66l-118 -604h66zM264 640l-18 186h-62l-90 -185h66l32 63l10 -62z" />
    <glyph glyph-name="idieresis" unicode="&#xef;" horiz-adv-x="116" 
d="M88 0l118 604h-66l-118 -604h66zM267 676l15 68h-64l-15 -68h64zM168 676l15 68h-64l-15 -68h64z" />
    <glyph glyph-name="eth" unicode="&#xf0;" horiz-adv-x="359" 
d="M491 689q-90 -78 -111 -80h-3l18 93q5 28 5 45q0 94 -98 94q-119 0 -144 -133l-15 -81h66l15 77q16 81 73 81q41 0 41 -44q0 -9 -1 -14t-3 -17l-11 -57q-12 9 -27 11h-6q-37 0 -92 -49l-29 -95q97 81 114 81h3q1 0 22 -18v-1l-17 -93q-26 17 -59 17q-114 0 -139 -133
l-47 -241q0 -4 -1 -11.5t-2 -10.5q-1 -7 -1 -22q0 -96 100 -96q115 0 141 134l82 421h6q38 0 93 49zM221 130q-17 -83 -74 -83q-40 0 -40 44q0 18 4 33l47 244q16 82 68 82q45 0 45 -46q0 -13 -3 -31v1z" />
    <glyph glyph-name="ntilde" unicode="&#xf1;" 
d="M257 -8l92 472q1 3 2 11t1 11q1 7 1 22q0 96 -99 96q-31 0 -55 -9l2 9h-66l-120 -612h68l92 474q17 83 74 83q40 0 40 -44q0 -18 -4 -33l-94 -480h66zM441 815q-93 -81 -112 -81h-1q-10 2 -31 22q-31 29 -52 31h-6q-35 0 -91 -48l-29 -96q96 81 115 83q1 0 2 -1.5
t3.5 -3.5t4.5 -3q10 -8 18 -16l2 -2v1q14 -15 28 -22q11 -6 24 -8h5q40 0 93 50z" />
    <glyph glyph-name="ograve" unicode="&#xf2;" 
d="M283 126l65 335q0 3 1 10.5t2 11.5q1 7 1 22q0 96 -99 96q-116 0 -142 -134l-65 -335q-5 -28 -5 -45q0 -95 99 -95q117 0 143 134zM219 130q-17 -83 -74 -83q-40 0 -40 44q0 18 4 33l66 339q16 82 73 82q41 0 41 -44q0 -9 -1 -15q-1 -5 -3 -17zM338 668l-47 153l-66 -30
l47 -151z" />
    <glyph glyph-name="oacute" unicode="&#xf3;" 
d="M283 126l65 335q0 3 1 10.5t2 11.5q1 7 1 22q0 96 -99 96q-116 0 -142 -134l-65 -335q-5 -28 -5 -45q0 -95 99 -95q117 0 143 134zM219 130q-17 -83 -74 -83q-40 0 -40 44q0 18 4 33l66 339q16 82 73 82q41 0 41 -44q0 -9 -1 -15q-1 -5 -3 -17zM362 787l-57 33l-104 -148
l58 -31z" />
    <glyph glyph-name="ocircumflex" unicode="&#xf4;" 
d="M283 126l65 335q0 3 1 10.5t2 11.5q1 7 1 22q0 96 -99 96q-116 0 -142 -134l-65 -335q-5 -28 -5 -45q0 -95 99 -95q117 0 143 134zM219 130q-17 -83 -74 -83q-40 0 -40 44q0 18 4 33l66 339q16 82 73 82q41 0 41 -44q0 -9 -1 -15q-1 -5 -3 -17zM349 640l-19 186h-61
l-90 -185h66l32 63l10 -62z" />
    <glyph glyph-name="otilde" unicode="&#xf5;" 
d="M283 126l65 335q0 3 1 10.5t2 11.5q1 7 1 22q0 96 -99 96q-116 0 -142 -134l-65 -335q-5 -28 -5 -45q0 -95 99 -95q117 0 143 134zM219 130q-17 -83 -74 -83q-40 0 -40 44q0 18 4 33l66 339q16 82 73 82q41 0 41 -44q0 -9 -1 -15q-2 -8 -3 -18v1zM441 815
q-93 -81 -112 -81h-1q-10 2 -31 22q-31 29 -52 31h-6q-35 0 -91 -48l-29 -96q95 80 115 83q7 -1 28 -24l2 -2v1q14 -15 28 -22q11 -6 24 -8h5q40 0 93 50z" />
    <glyph glyph-name="odieresis" unicode="&#xf6;" 
d="M283 126l65 335q0 3 1 10.5t2 11.5q1 7 1 22q0 96 -99 96q-116 0 -142 -134l-65 -335q-5 -28 -5 -45q0 -95 99 -95q117 0 143 134zM219 130q-17 -83 -74 -83q-40 0 -40 44q0 18 4 33l66 339q16 82 73 82q41 0 41 -44q0 -9 -1 -15q-1 -5 -3 -17zM350 676l15 68h-63
l-15 -68h63zM252 676l15 68h-63l-15 -68h63z" />
    <glyph glyph-name="divide" unicode="&#xf7;" horiz-adv-x="377" 
d="M430 324l11 61h-360l-11 -61h360zM258 205l12 67h-64l-12 -67h64zM299 424l15 67h-64l-15 -67h64z" />
    <glyph glyph-name="oslash" unicode="&#xf8;" 
d="M283 126l65 335q2 16 4 23q0 4 0.5 12t0.5 11q0 21 -8 42l36 76h-68l-15 -32q-22 8 -45 8q-116 0 -142 -134l-65 -335q-2 -16 -4 -22q0 -4 -0.5 -11.5t-0.5 -11.5q0 -19 5 -39l-27 -63h67l6 16q21 -9 48 -9q117 0 143 134zM219 130q-17 -83 -74 -83q-20 0 -29 6l152 329z
M175 463q16 82 73 82q14 0 26 -5l-146 -319z" />
    <glyph glyph-name="ugrave" unicode="&#xf9;" 
d="M283 126l94 478h-66l-92 -474q-17 -83 -74 -83q-40 0 -40 44q0 18 4 33l94 480h-65l-92 -472q-5 -28 -5 -45q0 -95 99 -95q117 0 143 134zM338 668l-47 153l-66 -30l47 -151z" />
    <glyph glyph-name="uacute" unicode="&#xfa;" 
d="M283 126l94 478h-66l-92 -474q-17 -83 -74 -83q-40 0 -40 44q0 18 4 33l94 480h-65l-92 -472q-5 -28 -5 -45q0 -95 99 -95q117 0 143 134zM362 787l-57 33l-104 -148l58 -31z" />
    <glyph glyph-name="ucircumflex" unicode="&#xfb;" 
d="M283 126l94 478h-66l-92 -474q-17 -83 -74 -83q-40 0 -40 44q0 18 4 33l94 480h-65l-92 -472q-5 -28 -5 -45q0 -95 99 -95q117 0 143 134zM349 640l-19 186h-61l-90 -185h66l32 63l10 -62z" />
    <glyph glyph-name="udieresis" unicode="&#xfc;" 
d="M283 126l94 478h-66l-92 -474q-17 -83 -74 -83q-40 0 -40 44q0 18 4 33l94 480h-65l-92 -472q-5 -28 -5 -45q0 -95 99 -95q117 0 143 134zM350 676l15 68h-63l-15 -68h63zM252 676l15 68h-63l-15 -68h63z" />
    <glyph glyph-name="yacute" unicode="&#xfd;" 
d="M241 -98l135 697l1 5h-66l-92 -474q-17 -83 -74 -83q-40 0 -40 44q0 18 4 33l94 480h-65l-92 -472q-5 -28 -5 -45q0 -95 99 -95q31 0 55 9l-18 -96q-17 -81 -73 -81q-32 0 -40 18v-1q-2 10 -2 18q0 11 2 17q0 4 1.5 12t1.5 11l17 83h-67l-14 -74q-1 -3 -2 -11t-1 -11
q-1 -7 -1 -22q0 -95 100 -95q117 0 142 133zM362 787l-57 33l-104 -148l58 -31z" />
    <glyph glyph-name="thorn" unicode="&#xfe;" horiz-adv-x="275" 
d="M278 126l65 335q1 3 2 10.5t1 11.5q1 7 1 22q0 95 -100 95q-27 0 -53 -8l35 185h-63l-195 -1008h63l44 232q20 -10 56 -10q118 0 144 135zM214 129q-16 -82 -75 -82q-39 0 -39 42q0 17 4 34l65 339q17 83 73 83q41 0 41 -44q0 -18 -4 -33z" />
    <glyph glyph-name="ydieresis" unicode="&#xff;" 
d="M241 -98l135 697l1 5h-66l-92 -474q-17 -83 -74 -83q-40 0 -40 44q0 18 4 33l94 480h-65l-92 -472q-5 -28 -5 -45q0 -95 99 -95q31 0 55 9l-18 -96q-17 -81 -73 -81q-32 0 -40 18v-1q-2 10 -2 18q0 11 2 17q0 4 1.5 12t1.5 11l17 83h-67l-14 -74q-1 -3 -2 -11t-1 -11
q-1 -7 -1 -22q0 -95 100 -95q117 0 142 133zM350 676l15 68h-63l-15 -68h63zM252 676l15 68h-63l-15 -68h63z" />
    <glyph glyph-name="caron" unicode="&#x2c7;" 
d="M386 826h-65l-34 -63l-8 63h-62l18 -185h60z" />
    <glyph glyph-name="dotlessi" unicode="&#x131;" horiz-adv-x="116" 
d="M88 0l118 604h-66l-118 -604h66z" />
    <glyph glyph-name="fi" unicode="&#xfb01;" horiz-adv-x="261" 
d="M378 664l5 29q1 7 3 23q1 7 1 22q0 96 -100 96q-117 0 -143 -135l-136 -702h65l105 543h109l-106 -544h66l118 604h-175l19 96q17 81 73 81q32 0 40 -18v2q1 -2 1.5 -4.5t0.5 -4.5v-11q0 -11 -2 -17q0 -4 -1.5 -12t-1.5 -10l-8 -38h67z" />
    <glyph glyph-name="fl" unicode="&#xfb02;" horiz-adv-x="360" 
d="M328 0l166 858l-76 -64l-38 -194h-190l19 96q17 81 73 81q32 0 40 -18v2q1 -2 1.5 -4.5t0.5 -4.5v-11q0 -11 -2 -17q0 -4 -1.5 -12t-1.5 -10l-8 -38h67l5 29q1 7 3 23q1 7 1 22q0 96 -100 96q-117 0 -143 -135l-136 -702h65l105 543h190l-104 -540h64z" />
    <glyph glyph-name="Lslash" unicode="&#x141;" horiz-adv-x="246" 
d="M270 435l-14 58l-80 -37l73 378h-65l-80 -412l-108 -50l14 -58l81 37l-69 -351h237l10 56h-171l64 328z" />
    <glyph glyph-name="lslash" unicode="&#x142;" horiz-adv-x="116" 
d="M88 0l73 381l107 50l-14 58l-79 -37l79 406l-77 -63l-73 -376l-110 -50l17 -58l79 36l-68 -347h66z" />
    <glyph glyph-name="Zcaron" unicode="&#x17d;" horiz-adv-x="270" 
d="M426 834h-257l-10 -58h175l-335 -776h258l10 56h-175zM429 1037h-65l-34 -63l-8 63h-62l18 -185h60z" />
    <glyph glyph-name="zcaron" unicode="&#x17e;" horiz-adv-x="270" 
d="M393 605h-258l-13 -58h174l-297 -547h258l10 56h-173zM386 826h-65l-34 -63l-8 63h-62l18 -185h60z" />
    <glyph glyph-name="quotesinglbase" unicode="&#x201a;" horiz-adv-x="142" 
d="M110 71h-86l-12 -67h14l-30 -77h65l49 125v19z" />
    <glyph glyph-name="florin" unicode="&#x192;" horiz-adv-x="301" 
d="M435 728l2 9q3 15 3 31q0 73 -76 73q-95 0 -126 -115l-200 -727q-18 -65 -57 -65q-21 0 -21 23q0 7 3 20q0 5 1 6t1 2q1 2 1 3q0 3 1 4l6 28h-60l-6 -21v1l-4 -12l-1 -9v1q-3 -15 -3 -31q0 -72 76 -72q96 0 126 114h-1l146 531h71l17 57h-73l40 141q17 65 57 65
q21 0 21 -23q0 -6 -3 -20q0 -1 -1 -3t-1 -3q-2 -4 0 -3q0 -1 -1 -3t-1 -3v1l-8 -31h61l5 19q4 6 5 12z" />
    <glyph glyph-name="quotedblbase" unicode="&#x201e;" horiz-adv-x="225" 
d="M214 71h-87l-12 -67h15l-30 -77h65l49 125v19zM110 71h-86l-12 -67h14l-30 -77h65l49 125v19z" />
    <glyph glyph-name="ellipsis" unicode="&#x2026;" horiz-adv-x="457" 
d="M429 4l12 67h-64l-12 -67h64zM101 4l12 67h-63l-12 -67h63zM270 4l12 67h-63l-12 -67h63z" />
    <glyph glyph-name="dagger" unicode="&#x2020;" 
d="M373 644l11 55h-79l26 135h-62l-26 -135h-76l-11 -55h76l-133 -683h63l132 683h79z" />
    <glyph glyph-name="daggerdbl" unicode="&#x2021;" 
d="M262 71l10 56h-78l101 519h79l10 56h-78l25 132h-62l-25 -132h-76l-10 -56h75l-101 -519h-76l-10 -56h75l-22 -110h63l21 110h79z" />
    <glyph glyph-name="circumflex" unicode="&#x2c6;" horiz-adv-x="332" 
d="M360 573l-19 186h-61l-91 -185h67l32 63l10 -62z" />
    <glyph glyph-name="perthousand" unicode="&#x2030;" horiz-adv-x="792" 
d="M802 128l31 160q1 4 2 11t1 11q1 8 1 23q0 96 -100 96q-117 0 -142 -135l-31 -160q-6 -27 -6 -51q0 -35 13 -55q8 -10 11 -14t8 -9q19 -10 46 -10q40 0 67 7q30 6 47 22q20 16 32 41q13 27 20 63zM555 128l31 160q2 16 4 22q0 4 0.5 11.5t0.5 11.5q0 96 -99 96
q-118 0 -143 -135l-31 -160q-6 -27 -6 -50q0 -32 15 -55h-1q10 -16 20 -24q17 -10 45 -10q40 0 67 7q27 6 46 22t31 41q13 27 20 63zM368 537l31 160q1 4 2 11.5t1 10.5q1 7 1 22q0 95 -100 95q-116 0 -141 -133l-31 -160q0 -1 -1.5 -9.5t-1.5 -13.5q-2 -6 -2 -22
q0 -96 98 -96q118 0 144 135zM649 841h-68l-518 -849h68zM491 132q-16 -82 -73 -82q-32 0 -40 17q-1 1 -1.5 3.5t-0.5 3.5v11q0 11 2 18q0 4 1.5 12.5t1.5 11.5v-1l32 165q17 80 73 80q41 0 41 -43q0 -9 -1 -14t-3 -17zM737 132q-16 -82 -74 -82q-31 0 -39 17v-1
q-2 14 -2 20q0 11 2 18q0 3 1.5 11.5t1.5 11.5v-1l32 165q17 80 72 80q42 0 42 -44q0 -9 -1 -14q0 -3 -1 -8t-2 -8zM303 540q-17 -81 -74 -81q-33 0 -39 22q-1 1 -1 16q0 10 1 16q2 9 3 21l33 165q16 81 72 81q42 0 42 -44q0 -9 -1 -14l-3 -18v1z" />
    <glyph glyph-name="Scaron" unicode="&#x160;" 
d="M338 412h-3q0 89 -99 89q-41 0 -41 45q0 9 1 14q2 8 3 18l25 126q16 82 73 82q41 0 41 -44q0 -9 -1 -14l-3 -18l-17 -83h64l14 75q5 28 5 45q0 94 -98 94q-119 0 -144 -133l-23 -121q-1 -7 -3 -23q-1 -7 -1 -22q0 -96 100 -96q43 0 43 -36q0 -8 -3 -21l-50 -259
q-17 -81 -73 -81q-41 0 -41 44q0 8 1 13q2 8 3 18l14 77h-66l-13 -69q0 -4 -1 -11.5t-2 -10.5q-1 -7 -1 -22q0 -96 100 -96q115 0 141 134zM425 1028l-65 -2l-34 -63l-8 64h-62l18 -185h60z" />
    <glyph glyph-name="guilsinglleft" unicode="&#x2039;" horiz-adv-x="325" 
d="M321 127l16 72l-149 148l206 147l14 79l-299 -205l-6 -36z" />
    <glyph glyph-name="OE" unicode="&#x152;" horiz-adv-x="449" 
d="M430 0l10 56h-170l77 395h171l11 55h-171l52 271h171l10 57h-234l-1 -4q-25 11 -56 11q-117 0 -142 -133l-112 -576q-5 -28 -5 -45q0 -95 99 -95q32 0 55 10v-2h235zM219 130q-17 -83 -74 -83q-40 0 -40 44q0 18 4 33l113 580q16 81 73 81q41 0 41 -44q0 -9 -1 -14
t-3 -17z" />
    <glyph glyph-name="quoteleft" unicode="&#x2018;" horiz-adv-x="142" 
d="M252 627l19 95h-37l53 114h-66l-86 -183l-9 -26h126z" />
    <glyph glyph-name="quoteright" unicode="&#x2019;" horiz-adv-x="142" 
d="M311 836h-142l-19 -95h36l-53 -114h66l85 182z" />
    <glyph glyph-name="quotedblleft" unicode="&#x201c;" horiz-adv-x="289" 
d="M400 627l19 95h-37l53 114h-66l-87 -185l2 2l-17 -26h133zM252 627l19 95h-37l53 114h-66l-86 -183l-9 -26h126z" />
    <glyph glyph-name="quotedblright" unicode="&#x201d;" horiz-adv-x="289" 
d="M459 836h-143l-19 -95h37l-54 -114h67l85 182zM311 836h-142l-19 -95h36l-53 -114h66l85 182z" />
    <glyph glyph-name="bullet" unicode="&#x2022;" horiz-adv-x="200" 
d="M215 292l26 132h-130l-26 -132h130z" />
    <glyph glyph-name="endash" unicode="&#x2013;" horiz-adv-x="507" 
d="M586 327l9 54h-541l-9 -54h541z" />
    <glyph glyph-name="emdash" unicode="&#x2014;" horiz-adv-x="886" 
d="M964 327l9 54h-919l-9 -54h919z" />
    <glyph glyph-name="tilde" unicode="&#x2dc;" horiz-adv-x="327" 
d="M468 818q-57 -48 -77 -62q-29 -20 -38 -20q-8 3 -13 6q-4 2 -17 15q-30 33 -52 34h-4q-9 0 -20 -3l-21 -9q-20 -9 -54 -40l-25 -93q91 79 112 83q9 -4 24 -19l9 -6l-3 1q29 -29 53 -31h5q37 0 92 48z" />
    <glyph glyph-name="trademark" unicode="&#x2122;" horiz-adv-x="719" 
d="M779 437l76 397h-61l-191 -229l-98 229h-58l-76 -397h64l53 275l80 -187h45l155 181l-53 -269h64zM405 776l10 58h-270l-10 -58h102l-66 -339h66l65 339h103z" />
    <glyph glyph-name="scaron" unicode="&#x161;" 
d="M310 259h-4q-2 90 -100 90q-40 0 -40 45q0 11 2 18q0 4 1.5 12t1.5 10l6 29q16 82 73 82q41 0 41 -44q0 -9 -1 -15q-1 -5 -3 -17l-12 -65h63l10 57q5 28 5 45q0 95 -98 95q-121 0 -144 -135v1l-6 -34q-4 -17 -4 -45q0 -100 99 -100q44 0 44 -32v-9q0 -1 -1 -5t-1 -5
l-21 -107q-17 -81 -73 -81q-41 0 -41 44q0 8 1 13q2 8 3 18l14 77h-66l-13 -69q0 -4 -1 -11.5t-2 -10.5q-1 -7 -1 -22q0 -96 100 -96q115 0 141 134zM386 826h-65l-34 -63l-8 63h-62l18 -185h60z" />
    <glyph glyph-name="guilsinglright" unicode="&#x203a;" horiz-adv-x="325" 
d="M362 329l6 36l-220 206l-14 -75l149 -146l-206 -147l-17 -80z" />
    <glyph glyph-name="oe" unicode="&#x153;" horiz-adv-x="456" 
d="M458 126l6 35h-65l-5 -32v1q-17 -83 -74 -83q-40 0 -40 44q0 18 4 33l34 177h175l30 160q1 3 2 10.5t1 11.5q1 7 1 22q0 96 -99 96q-59 0 -93 -34q-24 34 -82 34q-116 0 -142 -134l-65 -335q-5 -28 -5 -45q0 -95 99 -95q58 0 93 33q24 -33 82 -33q117 0 143 134zM219 130
q-17 -83 -74 -83q-40 0 -40 44q0 18 4 33l66 339q16 82 73 82q41 0 41 -44q0 -9 -1 -15q-1 -5 -3 -17zM350 463q16 82 73 82q41 0 41 -44q0 -9 -1 -15q-1 -5 -3 -17l-21 -107h-109z" />
    <glyph glyph-name="Ydieresis" unicode="&#x178;" horiz-adv-x="280" 
d="M450 834h-68l-143 -301l-22 301h-67l37 -404l-83 -430h65l82 424zM391 889l12 67h-64l-12 -67h64zM292 889l12 67h-63l-12 -67h63z" />
    <glyph glyph-name="macron" unicode="&#xaf;" horiz-adv-x="266" 
d="M405 891l13 64h-204l-13 -64h204z" />
    <glyph glyph-name="mu" unicode="&#x3bc;" 
d="M242 -119l8 44q-60 0 -60 43q0 8 1 13t3 17v4q36 14 58 44q21 31 31 80l94 478h-66l-92 -474q-17 -83 -74 -83q-40 0 -40 44q0 18 4 33l94 480h-65l-160 -818h65l42 218q19 -10 44 -12q-1 -5 -1 -13v-13q0 -97 99 -97z" />
    <glyph glyph-name="minus" unicode="&#x2212;" horiz-adv-x="384" 
d="M431 350l13 64h-348l-13 -64h348z" />
    <glyph glyph-name="apple" horiz-adv-x="884" 
d="M693 960l-20 16l-175 -137l-57 -136l1 -32l-52 13l-86 19l-190 -85l-69 -201l121 -334l151 -103l144 36l62 -17l78 -20l150 92l97 181l-106 -7l2 99h-97l41 62l-50 52l119 26l-37 76l128 36l-237 109l-88 -21l-27 -8l102 54l53 128z" />
  </font>
</defs>
</svg>
