<?xml version="1.0" standalone="no"?>
<!DOCTYPE svg PUBLIC "-//W3C//DTD SVG 1.1//EN" "http://www.w3.org/Graphics/SVG/1.1/DTD/svg11.dtd" >
<svg>
<metadata>
Created by FontForge 20120731 at Fri Oct  6 11:38:38 2017
 By www-data
Generated by Fonts 4 Web (http://fonts4web.org.uk) on behalf of:Company: Lukey ShawName: Lukey ShaweMail: lukey@snails.emailThis is licensed under Creative Commons - Share Alike which legal transcript can be found at: https://creativecommons.org/licenses/by-sa/4.0/legalcode
</metadata>
<defs>
<font id="labtopunicase" horiz-adv-x="285" >
  <font-face 
    font-family="Labtop Unicase"
    font-weight="400"
    font-stretch="normal"
    units-per-em="1000"
    panose-1="2 0 5 3 0 0 0 0 0 0"
    ascent="800"
    descent="-200"
    x-height="804"
    cap-height="802"
    bbox="-88 -264 887 1018"
    underline-thickness="31"
    underline-position="-75"
    unicode-range="U+000D-2212"
  />
<missing-glyph horiz-adv-x="500" 
 />
    <glyph glyph-name=".notdef" horiz-adv-x="500" 
 />
    <glyph glyph-name=".null" horiz-adv-x="0" 
 />
    <glyph glyph-name=".null" horiz-adv-x="0" 
 />
    <glyph glyph-name="nonmarkingreturn" unicode="&#xd;" horiz-adv-x="500" 
 />
    <glyph glyph-name="space" unicode=" " horiz-adv-x="175" 
 />
    <glyph glyph-name="exclam" unicode="!" horiz-adv-x="142" 
d="M89 121v683h-34v-683h34zM87 -1v37h-31v-37h31z" />
    <glyph glyph-name="quotedbl" unicode="&#x22;" horiz-adv-x="245" 
d="M192 591v193h-38v-193h38zM94 591v193h-38v-193h38z" />
    <glyph glyph-name="numbersign" unicode="#" horiz-adv-x="399" 
d="M382 437l-100 -1l12 129h-34l-11 -129l-77 -1l12 129h-33l-12 -129h-100l-4 -34l101 1l-10 -103h-100l-4 -34l102 1l-12 -129h33l11 129h76l-11 -127h34l11 127l101 1l3 33h-100l9 104h101zM245 402l-9 -102l-76 -1l10 103h75z" />
    <glyph glyph-name="dollar" unicode="$" 
d="M246 382h-1q-9 83 -85 89v314q54 -7 54 -93v-65h32v63q0 113 -86 121v45h-30v-45q-91 -6 -91 -121v-121q0 -116 91 -122v-427q-56 6 -56 92v59h-35v-57q0 -115 91 -122v-42h30v42q86 8 86 122v268zM214 112q0 -84 -54 -92v425q54 -9 54 -74v-259zM130 472q-56 8 -56 94
v126q0 87 56 93v-313z" />
    <glyph glyph-name="percent" unicode="%" horiz-adv-x="577" 
d="M235 525v160q0 121 -105 121q-103 0 -103 -121v-160q0 -123 103 -123q105 0 105 123zM550 116v160q0 123 -104 123q-102 0 -102 -123v-160q0 -66 23 -94l13 -13q4 -3 9 -8q11 -6 36 -6q70 0 97 27q28 25 28 94zM516 114q0 -94 -70 -94q-41 0 -59 27q-5 13 -8 27
q-3 17 -3 40v165q0 92 70 92t70 -92v-165zM200 522q0 -93 -70 -93q-44 0 -58 27q-11 24 -11 66v165q0 93 69 93q70 0 70 -93v-165zM464 811h-32l-340 -819h32z" />
    <glyph glyph-name="ampersand" unicode="&#x26;" 
d="M327 -109v26q-70 0 -70 94v233h-1q-6 105 -104 105v-27q70 0 70 -92v-135q0 -46 -23 -63q-21 -15 -68 -15q-70 0 -70 95v248q0 56 11 67q28 28 70 28q72 0 93 50q11 27 11 71v114q0 121 -104 121q-103 0 -103 -121v-114q0 -88 46 -109q-37 -18 -48 -42q-8 -21 -8 -66
v-245q0 -122 102 -122q65 0 91 20q3 -121 105 -121zM212 574q0 -94 -70 -94t-70 94v118q0 93 70 93t70 -93v-118z" />
    <glyph glyph-name="quotesingle" unicode="'" horiz-adv-x="150" 
d="M94 591v193h-38v-193h38z" />
    <glyph glyph-name="parenleft" unicode="(" horiz-adv-x="150" 
d="M142 -231v25q-41 1 -58 27q-12 21 -12 66v859q0 48 12 66q6 11 22 20q17 7 36 8v26q-60 -3 -82 -34q-21 -27 -21 -87v-855q0 -59 21 -88q22 -31 82 -33z" />
    <glyph glyph-name="parenright" unicode=")" horiz-adv-x="150" 
d="M142 -110v855q0 60 -21 87q-22 31 -82 34v-26q44 -5 58 -28q12 -18 12 -66v-859q0 -45 -12 -66q-17 -26 -58 -27v-25q60 2 82 33q21 29 21 88z" />
    <glyph glyph-name="asterisk" unicode="*" horiz-adv-x="356" 
d="M317 691l-18 34l-103 -59v118h-37v-118l-103 59l-19 -34l102 -59l-102 -58l19 -34l103 60v-119h37v119l103 -60l18 34l-101 58z" />
    <glyph glyph-name="plus" unicode="+" horiz-adv-x="366" 
d="M348 324v31h-148v147h-32v-147h-148v-31h148v-149h32v149h148z" />
    <glyph glyph-name="comma" unicode="," horiz-adv-x="142" 
d="M87 41h-58v-37h18l-15 -77h33l22 112v2z" />
    <glyph glyph-name="hyphen" unicode="-" horiz-adv-x="270" 
d="M231 324v31h-192v-31h192z" />
    <glyph glyph-name="period" unicode="." horiz-adv-x="142" 
d="M87 4v37h-32v-37h32z" />
    <glyph glyph-name="slash" unicode="/" horiz-adv-x="291" 
d="M287 811h-33l-248 -811h33z" />
    <glyph glyph-name="zero" unicode="0" 
d="M246 114v576q0 121 -104 121q-103 0 -103 -121v-576q0 -122 103 -122q104 0 104 122zM212 112q0 -95 -70 -95q-60 0 -68 69l138 518v-492zM211 722l-139 -517v487q0 93 70 93q60 0 69 -63z" />
    <glyph glyph-name="one" unicode="1" horiz-adv-x="132" 
d="M111 0v31h-27v773l-69 -28v-31l35 14v-728h-26v-31h87z" />
    <glyph glyph-name="two" unicode="2" horiz-adv-x="272" 
d="M246 0v27h-174v329q0 22 3 34q3 14 11 22q10 10 22 12q11 5 34 7q61 6 83 25q21 21 21 83v151q0 121 -104 121q-103 0 -103 -121v-58h33v60q0 93 70 93t70 -93v-151q0 -51 -15 -64q-11 -11 -66 -17q-24 -1 -44 -8q-18 -7 -29 -20q-12 -15 -14 -30q-5 -16 -5 -45v-357h207
z" />
    <glyph glyph-name="three" unicode="3" horiz-adv-x="265" 
d="M234 114v251q0 79 -59 96q59 20 59 98v131q0 121 -104 121q-103 0 -103 -121v-58h33v60q0 93 70 93t70 -93v-130q0 -50 -13 -67q-17 -20 -67 -20h-33v-26h33q48 0 65 -20q15 -18 15 -68v-249q0 -95 -70 -95t-70 95v64h-33v-62q0 -122 103 -122q104 0 104 122z" />
    <glyph glyph-name="four" unicode="4" horiz-adv-x="273" 
d="M273 449v26h-53v329h-35l-182 -355h184v-449h33v449h53zM187 475h-132l132 259v-259z" />
    <glyph glyph-name="five" unicode="5" 
d="M246 114v238q0 68 -19 93q-22 31 -87 31h-68v300h174v28h-207v-354h93q50 0 67 -20q13 -17 13 -69v-249q0 -95 -70 -95t-70 95v64h-33v-62q0 -122 103 -122q104 0 104 122z" />
    <glyph glyph-name="six" unicode="6" 
d="M246 114v241q0 121 -100 121q-41 0 -74 -30v246q0 93 70 93t70 -93v-65h34v63q0 121 -104 121q-103 0 -103 -121v-576q0 -122 103 -122q104 0 104 122zM212 112q0 -95 -70 -95t-70 95v244q0 94 74 94q66 0 66 -94v-244z" />
    <glyph glyph-name="seven" unicode="7" horiz-adv-x="222" 
d="M222 804h-207v-28h168l-178 -776h31z" />
    <glyph glyph-name="eight" unicode="8" 
d="M246 114v245q0 86 -46 108q46 22 46 109v114q0 121 -104 121q-103 0 -103 -121v-114q0 -88 46 -109q-46 -22 -46 -108v-245q0 -122 103 -122q104 0 104 122zM212 112q0 -95 -70 -95t-70 95v248q0 94 70 94t70 -94v-248zM212 574q0 -94 -70 -94t-70 94v118q0 93 70 93
t70 -93v-118z" />
    <glyph glyph-name="nine" unicode="9" 
d="M246 114v576q0 121 -104 121q-103 0 -103 -121v-123q0 -120 95 -120q48 0 78 30v-365q0 -95 -70 -95t-70 95v64h-33v-62q0 -122 103 -122q104 0 104 122zM212 567q0 -93 -73 -93q-67 0 -67 93v125q0 93 70 93t70 -93v-125z" />
    <glyph glyph-name="colon" unicode=":" horiz-adv-x="142" 
d="M87 326v38h-32v-38h32zM87 4v37h-32v-37h32z" />
    <glyph glyph-name="semicolon" unicode=";" horiz-adv-x="142" 
d="M87 41h-58v-37h18l-15 -77h33l22 112v2zM87 326v38h-32v-38h32z" />
    <glyph glyph-name="less" unicode="&#x3c;" horiz-adv-x="441" 
d="M395 141v38l-279 155l279 153v39l-339 -181v-23z" />
    <glyph glyph-name="equal" unicode="=" horiz-adv-x="641" 
d="M571 246v35h-501v-35h501zM571 386v34h-501v-34h501z" />
    <glyph glyph-name="greater" unicode="&#x3e;" horiz-adv-x="441" 
d="M395 322v23l-339 181v-39l279 -153l-279 -155v-38z" />
    <glyph glyph-name="question" unicode="?" horiz-adv-x="251" 
d="M212 571v119q0 121 -104 121q-105 0 -105 -121v-58h35v60q0 93 70 93t70 -93v-122q0 -55 -16 -74q-18 -21 -71 -21v-354h34v330q48 6 71 39q16 25 16 81zM123 4v37h-32v-37h32z" />
    <glyph glyph-name="at" unicode="@" horiz-adv-x="659" 
d="M626 392q0 146 -85 243q-74 80 -183 80q-166 0 -261 -170q-66 -117 -66 -274q0 -187 99 -296q78 -88 205 -88q119 0 213 105l-8 19q-97 -94 -209 -94q-133 0 -206 112q-62 92 -62 235q0 206 107 330q76 90 186 90q115 0 181 -89q59 -83 59 -201q0 -184 -56 -270
q-41 -59 -88 -59q-40 0 -40 44l39 321q1 5 1 14q1 5 1 13q0 95 -92 95q-104 0 -116 -122l-2 -8h33q7 53 26 78q21 25 55 25q72 0 60 -93l-7 -70q-22 20 -68 20q-105 0 -117 -121q-2 -13 -3.5 -28t-1.5 -17v-19q0 -92 90 -92q46 0 71 19l1 -27q2 -65 64 -65q54 0 100 54
q39 44 60 135q10 38 16 85q4 56 4 86zM400 290l-10 -94q-15 -66 -77 -66q-13 0 -21 4q-11 4 -20 10q-10 7 -14 14q-6 6 -6 15l6 89q3 49 24 71q21 23 56 23q62 0 62 -66z" />
    <glyph glyph-name="A" unicode="A" horiz-adv-x="280" 
d="M270 0l-116 804h-28l-116 -804h30l55 379h89l53 -379h33zM180 410h-81l41 285z" />
    <glyph glyph-name="B" unicode="B" horiz-adv-x="279" 
d="M244 125v241q0 80 -57 98q57 19 57 97v131q0 112 -105 112h-101v-804h101q66 0 88 30q17 26 17 95zM212 114q0 -52 -15 -68q-17 -20 -67 -20h-58v425h58q50 0 67 -20q15 -16 15 -67v-250zM212 565q0 -53 -15 -69q-17 -20 -67 -20h-58v301h58q50 0 67 -20q15 -17 15 -68
v-124z" />
    <glyph glyph-name="C" unicode="C" horiz-adv-x="265" 
d="M246 114v62h-34v-64q0 -95 -70 -95t-70 95v580q0 93 70 93t70 -93v-60h34v58q0 121 -104 121q-103 0 -103 -121v-576q0 -122 103 -122q104 0 104 122z" />
    <glyph glyph-name="D" unicode="D" horiz-adv-x="277" 
d="M246 111v568q0 70 -19 92q-10 16 -33 25q-22 8 -54 8h-101v-804h101q106 0 106 111zM212 114q0 -51 -13 -68q-17 -20 -67 -20h-60v750h60q49 0 65 -19q15 -17 15 -67v-576z" />
    <glyph glyph-name="E" unicode="E" horiz-adv-x="257" 
d="M242 0v26h-170v425h170v25h-170v301h170v27h-204v-804h204z" />
    <glyph glyph-name="F" unicode="F" horiz-adv-x="250" 
d="M247 776v28h-204v-804h34v452h147v27h-147v297h170z" />
    <glyph glyph-name="G" unicode="G" 
d="M246 114v365h-90v-32h56v-335q0 -95 -70 -95t-70 95v580q0 93 70 93t70 -93v-60h34v58q0 121 -104 121q-103 0 -103 -121v-576q0 -122 103 -122q104 0 104 122z" />
    <glyph glyph-name="H" unicode="H" horiz-adv-x="281" 
d="M248 0v804h-32v-328h-140v328h-34v-804h34v451h140v-451h32z" />
    <glyph glyph-name="I" unicode="I" horiz-adv-x="111" 
d="M95 1v31h-22v739h22v31h-76v-31h21v-739h-21v-31h76z" />
    <glyph glyph-name="J" unicode="J" horiz-adv-x="265" 
d="M226 114v690h-34v-692q0 -95 -70 -95q-42 0 -58 28q-12 21 -12 67v64h-35v-62q0 -122 105 -122q104 0 104 122z" />
    <glyph glyph-name="K" unicode="K" horiz-adv-x="295" 
d="M250 0v366q0 80 -57 98q57 19 57 97v243h-32v-239q0 -53 -15 -69q-17 -20 -67 -20h-58v328h-34v-804h34v451h58q50 0 67 -20q15 -16 15 -67v-364h32z" />
    <glyph glyph-name="L" unicode="L" horiz-adv-x="246" 
d="M246 0v26h-171v778h-34v-804h205z" />
    <glyph glyph-name="M" unicode="M" horiz-adv-x="459" 
d="M419 0v804h-35l-157 -679l-151 679h-35v-804h34v666l139 -617h27l145 625v-674h33z" />
    <glyph glyph-name="N" unicode="N" horiz-adv-x="287" 
d="M260 0l-5 804h-33v-639l-145 637h-2v2h-34v-804h34v666l147 -649v-17h38z" />
    <glyph glyph-name="O" unicode="O" 
d="M246 114v576q0 121 -104 121q-103 0 -103 -121v-576q0 -122 103 -122q104 0 104 122zM212 112q0 -95 -70 -95t-70 95v580q0 93 70 93t70 -93v-580z" />
    <glyph glyph-name="P" unicode="P" horiz-adv-x="280" 
d="M254 562v117q0 67 -17 93q-23 32 -88 32h-101v-804h34v452h67q105 0 105 110zM222 566q0 -51 -15 -69q-18 -18 -67 -18h-58v297h58q49 0 67 -19q15 -17 15 -67v-124z" />
    <glyph glyph-name="Q" unicode="Q" 
d="M246 114v576q0 121 -104 121q-103 0 -103 -121v-576q0 -116 92 -122v-51q0 -121 104 -121v26q-70 0 -70 93v55q81 10 81 120zM212 112q0 -81 -47 -92v344q0 115 -93 121v207q0 93 70 93t70 -93v-580zM131 19q-59 5 -59 93v347q59 -6 59 -93v-347z" />
    <glyph glyph-name="R" unicode="R" horiz-adv-x="298" 
d="M250 0v356q0 83 -57 104q57 16 57 97v122q0 67 -17 93q-23 32 -88 32h-101v-804h34v441h58q46 0 65 -22q17 -17 17 -67v-352h32zM218 560q0 -50 -15 -68q-18 -20 -67 -20h-58v304h58q49 0 67 -19q15 -17 15 -67v-130z" />
    <glyph glyph-name="S" unicode="S" horiz-adv-x="267" 
d="M236 382h-1q-9 89 -101 89q-70 0 -70 95v126q0 94 70 94t70 -94v-65h32v63q0 121 -102 121q-105 0 -105 -121v-121q0 -123 105 -123q70 0 70 -75v-259q0 -93 -70 -93t-70 93v59h-35v-57q0 -122 105 -122q102 0 102 122v268z" />
    <glyph glyph-name="T" unicode="T" horiz-adv-x="274" 
d="M265 776v28h-256v-28h113v-776h34v776h109z" />
    <glyph glyph-name="U" unicode="U" 
d="M246 114v690h-34v-692q0 -95 -70 -95t-70 95v692h-33v-690q0 -122 103 -122q104 0 104 122z" />
    <glyph glyph-name="V" unicode="V" horiz-adv-x="280" 
d="M270 804h-34l-96 -674l-96 674h-34l116 -804h28z" />
    <glyph glyph-name="W" unicode="W" horiz-adv-x="459" 
d="M420 114v690h-34v-692q0 -95 -70 -95q-40 0 -59 84q-11 58 -11 120v583h-34v-583q0 -23 -2 -63q-3 -33 -10 -57q-20 -84 -58 -84q-70 0 -70 95v692h-33v-690q0 -62 25.5 -92.5t77.5 -29.5q52 0 74 63q9 21 14 70q0 -4 0.5 -11.5t1.5 -10.5q0 -8 2 -14q9 -94 82 -97
q52 -1 78 29.5t26 92.5z" />
    <glyph glyph-name="X" unicode="X" horiz-adv-x="280" 
d="M270 0l-113 404l113 400h-34l-96 -344l-93 344h-37l112 -393l-112 -411h34l95 349l93 -349h38z" />
    <glyph glyph-name="Y" unicode="Y" horiz-adv-x="267" 
d="M265 804h-34l-96 -344l-93 344h-37l112 -390v-414h34v412z" />
    <glyph glyph-name="Z" unicode="Z" horiz-adv-x="262" 
d="M244 804h-221v-28h180l-184 -776h222v26h-180z" />
    <glyph glyph-name="bracketleft" unicode="[" horiz-adv-x="150" 
d="M140 -224v25h-65v1030h65v26h-99v-1081h99z" />
    <glyph glyph-name="backslash" unicode="\" horiz-adv-x="291" 
d="M287 0l-248 811h-33l248 -811h33z" />
    <glyph glyph-name="bracketright" unicode="]" horiz-adv-x="150" 
d="M140 -224v1081h-99v-26h65v-1030h-65v-25h99z" />
    <glyph glyph-name="asciicircum" unicode="^" horiz-adv-x="332" 
d="M220 536l-40 258h-28l-40 -258h33l21 134l21 -134h33z" />
    <glyph glyph-name="underscore" unicode="_" horiz-adv-x="558" 
d="M559 -100v33h-560v-33h560z" />
    <glyph glyph-name="grave" unicode="`" horiz-adv-x="150" 
d="M122 665l-63 124l-34 -18l62 -124z" />
    <glyph glyph-name="a" unicode="a" 
d="M246 683q0 122 -104 122q-103 0 -103 -122v-29h33v31q0 94 70 94t70 -94v-212q-23 20 -70 20q-103 0 -103 -121v-258q0 -122 103 -122q44 0 69 19v-15h34zM211 85q-8 -68 -69 -68q-42 0 -58 28q-12 21 -12 67v263q0 92 70 92q61 0 69 -65v-317z" />
    <glyph glyph-name="b" unicode="b" horiz-adv-x="275" 
d="M246 114v336q0 122 -104 122q-45 0 -70 -20v251h-33v-807h33v16q26 -20 70 -20q104 0 104 122zM212 112q0 -95 -70 -95t-70 95v340q0 94 70 94t70 -94v-340z" />
    <glyph glyph-name="c" unicode="c" horiz-adv-x="265" 
d="M246 114v62h-34v-64q0 -95 -70 -95t-70 95v580q0 93 70 93t70 -93v-60h34v58q0 121 -104 121q-103 0 -103 -121v-576q0 -122 103 -122q104 0 104 122z" />
    <glyph glyph-name="d" unicode="d" 
d="M246 -4v807h-32v-243q-25 20 -70 20q-105 0 -105 -122v-344q0 -122 105 -122q44 0 70 20v-16h32zM212 112q0 -95 -68 -95q-72 0 -72 95v348q0 94 72 94q68 0 68 -94v-348z" />
    <glyph glyph-name="e" unicode="e" horiz-adv-x="278" 
d="M246 114v17h-34v-19q0 -95 -70 -95t-70 95v342h174v227q0 122 -104 122q-103 0 -103 -122v-567q0 -122 103 -122q104 0 104 122zM212 485h-140v198q0 94 70 94t70 -94v-198z" />
    <glyph glyph-name="f" unicode="f" horiz-adv-x="254" 
d="M253 664v17q0 123 -105 123q-104 0 -104 -123v-682h34v541h136v30h-136v114q0 93 70 93q42 0 59 -27q11 -24 11 -66v-20h35z" />
    <glyph glyph-name="g" unicode="g" 
d="M247 121v682h-33v-19q-26 21 -72 21q-103 0 -103 -122v-280q0 -122 103 -122q46 0 72 20v-183q0 -93 -70 -93q-42 0 -59 27q-11 20 -11 66v65h-35v-62q0 -121 105 -121q103 0 103 121zM212 401q0 -95 -70 -95t-70 95v284q0 94 70 94t70 -94v-284z" />
    <glyph glyph-name="h" unicode="h" 
d="M246 -8v460q0 122 -104 122q-46 0 -72 -23v253h-34v-812h36v462q0 95 70 95t70 -95v-462h34z" />
    <glyph glyph-name="i" unicode="i" horiz-adv-x="116" 
d="M75 0v681h-34v-681h34zM75 771v32h-34v-32h34z" />
    <glyph glyph-name="j" unicode="j" horiz-adv-x="104" 
d="M68 121v555h-32v-558q0 -93 -71 -93v-25q103 0 103 121zM71 772v32h-33v-32h33z" />
    <glyph glyph-name="k" unicode="k" horiz-adv-x="295" 
d="M250 0v366q0 80 -57 98q57 19 57 97v243h-32v-239q0 -53 -15 -69q-17 -20 -67 -20h-58v328h-34v-804h34v451h58q50 0 67 -20q15 -16 15 -67v-364h32z" />
    <glyph glyph-name="l" unicode="l" horiz-adv-x="116" 
d="M75 0v804l-34 -33v-771h34z" />
    <glyph glyph-name="m" unicode="m" horiz-adv-x="452" 
d="M421 -8v689q0 122 -104 122q-65 0 -87 -42q-24 42 -88 42q-46 0 -72 -23v23h-34v-811h36v691q0 95 70 95t70 -95v-691h35v691q0 95 70 95t70 -95v-691h34z" />
    <glyph glyph-name="n" unicode="n" horiz-adv-x="279" 
d="M246 -8v689q0 122 -104 122q-46 0 -72 -23v23h-34v-811h36v691q0 95 70 95t70 -95v-691h34z" />
    <glyph glyph-name="o" unicode="o" 
d="M246 114v576q0 121 -104 121q-103 0 -103 -121v-576q0 -122 103 -122q104 0 104 122zM212 112q0 -95 -70 -95t-70 95v580q0 93 70 93t70 -93v-580z" />
    <glyph glyph-name="p" unicode="p" horiz-adv-x="280" 
d="M254 562v117q0 67 -17 93q-23 32 -88 32h-101v-804h34v452h67q105 0 105 110zM222 566q0 -51 -15 -69q-18 -18 -67 -18h-58v297h58q49 0 67 -19q15 -17 15 -67v-124z" />
    <glyph glyph-name="q" unicode="q" horiz-adv-x="275" 
d="M241 -5v809h-34v-16q-23 20 -70 20q-103 0 -103 -121v-347q0 -123 103 -123q47 0 70 20v-242h34zM207 337q0 -94 -70 -94t-70 94v351q0 95 70 95t70 -95v-351z" />
    <glyph glyph-name="r" unicode="r" horiz-adv-x="259" 
d="M247 576v99q0 58 -19 93q-22 31 -73 31q-18 0 -45 -5q-23 -6 -35 -15v24h-36v-806h35v297v223v143q1 33 1 53q13 58 67 58q44 0 58 -25q12 -27 12 -68v-102h35z" />
    <glyph glyph-name="s" unicode="s" horiz-adv-x="267" 
d="M236 382h-1q-9 89 -101 89q-70 0 -70 95v126q0 94 70 94t70 -94v-65h32v63q0 121 -102 121q-105 0 -105 -121v-121q0 -123 105 -123q70 0 70 -75v-259q0 -93 -70 -93t-70 93v59h-35v-57q0 -122 105 -122q102 0 102 122v268z" />
    <glyph glyph-name="t" unicode="t" horiz-adv-x="190" 
d="M186 574v30h-111v199h-34v-803h34v574h111z" />
    <glyph glyph-name="u" unicode="u" 
d="M246 114v690h-34v-692q0 -95 -70 -95t-70 95v692h-33v-690q0 -122 103 -122q104 0 104 122z" />
    <glyph glyph-name="v" unicode="v" horiz-adv-x="280" 
d="M270 804h-34l-96 -674l-96 674h-34l116 -804h28z" />
    <glyph glyph-name="w" unicode="w" horiz-adv-x="459" 
d="M420 114v690h-34v-692q0 -95 -70 -95q-40 0 -59 84q-11 58 -11 120v583h-34v-583q0 -23 -2 -63q-3 -33 -10 -57q-20 -84 -58 -84q-70 0 -70 95v692h-33v-690q0 -62 25.5 -92.5t77.5 -29.5q52 0 74 63q9 21 14 70q0 -4 0.5 -11.5t1.5 -10.5q0 -8 2 -14q9 -94 82 -97
q52 -1 78 29.5t26 92.5z" />
    <glyph glyph-name="x" unicode="x" horiz-adv-x="280" 
d="M270 0l-113 404l113 400h-34l-96 -344l-93 344h-37l112 -393l-112 -411h34l95 349l93 -349h38z" />
    <glyph glyph-name="y" unicode="y" 
d="M247 116v683h-1v5h-34v-447q0 -95 -70 -95t-70 95v447h-33v-445q0 -122 103 -122q46 0 72 20v-144q0 -93 -70 -93q-42 0 -59 27q-11 20 -11 66v65h-35v-62q0 -121 105 -121q103 0 103 121z" />
    <glyph glyph-name="z" unicode="z" horiz-adv-x="262" 
d="M244 804h-221v-28h180l-184 -776h222v26h-180z" />
    <glyph glyph-name="braceleft" unicode="{" horiz-adv-x="270" 
d="M235 -231v25q-41 1 -58 27q-12 26 -11 66l21 440l-83 28l83 29l-21 362q-1 43 11 66q14 23 58 28v26q-56 -3 -81 -34q-14 -17 -18 -38q-5 -25 -4 -49l23 -338l-121 -38v-28l121 -37l-23 -414q-2 -57 22 -88q24 -32 81 -33z" />
    <glyph glyph-name="bar" unicode="|" horiz-adv-x="560" 
d="M300 -264v1119h-40v-1119h40z" />
    <glyph glyph-name="braceright" unicode="}" horiz-adv-x="270" 
d="M235 341v28l-121 38l22 338q4 54 -21 87q-22 31 -81 34v-26q43 -4 57 -28q14 -23 11 -66l-21 -362l84 -29l-84 -28l21 -440q3 -40 -11 -66q-13 -25 -57 -27v-25q60 2 82 33q23 32 20 88l-22 414z" />
    <glyph glyph-name="asciitilde" unicode="~" horiz-adv-x="491" 
d="M460 422q-83 -64 -129 -58q-31 3 -85 42q-58 43 -95 43q-51 -3 -116 -53l-5 -40q84 66 130 60q11 -1 30 -11q22 -11 41 -25q30 -20 61 -36q27 -12 47 -12q49 0 116 52z" />
    <glyph glyph-name="exclamdown" unicode="&#xa1;" horiz-adv-x="142" 
d="M89 -188v684h-34v-684h34zM87 580v37h-31v-37h31z" />
    <glyph glyph-name="cent" unicode="&#xa2;" horiz-adv-x="275" 
d="M246 226v62h-34v-64q0 -83 -52 -92v524q52 -10 52 -93v-59h34v57q0 112 -86 121v84h-34v-84q-87 -9 -87 -121v-335q0 -111 87 -120v-65h34v65q86 9 86 120zM126 131q-54 9 -54 93v339q0 83 54 93v-525z" />
    <glyph glyph-name="sterling" unicode="&#xa3;" horiz-adv-x="246" 
d="M209 322v35h-134v105h134v34h-134v308h-34v-308h-43v-34h43v-105h-43v-35h43v-322h205v26h-171v296h134z" />
    <glyph glyph-name="currency" unicode="&#xa4;" horiz-adv-x="295" 
d="M271 114v62h-34v-64q0 -95 -70 -95t-70 95v229h113v35h-113v104h140v35h-140v177q0 93 70 93t70 -93v-60h34v58q0 121 -104 121t-104 -121v-175h-32v-35h32v-104h-60v-35h60v-227q0 -122 104 -122t104 122z" />
    <glyph glyph-name="yen" unicode="&#xa5;" horiz-adv-x="263" 
d="M263 804h-34l-96 -344l-93 344h-37l112 -390v-48h-88v-35h88v-77h-88v-35h88v-219h34v219h90v35h-90v77h90v35h-90v46z" />
    <glyph glyph-name="brokenbar" unicode="&#xa6;" horiz-adv-x="244" 
d="M141 369v413h-40v-413h40zM141 -191v413h-40v-413h40z" />
    <glyph glyph-name="section" unicode="&#xa7;" 
d="M247 21v11q-1 3 -1 7v4v11h-1q-6 59 -49 80q48 20 50 95v46q0 11 -2 35q-3 15 -8 30q-22 61 -94 61q-70 0 -70 74v107q0 93 69 93q71 0 71 -93v-60h34v58q0 121 -105 121q-102 0 -102 -121v-115h1q7 -58 49 -79q-48 -22 -50 -96v-45q0 -39 10 -66q23 -60 95 -60
q70 0 70 -75v-107q0 -93 -70 -93t-70 93v59h-35v-57q0 -122 105 -122q102 0 102 122v52zM212 242q0 -93 -71 -93q-41 0 -57 27q-10 16 -10 63v37q0 94 70 94q40 0 57 -26q10 -21 10 -63v-10h1v-29z" />
    <glyph glyph-name="dieresis" unicode="&#xa8;" horiz-adv-x="174" 
d="M54 687v37h-33v-37h33zM152 687v37h-32v-37h32z" />
    <glyph glyph-name="copyright" unicode="&#xa9;" horiz-adv-x="932" 
d="M782 392q0 365 -316 365q-160 0 -241 -100q-75 -91 -75 -265q0 -172 76 -263q81 -102 240 -102q158 0 240 100q76 94 76 265zM747 392q0 -331 -281 -331q-141 0 -214 94q-67 85 -67 237q0 330 281 330t281 -330zM570 252v62h-34v-64q0 -94 -71 -94q-69 0 -69 94v301
q0 94 69 94q71 0 71 -94v-59h34v57q0 122 -105 122q-103 0 -103 -122v-297q0 -121 103 -121q105 0 105 121z" />
    <glyph glyph-name="ordfeminine" unicode="&#xaa;" 
d="M246 459v220q0 122 -105 122q-102 0 -102 -122v-8h33v10q0 93 69 93q71 0 71 -93v-81q-23 20 -71 20q-102 0 -102 -121v-40q0 -123 102 -123q46 0 69 20v-16h34v86q0 3 1 8t1 7v18zM210 429q-7 -67 -69 -67q-41 0 -57 28q-12 21 -12 66v45q0 93 69 93q63 0 69 -67v-98z
" />
    <glyph glyph-name="guillemotleft" unicode="&#xab;" horiz-adv-x="482" 
d="M285 141v38l-185 155l185 153v39l-229 -181v-23zM432 141v38l-185 155l185 153v39l-227 -181v-23z" />
    <glyph glyph-name="logicalnot" unicode="&#xac;" horiz-adv-x="497" 
d="M461 264v126h-425v-34h393v-92h32z" />
    <glyph glyph-name="registered" unicode="&#xae;" horiz-adv-x="932" 
d="M782 392q0 365 -316 365q-160 0 -241 -100q-75 -91 -75 -265q0 -172 76 -263q81 -102 240 -102q158 0 240 100q76 94 76 265zM747 392q0 -331 -281 -331q-141 0 -214 94q-67 85 -67 237q0 330 281 330t281 -330zM579 245v56q0 83 -59 104q59 17 59 97v29q0 69 -19 94
q-22 31 -88 31h-101v-525h34v256h59q44 0 65 -22q16 -16 16 -66v-168h32v114h2zM545 505q0 -50 -15 -68q-17 -20 -66 -20h-59v212h59q50 0 66 -19q15 -17 15 -68v-37z" />
    <glyph glyph-name="degree" unicode="&#xb0;" horiz-adv-x="369" 
d="M331 644q0 29 -11 57q-13 29 -32 47q-18 20 -46 32q-28 11 -57 11q-31 0 -59 -11q-30 -13 -46 -32q-19 -16 -32 -46q-11 -28 -11 -58q0 -31 11 -59q9 -23 31 -47q22 -20 47 -30q26 -12 58 -12q61 0 103 43q44 42 44 105zM304 644q0 -27 -10 -48q-9 -22 -25 -38t-37 -25
q-23 -9 -47 -9q-52 0 -86 34t-34 86q0 24 9 47q8 21 25 39q19 18 38 25q23 9 48 9q26 0 47 -10q22 -9 37 -26q15 -14 25 -38q10 -20 10 -46z" />
    <glyph glyph-name="plusminus" unicode="&#xb1;" horiz-adv-x="399" 
d="M367 324v31h-148v147h-32v-147h-148v-31h148v-149h32v149h148zM367 100v31h-328v-31h328z" />
    <glyph glyph-name="twosuperior" unicode="&#xb2;" horiz-adv-x="229" 
d="M209 317v24h-104v194q0 13 1 18q2 9 6 11q2 4 13 8q22 4 26 4q18 2 28 6q9 2 18 10q8 9 9 20q3 12 3 32v91q0 76 -67 76q-66 0 -66 -76v-39h29v40q0 26 6 38q10 13 31 13q22 0 32 -13q0 -1 1.5 -6t2.5 -9q2 -12 2 -23v-90q0 -18 -2 -23q0 -7 -6 -13q-5 -5 -13 -6
q-9 -2 -24 -3q-59 -6 -59 -66v-218h133z" />
    <glyph glyph-name="threesuperior" unicode="&#xb3;" horiz-adv-x="229" 
d="M209 387v150q0 46 -28 59q28 15 28 59v77q0 78 -67 78q-66 0 -66 -78v-37h29v40q0 27 6 37q9 14 31 14q21 0 32 -14l4 -16q2 -12 2 -21v-78q0 -12 -2 -24q-1 -4 -4 -14q-10 -12 -38 -12h-24v-23h24q30 0 36 -10q8 -8 8 -38v-150q0 -51 -38 -51q-22 0 -31 14q-6 11 -6 37
v43h-29v-42q0 -77 66 -77q67 0 67 77z" />
    <glyph glyph-name="acute" unicode="&#xb4;" horiz-adv-x="150" 
d="M122 771l-35 18l-62 -124l34 -18z" />
    <glyph glyph-name="paragraph" unicode="&#xb6;" horiz-adv-x="366" 
d="M344 772v32h-215q-65 0 -88 -32q-19 -25 -19 -93v-117q0 -110 107 -110h67v-512h34v832h50v-832h34v832h30z" />
    <glyph glyph-name="periodcentered" unicode="&#xb7;" horiz-adv-x="426" 
d="M357 366l-33 35q31 37 31 91q0 51 -30 90l32 33l-21 22l-32 -32q-40 35 -95 35q-51 0 -92 -33l-30 30l-22 -22l30 -29q-34 -37 -34 -94q0 -59 34 -96l-30 -30l22 -21l30 30q41 -30 90 -30q58 0 95 34l34 -34zM327 492q0 -26 -9 -48q-8 -21 -24 -38q-16 -15 -38 -26
q-23 -9 -47 -9q-25 0 -47 9q-22 11 -38 26q-15 16 -26 38q-9 22 -9 48q0 24 9 47q11 23 26 38q16 16 38 25t47 9t47 -9q21 -9 37 -25t25 -38q9 -23 9 -47z" />
    <glyph glyph-name="cedilla" unicode="&#xb8;" horiz-adv-x="249" 
d="M172 -144v43q0 40 -35 40h-10v66h-22v-86h7q6 1 12 0q22 0 22 -25v-38q0 -31 -26 -31v1h-44v-21h44q52 0 52 51z" />
    <glyph glyph-name="onesuperior" unicode="&#xb9;" horiz-adv-x="226" 
d="M171 315v27h-16v465l-50 -18v-28l21 8v-427h-16v-27h61z" />
    <glyph glyph-name="ordmasculine" unicode="&#xba;" horiz-adv-x="187" 
d="M166 549v187q0 76 -72 76q-73 0 -73 -76v-187q0 -78 73 -78q72 0 72 78zM135 547q0 -52 -41 -52q-42 0 -42 52v189q0 53 42 53q41 0 41 -53v-189z" />
    <glyph glyph-name="guillemotright" unicode="&#xbb;" horiz-adv-x="482" 
d="M285 322v23l-229 181v-39l186 -153l-186 -155v-38zM432 322v23l-227 181v-39l185 -153l-185 -155v-38z" />
    <glyph glyph-name="onequarter" unicode="&#xbc;" horiz-adv-x="291" 
d="M416 270v22h-30v198h-29l-113 -220h113v-270h29v270h30zM287 811h-33l-248 -811h33zM4 321v28h-17v465l-50 -20v-28l22 9v-426h-15v-28h60zM357 292h-67l67 134v-134z" />
    <glyph glyph-name="onehalf" unicode="&#xbd;" horiz-adv-x="291" 
d="M287 811h-33l-248 -811h33zM410 0v25h-104v192q0 24 6 30q7 7 40 13q34 6 45 15q13 13 13 51v91q0 78 -66 78q-65 0 -65 -78v-38h27v40q0 9 2 23q0 3 1 5.5t2 5.5t1 4q11 14 32 14q22 0 31 -14q7 -10 7 -38v-90q0 -18 -2 -23q0 -9 -6 -12q-3 -6 -14 -6q-7 -2 -24 -4
q-57 -6 -57 -67v-217h131zM4 321v28h-17v465l-50 -20v-28l22 9v-426h-15v-28h60z" />
    <glyph glyph-name="threequarters" unicode="&#xbe;" horiz-adv-x="291" 
d="M416 270v22h-30v198h-29l-113 -220h113v-270h29v270h30zM287 811h-33l-248 -811h33zM45 387v150q0 46 -28 59q28 15 28 59v77q0 78 -66 78q-67 0 -67 -78v-37h29v40q0 9 2 23q1 4 4 14q11 14 32 14q22 0 31 -14q6 -12 6 -37v-78q0 -31 -7 -38q-11 -12 -37 -12h-25v-23h25
q29 0 36 -10q8 -10 8 -38v-150q0 -51 -37 -51q-21 0 -32 14q-3 10 -4 15q-2 12 -2 22v43h-29v-42q0 -77 67 -77q66 0 66 77zM357 292h-67l67 134v-134z" />
    <glyph glyph-name="questiondown" unicode="&#xbf;" horiz-adv-x="275" 
d="M236 -60v57h-35v-60q0 -92 -70 -92t-70 92v123q0 54 18 72q17 23 70 23v354h-34v-330q-52 -8 -71 -40q-17 -25 -17 -82v-117q0 -123 104 -123q105 0 105 123zM149 589v37h-33v-37h33z" />
    <glyph glyph-name="Agrave" unicode="&#xc0;" horiz-adv-x="280" 
d="M270 0l-116 804h-28l-116 -804h30l55 379h89l53 -379h33zM180 410h-81l41 285zM189 865l-63 122l-35 -16l63 -124z" />
    <glyph glyph-name="Aacute" unicode="&#xc1;" horiz-adv-x="280" 
d="M270 0l-116 804h-28l-116 -804h30l55 379h89l53 -379h33zM180 410h-81l41 285zM189 971l-35 16l-63 -122l35 -18z" />
    <glyph glyph-name="Acircumflex" unicode="&#xc2;" horiz-adv-x="280" 
d="M270 0l-116 804h-28l-116 -804h30l55 379h89l53 -379h33zM180 410h-81l41 285zM205 842l-46 155h-38l-46 -155h34l31 95l32 -95h33z" />
    <glyph glyph-name="Atilde" unicode="&#xc3;" horiz-adv-x="280" 
d="M270 0l-116 804h-28l-116 -804h30l55 379h89l53 -379h33zM180 410h-81l41 285zM265 949q-53 -54 -78 -53q-12 1 -45 28q-31 25 -46 27q-14 1 -36 -9q-19 -13 -40 -35l-4 -42q52 55 76 54q12 -3 38 -23l6 -5q12 -10 27 -19q10 -6 22 -8q31 -3 75 42z" />
    <glyph glyph-name="Adieresis" unicode="&#xc4;" horiz-adv-x="280" 
d="M270 0l-116 804h-28l-116 -804h30l55 379h89l53 -379h33zM180 410h-81l41 285zM205 889v37h-33v-37h33zM106 889v37h-32v-37h32z" />
    <glyph glyph-name="Aring" unicode="&#xc5;" horiz-adv-x="280" 
d="M270 0l-116 804h-28l-116 -804h30l55 379h89l53 -379h33zM225 901q0 35 -25 60q-24 25 -59 25t-59 -25q-25 -25 -25 -60q0 -34 23 -59q24 -25 61 -25q35 0 59 25q25 24 25 59zM180 410h-81l41 285zM194 901q0 -23 -15 -39q-15 -15 -38 -15q-24 0 -37 15q-15 16 -15 39
t15 39q13 15 37 15q23 0 38 -15q15 -16 15 -39z" />
    <glyph glyph-name="AE" unicode="&#xc6;" horiz-adv-x="475" 
d="M439 0v26h-170v425h170v25h-170v301h170v27h-198l-231 -804h30l109 379h90l-2 -379h202zM240 695l-1 -285h-82z" />
    <glyph glyph-name="Ccedilla" unicode="&#xc7;" horiz-adv-x="275" 
d="M246 114v62h-34v-64q0 -95 -70 -95t-70 95v580q0 93 70 93t70 -93v-60h34v58q0 121 -104 121q-103 0 -103 -121v-576q0 -112 88 -122v-73h8q5 1 12 0q23 0 23 -25v-38q0 -31 -26 -31v1h-44v-21h44q52 0 52 51v43q0 40 -35 40h-10v53q95 6 95 122z" />
    <glyph glyph-name="Egrave" unicode="&#xc8;" horiz-adv-x="290" 
d="M259 0v26h-170v425h170v25h-170v301h170v27h-204v-804h204zM194 865l-63 122l-35 -16l63 -124z" />
    <glyph glyph-name="Eacute" unicode="&#xc9;" horiz-adv-x="290" 
d="M259 0v26h-170v425h170v25h-170v301h170v27h-204v-804h204zM194 971l-35 16l-63 -122l35 -18z" />
    <glyph glyph-name="Ecircumflex" unicode="&#xca;" horiz-adv-x="290" 
d="M246 0v26h-170v425h170v25h-170v301h170v27h-204v-804h204zM209 842l-45 155h-38l-46 -155h34l31 95l32 -95h32z" />
    <glyph glyph-name="Edieresis" unicode="&#xcb;" horiz-adv-x="290" 
d="M246 0v26h-170v425h170v25h-170v301h170v27h-204v-804h204zM210 889v37h-33v-37h33zM111 889v37h-32v-37h32z" />
    <glyph glyph-name="Igrave" unicode="&#xcc;" horiz-adv-x="127" 
d="M102 1v31h-22v739h22v31h-22v2h-33v-2h-21v-31h21v-739h-21v-31h21v-1h33v1h22zM112 865l-63 122l-34 -16l64 -124z" />
    <glyph glyph-name="Iacute" unicode="&#xcd;" horiz-adv-x="127" 
d="M102 1v31h-22v739h22v31h-22v2h-33v-2h-21v-31h21v-739h-21v-31h21v-1h33v1h22zM112 971l-33 16l-64 -122l34 -18z" />
    <glyph glyph-name="Icircumflex" unicode="&#xce;" horiz-adv-x="127" 
d="M102 1v31h-22v739h22v31h-22v2h-33v-2h-21v-31h21v-739h-21v-31h21v-1h33v1h22zM129 842l-47 155h-38l-45 -155h33l32 95l32 -95h33z" />
    <glyph glyph-name="Idieresis" unicode="&#xcf;" horiz-adv-x="127" 
d="M102 1v31h-22v739h22v31h-22v2h-33v-2h-21v-31h21v-739h-21v-31h21v-1h33v1h22zM129 889v37h-33v-37h33zM30 889v37h-31v-37h31z" />
    <glyph glyph-name="Eth" unicode="&#xd0;" 
d="M246 111v568q0 70 -19 92q-10 16 -33 25q-22 8 -54 8h-101v-279h-39v-31h39v-494h101q106 0 106 111zM212 114q0 -51 -13 -68q-17 -20 -67 -20h-60v468h103v31h-103v251h60q49 0 65 -19q15 -17 15 -67v-576z" />
    <glyph glyph-name="Ntilde" unicode="&#xd1;" horiz-adv-x="287" 
d="M260 0l-5 804h-33v-639l-145 637h-2v2h-34v-804h34v666l147 -649v-17h38zM267 949q-52 -55 -76 -53q-12 1 -45 28q-31 25 -47 27q-14 1 -35 -9q-20 -12 -40 -35l-5 -42q54 56 77 54q12 -3 38 -23l5 -5q15 -11 28 -19q9 -6 20 -8q33 -3 77 42z" />
    <glyph glyph-name="Ograve" unicode="&#xd2;" 
d="M246 114v576q0 121 -104 121q-103 0 -103 -121v-576q0 -122 103 -122q104 0 104 122zM212 112q0 -95 -70 -95t-70 95v580q0 93 70 93t70 -93v-580zM191 865l-62 122l-35 -16l62 -124z" />
    <glyph glyph-name="Oacute" unicode="&#xd3;" 
d="M246 114v576q0 121 -104 121q-103 0 -103 -121v-576q0 -122 103 -122q104 0 104 122zM212 112q0 -95 -70 -95t-70 95v580q0 93 70 93t70 -93v-580zM191 971l-35 16l-62 -122l35 -18z" />
    <glyph glyph-name="Ocircumflex" unicode="&#xd4;" 
d="M246 114v576q0 121 -104 121q-103 0 -103 -121v-576q0 -122 103 -122q104 0 104 122zM212 112q0 -95 -70 -95t-70 95v580q0 93 70 93t70 -93v-580zM207 842l-46 155h-37l-45 -155h32l31 95l33 -95h32z" />
    <glyph glyph-name="Otilde" unicode="&#xd5;" 
d="M246 114v576q0 121 -104 121q-103 0 -103 -121v-576q0 -122 103 -122q104 0 104 122zM212 112q0 -95 -70 -95t-70 95v580q0 93 70 93t70 -93v-580zM266 949q-52 -55 -76 -53q-12 1 -45 28q-31 26 -48 27q-13 1 -35 -9q-19 -13 -40 -35l-5 -42q55 55 78 54q1 -1 6 -3t9 -4
t22 -16l7 -5q12 -10 27 -19q10 -6 21 -8q33 -3 75 42z" />
    <glyph glyph-name="Odieresis" unicode="&#xd6;" 
d="M246 114v576q0 121 -104 121q-103 0 -103 -121v-576q0 -122 103 -122q104 0 104 122zM212 112q0 -95 -70 -95t-70 95v580q0 93 70 93t70 -93v-580zM207 889v37h-32v-37h32zM109 889v37h-32v-37h32z" />
    <glyph glyph-name="multiply" unicode="&#xd7;" horiz-adv-x="309" 
d="M285 235l-105 104l105 105l-21 22l-105 -105l-105 105l-23 -22l105 -105l-105 -104l23 -23l105 105l105 -105z" />
    <glyph glyph-name="Oslash" unicode="&#xd8;" 
d="M266 811h-34l-8 -34q-27 34 -82 34q-103 0 -103 -121v-576q0 -9 1 -14q0 -8 1 -13l-24 -87h34l8 31q24 -39 83 -39q104 0 104 122v576v20q0 3 -0.5 8.5t-1.5 8.5zM212 112q0 -95 -70 -95q-64 0 -68 69l138 524v-498zM210 726l-138 -517v483q0 93 70 93q59 0 68 -59z" />
    <glyph glyph-name="Ugrave" unicode="&#xd9;" 
d="M246 114v690h-34v-692q0 -95 -70 -95t-70 95v692h-33v-690q0 -122 103 -122q104 0 104 122zM191 865l-62 122l-35 -16l62 -124z" />
    <glyph glyph-name="Uacute" unicode="&#xda;" 
d="M246 114v690h-34v-692q0 -95 -70 -95t-70 95v692h-33v-690q0 -122 103 -122q104 0 104 122zM191 971l-35 16l-62 -122l35 -18z" />
    <glyph glyph-name="Ucircumflex" unicode="&#xdb;" 
d="M246 114v690h-34v-692q0 -95 -70 -95t-70 95v692h-33v-690q0 -122 103 -122q104 0 104 122zM207 842l-46 155h-37l-45 -155h32l31 95l33 -95h32z" />
    <glyph glyph-name="Udieresis" unicode="&#xdc;" 
d="M246 114v690h-34v-692q0 -95 -70 -95t-70 95v692h-33v-690q0 -122 103 -122q104 0 104 122zM207 889v37h-32v-37h32zM109 889v37h-32v-37h32z" />
    <glyph glyph-name="Yacute" unicode="&#xdd;" horiz-adv-x="280" 
d="M270 804h-34l-96 -344l-93 344h-37l112 -390v-414h34v412zM189 971l-35 16l-63 -122l35 -18z" />
    <glyph glyph-name="Thorn" unicode="&#xde;" horiz-adv-x="284" 
d="M254 355v115q0 70 -19 95q-21 31 -88 31h-72v208h-34v-804h34v245h72q107 0 107 110zM221 357q0 -51 -15 -67q-17 -20 -66 -20h-65v299h65q50 0 66 -19q15 -16 15 -68v-125z" />
    <glyph glyph-name="germandbls" unicode="&#xdf;" horiz-adv-x="326" 
d="M296 49v316q0 8 -2 28q-1 5 -8 33q-10 40 -65 48q25 19 25 85v131q0 121 -104 121q-103 0 -103 -121v-686h33v688q0 93 70 93t70 -93v-130q0 -51 -13 -68q-18 -19 -50 -19h-13v-26h45q49 0 66 -20q14 -20 14 -68v-315q0 -88 -70 -94v-26q105 0 105 123z" />
    <glyph glyph-name="agrave" unicode="&#xe0;" 
d="M191 865l-62 122l-35 -16l62 -124zM246 683q0 122 -104 122q-103 0 -103 -122v-29h33v31q0 94 70 94t70 -94v-212q-23 20 -70 20q-103 0 -103 -121v-258q0 -122 103 -122q44 0 69 19v-15h34zM211 85q-8 -68 -69 -68q-42 0 -58 28q-12 21 -12 67v263q0 92 70 92
q61 0 69 -65v-317z" />
    <glyph glyph-name="aacute" unicode="&#xe1;" 
d="M191 971l-35 16l-62 -122l35 -18zM246 683q0 122 -104 122q-103 0 -103 -122v-29h33v31q0 94 70 94t70 -94v-212q-23 20 -70 20q-103 0 -103 -121v-258q0 -122 103 -122q44 0 69 19v-15h34zM211 85q-8 -68 -69 -68q-42 0 -58 28q-12 21 -12 67v263q0 92 70 92
q61 0 69 -65v-317z" />
    <glyph glyph-name="acircumflex" unicode="&#xe2;" 
d="M207 842l-46 155h-37l-45 -155h32l31 95l33 -95h32zM246 683q0 122 -104 122q-103 0 -103 -122v-29h33v31q0 94 70 94t70 -94v-212q-23 20 -70 20q-103 0 -103 -121v-258q0 -122 103 -122q44 0 69 19v-15h34zM211 85q-8 -68 -69 -68q-42 0 -58 28q-12 21 -12 67v263
q0 92 70 92q61 0 69 -65v-317z" />
    <glyph glyph-name="atilde" unicode="&#xe3;" 
d="M266 949q-52 -55 -76 -53q-12 1 -45 28q-31 26 -48 27q-13 1 -35 -9q-19 -13 -40 -35l-5 -42q55 55 78 54q1 -1 6 -3t9 -4t22 -16l7 -5q12 -10 27 -19q10 -6 21 -8q33 -3 75 42zM246 683q0 122 -104 122q-103 0 -103 -122v-29h33v31q0 94 70 94t70 -94v-212
q-23 20 -70 20q-103 0 -103 -121v-258q0 -122 103 -122q44 0 69 19v-15h34zM211 85q-8 -68 -69 -68q-42 0 -58 28q-12 21 -12 67v263q0 92 70 92q61 0 69 -65v-317z" />
    <glyph glyph-name="adieresis" unicode="&#xe4;" 
d="M207 889v37h-32v-37h32zM109 889v37h-32v-37h32zM246 683q0 122 -104 122q-103 0 -103 -122v-29h33v31q0 94 70 94t70 -94v-212q-23 20 -70 20q-103 0 -103 -121v-258q0 -122 103 -122q44 0 69 19v-15h34zM211 85q-8 -68 -69 -68q-42 0 -58 28q-12 21 -12 67v263
q0 92 70 92q61 0 69 -65v-317z" />
    <glyph glyph-name="aring" unicode="&#xe5;" 
d="M224 934q0 34 -24 60q-26 24 -60 24t-60 -24q-24 -26 -24 -60q0 -17 6 -32q7 -15 18 -28q10 -10 26 -18q15 -6 33 -6q35 0 60 24q25 25 25 60zM192 934q0 -22 -14 -38q-15 -16 -38 -16t-38 16q-15 15 -15 38t15 38q15 16 38 16t38 -16q14 -16 14 -38zM246 683
q0 122 -104 122q-103 0 -103 -122v-29h33v31q0 94 70 94t70 -94v-212q-23 20 -70 20q-103 0 -103 -121v-258q0 -122 103 -122q44 0 69 19v-15h34zM211 85q-8 -68 -69 -68q-42 0 -58 28q-12 21 -12 67v263q0 92 70 92q61 0 69 -65v-317z" />
    <glyph glyph-name="ae" unicode="&#xe6;" horiz-adv-x="462" 
d="M421 114v17h-34v-19q0 -95 -70 -95t-70 95v332h174v238q0 122 -104 122q-63 0 -87 -45q-24 45 -88 45q-103 0 -103 -122v-29h33v31q0 94 70 94t70 -94v-204q-23 20 -70 20q-103 0 -103 -121v-265q0 -122 103 -122q44 0 69 19v-15h33v21q26 -25 73 -25q104 0 104 122z
M211 85q-8 -68 -69 -68q-42 0 -58 28q-12 21 -12 67v270q0 92 70 92q61 0 69 -65v-324zM387 475h-140v209q0 94 70 94t70 -94v-209z" />
    <glyph glyph-name="ccedilla" unicode="&#xe7;" horiz-adv-x="275" 
d="M246 114v62h-34v-64q0 -95 -70 -95t-70 95v580q0 93 70 93t70 -93v-60h34v58q0 121 -104 121q-103 0 -103 -121v-576q0 -112 88 -122v-73h8q5 1 12 0q23 0 23 -25v-38q0 -31 -26 -31v1h-44v-21h44q52 0 52 51v43q0 40 -35 40h-10v53q95 6 95 122z" />
    <glyph glyph-name="egrave" unicode="&#xe8;" 
d="M191 865l-62 122l-35 -16l62 -124zM246 114v17h-34v-19q0 -95 -70 -95t-70 95v342h174v227q0 122 -104 122q-103 0 -103 -122v-567q0 -122 103 -122q104 0 104 122zM212 485h-140v198q0 94 70 94t70 -94v-198z" />
    <glyph glyph-name="eacute" unicode="&#xe9;" 
d="M191 971l-35 16l-62 -122l35 -18zM246 114v17h-34v-19q0 -95 -70 -95t-70 95v342h174v227q0 122 -104 122q-103 0 -103 -122v-567q0 -122 103 -122q104 0 104 122zM212 485h-140v198q0 94 70 94t70 -94v-198z" />
    <glyph glyph-name="ecircumflex" unicode="&#xea;" 
d="M207 842l-46 155h-37l-45 -155h32l31 95l33 -95h32zM246 114v17h-34v-19q0 -95 -70 -95t-70 95v342h174v227q0 122 -104 122q-103 0 -103 -122v-567q0 -122 103 -122q104 0 104 122zM212 485h-140v198q0 94 70 94t70 -94v-198z" />
    <glyph glyph-name="edieresis" unicode="&#xeb;" 
d="M207 889v37h-32v-37h32zM109 889v37h-32v-37h32zM246 114v17h-34v-19q0 -95 -70 -95t-70 95v342h174v227q0 122 -104 122q-103 0 -103 -122v-567q0 -122 103 -122q104 0 104 122zM212 485h-140v198q0 94 70 94t70 -94v-198z" />
    <glyph glyph-name="igrave" unicode="&#xec;" horiz-adv-x="127" 
d="M102 1v31h-22v739h22v31h-22v2h-33v-2h-21v-31h21v-739h-21v-31h21v-1h33v1h22zM112 865l-63 122l-34 -16l64 -124z" />
    <glyph glyph-name="iacute" unicode="&#xed;" horiz-adv-x="127" 
d="M102 1v31h-22v739h22v31h-22v2h-33v-2h-21v-31h21v-739h-21v-31h21v-1h33v1h22zM112 971l-33 16l-64 -122l34 -18z" />
    <glyph glyph-name="icircumflex" unicode="&#xee;" horiz-adv-x="127" 
d="M102 1v31h-22v739h22v31h-22v2h-33v-2h-21v-31h21v-739h-21v-31h21v-1h33v1h22zM129 842l-47 155h-38l-45 -155h33l32 95l32 -95h33z" />
    <glyph glyph-name="idieresis" unicode="&#xef;" horiz-adv-x="127" 
d="M102 1v31h-22v739h22v31h-22v2h-33v-2h-21v-31h21v-739h-21v-31h21v-1h33v1h22zM129 889v37h-33v-37h33zM30 889v37h-31v-37h31z" />
    <glyph glyph-name="eth" unicode="&#xf0;" horiz-adv-x="359" 
d="M340 631q-52 -55 -76 -52q-3 1 -18 7v104q0 121 -102 121q-105 0 -105 -121v-63h35v65q0 93 70 93t70 -93v-81q-26 20 -43 23q-32 3 -75 -43l-5 -42q56 56 78 52q9 0 37 -22l6 -5l2 -2v-126q-33 30 -75 30q-100 0 -100 -121v-241q0 -122 105 -122q102 0 102 122v437
q9 -4 15 -4q32 -3 75 43zM214 112q0 -95 -70 -95t-70 95v244q0 94 65 94q75 0 75 -94v-244z" />
    <glyph glyph-name="ntilde" unicode="&#xf1;" 
d="M266 937q-52 -55 -76 -52q-15 2 -45 26q-31 25 -48 27q-31 4 -75 -42l-5 -43q54 55 78 54q11 -1 37 -24l7 -5q30 -24 48 -26q35 -3 75 43zM246 -8v689q0 122 -104 122q-46 0 -72 -23v23h-34v-811h36v691q0 95 70 95t70 -95v-691h34z" />
    <glyph glyph-name="ograve" unicode="&#xf2;" 
d="M246 114v576q0 121 -104 121q-103 0 -103 -121v-576q0 -122 103 -122q104 0 104 122zM212 112q0 -95 -70 -95t-70 95v580q0 93 70 93t70 -93v-580zM191 865l-62 122l-35 -16l62 -124z" />
    <glyph glyph-name="oacute" unicode="&#xf3;" 
d="M246 114v576q0 121 -104 121q-103 0 -103 -121v-576q0 -122 103 -122q104 0 104 122zM212 112q0 -95 -70 -95t-70 95v580q0 93 70 93t70 -93v-580zM191 971l-35 16l-62 -122l35 -18z" />
    <glyph glyph-name="ocircumflex" unicode="&#xf4;" 
d="M246 114v576q0 121 -104 121q-103 0 -103 -121v-576q0 -122 103 -122q104 0 104 122zM212 112q0 -95 -70 -95t-70 95v580q0 93 70 93t70 -93v-580zM207 842l-46 155h-37l-45 -155h32l31 95l33 -95h32z" />
    <glyph glyph-name="otilde" unicode="&#xf5;" 
d="M246 114v576q0 121 -104 121q-103 0 -103 -121v-576q0 -122 103 -122q104 0 104 122zM212 112q0 -95 -70 -95t-70 95v580q0 93 70 93t70 -93v-580zM266 949q-52 -55 -76 -53q-12 1 -45 28q-31 26 -48 27q-13 1 -35 -9q-19 -13 -40 -35l-5 -42q55 55 78 54q1 -1 6 -3t9 -4
t22 -16l7 -5q12 -10 27 -19q10 -6 21 -8q33 -3 75 42z" />
    <glyph glyph-name="odieresis" unicode="&#xf6;" 
d="M246 114v576q0 121 -104 121q-103 0 -103 -121v-576q0 -122 103 -122q104 0 104 122zM212 112q0 -95 -70 -95t-70 95v580q0 93 70 93t70 -93v-580zM207 889v37h-32v-37h32zM109 889v37h-32v-37h32z" />
    <glyph glyph-name="divide" unicode="&#xf7;" horiz-adv-x="377" 
d="M354 324v31h-329v-31h329zM205 205v37h-33v-37h33zM205 424v37h-33v-37h33z" />
    <glyph glyph-name="oslash" unicode="&#xf8;" 
d="M266 811h-34l-8 -34q-27 34 -82 34q-103 0 -103 -121v-576q0 -9 1 -14q0 -8 1 -13l-24 -87h34l8 31q24 -39 83 -39q104 0 104 122v576v20q0 3 -0.5 8.5t-1.5 8.5zM212 112q0 -95 -70 -95q-64 0 -68 69l138 524v-498zM210 726l-138 -517v483q0 93 70 93q59 0 68 -59z" />
    <glyph glyph-name="ugrave" unicode="&#xf9;" 
d="M246 114v690h-34v-692q0 -95 -70 -95t-70 95v692h-33v-690q0 -122 103 -122q104 0 104 122zM191 865l-62 122l-35 -16l62 -124z" />
    <glyph glyph-name="uacute" unicode="&#xfa;" 
d="M246 114v690h-34v-692q0 -95 -70 -95t-70 95v692h-33v-690q0 -122 103 -122q104 0 104 122zM191 971l-35 16l-62 -122l35 -18z" />
    <glyph glyph-name="ucircumflex" unicode="&#xfb;" 
d="M246 114v690h-34v-692q0 -95 -70 -95t-70 95v692h-33v-690q0 -122 103 -122q104 0 104 122zM207 842l-46 155h-37l-45 -155h32l31 95l33 -95h32z" />
    <glyph glyph-name="udieresis" unicode="&#xfc;" 
d="M246 114v690h-34v-692q0 -95 -70 -95t-70 95v692h-33v-690q0 -122 103 -122q104 0 104 122zM207 889v37h-32v-37h32zM109 889v37h-32v-37h32z" />
    <glyph glyph-name="yacute" unicode="&#xfd;" 
d="M191 991l-35 18l-62 -123l35 -17zM247 116v683h-1v5h-34v-447q0 -95 -70 -95t-70 95v447h-33v-445q0 -122 103 -122q46 0 72 20v-144q0 -93 -70 -93q-42 0 -59 27q-11 20 -11 66v65h-35v-62q0 -121 105 -121q103 0 103 121z" />
    <glyph glyph-name="thorn" unicode="&#xfe;" horiz-adv-x="275" 
d="M241 266v265q0 121 -105 121q-47 0 -70 -20v172h-32v-804h32v163q23 -20 70 -20q105 0 105 123zM207 263q0 -94 -71 -94q-69 0 -69 94v269q0 95 69 95q71 0 71 -95v-269z" />
    <glyph glyph-name="ydieresis" unicode="&#xff;" 
d="M109 898v38h-32v-38h32zM207 898v38h-32v-38h32zM247 116v683h-1v5h-34v-447q0 -95 -70 -95t-70 95v447h-33v-445q0 -122 103 -122q46 0 72 20v-144q0 -93 -70 -93q-42 0 -59 27q-11 20 -11 66v65h-35v-62q0 -121 105 -121q103 0 103 121z" />
    <glyph glyph-name="caron" unicode="&#x2c7;" 
d="M207 796h-32l-33 -95l-31 95h-32l45 -155h37z" />
    <glyph glyph-name="dotlessi" unicode="&#x131;" horiz-adv-x="116" 
d="M75 0v681h-34v-681h34z" />
    <glyph glyph-name="Lslash" unicode="&#x141;" horiz-adv-x="246" 
d="M169 428l-13 28l-81 -41v389h-34v-407l-95 -48l13 -28l82 42v-363h205v26h-171v354z" />
    <glyph glyph-name="lslash" unicode="&#x142;" horiz-adv-x="116" 
d="M75 0v377l93 47l-13 28l-80 -41v393l-34 -33v-377l-96 -49l13 -28l83 42v-359h34z" />
    <glyph glyph-name="Zcaron" unicode="&#x17d;" horiz-adv-x="270" 
d="M247 804h-221v-28h180l-184 -776h222v26h-180zM209 1007h-32l-33 -95l-31 95h-32l45 -155h37z" />
    <glyph glyph-name="zcaron" unicode="&#x17e;" horiz-adv-x="270" 
d="M247 804h-221v-28h180l-184 -776h222v26h-180zM209 1007h-32l-33 -95l-31 95h-32l45 -155h37z" />
    <glyph glyph-name="quotesinglbase" unicode="&#x201a;" horiz-adv-x="142" 
d="M87 41h-58v-37h18l-15 -77h33l22 112v2z" />
    <glyph glyph-name="florin" unicode="&#x192;" horiz-adv-x="301" 
d="M280 707q1 3 1 9v9q0 86 -75 86q-83 0 -91 -104l-59 -727q-6 -76 -56 -76q-45 0 -45 61q0 12 1 15v10h-30l-1 -10q-1 -3 -1 -9v-9q0 -85 75 -85q84 0 91 103l44 542h71l2 27h-72l14 160q4 76 56 76q45 0 45 -61q0 -12 -1 -15v-12h30z" />
    <glyph glyph-name="quotedblbase" unicode="&#x201e;" horiz-adv-x="225" 
d="M191 41h-59v-37h19l-15 -77h33l22 112v2zM87 41h-58v-37h18l-15 -77h33l22 112v2z" />
    <glyph glyph-name="ellipsis" unicode="&#x2026;" horiz-adv-x="457" 
d="M415 4v37h-33v-37h33zM87 4v37h-32v-37h32zM256 4v37h-32v-37h32z" />
    <glyph glyph-name="dagger" unicode="&#x2020;" 
d="M235 644v25h-78v135h-31v-135h-76v-25h76v-683h31v683h78z" />
    <glyph glyph-name="daggerdbl" unicode="&#x2021;" 
d="M235 71v26h-78v549h78v26h-78v132h-31v-132h-76v-26h76v-549h-76v-26h76v-110h31v110h78z" />
    <glyph glyph-name="circumflex" unicode="&#x2c6;" horiz-adv-x="332" 
d="M231 574l-46 155h-38l-46 -155h34l31 96l33 -95z" />
    <glyph glyph-name="perthousand" unicode="&#x2030;" horiz-adv-x="792" 
d="M764 116v160q0 123 -105 123q-103 0 -103 -123v-160q0 -66 24 -94q15 -16 21 -21q13 -6 36 -6q71 0 99 27q28 25 28 94zM517 116v160q0 123 -103 123q-104 0 -104 -123v-160q0 -65 25 -94q13 -16 21 -21q12 -6 36 -6q70 0 98 27q27 26 27 94zM251 525v160q0 121 -105 121
q-102 0 -102 -121v-160q0 -123 102 -123q105 0 105 123zM730 114q0 -94 -71 -94q-43 0 -58 27q-5 13 -8 27q-3 16 -3 40v165q0 92 69 92q71 0 71 -92v-165zM484 114q0 -94 -70 -94q-44 0 -59 27q-11 20 -11 67v165q0 92 70 92t70 -92v-165zM217 522q0 -93 -71 -93
q-44 0 -57 27q-12 21 -12 66v165q0 93 69 93q71 0 71 -93v-165zM464 811h-32l-340 -819h32z" />
    <glyph glyph-name="Scaron" unicode="&#x160;" 
d="M246 382h-1q-9 89 -101 89q-70 0 -70 95v126q0 94 70 94t70 -94v-65h32v63q0 121 -102 121q-105 0 -105 -121v-121q0 -123 105 -123q70 0 70 -75v-259q0 -93 -70 -93t-70 93v59h-35v-57q0 -122 105 -122q102 0 102 122v268zM207 997l-32 -1l-33 -95l-31 96h-32l45 -155
h37z" />
    <glyph glyph-name="guilsinglleft" unicode="&#x2039;" horiz-adv-x="325" 
d="M285 141v38l-185 155l185 153v39l-229 -181v-23z" />
    <glyph glyph-name="OE" unicode="&#x152;" horiz-adv-x="449" 
d="M417 0v26h-170v425h170v25h-170v301h170v27h-203v-15q-25 22 -72 22q-103 0 -103 -121v-576q0 -122 103 -122q43 0 72 23v-15h203zM212 112q0 -95 -70 -95t-70 95v580q0 93 70 93t70 -93v-580z" />
    <glyph glyph-name="quoteleft" unicode="&#x2018;" horiz-adv-x="142" 
d="M117 627v65h-41l30 114h-32l-48 -176l-1 -3h92z" />
    <glyph glyph-name="quoteright" unicode="&#x2019;" horiz-adv-x="142" 
d="M117 806h-92v-65h41l-31 -114h32l49 177z" />
    <glyph glyph-name="quotedblleft" unicode="&#x201c;" horiz-adv-x="289" 
d="M265 627v65h-41l30 114h-32l-48 -176l-2 -3h93zM117 627v65h-41l30 114h-32l-48 -176l-1 -3h92z" />
    <glyph glyph-name="quotedblright" unicode="&#x201d;" horiz-adv-x="289" 
d="M265 806h-93v-65h42l-32 -114h33l49 177zM117 806h-92v-65h41l-31 -114h32l49 177z" />
    <glyph glyph-name="bullet" unicode="&#x2022;" horiz-adv-x="200" 
d="M145 292v102h-98v-102h98z" />
    <glyph glyph-name="endash" unicode="&#x2013;" horiz-adv-x="507" 
d="M509 327v24h-510v-24h510z" />
    <glyph glyph-name="emdash" unicode="&#x2014;" horiz-adv-x="886" 
d="M887 327v24h-888v-24h888z" />
    <glyph glyph-name="tilde" unicode="&#x2dc;" horiz-adv-x="327" 
d="M291 759q-52 -55 -76 -53q-15 2 -45 26q-30 27 -48 29q-14 1 -34 -9q-19 -12 -41 -35l-3 -42q52 55 76 54l14 -7q4 -2 23 -17l7 -4q30 -25 48 -27q33 -3 75 42z" />
    <glyph glyph-name="trademark" unicode="&#x2122;" horiz-adv-x="719" 
d="M681 437v367h-35l-156 -243l-151 243h-35v-367h33v312l139 -224h28l145 220v-308h32zM241 776v28h-239v-28h103v-339h34v339h102z" />
    <glyph glyph-name="scaron" unicode="&#x161;" 
d="M246 382h-1q-9 89 -101 89q-70 0 -70 95v126q0 94 70 94t70 -94v-65h32v63q0 121 -102 121q-105 0 -105 -121v-121q0 -123 105 -123q70 0 70 -75v-259q0 -93 -70 -93t-70 93v59h-35v-57q0 -122 105 -122q102 0 102 122v268zM207 997l-32 -1l-33 -95l-31 96h-32l45 -155
h37z" />
    <glyph glyph-name="guilsinglright" unicode="&#x203a;" horiz-adv-x="325" 
d="M285 322v23l-229 181v-39l186 -153l-186 -155v-38z" />
    <glyph glyph-name="oe" unicode="&#x153;" horiz-adv-x="456" 
d="M421 114v17h-34v-19q0 -95 -70 -95t-70 95v352h174v215q0 122 -104 122q-63 0 -87 -45q-24 45 -88 45q-103 0 -103 -122v-565q0 -122 103 -122q64 0 88 45q24 -45 87 -45q104 0 104 122zM212 112q0 -95 -70 -95t-70 95v569q0 94 70 94t70 -94v-569zM387 495h-140v186
q0 94 70 94t70 -94v-186z" />
    <glyph glyph-name="Ydieresis" unicode="&#x178;" horiz-adv-x="280" 
d="M270 804h-34l-96 -344l-93 344h-37l112 -390v-414h34v412zM205 889v37h-33v-37h33zM106 889v37h-32v-37h32z" />
    <glyph glyph-name="macron" unicode="&#xaf;" horiz-adv-x="266" 
d="M219 891v34h-172v-34h172z" />
    <glyph glyph-name="mu" unicode="&#x3bc;" 
d="M252 81v26q-70 0 -70 90v12q64 21 64 117v460h-34v-462q0 -95 -70 -95t-70 95v462h-33v-788h33v229q27 -25 70 -23h7v-1q0 -122 103 -122z" />
    <glyph glyph-name="minus" unicode="&#x2212;" horiz-adv-x="384" 
d="M350 350v34h-316v-34h316z" />
    <glyph glyph-name="apple" horiz-adv-x="884" 
d="M822 220l-95 -6l2 100h-110l50 76l-60 62l126 28l-36 74l106 30l-196 90l-82 -19l-68 -19l-72 18l-81 18l-180 -80l-65 -190l118 -325l140 -96l141 36l67 -18l72 -18l141 86zM676 944l-165 -129l-55 -130l1 -20l170 221l4 -5l-161 -217l116 61l51 124z" />
  </font>
</defs>
</svg>
