<?xml version="1.0" standalone="no"?>
<!DOCTYPE svg PUBLIC "-//W3C//DTD SVG 1.1//EN" "http://www.w3.org/Graphics/SVG/1.1/DTD/svg11.dtd" >
<svg>
<metadata>
Created by FontForge 20120731 at Fri Oct  6 11:38:23 2017
 By www-data
Generated by Fonts 4 Web (http://fonts4web.org.uk) on behalf of:Company: Lukey ShawName: Lukey ShaweMail: lukey@snails.emailThis is licensed under Creative Commons - Share Alike which legal transcript can be found at: https://creativecommons.org/licenses/by-sa/4.0/legalcode
</metadata>
<defs>
<font id="lhfmatthewsthin" horiz-adv-x="248" >
  <font-face 
    font-family="LHF Matthews Thin"
    font-weight="100"
    font-stretch="normal"
    units-per-em="1000"
    panose-1="2 0 2 3 0 0 0 0 0 0"
    ascent="800"
    descent="-200"
    x-height="529"
    cap-height="599"
    bbox="-23 -135 694 800"
    underline-thickness="20"
    underline-position="-123"
    unicode-range="U+000D-2122"
  />
<missing-glyph horiz-adv-x="500" 
d="M63 0v800h375v-800h-375zM125 63h250v675h-250v-675z" />
    <glyph glyph-name=".notdef" horiz-adv-x="500" 
d="M63 0v800h375v-800h-375zM125 63h250v675h-250v-675z" />
    <glyph glyph-name=".null" horiz-adv-x="0" 
 />
    <glyph glyph-name=".null" horiz-adv-x="0" 
 />
    <glyph glyph-name="nonmarkingreturn" unicode="&#xd;" horiz-adv-x="183" 
 />
    <glyph glyph-name="space" unicode=" " horiz-adv-x="183" 
 />
    <glyph glyph-name="exclam" unicode="!" horiz-adv-x="122" 
d="M90 576l-32 -452q-1 -10 -10 -10t-11 11l-32 451q-3 38 44 38q44 0 41 -38zM0 38q0 21 14 32q13 14 32 14q21 0 32 -14q14 -11 14 -32t-14 -32q-11 -14 -32 -14t-32 14q-14 13 -14 32z" />
    <glyph glyph-name="quotedbl" unicode="&#x22;" horiz-adv-x="157" 
d="M0 599h50v-121h-50v121zM77 599h50v-121h-50v121z" />
    <glyph glyph-name="numbersign" unicode="#" horiz-adv-x="570" 
d="M13 21v558l-13 20h88l122 -354v334l-13 20h55l-13 -20v-579h-29l-168 480v-459l13 -21h-55zM388 164q-46 0 -81 53q-41 62 -41 170q0 109 40 170q35 53 82 53q46 0 81 -53q40 -61 40 -170t-40 -170q-35 -53 -81 -53zM387 592q-52 0 -52 -206t52 -206t52 206t-52 206z
M332 43q0 21 14 34q12 14 33 14q20 0 34 -14t14 -34q0 -21 -14 -33q-13 -14 -34 -14q-22 0 -33 14q-14 11 -14 33z" />
    <glyph glyph-name="dollar" unicode="$" horiz-adv-x="220" 
d="M109 355v-113q26 17 26 48q0 27 -26 65zM84 481v99q-23 -11 -23 -38q0 -24 23 -61zM109 584v-137q36 -42 53 -63q28 -38 28 -75q0 -30 -23 -61q-23 -27 -58 -38v-36h-25v32q-36 -2 -67 17q-2 2 -13 2h-4l15 65l4 -11q18 -48 65 -45v153q-48 54 -49 56q-25 34 -30 67
q-4 37 20 65q23 23 59 29v33h25v-31q24 -1 47 -13q5 -3 16 -5l5 -2l-29 -35l-2 5q-6 10 -9 13q-10 13 -25 15h-3z" />
    <glyph glyph-name="percent" unicode="%" horiz-adv-x="542" 
d="M55 435q0 180 43 180t43 -180t-43 -180t-43 180zM98 630q38 0 66 -46q33 -53 33 -148q0 -94 -33 -148q-28 -45 -66 -45t-65 46q-33 54 -33 147q0 94 33 148q27 46 65 46zM354 655h33l-236 -717h-33zM370 164q0 180 43 180t43 -180t-43 -180t-43 180zM414 359q38 0 65 -46
q33 -54 33 -148t-33 -148q-27 -46 -65 -46t-66 46q-33 54 -33 148t33 148q28 46 66 46z" />
    <glyph glyph-name="ampersand" unicode="&#x26;" horiz-adv-x="532" 
d="M205 -13q-92 0 -150 76q-55 70 -55 163q0 70 33 120q36 56 100 72q-81 34 -81 96q0 64 74 87q27 9 59 9q21 0 42 -6q18 -5 41 -11q2 -1 9 -1l-22 -34q-21 30 -62 30q-66 0 -66 -66q0 -37 25 -65t62 -28h24q9 0 22 5v-36q-14 6 -36 6h-12q-5 -1 -12 -1q-60 0 -88 -66
q-23 -52 -23 -119q0 -72 25 -131q33 -78 94 -78q43 0 73 83q24 68 24 121q0 35 -12 70q-16 46 -45 46q-41 0 -41 -44q0 -25 25 -40q-21 -24 -39 -24q-15 0 -26 15q-10 14 -10 33q0 75 84 85q59 4 86 5q57 5 87 21q41 23 44 68q44 -2 44 -32q0 -44 -63 -63q-45 -15 -98 -13
q38 -29 38 -121q0 -87 -43 -154q-49 -78 -131 -78z" />
    <glyph glyph-name="quotesingle" unicode="'" horiz-adv-x="125" 
d="M15 599h69v-77q0 -30 -15 -57q-16 -31 -41 -31v7q16 16 16 49q0 32 -19 32h-10v77z" />
    <glyph glyph-name="parenleft" unicode="(" horiz-adv-x="187" 
d="M120 674h37q-101 -169 -101 -377q0 -203 101 -379h-37q-57 65 -88 166q-32 104 -32 216q0 230 120 374z" />
    <glyph glyph-name="parenright" unicode=")" horiz-adv-x="187" 
d="M37 674h-37q100 -167 100 -377q0 -204 -100 -379h37q57 65 88 166q32 104 32 216q0 230 -120 374z" />
    <glyph glyph-name="asterisk" unicode="*" horiz-adv-x="176" 
d="M58 608h28v-49l43 21l14 -23l-43 -23l46 -21l-12 -25l-48 25v-54h-28v54l-46 -24l-12 24l41 23l-41 21l12 23l46 -23v51z" />
    <glyph glyph-name="plus" unicode="+" horiz-adv-x="316" 
d="M166 288v-121h-46v121h-120v42h120v122h46v-122h120v-42h-120z" />
    <glyph glyph-name="comma" unicode="," horiz-adv-x="120" 
d="M42 77h69v-77q0 -29 -15 -56q-16 -31 -41 -31v6q16 16 16 50q0 31 -19 31h-10v77z" />
    <glyph glyph-name="hyphen" unicode="-" horiz-adv-x="195" 
d="M0 261h164v-52h-164v52z" />
    <glyph glyph-name="period" unicode="." horiz-adv-x="124" 
d="M22 92h72v-92h-72v92z" />
    <glyph glyph-name="slash" unicode="/" horiz-adv-x="299" 
d="M235 654h34l-237 -717h-32z" />
    <glyph glyph-name="zero" unicode="0" horiz-adv-x="342" 
d="M312 300q0 -150 -52 -235q-44 -72 -104 -72q-61 0 -104 73q-52 85 -52 234q0 150 52 235q44 72 104 72t104 -72q52 -85 52 -235zM224 299q0 286 -68 286q-69 0 -69 -286t69 -286q68 0 68 286z" />
    <glyph glyph-name="one" unicode="1" horiz-adv-x="146" 
d="M0 510l103 116v-605l13 -21h-99l13 21v489h-30z" />
    <glyph glyph-name="two" unicode="2" horiz-adv-x="288" 
d="M245 469q-5 -32 -45 -119q-57 -122 -72 -162q-38 -100 -38 -166h126l41 12l-10 -34l-235 1q6 135 60 264l94 192q14 33 14 57q0 37 -26 58q-26 19 -61 14q-36 -4 -59 -46l-34 41q4 1 12 3.5t13 4.5q40 23 84 23q60 0 100 -37q44 -41 36 -106z" />
    <glyph glyph-name="three" unicode="3" horiz-adv-x="357" 
d="M0 29l38 43q6 -24 28 -38q23 -16 45 -17q59 -4 94 49q29 47 29 118q0 69 -26 119q-28 54 -73 54h-38q-7 0 -22 -5v36q15 -5 22 -5h24q37 0 61 35q21 32 21 75q0 39 -19 65q-20 26 -56 26q-64 0 -82 -37l-25 43q17 -2 50 9q37 12 65 12q18 0 45 -5q47 -11 72 -43
q26 -34 26 -75q0 -81 -77 -116q60 -15 95 -66q30 -46 30 -108q0 -74 -41 -133q-43 -62 -115 -73q-25 -3 -45 -3q-45 0 -78 16z" />
    <glyph glyph-name="four" unicode="4" horiz-adv-x="445" 
d="M305 243h82l28 6v-35l-28 7h-82v-200l13 -20h-98l13 20v200h-233l305 445v-423zM60 243h173v247z" />
    <glyph glyph-name="five" unicode="5" horiz-adv-x="342" 
d="M108 396q37 0 69 -7q66 -13 102 -66q33 -48 33 -115q0 -69 -35 -127q-37 -61 -101 -79q-39 -11 -67 -11q-29 0 -61 12q-37 15 -48 19l38 44q10 -43 73 -48q61 -4 91 45t30 150q0 105 -98 138q-43 14 -98 13v214l-13 21h211l7 -34l-38 12h-95v-181z" />
    <glyph glyph-name="six" unicode="6" horiz-adv-x="320" 
d="M89 374q-3 -38 -3 -92q0 -108 13 -174q16 -91 53 -91q22 0 39 45q20 58 20 170q0 96 -27 173q-14 36 -43 36q-45 0 -52 -67zM290 265q1 -119 -40 -197q-37 -73 -94 -73q-61 0 -104 73q-52 85 -52 235q0 149 48 232q40 71 105 78q43 6 84 -23q4 -4 21 -10l-31 -41
q-35 50 -57 49q-57 0 -75 -147q16 31 66 31q52 0 86 -43q43 -55 43 -164z" />
    <glyph glyph-name="seven" unicode="7" horiz-adv-x="241" 
d="M87 0h-72l117 579h-92l-40 -13l9 33h201z" />
    <glyph glyph-name="eight" unicode="8" horiz-adv-x="379" 
d="M176 356h-10q-41 0 -68 -56q-24 -52 -24 -123q0 -67 23 -111q27 -50 74 -50t72 51q23 46 23 113q0 70 -24 121q-25 55 -66 55zM171 584q-32 0 -51 -28q-17 -31 -17 -69q0 -42 18 -72q19 -33 50 -33q32 0 51 34q18 32 18 74q0 40 -16 65q-20 29 -53 29zM128 0
q-55 13 -93 77q-35 61 -35 131q0 127 104 163q-75 37 -75 115q0 85 88 113q54 17 108 0q88 -28 88 -113q0 -78 -75 -115q55 -19 83 -65q28 -44 28 -102q0 -67 -36 -124q-38 -61 -99 -80q-38 -14 -86 0z" />
    <glyph glyph-name="nine" unicode="9" horiz-adv-x="314" 
d="M191 233q7 50 7 133q0 223 -58 223q-60 0 -66 -215q-3 -98 22 -173q12 -36 42 -36q45 0 53 68zM0 364q-1 123 41 190q36 58 95 58q72 0 110 -74q42 -79 37 -235q-5 -149 -55 -231q-42 -68 -102 -76q-53 -8 -88 21q-2 1 -21 10l31 40q28 -49 56 -49q58 0 80 147
q-13 -25 -53 -25q-50 0 -86 48q-43 60 -45 176z" />
    <glyph glyph-name="colon" unicode=":" horiz-adv-x="104" 
d="M22 92h72v-92h-72v92zM20 407h72v-92h-72v92z" />
    <glyph glyph-name="semicolon" unicode=";" horiz-adv-x="105" 
d="M19 77h70v-77q0 -29 -15 -56q-16 -31 -41 -31v6q15 17 15 50q0 31 -19 31h-10v77zM19 302h69v-92h-69v92z" />
    <glyph glyph-name="less" unicode="&#x3c;" horiz-adv-x="222" 
d="M56 278l136 -131l-2 -60l-190 191l192 193v-61z" />
    <glyph glyph-name="equal" unicode="=" horiz-adv-x="246" 
d="M0 364h215v-41h-215v41zM0 291h215v-41h-215v41z" />
    <glyph glyph-name="greater" unicode="&#x3e;" horiz-adv-x="222" 
d="M136 278l-136 -131l1 -60l191 191l-192 193v-61z" />
    <glyph glyph-name="question" unicode="?" horiz-adv-x="322" 
d="M292 476q-2 -48 -47 -114q-16 -23 -46 -65t-36 -50q-42 -67 -36 -123h-24q-7 27 -7 56q0 60 43 139q54 100 64 142q4 17 4 36q0 42 -27 66q-26 24 -67 24q-15 0 -28 -3q-36 -8 -74 -49l-11 43q3 -1 50 16q42 18 86 16q65 -3 106 -34q50 -38 50 -100zM67 40q0 19 13 32
q14 14 33 14t33 -14q13 -13 13 -32t-13 -32q-14 -14 -33 -14t-33 14q-13 15 -13 32z" />
    <glyph glyph-name="at" unicode="@" horiz-adv-x="651" 
d="M189 251q0 -61 52 -74q12 -2 18 -2q52 0 88 75q32 68 25 121q-8 57 -61 57q-27 0 -50 -20q-41 -38 -57 -80q-15 -44 -15 -77zM335 463q25 -5 36 -21q5 -7 18 -40l15 55h77q-1 0 -7 -12q-10 -19 -18 -51l-41 -183q-5 -27 -5 -28q0 -13 14 -13q48 0 96 63q41 54 49 106
q2 24 2 35q0 85 -52 144q-51 56 -138 78q-29 6 -56 6q-115 0 -196 -90q-81 -88 -81 -204q0 -112 66 -185q74 -85 210 -92q76 -4 147 35q72 41 88 98h47q-12 -45 -63 -90q-82 -73 -219 -73q-139 0 -230 85q-94 88 -94 228q0 128 96 224q98 96 224 96q93 0 173 -45
q79 -45 111 -123q16 -39 16 -87q0 -96 -59 -170q-63 -79 -155 -79q-30 0 -50 16q-23 15 -21 35q-22 -28 -41 -39q-18 -9 -56 -9q-54 0 -89 42q-31 37 -31 94q0 17 3 34q13 61 69 112t118 51q14 0 27 -3z" />
    <glyph glyph-name="A" unicode="A" horiz-adv-x="355" 
d="M223 127l-77 311l-78 -311h155zM41 21l6 -21h-47l14 21l155 622l154 -622l14 -21h-95l8 21l-22 85h-165z" />
    <glyph glyph-name="B" unicode="B" horiz-adv-x="338" 
d="M85 355v-331h14q41 0 74 36q44 47 42 131q-2 77 -29 122q-26 42 -63 42h-38zM0 0l13 20v558l-13 21h113q65 0 113 -31q46 -33 46 -82q0 -32 -21 -64q-23 -36 -61 -53q118 -37 118 -178q0 -73 -58 -133q-61 -58 -134 -58h-116zM85 577v-197h25q33 0 58 31q24 31 24 83
q0 36 -24 60q-25 23 -59 23h-24z" />
    <glyph glyph-name="C" unicode="C" horiz-adv-x="298" 
d="M86 305q0 -93 13 -161q22 -121 75 -121q47 0 64 54l30 -40q-10 -3 -21 -10q-47 -33 -82 -33q-87 0 -132 119q-33 87 -33 192q0 165 62 248q42 56 107 56q27 0 46 -11q29 -17 35 -18q2 0 4 -1l4 -2l-31 -39q-11 48 -57 48q-51 0 -72 -121q-12 -69 -12 -160z" />
    <glyph glyph-name="D" unicode="D" horiz-adv-x="307" 
d="M85 579v-560q42 1 75 84q31 85 31 195q0 156 -28 221q-24 59 -78 60zM0 599h109q67 0 110 -58q58 -76 58 -242q0 -146 -61 -228q-52 -70 -125 -71h-91l13 20v559z" />
    <glyph glyph-name="E" unicode="E" 
d="M199 565l-40 12h-74v-146h66l27 7v-35l-28 6h-65v-388h91l41 13l-10 -34h-207l13 20v559l-13 20h190z" />
    <glyph glyph-name="F" unicode="F" horiz-adv-x="232" 
d="M85 409v-388l13 -21h-98l13 21v557l-13 21h190l9 -34l-40 12h-74v-146h65l28 7v-35l-28 6h-65z" />
    <glyph glyph-name="G" unicode="G" horiz-adv-x="311" 
d="M258 377v-304q0 -10 -9 -25q-35 -59 -93 -59q-32 0 -62 24q-94 73 -94 284q0 199 84 275q20 20 40 27q19 8 43 8q34 0 54 -13q28 -19 37 -20l-31 -41q-11 50 -57 50q-84 0 -84 -330q0 -96 6 -138q14 -104 60 -104q34 0 34 51v315l-13 21h98z" />
    <glyph glyph-name="H" unicode="H" horiz-adv-x="307" 
d="M163 599h98l-13 -21v-558l13 -20h-98l13 20v389h-91v-389l13 -20h-98l13 20v558l-13 21h98l-13 -21v-147h91v147z" />
    <glyph glyph-name="I" unicode="I" horiz-adv-x="168" 
d="M20 599h98l-13 -20v-559l13 -20h-98l13 20v559z" />
    <glyph glyph-name="J" unicode="J" 
d="M83 -13q-29 0 -52 18q-20 16 -31 25l28 34q16 -55 51 -55q34 0 34 51v518l-13 21h98l-13 -21v-507q0 -22 -28 -50q-33 -34 -74 -34z" />
    <glyph glyph-name="K" unicode="K" horiz-adv-x="303" 
d="M185 20l-73 376l-27 -46v-330l13 -20h-98l13 20v559l-13 20h98l-13 -20v-187l105 186l-5 21h53l-20 -21l-58 -99l99 -459l14 -20h-95z" />
    <glyph glyph-name="L" unicode="L" 
d="M13 20v559l-13 20h98l-13 -20v-558h91l41 13l-10 -34h-207z" />
    <glyph glyph-name="M" unicode="M" horiz-adv-x="410" 
d="M185 159l98 440h87l-11 -20v-558l11 -21h-94l11 21v461l-108 -482h-40l-99 479v-458l11 -21h-51l11 21v558l-11 20h93z" />
    <glyph glyph-name="N" unicode="N" horiz-adv-x="302" 
d="M13 21v558l-13 20h88l122 -354v334l-13 20h55l-13 -20v-579h-29l-168 480v-459l13 -21h-55z" />
    <glyph glyph-name="O" unicode="O" horiz-adv-x="352" 
d="M312 300q0 -150 -52 -235q-44 -72 -104 -72q-61 0 -104 73q-52 85 -52 234q0 150 52 235q44 72 104 72t104 -72q52 -85 52 -235zM224 299q0 286 -68 286q-69 0 -69 -286t69 -286q68 0 68 286z" />
    <glyph glyph-name="P" unicode="P" horiz-adv-x="288" 
d="M120 355h-35v-334l13 -21h-98l13 21v558l-13 20h112q66 0 114 -31q46 -33 46 -82q0 -46 -38 -86q-44 -45 -114 -45zM85 577v-197h24q34 0 59 31q24 31 24 83q0 36 -24 60q-25 23 -59 23h-24z" />
    <glyph glyph-name="Q" unicode="Q" horiz-adv-x="352" 
d="M87 298q0 -269 61 -282q-1 8 -1 24l17 11q4 -17 12 -30q48 35 48 277q0 283 -68 283q-69 0 -69 -283zM156 604q60 0 104 -72q52 -83 52 -232q0 -126 -38 -208q-33 -69 -84 -90q25 -28 65 -41l-69 -36q-9 7 -14 16q-15 23 -21 54q-59 5 -101 76q-50 86 -50 229
q0 147 52 232q44 72 104 72z" />
    <glyph glyph-name="R" unicode="R" horiz-adv-x="341" 
d="M85 577v-144h44q29 0 52 21t23 46q0 35 -24 56q-22 21 -59 21h-36zM0 599h143q40 0 76 -15q65 -26 65 -85q0 -29 -25 -53q-27 -25 -56 -32q2 -76 8 -118q27 -200 56 -249q18 -31 32 -34t11 -9q-1 -4 -8 -4q-47 0 -77 46q-18 26 -47 114q-23 68 -45 248h-48v-387l13 -21
h-98l13 21v558z" />
    <glyph glyph-name="S" unicode="S" horiz-adv-x="274" 
d="M139 587q-33 5 -55 -15q-23 -18 -23 -57q0 -28 13 -58q19 -47 66 -109q56 -72 71 -96q33 -56 33 -107q0 -61 -45 -109q-44 -50 -108 -50q-28 0 -49 10q-31 16 -38 18q-8 2 -18 3l16 78q25 -76 92 -76q35 0 58 29q24 28 24 66q0 54 -45 119q-29 37 -85 111q-48 66 -54 121
q-6 66 36 108q40 38 97 38q39 0 74 -20q6 -4 23 -8l-31 -42q-7 13 -13 21q-16 22 -39 25z" />
    <glyph glyph-name="T" unicode="T" horiz-adv-x="268" 
d="M155 21l13 -21h-98l13 21v557h-43l-40 -13l9 34h220l9 -34l-40 13h-43v-557z" />
    <glyph glyph-name="U" unicode="U" horiz-adv-x="288" 
d="M127 -10q53 0 85 35q22 25 22 49v504l14 21h-60l13 -21v-500q0 -24 -16 -39q-17 -15 -41 -15q-28 0 -44 19q-15 17 -15 35v500l13 21h-98l13 -21v-505q0 -23 24 -48q32 -35 90 -35z" />
    <glyph glyph-name="V" unicode="V" horiz-adv-x="332" 
d="M180 173l79 405l-5 21h47l-14 -21l-113 -578h-45l-115 578l-14 21h107l-7 -21z" />
    <glyph glyph-name="W" unicode="W" horiz-adv-x="580" 
d="M180 173l79 405l-6 21h102l-7 -21l80 -405l79 405l-6 21h48l-14 -21l-114 -578h-44l-102 514l-101 -514h-45l-115 578l-14 21h107l-7 -21z" />
    <glyph glyph-name="X" unicode="X" horiz-adv-x="318" 
d="M13 21l92 321l-68 237l-12 20h95l-7 -21l52 -178l51 178l-5 21h44l-12 -20l-65 -225l96 -334l13 -20h-99l10 20l-80 276l-80 -275l5 -21h-43z" />
    <glyph glyph-name="Y" unicode="Y" horiz-adv-x="292" 
d="M96 309l-83 269l-13 21h103l-7 -21l56 -178l56 178l-5 21h48l-14 -21l-69 -217v-340l13 -20h-98l13 20v288z" />
    <glyph glyph-name="Z" unicode="Z" horiz-adv-x="276" 
d="M78 22h126l41 12l-10 -34h-235l152 578h-74l-40 -12l9 33h183z" />
    <glyph glyph-name="bracketleft" unicode="[" horiz-adv-x="188" 
d="M61 629h77v20h-138v-699h138v18h-77v661z" />
    <glyph glyph-name="backslash" unicode="\" horiz-adv-x="467" 
d="M38 654h-38l400 -717h37z" />
    <glyph glyph-name="bracketright" unicode="]" horiz-adv-x="168" 
d="M97 629h-77v20h138v-699h-138v18h77v661z" />
    <glyph glyph-name="asciicircum" unicode="^" horiz-adv-x="203" 
d="M86 691l-59 -49h-27l86 86l87 -86h-27z" />
    <glyph glyph-name="underscore" unicode="_" horiz-adv-x="1000" 
 />
    <glyph glyph-name="grave" unicode="`" horiz-adv-x="142" 
d="M0 742h73l39 -93h-35z" />
    <glyph glyph-name="a" unicode="a" horiz-adv-x="333" 
d="M226 0l7 19l-19 74h-154l-20 -74l5 -19h-47l14 20l146 551l147 -551l14 -20h-93zM137 382l-72 -268h143z" />
    <glyph glyph-name="b" unicode="b" horiz-adv-x="317" 
d="M109 0h-111l13 19v491l-13 19h108q65 0 106 -28q44 -28 44 -73q0 -28 -18 -56q-20 -29 -57 -46q109 -33 109 -157q0 -65 -55 -117t-126 -52zM102 508h-21v-172h22q32 0 53 28q23 26 23 72q0 31 -22 52q-23 20 -55 20zM115 313h-34v-290h12q37 0 69 32q39 41 39 114
q-1 67 -28 107q-24 37 -58 37z" />
    <glyph glyph-name="c" unicode="c" horiz-adv-x="280" 
d="M155 -6q-81 0 -124 102q-32 78 -32 172q0 100 31 171q40 97 127 97q29 0 53 -14q28 -13 34 -13l-31 -38q-9 44 -53 44q-46 0 -66 -105q-12 -62 -12 -142t12 -141q19 -105 70 -105q44 0 59 47l31 -37q-14 -4 -21 -9q-44 -29 -78 -29z" />
    <glyph glyph-name="d" unicode="d" horiz-adv-x="298" 
d="M85 0h-87l13 19v491l-13 19h104q63 0 105 -51q54 -67 54 -214q0 -129 -57 -201q-50 -63 -119 -63zM81 509v-490q40 3 68 75q29 72 29 169q0 137 -25 194q-22 50 -72 52z" />
    <glyph glyph-name="e" unicode="e" horiz-adv-x="232" 
d="M195 0h-197l13 19v491l-13 19h181l10 -32l-40 11h-68v-128h60l27 6v-33l-27 6h-60v-338h84l41 11z" />
    <glyph glyph-name="f" unicode="f" horiz-adv-x="218" 
d="M149 508h-68v-127h60l27 6v-33l-27 6h-60v-340l13 -20h-96l13 20v490l-13 19h181l10 -32z" />
    <glyph glyph-name="g" unicode="g" horiz-adv-x="292" 
d="M243 332v-267q0 -8 -8 -22q-33 -53 -88 -53q-32 0 -60 22q-88 66 -88 251q0 184 88 251q28 21 65 21q30 0 50 -13q26 -16 39 -19l-28 -35q-9 45 -53 45q-78 0 -78 -315q0 -186 61 -186q31 0 31 43v277l-14 20h97z" />
    <glyph glyph-name="h" unicode="h" horiz-adv-x="288" 
d="M151 0l13 19v341h-83v-341l13 -19h-96l13 19v491l-13 19h96l-13 -19v-129h83v129l-13 19h96l-13 -19v-491l13 -19h-96z" />
    <glyph glyph-name="i" unicode="i" horiz-adv-x="158" 
d="M17 0l13 19v491l-13 19h96l-13 -19v-491l13 -19h-96z" />
    <glyph glyph-name="j" unicode="j" horiz-adv-x="233" 
d="M174 510v-447q0 -18 -26 -44q-31 -31 -71 -31q-29 0 -64 29q-7 7 -15 10l29 32q15 -49 46 -49t31 43v457l-13 19h96z" />
    <glyph glyph-name="k" unicode="k" horiz-adv-x="285" 
d="M166 0l7 19l-68 328l-24 -38v-290l13 -19h-96l13 19v491l-13 19h96l-13 -19v-160l96 160l-5 19h54l-20 -20l-54 -87l92 -403l15 -19h-93z" />
    <glyph glyph-name="l" unicode="l" horiz-adv-x="232" 
d="M195 0h-197l13 19v491l-13 19h96l-13 -19v-489h84l41 11z" />
    <glyph glyph-name="m" unicode="m" horiz-adv-x="385" 
d="M257 0l11 19v398l-101 -417h-39l-90 412v-393l11 -19h-51l11 19v491l-11 19h90l84 -383l93 383h84l-11 -19v-491l11 -19h-92z" />
    <glyph glyph-name="n" unicode="n" horiz-adv-x="284" 
d="M226 510v-510h-29l-156 417v-398l13 -19h-56l13 19v491l-13 19h85l113 -306v287l-13 19h56z" />
    <glyph glyph-name="o" unicode="o" horiz-adv-x="331" 
d="M147 -6q-57 0 -99 64q-49 76 -49 207q0 133 49 207q42 65 99 65t98 -65q49 -74 49 -207t-49 -207q-40 -64 -98 -64zM146 514q-63 0 -63 -250q0 -251 63 -251t63 251q0 250 -63 250z" />
    <glyph glyph-name="p" unicode="p" horiz-adv-x="280" 
d="M113 313h-32v-294l13 -19h-96l13 19v491l-13 19h108q64 0 106 -27q44 -28 44 -74q0 -42 -36 -76q-40 -39 -107 -39zM102 508h-21v-172h22q32 0 53 28q23 26 23 72q0 31 -22 52q-23 20 -55 20z" />
    <glyph glyph-name="q" unicode="q" horiz-adv-x="331" 
d="M180 2q25 -23 62 -35l-67 -33q-8 6 -14 14q-14 21 -20 48q-56 5 -96 68q-46 73 -46 201q0 131 49 205q42 64 99 64q58 0 98 -64q49 -74 49 -205q0 -110 -35 -182q-32 -62 -79 -81zM146 512q-63 0 -63 -249q0 -234 55 -247q-1 7 -1 21l18 10q3 -16 10 -26q44 32 44 242
q0 249 -63 249z" />
    <glyph glyph-name="r" unicode="r" horiz-adv-x="320" 
d="M284 0q-45 0 -74 41q-18 28 -44 101q-21 59 -42 217h-43v-340l13 -19h-96l13 19v491l-13 19h137q38 0 71 -13q60 -22 62 -76q0 -26 -24 -47q-22 -20 -53 -28q1 -55 8 -103q25 -175 52 -219q17 -27 29 -29q13 -3 13 -8q0 -6 -9 -6zM114 508h-33v-125h40q25 0 48 18
q22 18 22 40q0 30 -22 49q-22 18 -55 18z" />
    <glyph glyph-name="s" unicode="s" horiz-adv-x="250" 
d="M-14 15l15 74q24 -70 85 -70q31 0 52 25q21 26 21 57q0 58 -89 165q-72 87 -78 144q-6 58 33 96q35 34 89 34q36 0 68 -18q6 -3 21 -8l-29 -39q-17 38 -47 42q-27 4 -49 -13q-21 -16 -21 -50q0 -22 11 -50q17 -41 95 -139q60 -77 60 -137q0 -53 -40 -96q-43 -45 -100 -45
q-24 0 -46 11q-30 14 -35 14q-2 1 -16 3z" />
    <glyph glyph-name="t" unicode="t" horiz-adv-x="252" 
d="M185 508h-39v-489l13 -19h-96l13 19v489h-39l-39 -11l9 32h209l9 -32z" />
    <glyph glyph-name="u" unicode="u" horiz-adv-x="270" 
d="M221 510v-444q0 -22 -21 -44q-28 -31 -81 -31q-54 0 -85 31q-23 23 -23 44v444l-13 19h96l-13 -19v-440q0 -16 15 -32q15 -15 39 -15t38 13q15 12 15 34v440l-13 19h59z" />
    <glyph glyph-name="v" unicode="v" horiz-adv-x="312" 
d="M271 510l-107 -510h-44l-108 510l-14 19h104l-7 -19l74 -352l73 352l-5 19h48z" />
    <glyph glyph-name="w" unicode="w" horiz-adv-x="544" 
d="M503 510l-106 -510h-44l-95 449l-94 -449h-44l-108 510l-14 19h104l-7 -19l74 -352l73 352l-6 19h99l-7 -19l74 -352l73 352l-6 19h49z" />
    <glyph glyph-name="x" unicode="x" horiz-adv-x="298" 
d="M175 0l9 19l-73 239l-75 -239l5 -19h-43l13 20l86 282l-63 208l-13 19h93l-7 -19l48 -154l47 154l-5 19h45l-13 -19l-61 -197l90 -293l14 -20h-97z" />
    <glyph glyph-name="y" unicode="y" horiz-adv-x="264" 
d="M223 509l-64 -190v-299l13 -19h-96l13 19v253l-77 236l-14 20h100l-6 -19l51 -154l51 154l-5 19h48z" />
    <glyph glyph-name="z" unicode="z" horiz-adv-x="259" 
d="M222 0h-223l142 509h-67l-40 -12l9 32h175l-143 -508h117l40 11z" />
    <glyph glyph-name="braceleft" unicode="{" horiz-adv-x="261" 
d="M66 297q4 2 11.5 5t13.5 5.5t11 4.5q20 10 26 21q12 19 12 56q0 29 -12 92q-11 66 -11 89q0 36 15 52q20 20 54 20q23 0 45 -14v47q-99 0 -125 -29q-26 -28 -26 -80q0 -27 7 -76q7 -48 7 -75q0 -47 -22 -72t-50 -37q-12 -5 -17 -7.5t-5 -1.5l24 -9q29 -15 50 -38
q20 -25 20 -69q0 -28 -8 -75q-7 -59 -7 -76q0 -51 26 -79q29 -30 126 -30v46q-22 -14 -45 -14q-36 0 -54 20q-15 16 -15 53q0 22 11 88q12 64 12 93q0 34 -12 55q-12 18 -62 35z" />
    <glyph glyph-name="bar" unicode="|" horiz-adv-x="68" 
d="M38 654h-38l1 -717h37v717z" />
    <glyph glyph-name="braceright" unicode="}" horiz-adv-x="262" 
d="M166 297q-4 2 -11.5 5t-13.5 5.5t-11 4.5q-19 9 -26 21q-12 20 -12 56q0 26 11 92t11 89q0 36 -15 52q-20 20 -53 20q-25 0 -45 -14v47q97 0 126 -30q25 -26 25 -79q0 -27 -7 -76q-7 -48 -7 -75q0 -47 22 -72t49 -37q7 -3 12.5 -5.5t8 -3.5t2.5 0l-24 -9q-28 -13 -50 -38
q-21 -24 -21 -69q0 -14 7 -75q8 -45 8 -76q0 -53 -25 -79q-29 -30 -126 -30v46q20 -14 45 -14q35 0 53 20q16 16 16 53q0 22 -11 88q-12 64 -12 93q0 34 12 55q12 18 62 35z" />
    <glyph glyph-name="asciitilde" unicode="~" horiz-adv-x="214" 
d="M184 708v-30q-26 -22 -53 -22q-12 0 -39 11t-39 11q-19 0 -53 -26v29q29 23 55 23q13 0 40 -11t37 -11q23 0 52 26z" />
    <glyph glyph-name="exclamdown" unicode="&#xa1;" horiz-adv-x="122" 
d="M2 38l32 451q2 11 10 11q9 0 11 -11l32 -451q3 -38 -44 -38q-44 0 -41 38zM92 576q0 -21 -14 -32q-11 -14 -32 -14t-32 14q-14 11 -14 32t14 32q13 14 32 14q21 0 32 -14q14 -11 14 -32z" />
    <glyph glyph-name="cent" unicode="&#xa2;" horiz-adv-x="234" 
d="M131 240q27 1 41 31l2 6l29 -34l-5 -1q-7 -2 -14 -6q-22 -18 -53 -21v-33h-27v35q-58 12 -86 88q-18 48 -18 107q0 86 32 138q29 44 72 53v30h27v-28q24 0 45 -15q5 -2 15 -5l5 -2l-30 -34q-2 6 -3 11q-9 21 -32 23v-343zM104 253v320q-35 -37 -35 -161q0 -121 35 -159z
" />
    <glyph glyph-name="sterling" unicode="&#xa3;" horiz-adv-x="325" 
d="M39 471q-7 64 37 105q41 38 103 38q45 0 85 -23q6 -4 25 -8l-34 -42q-5 11 -14 21q-19 22 -44 25q-5 1 -16 1q-73 0 -73 -82q0 -24 25 -114h79l27 7v-35l-28 6h-73q16 -68 16 -151q0 -112 -26 -196h125l41 12l-10 -34h-254l17 22q36 73 36 169q0 72 -24 178h-59v22h54
q-5 22 -15 79z" />
    <glyph glyph-name="currency" unicode="&#xa4;" horiz-adv-x="344" 
d="M133 302q0 -120 20 -197q22 -85 68 -85q43 0 63 54l30 -40q-11 -4 -21 -10q-36 -33 -82 -33q-93 0 -139 139q-26 78 -26 172q0 34 3 64h-49v22h51q14 107 59 164q39 49 92 54q49 3 81 -22q2 -1 21 -10l-30 -39q-34 48 -58 48q-67 0 -80 -195h64l27 6v-35l-27 7h-66
q-1 -21 -1 -64z" />
    <glyph glyph-name="yen" unicode="&#xa5;" horiz-adv-x="281" 
d="M94 318l-81 261l-13 20h103l-7 -20l51 -197l61 197l-5 20h48l-14 -20l-69 -218v-43h51l28 7v-35l-28 6h-51v-275l14 -21h-99l13 21v275h-52l-28 -6v35l28 -7h50z" />
    <glyph glyph-name="dieresis" unicode="&#xa8;" horiz-adv-x="183" 
d="M0 708h53v-53h-53v53zM100 708h52v-53h-52v53z" />
    <glyph glyph-name="copyright" unicode="&#xa9;" horiz-adv-x="663" 
d="M317 612q131 0 223 -92q93 -93 93 -223t-93 -223t-223 -93t-223 93q-94 93 -94 223t93 223q94 92 224 92zM317 574q-115 0 -197 -81t-82 -196t82 -197q82 -81 197 -81t197 81q82 82 82 197t-82 196t-197 81zM272 299q0 -203 63 -203q32 0 46 38l22 -29q-2 -1 -15 -7
q-26 -23 -60 -23q-63 0 -98 95q-20 58 -20 129q0 107 36 165q30 50 76 53q35 3 58 -15q3 -2 16 -7l-22 -29q-26 35 -42 35q-60 -1 -60 -202z" />
    <glyph glyph-name="guillemotleft" unicode="&#xab;" horiz-adv-x="329" 
d="M57 278l135 -130v-61l-192 191l192 193v-62zM164 278l135 131v61l-192 -192l192 -191v61z" />
    <glyph glyph-name="registered" unicode="&#xae;" horiz-adv-x="287" 
d="M257 465q0 -56 -37 -93q-36 -39 -91 -39t-92 39q-37 37 -37 93t37 93q37 39 92 39q53 0 91 -39q37 -37 37 -93zM243 465q0 47 -33 83q-35 35 -81 35t-81 -35q-34 -34 -34 -83t34 -83q35 -35 81 -35t81 35q33 36 33 83zM116 543v-42h13q22 0 22 19q0 23 -24 23h-11z
M92 549h41q41 0 41 -29q1 -19 -23 -25q0 -16 2 -34q7 -55 16 -73q6 -9 10 -10q3 -1 3 -2t-2 -1q-21 0 -37 46q-5 16 -13 73h-14v-113l4 -6h-28l3 6v162z" />
    <glyph glyph-name="degree" unicode="&#xb0;" horiz-adv-x="189" 
d="M80 772q32 0 56 -24q23 -23 23 -56t-23 -56q-25 -23 -56 -23q-33 0 -56 23q-24 22 -24 56t24 56q22 24 56 24zM80 735q-18 0 -30 -13q-13 -12 -13 -30q0 -17 13 -30q12 -12 30 -12q16 0 30 12q12 14 12 30q0 18 -12 30q-13 13 -30 13z" />
    <glyph glyph-name="acute" unicode="&#xb4;" horiz-adv-x="168" 
d="M138 749h-90l-48 -115h43z" />
    <glyph glyph-name="cedilla" unicode="&#xb8;" horiz-adv-x="174" 
d="M73 -4v-15q25 4 49 -9q22 -13 22 -36q2 -56 -87 -57q-21 0 -57 9v21q31 -12 54 -11q60 3 58 38q-1 25 -43 25q-14 0 -29 -5v40h33z" />
    <glyph glyph-name="ordmasculine" unicode="&#xba;" horiz-adv-x="145" 
d="M57 750q22 0 41 -16q16 -19 16 -41t-16 -41q-19 -16 -41 -16t-40 16q-17 19 -17 41t17 41q18 16 40 16zM57 724q-31 0 -31 -31t31 -31t31 31t-31 31z" />
    <glyph glyph-name="guillemotright" unicode="&#xbb;" horiz-adv-x="329" 
d="M242 278l-135 -131v-61l192 192l-192 193v-62zM134 278l-134 131v60l192 -191l-192 -192v61z" />
    <glyph glyph-name="questiondown" unicode="&#xbf;" horiz-adv-x="322" 
d="M0 134q2 47 46 114q11 15 39.5 54.5t43.5 60.5q42 68 35 123h24q8 -30 8 -56q0 -59 -44 -139q-52 -97 -63 -142q-4 -17 -4 -36q0 -42 27 -66q26 -24 67 -24q13 0 28 3q36 8 73 49l12 -43q-5 1 -50 -16q-42 -18 -86 -16q-64 3 -107 34q-50 38 -49 100zM225 570
q0 -19 -13 -32q-14 -14 -33 -14t-33 14q-13 13 -13 32t13 32q14 14 33 14t33 -14q13 -13 13 -32z" />
    <glyph glyph-name="Agrave" unicode="&#xc0;" horiz-adv-x="333" 
d="M83 300l-40 -280l6 -20h-49l14 20l80 558l-4 21h120l-4 -21l83 -558l14 -20h-105l7 20l-42 280h-80zM123 578l-37 -256h74zM56 741h73l39 -94h-35z" />
    <glyph glyph-name="Aacute" unicode="&#xc1;" horiz-adv-x="333" 
d="M83 300l-40 -280l6 -20h-49l14 20l80 558l-4 21h120l-4 -21l83 -558l14 -20h-105l7 20l-42 280h-80zM123 578l-37 -256h74zM241 741h-73l-39 -94h35z" />
    <glyph glyph-name="Acircumflex" unicode="&#xc2;" horiz-adv-x="333" 
d="M83 300l-40 -280l6 -20h-49l14 20l80 558l-4 21h120l-4 -21l83 -558l14 -20h-105l7 20l-42 280h-80zM123 578l-37 -256h74zM144 691l-59 -49h-27l86 86l86 -86h-26z" />
    <glyph glyph-name="Atilde" unicode="&#xc3;" horiz-adv-x="333" 
d="M83 300l-40 -280l6 -20h-49l14 20l80 558l-4 21h120l-4 -21l83 -558l14 -20h-105l7 20l-42 280h-80zM123 578l-37 -256h74zM243 691v-30q-26 -22 -53 -22q-12 0 -39 11t-39 11q-19 0 -53 -26v29q29 23 54 23q14 0 41 -11t37 -11q23 0 52 26z" />
    <glyph glyph-name="Adieresis" unicode="&#xc4;" horiz-adv-x="333" 
d="M83 300l-40 -280l6 -20h-49l14 20l80 558l-4 21h120l-4 -21l83 -558l14 -20h-105l7 20l-42 280h-80zM123 578l-37 -256h74zM72 708h53v-53h-53v53zM172 708h52v-53h-52v53z" />
    <glyph glyph-name="Aring" unicode="&#xc5;" horiz-adv-x="333" 
d="M83 300l-40 -280l6 -20h-49l14 20l80 558l-4 21h120l-4 -21l83 -558l14 -20h-105l7 20l-42 280h-80zM123 578l-37 -256h74zM148 750q22 0 40 -16q17 -19 17 -41t-17 -41q-18 -16 -40 -16q-23 0 -41 16q-17 19 -17 41t17 41q18 16 41 16zM148 724q-31 0 -31 -31t31 -31
t31 31t-31 31z" />
    <glyph glyph-name="AE" unicode="&#xc6;" horiz-adv-x="434" 
d="M385 565l-40 12h-74v-146h66l27 7v-35l-28 6h-65v-387h91l41 12l-10 -34h-207l13 21v280h-80l-79 -280l3 -21h-43l11 21l158 557l-1 21h208zM199 583l-74 -261h74v261z" />
    <glyph glyph-name="Ccedilla" unicode="&#xc7;" horiz-adv-x="298" 
d="M183 -5v-15q28 5 49 -8t23 -36q1 -56 -87 -57q-22 0 -58 9v21q28 -13 55 -11q59 3 57 38q-2 24 -42 24q-18 0 -30 -4v39q-79 10 -121 129q-29 81 -29 181q0 147 50 230q41 69 106 74q49 3 81 -22q4 -4 21 -10l-31 -39q-35 48 -57 48q-46 0 -67 -98q-17 -76 -17 -183
q0 -122 21 -197q22 -85 67 -85t64 54l30 -40q-11 -4 -21 -10q-29 -26 -65 -32h1z" />
    <glyph glyph-name="Egrave" unicode="&#xc8;" 
d="M199 565l-40 12h-74v-146h66l27 7v-35l-28 6h-65v-388h91l41 13l-10 -34h-207l13 20v559l-13 20h190zM4 741h74l38 -94h-35z" />
    <glyph glyph-name="Eacute" unicode="&#xc9;" 
d="M199 565l-40 12h-74v-146h66l27 7v-35l-28 6h-65v-388h91l41 13l-10 -34h-207l13 20v559l-13 20h190zM191 741h-73l-39 -94h35z" />
    <glyph glyph-name="Ecircumflex" unicode="&#xca;" 
d="M199 565l-40 12h-74v-146h66l27 7v-35l-28 6h-65v-388h91l41 13l-10 -34h-207l13 20v559l-13 20h190zM94 691l-59 -49h-27l86 86l86 -86h-26z" />
    <glyph glyph-name="Edieresis" unicode="&#xcb;" 
d="M199 565l-40 12h-74v-146h66l27 7v-35l-28 6h-65v-388h91l41 13l-10 -34h-207l13 20v559l-13 20h190zM22 708h53v-53h-53v53zM122 708h52v-53h-52v53z" />
    <glyph glyph-name="Igrave" unicode="&#xcc;" horiz-adv-x="178" 
d="M49 599h99l-14 -20v-559l14 -20h-99l13 20v559zM0 741h73l39 -94h-35z" />
    <glyph glyph-name="Iacute" unicode="&#xcd;" horiz-adv-x="171" 
d="M0 599h98l-13 -20v-559l13 -20h-98l13 20v559zM141 741h-73l-39 -94h35z" />
    <glyph glyph-name="Icircumflex" unicode="&#xce;" horiz-adv-x="203" 
d="M35 599h98l-13 -20v-559l13 -20h-98l13 20v559zM86 691l-59 -49h-27l86 86l87 -86h-27z" />
    <glyph glyph-name="Idieresis" unicode="&#xcf;" horiz-adv-x="183" 
d="M28 599h98l-13 -20v-559l13 -20h-98l13 20v559zM0 708h53v-53h-53v53zM100 708h52v-53h-52v53z" />
    <glyph glyph-name="Eth" unicode="&#xd0;" horiz-adv-x="340" 
d="M118 315h46v-31h-46v-265q44 2 74 84q32 80 32 195q0 156 -28 221q-24 59 -78 60v-264zM0 315h46v264l-13 20h109q67 0 110 -58q58 -76 58 -242q0 -146 -61 -228q-52 -70 -125 -71h-91l13 20v264h-46v31z" />
    <glyph glyph-name="Ntilde" unicode="&#xd1;" horiz-adv-x="283" 
d="M201 691v-30q-26 -22 -40 -22q-10 0 -37 11q-25 11 -38 11q-12 0 -20 -9l-18 -17v29q29 23 41 23t39 -11t37 -11q13 0 20 9q11 11 16 17zM13 21v558l-13 20h88l122 -354v334l-13 20h55l-13 -20v-579h-29l-168 480v-459l13 -21h-55z" />
    <glyph glyph-name="Ograve" unicode="&#xd2;" horiz-adv-x="342" 
d="M87 299q0 286 69 286q68 0 68 -286t-68 -286q-69 0 -69 286zM156 607q60 0 104 -72q52 -85 52 -235t-52 -235q-44 -72 -104 -72q-61 0 -104 73q-52 85 -52 234q0 150 52 235q44 72 104 72zM64 741h74l38 -94h-35z" />
    <glyph glyph-name="Oacute" unicode="&#xd3;" horiz-adv-x="342" 
d="M87 299q0 286 69 286q68 0 68 -286t-68 -286q-69 0 -69 286zM156 607q60 0 104 -72q52 -85 52 -235t-52 -235q-44 -72 -104 -72q-61 0 -104 73q-52 85 -52 234q0 150 52 235q44 72 104 72zM254 741h-73l-39 -94h35z" />
    <glyph glyph-name="Ocircumflex" unicode="&#xd4;" horiz-adv-x="342" 
d="M87 299q0 286 69 286q68 0 68 -286t-68 -286q-69 0 -69 286zM156 607q60 0 104 -72q52 -85 52 -235t-52 -235q-44 -72 -104 -72q-61 0 -104 73q-52 85 -52 234q0 150 52 235q44 72 104 72zM158 691l-59 -49h-27l86 86l86 -86h-26z" />
    <glyph glyph-name="Otilde" unicode="&#xd5;" horiz-adv-x="342" 
d="M87 299q0 286 69 286q68 0 68 -286t-68 -286q-69 0 -69 286zM156 607q60 0 104 -72q52 -85 52 -235t-52 -235q-44 -72 -104 -72q-61 0 -104 73q-52 85 -52 234q0 150 52 235q44 72 104 72zM246 691v-30q-26 -22 -40 -22q-11 0 -36 11q-27 11 -39 11t-21 -9l-17 -17v29
q29 23 41 23t39 -11t37 -11q12 0 20 9q11 11 16 17z" />
    <glyph glyph-name="Odieresis" unicode="&#xd6;" horiz-adv-x="342" 
d="M87 299q0 286 69 286q68 0 68 -286t-68 -286q-69 0 -69 286zM156 607q60 0 104 -72q52 -85 52 -235t-52 -235q-44 -72 -104 -72q-61 0 -104 73q-52 85 -52 234q0 150 52 235q44 72 104 72zM82 708h53v-53h-53v53zM182 708h52v-53h-52v53z" />
    <glyph glyph-name="Oslash" unicode="&#xd8;" horiz-adv-x="342" 
d="M87 299q0 286 69 286q68 0 68 -286t-68 -286q-69 0 -69 286zM156 607q60 0 104 -72q52 -85 52 -235t-52 -235q-44 -72 -104 -72q-61 0 -104 73q-52 85 -52 234q0 150 52 235q44 72 104 72zM259 654h34l-237 -717h-32z" />
    <glyph glyph-name="Ugrave" unicode="&#xd9;" horiz-adv-x="278" 
d="M127 -10q53 0 85 35q22 25 22 49v504l14 21h-60l13 -21v-500q0 -24 -16 -39q-17 -15 -41 -15q-28 0 -44 19q-15 17 -15 35v500l13 21h-98l13 -21v-505q0 -23 24 -48q32 -35 90 -35zM41 741h73l39 -94h-35z" />
    <glyph glyph-name="Uacute" unicode="&#xda;" horiz-adv-x="278" 
d="M127 -10q53 0 85 35q22 25 22 49v504l14 21h-60l13 -21v-500q0 -24 -16 -39q-17 -15 -41 -15q-28 0 -44 19q-15 17 -15 35v500l13 21h-98l13 -21v-505q0 -23 24 -48q32 -35 90 -35zM231 741h-73l-39 -94h35z" />
    <glyph glyph-name="Ucircumflex" unicode="&#xdb;" horiz-adv-x="278" 
d="M121 691l-59 -49h-27l86 86l86 -86h-26zM127 -10q53 0 85 35q22 25 22 49v504l14 21h-60l13 -21v-500q0 -24 -16 -39q-17 -15 -41 -15q-28 0 -44 19q-15 17 -15 35v500l13 21h-98l13 -21v-505q0 -23 24 -48q32 -35 90 -35z" />
    <glyph glyph-name="Udieresis" unicode="&#xdc;" horiz-adv-x="278" 
d="M48 708h53v-53h-53v53zM148 708h52v-53h-52v53zM127 -10q53 0 85 35q22 25 22 49v504l14 21h-60l13 -21v-500q0 -24 -16 -39q-17 -15 -41 -15q-28 0 -44 19q-15 17 -15 35v500l13 21h-98l13 -21v-505q0 -23 24 -48q32 -35 90 -35z" />
    <glyph glyph-name="Yacute" unicode="&#xdd;" horiz-adv-x="281" 
d="M96 308l-83 270l-13 21h103l-7 -21l57 -179l55 179l-5 21h48l-14 -21l-69 -217v-340l14 -21h-99l13 21v287zM230 741h-74l-38 -94h35z" />
    <glyph glyph-name="Thorn" unicode="&#xde;" horiz-adv-x="302" 
d="M121 205h-36v-184l13 -21h-98l13 21v557l-13 21h83v-150h30q67 0 113 -31t46 -82q0 -46 -38 -86q-44 -45 -113 -45zM85 427v-197h25q33 0 58 32q24 30 24 82q0 38 -24 60q-24 24 -59 24z" />
    <glyph glyph-name="germandbls" unicode="&#xdf;" horiz-adv-x="478" 
d="M349 587q-33 5 -55 -15q-23 -18 -23 -57q0 -28 13 -58q19 -47 66 -109q56 -72 71 -96q33 -56 33 -107q0 -61 -45 -109q-44 -50 -108 -50q-28 0 -49 10q-31 16 -38 18q-8 2 -18 3l4 19q-47 -50 -109 -50q-28 0 -49 10q-31 16 -38 18q-8 2 -18 3l16 78q25 -76 92 -76
q35 0 58 29q24 28 24 66q0 54 -45 119q-29 37 -85 111q-48 66 -54 121q-6 66 36 108q40 38 97 38q39 0 74 -20q6 -4 23 -8l-31 -42q-7 13 -13 21q-16 22 -39 25q-33 5 -55 -15q-23 -18 -23 -57q0 -28 13 -58q19 -47 66 -109q56 -72 71 -96q33 -56 33 -107q0 -39 -21 -76
q30 -50 81 -50q35 0 58 29q24 28 24 66q0 54 -45 119q-29 37 -85 111q-48 66 -54 121q-6 66 36 108q40 38 97 38q39 0 74 -20q6 -4 23 -8l-31 -42q-7 13 -13 21q-16 22 -39 25z" />
    <glyph glyph-name="agrave" unicode="&#xe0;" horiz-adv-x="317" 
d="M79 265l-38 -247l5 -18h-46l14 18l76 493l-4 18h114l-4 -18l79 -493l14 -18h-101l7 18l-39 247h-77zM117 510l-35 -226h70zM53 654h70l37 -83h-33z" />
    <glyph glyph-name="aacute" unicode="&#xe1;" horiz-adv-x="317" 
d="M79 265l-38 -247l5 -18h-46l14 18l76 493l-4 18h114l-4 -18l79 -493l14 -18h-101l7 18l-39 247h-77zM117 510l-35 -226h70zM230 654h-70l-37 -83h33z" />
    <glyph glyph-name="acircumflex" unicode="&#xe2;" horiz-adv-x="317" 
d="M79 265l-38 -247l5 -18h-46l14 18l76 493l-4 18h114l-4 -18l79 -493l14 -18h-101l7 18l-39 247h-77zM117 510l-35 -226h70zM138 610l-57 -43h-26l83 76l82 -76h-26z" />
    <glyph glyph-name="atilde" unicode="&#xe3;" horiz-adv-x="317" 
d="M79 265l-38 -247l5 -18h-46l14 18l76 493l-4 18h114l-4 -18l79 -493l14 -18h-101l7 18l-39 247h-77zM117 510l-35 -226h70zM231 610v-27q-25 -19 -50 -19q-14 0 -37 10q-24 9 -38 9q-19 0 -50 -22v25q29 21 52 21q15 0 38 -10q24 -10 36 -10q23 0 49 23z" />
    <glyph glyph-name="adieresis" unicode="&#xe4;" horiz-adv-x="317" 
d="M79 265l-38 -247l5 -18h-46l14 18l76 493l-4 18h114l-4 -18l79 -493l14 -18h-101l7 18l-39 247h-77zM117 510l-35 -226h70zM69 625h50v-47h-50v47zM164 625h50v-47h-50v47z" />
    <glyph glyph-name="aring" unicode="&#xe5;" horiz-adv-x="317" 
d="M79 265l-38 -247l5 -18h-46l14 18l76 493l-4 18h114l-4 -18l79 -493l14 -18h-101l7 18l-39 247h-77zM117 510l-35 -226h70zM141 662q21 0 38 -14q16 -15 16 -36t-16 -36t-38 -15q-23 0 -39 15t-16 36t16 36q17 14 39 14zM141 639q-30 0 -30 -27t30 -27q29 0 29 27t-29 27
z" />
    <glyph glyph-name="ae" unicode="&#xe6;" horiz-adv-x="434" 
d="M367 499l-38 11h-70v-129h62l26 6v-31l-26 6h-62v-343h86l40 11l-10 -30h-197l12 18v247h-76l-76 -247l3 -18h-41l11 18l150 493l-1 18h199zM190 515l-70 -231h70v231z" />
    <glyph glyph-name="ccedilla" unicode="&#xe7;" horiz-adv-x="298" 
d="M183 -5v-15q28 5 49 -8t23 -36q1 -56 -87 -57q-22 0 -58 9v21q28 -13 55 -11q59 3 57 38q-2 24 -42 24q-18 0 -30 -4v39q-78 11 -120 127q-30 81 -30 183q0 147 50 230q41 69 106 74q49 3 81 -22q4 -4 21 -10l-31 -39q-35 48 -57 48q-46 0 -67 -98q-17 -76 -17 -183
q0 -122 21 -197q22 -85 67 -85t64 54l30 -40q-11 -4 -21 -10q-29 -26 -65 -32h1z" />
    <glyph glyph-name="egrave" unicode="&#xe8;" 
d="M77 570l-75 85h73l37 -85h-35zM195 0h-197l13 19v491l-13 19h181l10 -32l-40 11h-68v-128h60l27 6v-33l-27 6h-60v-338h84l41 11z" />
    <glyph glyph-name="eacute" unicode="&#xe9;" 
d="M174 663h-74l-38 -94h35zM195 0h-197l13 19v491l-13 19h181l10 -32l-40 11h-68v-128h60l27 6v-33l-27 6h-60v-338h84l41 11z" />
    <glyph glyph-name="ecircumflex" unicode="&#xea;" 
d="M88 615l-52 -43h-24l76 76l76 -76h-23zM195 0h-197l13 19v491l-13 19h181l10 -32l-40 11h-68v-128h60l27 6v-33l-27 6h-60v-338h84l41 11z" />
    <glyph glyph-name="edieresis" unicode="&#xeb;" 
d="M19 625h47v-47h-47v47zM108 625h46v-47h-46v47zM195 0h-197l13 19v491l-13 19h181l10 -32l-40 11h-68v-128h60l27 6v-33l-27 6h-60v-338h84l41 11z" />
    <glyph glyph-name="igrave" unicode="&#xec;" horiz-adv-x="158" 
d="M17 0l13 19v491l-13 19h96l-13 -19v-491l13 -19h-96zM52 573l-75 84h73l37 -84h-35z" />
    <glyph glyph-name="iacute" unicode="&#xed;" horiz-adv-x="158" 
d="M17 0l13 19v491l-13 19h96l-13 -19v-491l13 -19h-96zM162 663h-73l-39 -93h35z" />
    <glyph glyph-name="icircumflex" unicode="&#xee;" horiz-adv-x="158" 
d="M17 0l13 19v491l-13 19h96l-13 -19v-491l13 -19h-96zM67 610l-53 -43h-23l76 76l76 -76h-24z" />
    <glyph glyph-name="idieresis" unicode="&#xef;" horiz-adv-x="158" 
d="M17 0l13 19v491l-13 19h96l-13 -19v-491l13 -19h-96zM-1 625h47v-47h-47v47zM88 625h46v-47h-46v47z" />
    <glyph glyph-name="eth" unicode="&#xf0;" horiz-adv-x="340" 
d="M118 315h46v-31h-46v-265q44 2 74 84q32 80 32 195q0 156 -28 221q-24 59 -78 60v-264zM0 315h46v264l-13 20h109q67 0 110 -58q58 -76 58 -242q0 -146 -61 -228q-52 -70 -125 -71h-91l13 20v264h-46v31z" />
    <glyph glyph-name="ntilde" unicode="&#xf1;" horiz-adv-x="284" 
d="M226 510v-510h-29l-156 417v-398l13 -19h-56l13 19v491l-13 19h85l113 -306v287l-13 19h56z" />
    <glyph glyph-name="ograve" unicode="&#xf2;" horiz-adv-x="331" 
d="M147 -6q-57 0 -99 64q-49 76 -49 207q0 133 49 207q42 65 99 65t98 -65q49 -74 49 -207t-49 -207q-40 -64 -98 -64zM146 514q-63 0 -63 -250q0 -251 63 -251t63 251q0 250 -63 250zM131 576l-76 84h73l38 -84h-35z" />
    <glyph glyph-name="oacute" unicode="&#xf3;" horiz-adv-x="331" 
d="M147 -6q-57 0 -99 64q-49 76 -49 207q0 133 49 207q42 65 99 65t98 -65q49 -74 49 -207t-49 -207q-40 -64 -98 -64zM146 514q-63 0 -63 -250q0 -251 63 -251t63 251q0 250 -63 250zM243 677h-73l-39 -93h35z" />
    <glyph glyph-name="ocircumflex" unicode="&#xf4;" horiz-adv-x="331" 
d="M147 -6q-57 0 -99 64q-49 76 -49 207q0 133 49 207q42 65 99 65t98 -65q49 -74 49 -207t-49 -207q-40 -64 -98 -64zM146 514q-63 0 -63 -250q0 -251 63 -251t63 251q0 250 -63 250zM143 616l-53 -44h-24l77 76l76 -76h-24z" />
    <glyph glyph-name="otilde" unicode="&#xf5;" horiz-adv-x="331" 
d="M147 -6q-57 0 -99 64q-49 76 -49 207q0 133 49 207q42 65 99 65t98 -65q49 -74 49 -207t-49 -207q-40 -64 -98 -64zM146 514q-63 0 -63 -250q0 -251 63 -251t63 251q0 250 -63 250zM231 610v-27q-25 -19 -50 -19q-14 0 -37 10q-24 9 -38 9q-19 0 -50 -22v25q29 21 52 21
q15 0 38 -10q24 -10 36 -10q23 0 49 23z" />
    <glyph glyph-name="odieresis" unicode="&#xf6;" horiz-adv-x="331" 
d="M147 -6q-57 0 -99 64q-49 76 -49 207q0 133 49 207q42 65 99 65t98 -65q49 -74 49 -207t-49 -207q-40 -64 -98 -64zM146 514q-63 0 -63 -250q0 -251 63 -251t63 251q0 250 -63 250zM69 625h50v-47h-50v47zM164 625h50v-47h-50v47z" />
    <glyph glyph-name="oslash" unicode="&#xf8;" horiz-adv-x="331" 
d="M90 120l80 385q-10 9 -24 9q-63 0 -63 -250q0 -92 7 -144zM191 466l-86 -413q15 -40 41 -40q63 0 63 251q0 144 -18 202zM190 600h29l-17 -82q92 -62 92 -253q0 -133 -49 -207q-40 -64 -98 -64q-25 0 -51 15l-12 -57h-29l16 78q-72 72 -72 235q0 133 49 207q42 65 99 65
q13 0 28 -5z" />
    <glyph glyph-name="ugrave" unicode="&#xf9;" horiz-adv-x="270" 
d="M221 510v-444q0 -22 -21 -44q-28 -31 -81 -31q-54 0 -85 31q-23 23 -23 44v444l-13 19h96l-13 -19v-440q0 -16 15 -32q15 -15 39 -15t38 13q15 12 15 34v440l-13 19h59zM131 576l-76 84h73l38 -84h-35z" />
    <glyph glyph-name="uacute" unicode="&#xfa;" horiz-adv-x="270" 
d="M221 510v-444q0 -22 -21 -44q-28 -31 -81 -31q-54 0 -85 31q-23 23 -23 44v444l-13 19h96l-13 -19v-440q0 -16 15 -32q15 -15 39 -15t38 13q15 12 15 34v440l-13 19h59zM220 673h-73l-39 -93h35z" />
    <glyph glyph-name="ucircumflex" unicode="&#xfb;" horiz-adv-x="270" 
d="M221 510v-444q0 -22 -21 -44q-28 -31 -81 -31q-54 0 -85 31q-23 23 -23 44v444l-13 19h96l-13 -19v-440q0 -16 15 -32q15 -15 39 -15t38 13q15 12 15 34v440l-13 19h59zM123 624l-52 -43h-24l76 76l76 -76h-24z" />
    <glyph glyph-name="udieresis" unicode="&#xfc;" horiz-adv-x="270" 
d="M221 510v-444q0 -22 -21 -44q-28 -31 -81 -31q-54 0 -85 31q-23 23 -23 44v444l-13 19h96l-13 -19v-440q0 -16 15 -32q15 -15 39 -15t38 13q15 12 15 34v440l-13 19h59zM49 625h50v-47h-50v47zM144 625h50v-47h-50v47z" />
    <glyph glyph-name="yacute" unicode="&#xfd;" horiz-adv-x="264" 
d="M223 509l-64 -190v-299l13 -19h-96l13 19v253l-77 236l-14 20h100l-6 -19l51 -154l51 154l-5 19h48zM220 673h-73l-39 -93h35z" />
    <glyph glyph-name="thorn" unicode="&#xfe;" horiz-adv-x="302" 
d="M106 181h-31v-163l12 -18h-87l12 18v493l-12 18h73v-132h26q60 0 101 -28q40 -29 40 -72q0 -41 -33 -76q-39 -40 -101 -40zM75 377v-174h22q29 0 51 27q22 28 22 74q0 33 -22 52q-21 21 -52 21h-21z" />
    <glyph glyph-name="ydieresis" unicode="&#xff;" horiz-adv-x="264" 
d="M223 509l-64 -190v-299l13 -19h-96l13 19v253l-77 236l-14 20h100l-6 -19l51 -154l51 154l-5 19h48zM54 625h50v-47h-50v47zM149 625h50v-47h-50v47z" />
    <glyph glyph-name="glyph4" horiz-adv-x="398" 
 />
    <glyph glyph-name="OE" unicode="&#x152;" horiz-adv-x="475" 
d="M87 298q0 -286 68 -286q69 0 69 286q0 285 -69 285q-68 0 -68 -285zM156 606q46 0 84 -44v37h177l9 -34l-40 13h-74v-147h66l27 7v-35l-28 7h-65v-388h91l41 12l-10 -34h-194v37q-38 -45 -84 -45q-61 0 -104 73q-52 85 -52 234t52 234q43 73 104 73z" />
    <glyph glyph-name="oe" unicode="&#x153;" horiz-adv-x="463" 
d="M146 514q-63 0 -63 -250q0 -251 63 -251t63 251q0 250 -63 250zM430 0h-197l13 19v40q-42 -65 -99 -65t-99 64q-49 76 -49 207q0 133 49 207q42 65 99 65t99 -66v39l-13 19h181l10 -32l-40 11h-68v-128h60l27 6v-33l-27 6h-60v-338h84l41 11z" />
    <glyph glyph-name="florin" unicode="&#x192;" horiz-adv-x="387" 
d="M234 501q4 24 26 41q24 16 47 16q19 0 42 -9q1 9 8 44q-13 0 -23 1q-9 1 -22 1q-88 -1 -126 -63q-17 -27 -22 -60q-4 -33 -15 -106h-61l-5 -37h60l-23 -158q-19 -131 -22 -153q-9 -57 -21 -80q-22 -36 -71 -43l-6 -30q41 21 75 47q77 56 85 106l23 153q2 13 9.5 66
t13.5 92h108l6 37h-108q2 11 9 56t13 79z" />
    <glyph glyph-name="afii10050" unicode="&#x490;" horiz-adv-x="398" 
 />
    <glyph glyph-name="quoteleft" unicode="&#x2018;" horiz-adv-x="137" 
d="M105 434h-69v77q0 30 15 57q16 31 41 31v-7q-16 -16 -16 -49q0 -32 19 -32h10v-77z" />
    <glyph glyph-name="quoteright" unicode="&#x2019;" horiz-adv-x="137" 
d="M20 599h69v-77q0 -30 -15 -57q-16 -31 -41 -31v7q15 16 15 49q0 32 -19 32h-9v77z" />
    <glyph glyph-name="quotesinglbase" unicode="&#x201a;" horiz-adv-x="223" 
d="M120 77h69v-77q0 -30 -16 -58q-17 -29 -40 -29v6q16 16 16 50q0 31 -19 31h-10v77z" />
    <glyph glyph-name="quotedblleft" unicode="&#x201c;" horiz-adv-x="223" 
d="M198 434h-69v78q0 29 15 56q16 31 41 31v-7q-16 -15 -16 -49q0 -31 19 -31h10v-78zM98 434h-69v78q0 29 15 56q16 31 41 31v-7q-16 -15 -16 -49q0 -31 19 -31h10v-78z" />
    <glyph glyph-name="quotedblright" unicode="&#x201d;" horiz-adv-x="223" 
d="M20 599h69v-77q0 -30 -15 -57q-16 -31 -41 -31v7q15 16 15 49q0 32 -19 32h-9v77zM120 599h69v-77q0 -30 -15 -57q-16 -31 -41 -31v7q15 16 15 49q0 32 -19 32h-9v77z" />
    <glyph glyph-name="quotedblbase" unicode="&#x201e;" horiz-adv-x="223" 
d="M20 77h69v-77q0 -30 -16 -58q-17 -29 -40 -29v6q16 16 16 50q0 31 -19 31h-10v77zM120 77h69v-77q0 -30 -16 -58q-17 -29 -40 -29v6q16 16 16 50q0 31 -19 31h-10v77z" />
    <glyph glyph-name="perthousand" unicode="&#x2030;" horiz-adv-x="741" 
d="M52 426q0 169 40 169q41 0 41 -169q0 -170 -41 -170q-40 0 -40 170zM93 609q36 0 61 -43q31 -50 31 -140q0 -89 -31 -139q-25 -43 -61 -43t-62 44q-31 49 -31 138q0 90 31 139q26 44 62 44zM333 632h32l-223 -675h-31zM349 170q0 170 40 170q41 0 41 -170
q0 -169 -41 -169q-40 0 -40 169zM389 353q37 0 62 -43q31 -49 31 -139t-31 -139q-25 -43 -62 -43q-36 0 -61 43q-31 50 -31 139t30 139q27 43 62 43zM561 170q0 170 40 170q41 0 41 -170q0 -169 -41 -169q-40 0 -40 169zM602 353q36 0 61 -43q31 -49 31 -139t-31 -139
q-25 -43 -61 -43q-37 0 -62 43q-31 50 -31 139q0 90 31 139q25 43 62 43z" />
    <glyph glyph-name="trademark" unicode="&#x2122;" horiz-adv-x="257" 
d="M67 391l5 -8h-36l5 8v200h-15l-15 -4l3 12h80l3 -12l-15 4h-15v-200zM169 441l38 158h31l-4 -7v-201l4 -8h-34l4 8v166l-41 -174h-14l-34 173v-165l4 -8h-18l4 8v201l-4 7h33z" />
  </font>
</defs>
</svg>
