<?xml version="1.0" standalone="no"?>
<!DOCTYPE svg PUBLIC "-//W3C//DTD SVG 1.1//EN" "http://www.w3.org/Graphics/SVG/1.1/DTD/svg11.dtd" >
<svg xmlns="http://www.w3.org/2000/svg" xmlns:xlink="http://www.w3.org/1999/xlink" version="1.1">
<metadata>
Created by FontForge 20170731 at Fri Jan  1 10:00:00 1904
 By Simon Antony Roberts,,,
Copyright 1992 by Elfring Soft Fonts, All rights reserved.
</metadata>
<defs>
<font id="PrestigeEliteNormal" horiz-adv-x="1229" >
  <font-face 
    font-family="Prestige Elite"
    font-weight="400"
    font-stretch="normal"
    units-per-em="2048"
    panose-1="2 11 5 0 0 0 0 0 0 0"
    ascent="1638"
    descent="-410"
    x-height="848"
    cap-height="1241"
    bbox="-4 -481.002 1280 1806"
    underline-thickness="25"
    underline-position="-162"
    unicode-range="U+0020-F001"
  />
<missing-glyph horiz-adv-x="1536" 
d="M256 0v1280h1024v-1280h-1024zM1247 33v1214h-958v-1214h958z" />
    <glyph glyph-name=".notdef" horiz-adv-x="1536" 
d="M256 0v1280h1024v-1280h-1024zM1247 33v1214h-958v-1214h958z" />
    <glyph glyph-name="space" unicode=" " 
 />
    <glyph glyph-name="exclam" unicode="!" 
d="M717 1167l-67.999 -841h-74l-67 841c0 28.667 10.167 52.334 30.5 71.001s44.833 28 73.5 28c29.333 0 54.166 -9.33301 74.499 -28s30.5 -42.334 30.5 -71.001zM729.001 92c0 -32.667 -11.332 -60.333 -33.999 -83s-50.334 -34 -83.001 -34
c-31.333 0 -58.166 11.5 -80.499 34.5s-33.5 50.5 -33.5 82.5s11.167 59.167 33.5 81.5s49.166 33.5 80.499 33.5c20.667 0 40 -5 58 -15s32.333 -24 43 -42s16 -37.333 16 -58z" />
    <glyph glyph-name="quotedbl" unicode="&#x22;" 
d="M928 1182c0 -31.333 -5.66699 -83.333 -17 -156l-57 -371h-94l-58 371c-10.667 80 -16 132 -16 156c0 18 12.333 36.5 37 55.5s52.667 28.5 84 28.5s59.333 -9.5 84 -28.5s37 -37.5 37 -55.5zM543 1182c0 -18.667 -5.66699 -70.667 -17 -156l-57 -371h-94l-58 371
c-10.667 80 -16 132 -16 156c0 18 12.333 36.5 37 55.5s52.667 28.5 84 28.5s59.333 -9.5 84 -28.5s37 -37.5 37 -55.5z" />
    <glyph glyph-name="numbersign" unicode="#" 
d="M1176 1004l-25 -103h-270l-56 -309h275l-23 -100l-270 -3l-90 -520l-103 -2l260 1467l103 2l-78 -432h277zM604 1438l-256 -1469l-102 -2l84 522h-275l21 103h272l55 309h-274l21 100l272 3l80 430z" />
    <glyph glyph-name="dollar" unicode="$" 
d="M1006 360c0 -60.667 -15.8281 -115.333 -47.4951 -164s-73.334 -87.667 -125.001 -117s-107.5 -46 -167.5 -50v-213h-93v213c-50.667 4.66699 -98.5 12.5 -143.5 23.5s-109.5 28.167 -193.5 51.5l6 113c0 54 -7.66699 108 -23 162h96
c6 -82.667 19.667 -139.334 41 -170.001c22.667 -31.333 60.667 -54.833 114 -70.5s103.666 -23.5 150.999 -23.5c76.667 0 143.5 21.5 200.5 64.5s85.5 101.833 85.5 176.5c0 71.333 -26.833 125 -80.5 161s-133.334 72 -239.001 108s-185.667 73.667 -240 113
s-81.5 98.333 -81.5 177c0 54 14.167 105.333 42.5 154s66 88.667 113 120s97.5 51.333 151.5 60v215h93v-215c60.667 0 116.167 -8.33301 166.5 -25s92.166 -45 125.499 -85c-4 -19.333 -6 -51 -6 -95l9 -139h-93v51c0 78.667 -14.167 132.834 -42.5 162.501
s-82.833 44.5 -163.5 44.5c-80 0 -149.5 -20 -208.5 -60s-88.5 -99.667 -88.5 -179c0 -63.333 24.667 -110.333 74 -141s128.666 -65.667 237.999 -105s191.5 -81 246.5 -125s82.5 -108.333 82.5 -193z" />
    <glyph glyph-name="percent" unicode="%" 
d="M502 991c0 -46 -6.16797 -89.667 -18.501 -131s-33 -75.5 -62 -102.5s-67.167 -40.5 -114.5 -40.5c-45.333 0 -82.833 13.5 -112.5 40.5s-50.667 61.333 -63 103s-18.5 85.167 -18.5 130.5c0 74.667 15.333 139.167 46 193.5s80 81.5 148 81.5
c68.667 0 118.334 -27.167 149.001 -81.5s46 -118.833 46 -193.5zM933.999 1266l-569 -1325l-68 39l569 1325zM1116 250c0 -46 -6.16699 -89.833 -18.5 -131.5s-33.333 -76 -63 -103s-67.167 -40.5 -112.5 -40.5c-68 0 -117.5 27.5 -148.5 82.5s-46.5 119.167 -46.5 192.5
c0 46 6.16699 89.667 18.5 131s33 75.5 62 102.5s67.167 40.5 114.5 40.5c68 0 117.333 -27 148 -81s46 -118.333 46 -193zM417.999 991c0 58.667 -7 107.5 -21 146.5s-44 58.5 -90 58.5c-45.333 0 -75 -20 -89 -60s-21 -88.333 -21 -145
c0 -56 7.16699 -104.167 21.5 -144.5s43.833 -60.5 88.5 -60.5c46 0 76 19.5 90 58.5s21 87.833 21 146.5zM1032 250c0 58.667 -6.66602 107.5 -19.999 146.5s-43.333 58.5 -90 58.5c-46 0 -76 -20 -90 -60s-21 -88.333 -21 -145c0 -56 7.16699 -104.167 21.5 -144.5
s44.166 -60.5 89.499 -60.5c46 0 75.833 19.5 89.5 58.5s20.5 87.833 20.5 146.5z" />
    <glyph glyph-name="ampersand" unicode="&#x26;" 
d="M1094 127c-14 -88.667 -54.333 -132.999 -121 -132.999c-32.667 0 -59.5 8.83301 -80.5 26.5s-43.5 43.5 -67.5 77.5c-32.667 -40.667 -74.667 -71.334 -126 -92.001s-104.666 -31 -159.999 -31c-65.333 0 -124 18 -176 54s-92 83.5 -120 142.5s-42 120.5 -42 184.5
c0 87.333 21.833 165.5 65.5 234.5s104.5 119.167 182.5 150.5c-76.667 104 -115 202.333 -115 295c0 67.333 25.167 122.5 75.5 165.5s109.166 64.5 176.499 64.5c43.333 0 84.333 -11 123 -33s71.334 -51.333 98.001 -88l-68 -70c-26 33.333 -51.333 59.166 -76 77.499
s-52.334 27.5 -83.001 27.5c-41.333 0 -76.333 -14.333 -105 -43s-43 -63 -43 -103c0 -32 17.333 -77.333 52 -136s86 -137.667 154 -237s120 -180 156 -242s54 -109.667 54 -143c36 84 56.333 195.333 61 334h166v-86h-84c-1.33301 -34 -5.5 -71.5 -12.5 -112.5
s-17.5 -82.167 -31.5 -123.5s-32 -80.666 -54 -117.999c22 -60 48.667 -90 80 -90c16 0 27.5 7.16699 34.5 21.5s13.833 35.833 20.5 64.5zM786 182.001c-15.333 39.333 -38.166 93.333 -68.499 162s-56.5 118 -78.5 148l-137 180
c-45.333 -14.667 -83.333 -37.167 -114 -67.5s-53.167 -66.166 -67.5 -107.499s-21.5 -86.333 -21.5 -135c0 -52 9.66699 -100.833 29 -146.5s48.333 -82.834 87 -111.501s84 -43 136 -43c87.333 0 165.666 40.333 234.999 121z" />
    <glyph glyph-name="quotesingle" unicode="'" 
d="M735 1182c0 -24 -5.33398 -76 -16.001 -156l-57 -371h-95l-57 371c-10.667 80 -16 132 -16 156c0 18 12.333 36.5 37 55.5s52.334 28.5 83.001 28.5c31.333 0 59.333 -9.5 84 -28.5s37 -37.5 37 -55.5z" />
    <glyph glyph-name="parenleft" unicode="(" 
d="M952 -156l-59 -68.999c-136.667 103.333 -235.667 225.666 -297 366.999s-92 301 -92 479c0 114.667 13.167 223 39.5 325s67.833 196.333 124.5 283s131.667 165.667 225 237l59 -71c-64.667 -44 -119 -94.333 -163 -151s-80 -119 -108 -187
s-48.167 -138.833 -60.5 -212.5s-18.5 -148.167 -18.5 -223.5c0 -74.667 6.16699 -149 18.5 -223s32.333 -145.167 60 -213.5s63.5 -130.833 107.5 -187.5s98.667 -107.667 164 -153z" />
    <glyph glyph-name="parenright" unicode=")" 
d="M725 621c0 -115.333 -13.167 -223.665 -39.5 -324.998s-67.833 -195.833 -124.5 -283.5s-131 -166.834 -223 -237.501l-59 71c123.333 86 212.166 195.667 266.499 329s81.5 282 81.5 446c0 80 -6 156.167 -18 228.5s-31.667 141.833 -59 208.5s-63.5 129 -108.5 187
s-99.167 108.667 -162.5 152l59 69c68.667 -50.667 127.667 -107.834 177 -171.501s89.333 -130.334 120 -200.001s53.334 -144.667 68.001 -225s22 -163.166 22 -248.499z" />
    <glyph glyph-name="asterisk" unicode="*" 
d="M909 1044c0 -25.333 -4.5 -44.6699 -13.5 -58.0029s-22.833 -23.333 -41.5 -30c-28.667 -8 -83.334 -12 -164.001 -12c-1.33301 -8.66699 -6 -19 -14 -31c32 -22.667 58 -41.667 78 -57s35 -31 45 -47c13.333 -20 20 -37.667 20 -53c0 -20.667 -8.66699 -37.667 -26 -51
c-12.667 -8.66699 -25 -13 -37 -13c-21.333 0 -42.666 12.333 -63.999 37c-12 16 -22.667 36.167 -32 60.5s-19 54.166 -29 89.499h-31c-20 -74.667 -40.333 -126 -61 -154c-20.667 -24.667 -42 -37 -64 -37c-12.667 0 -25.667 4 -39 12c-16 14.667 -24 32 -24 52
c0 16 6 33.667 18 53c8.66699 11.333 19.667 22.833 33 34.5s29 23.834 47 36.501s33 23.667 45 33c-9.33301 14.667 -15.333 26.334 -18 35.001c-80.667 0 -134.667 4 -162 12c-20 8 -34.667 18.667 -44 32s-14 33 -14 59c13.333 28.667 36 43 68 43
c4 0 14.333 -1.66699 31 -5c34 -11.333 79.667 -40.666 137 -87.999c11.333 14.667 23 24.334 35 29.001c-26 74.667 -39 128 -39 160c0 23.333 6.16699 42.5 18.5 57.5s28.5 22.5 48.5 22.5c21.333 0 38 -7.33301 50 -22s18 -34 18 -58c0 -18 -4.5 -42.333 -13.5 -73
s-17.5 -59 -25.5 -85c14 -9.33301 23.667 -19 29 -29c60 47.333 105.667 76 137 86c16.667 3.33301 27 5 31 5c34.667 0 57 -15.333 67 -46z" />
    <glyph glyph-name="plus" unicode="+" 
d="M1145 672h-479v-500h-103v500h-479v102h479v500h103v-500h479v-102z" />
    <glyph glyph-name="comma" unicode="," 
d="M745 80c0 -62.667 -26.001 -119.001 -78.001 -169.001s-112 -84.667 -180 -104l2 93c28.667 8 55.167 19.667 79.5 35s42.5 34.333 54.5 57c-4.66699 -1.33301 -11.667 -2 -21 -2c-34 0 -62.333 10.5 -85 31.5s-34 48.5 -34 82.5c0 36.667 12 67.334 36 92.001
s54.333 37 91 37c40.667 0 73.334 -15.5 98.001 -46.5s37 -66.5 37 -106.5z" />
    <glyph glyph-name="hyphen" unicode="-" 
d="M887 578h-545v86h545v-86z" />
    <glyph glyph-name="period" unicode="." 
d="M745 106c0 -35.333 -12.667 -66 -38 -92s-56.333 -39 -93 -39c-35.333 0 -66 13 -92 39s-39 56.667 -39 92c0 36 13 67 39 93s56.667 39 92 39c36.667 0 67.667 -13 93 -39s38 -57 38 -93z" />
    <glyph glyph-name="slash" unicode="/" 
d="M975 1442l-615 -1475l-106 -2l612 1473z" />
    <glyph glyph-name="zero" unicode="0" 
d="M1028 621c0 -154 -19.833 -279.33 -59.5 -375.997s-90.667 -165.834 -153 -207.501s-129.5 -62.5 -201.5 -62.5c-51.333 0 -101.166 11 -149.499 33s-92.833 59.167 -133.5 111.5s-72.5 120.166 -95.5 203.499s-34.5 182.666 -34.5 297.999s11.5 214.833 34.5 298.5
s54.833 151.334 95.5 203.001s85.167 88.5 133.5 110.5s98.166 33 149.499 33c72 0 139.167 -20.833 201.5 -62.5s113.333 -110.834 153 -207.501s59.5 -221.667 59.5 -375zM930 621.003c0 130.667 -14.333 237.834 -43 321.501s-66.667 144.167 -114 181.5
s-100.333 56 -159 56c-57.333 0 -109.833 -18.667 -157.5 -56s-85.834 -97.833 -114.501 -181.5s-43 -190.834 -43 -321.501s14.333 -238 43 -322s66.834 -144.667 114.501 -182s100.167 -56 157.5 -56c58.667 0 111.667 18.667 159 56s85.333 98 114 182s43 191.333 43 322
z" />
    <glyph glyph-name="one" unicode="1" 
d="M950 0l-674 0.000976562v86h302v1034c-78 -15.333 -170.333 -24 -277 -26l-14 82c166.667 3.33301 265.667 23.666 297 60.999c14.667 19.333 31 29 49 29c14 0 23.667 -8.66699 29 -26s8 -37.333 8 -60v-1094h280v-86z" />
    <glyph glyph-name="two" unicode="2" 
d="M1010 205l-99 -202.997l-684 -2v94l396 428c142 157.333 213 299.333 213 426c0 37.333 -9.66699 73.666 -29 108.999s-47.666 64.666 -84.999 87.999s-81.333 35 -132 35c-94 0 -162.333 -37 -205 -111c0 -38 -6.83301 -71 -20.5 -99s-34.834 -42 -63.501 -42
c-14.667 0 -25.834 5.16699 -33.501 15.5s-11.5 22.166 -11.5 35.499c0 56.667 16.333 106.667 49 150s75 77 127 101s105.333 36 160 36c59.333 0 115.333 -13 168 -39s94.834 -63.333 126.501 -112s47.5 -103.667 47.5 -165c0 -138 -63.667 -278 -191 -420l-405 -444h516
l72 137z" />
    <glyph glyph-name="three" unicode="3" 
d="M961 352c0 -76.667 -17.999 -143.329 -53.999 -199.996s-85.833 -100.334 -149.5 -131.001s-132.5 -46 -206.5 -46c-67.333 0 -133 7.16699 -197 21.5s-122.667 37.5 -176 69.5l39 77c46.667 -26.667 98.834 -47 156.501 -61s112.834 -21 165.501 -21
c94 0 171.333 24.667 232 74s91 119.666 91 210.999c0 58 -11.5 108.667 -34.5 152s-56.333 76.333 -100 99s-95.167 34 -154.5 34h-88v86h58c170.667 0 256 70.333 256 211c0 87.333 -23.833 151.166 -71.5 191.499s-103.834 60.5 -168.501 60.5
c-62 0 -115.333 -19.333 -160 -58c-2.66699 -31.333 -13.834 -63.666 -33.501 -96.999s-43.834 -50 -72.501 -50s-43 18.333 -43 55c0 30.667 9.33301 60.167 28 88.5s43.834 53.5 75.501 75.5s66.667 39.5 105 52.5s78.166 19.5 119.499 19.5
c61.333 0 116.333 -14.333 165 -43s86.5 -67.834 113.5 -117.501s40.5 -105.5 40.5 -167.5c0 -54 -12.667 -104.167 -38 -150.5s-61 -82.166 -107 -107.499c67.333 -28.667 119 -71.334 155 -128.001s54 -123.334 54 -200.001z" />
    <glyph glyph-name="four" unicode="4" 
d="M1063 0l-481 -0.00195312v86h209v246h-615v94c50 84.667 93.167 159.834 129.5 225.501s72.5 136.334 108.5 212.001s69.333 153.667 100 234s56 159.5 76 237.5l92 -26c-39.333 -147.333 -93 -290 -161 -428s-154.333 -292.333 -259 -463h529v442h92v-442h180v-86h-180
v-246h180v-86z" />
    <glyph glyph-name="five" unicode="5" 
d="M944 438c0 -69.333 -12.332 -132.502 -36.999 -189.502s-60 -106.167 -106 -147.5s-98.167 -72.666 -156.5 -93.999s-122.166 -32 -191.499 -32c-47.333 0 -94 4.66699 -140 14s-93.667 24 -143 44l23 82c46.667 -19.333 89.167 -33.166 127.5 -41.499
s80.166 -12.5 125.499 -12.5c75.333 0 143.333 15 204 45s108.5 73 143.5 129s52.5 121.667 52.5 197c0 64.667 -13.333 122 -40 172s-64.834 88.833 -114.501 116.5s-106.167 41.5 -169.5 41.5c-58.667 0 -137 -14.333 -235 -43l39 522h563v-86h-481l-29 -328
c62.667 14 109.667 21 141 21c126.667 0 229 -36.667 307 -110s117 -173.333 117 -300z" />
    <glyph glyph-name="six" unicode="6" 
d="M1008 387c0 -70.667 -15.833 -137.834 -47.5 -201.501s-76.667 -114.667 -135 -153s-123.833 -57.5 -196.5 -57.5c-43.333 0 -88.666 8.16699 -135.999 24.5s-91.5 43.833 -132.5 82.5s-74.833 93.5 -101.5 164.5s-40 157.5 -40 259.5
c0 102.667 12.667 199.334 38 290.001s64.166 171.334 116.499 242.001s119.166 126.167 200.499 166.5s176 60.833 284 61.5v-86c-106 0 -199 -25.667 -279 -77s-142.167 -119.833 -186.5 -205.5s-69.5 -177.834 -75.5 -276.501l-2 6c31.333 50 76.333 91.167 135 123.5
s118.334 48.5 179.001 48.5c56 0 107.5 -11.333 154.5 -34s87 -53 120 -91s58.667 -81.5 77 -130.5s27.5 -101.167 27.5 -156.5zM909 387c0 55.333 -11.999 108 -35.999 158s-57.5 90.5 -100.5 121.5s-90.833 46.5 -143.5 46.5c-56 0 -107.333 -13.5 -154 -40.5
s-83.5 -64.5 -110.5 -112.5s-40.5 -100.333 -40.5 -157c0 -42 6.66699 -83 20 -123s33.666 -77 60.999 -111s60 -60.5 98 -79.5s80 -28.5 126 -28.5c52.667 0 100.5 15.5 143.5 46.5s76.5 71.5 100.5 121.5s36 102.667 36 158z" />
    <glyph glyph-name="seven" unicode="7" 
d="M973 1241l-518 -1264l-101 -2l488 1180h-615v86h746z" />
    <glyph glyph-name="eight" unicode="8" 
d="M1022 330c0 -65.333 -18.667 -125.33 -56 -179.997s-87.666 -97.5 -150.999 -128.5s-130.333 -46.5 -201 -46.5c-51.333 0 -101.5 8.66699 -150.5 26s-93 42.166 -132 74.499s-69.5 70.666 -91.5 114.999s-33 90.833 -33 139.5c0 83.333 26.667 153.666 80 210.999
s120.666 95.333 201.999 114c-69.333 32.667 -126.166 77.167 -170.499 133.5s-66.5 119.833 -66.5 190.5c0 59.333 16.833 110.833 50.5 154.5s78.167 76.667 133.5 99s114.666 33.5 177.999 33.5c64 0 123.667 -11.167 179 -33.5s99.833 -55.333 133.5 -99
s50.5 -95.167 50.5 -154.5c0 -71.333 -22.5 -135.333 -67.5 -192s-101.833 -100.667 -170.5 -132c40 -8.66699 77.667 -23 113 -43s65.333 -43.167 90 -69.5s44.167 -57.833 58.5 -94.5s21.5 -76 21.5 -118zM879 977.003c0 66.667 -26.165 117.164 -78.498 151.497
s-114.5 51.5 -186.5 51.5c-70.667 0 -132.334 -17.167 -185.001 -51.5s-79 -84.833 -79 -151.5c0 -46.667 9.5 -86.667 28.5 -120s46.167 -61.666 81.5 -84.999s86.666 -50.666 153.999 -81.999c66.667 30.667 118 57.834 154 81.501s63.5 52.167 82.5 85.5
s28.5 73.333 28.5 120zM924.002 338c0 54 -14.998 101 -44.998 141s-68.833 70.5 -116.5 91.5s-97.167 31.5 -148.5 31.5c-50.667 0 -99.834 -10.5 -147.501 -31.5s-86.5 -51.5 -116.5 -91.5s-45 -87 -45 -141c0 -51.333 15 -98.166 45 -140.499
s69.167 -75.666 117.5 -99.999s97.166 -36.5 146.499 -36.5c50.667 0 100 12.167 148 36.5s87 57.666 117 99.999s45 89.166 45 140.499z" />
    <glyph glyph-name="nine" unicode="9" 
d="M1008 739c0 -130.667 -22.5 -254.671 -67.5 -372.004s-113.5 -212 -205.5 -284s-205.333 -108 -340 -108h-86v86h103c73.333 0 140.166 16 200.499 48s111.833 74.833 154.5 128.5s76.334 114.834 101.001 183.501s38.334 137.334 41.001 206.001l6 -4
c-31.333 -50.667 -76.5 -92.834 -135.5 -126.501s-119.5 -50.5 -181.5 -50.5c-72.667 0 -137.5 17.833 -194.5 53.5s-101.667 84 -134 145s-48.5 127.5 -48.5 199.5c0 72.667 16 141.834 48 207.501s77.333 117.834 136 156.501s125.667 58 201 58
c61.333 0 122.666 -16.333 183.999 -49s113 -88.667 155 -168s63 -182.666 63 -309.999zM901 835.996c0 56 -12.167 110.5 -36.5 163.5s-58.666 96.333 -102.999 130s-94.833 50.5 -151.5 50.5c-55.333 0 -105.333 -15.5 -150 -46.5s-79.334 -71.5 -104.001 -121.5
s-37 -102 -37 -156s11.167 -106 33.5 -156s55 -90.5 98 -121.5s92.167 -46.5 147.5 -46.5c60 0 112.833 15.5 158.5 46.5s81.167 70 106.5 117s38 93.833 38 140.5z" />
    <glyph glyph-name="colon" unicode=":" 
d="M745 741c0 -35.333 -12.667 -66 -38 -92s-56.333 -39 -93 -39c-35.333 0 -66 13 -92 39s-39 56.667 -39 92c0 36.667 13 67.667 39 93s56.667 38 92 38c36.667 0 67.667 -12.667 93 -38s38 -56.333 38 -93zM745 106c0 -35.333 -12.667 -66 -38 -92s-56.333 -39 -93 -39
c-35.333 0 -66 13 -92 39s-39 56.667 -39 92c0 36 13 67 39 93s56.667 39 92 39c36.667 0 67.667 -13 93 -39s38 -57 38 -93z" />
    <glyph glyph-name="semicolon" unicode=";" 
d="M766 741c0 -35.333 -12.667 -66 -38 -92s-56.333 -39 -93 -39c-36 0 -66.833 13.167 -92.5 39.5s-38.5 56.833 -38.5 91.5c0 36 12.833 66.833 38.5 92.5s56.5 38.5 92.5 38.5c36.667 0 67.667 -12.667 93 -38s38 -56.333 38 -93zM766 80
c0 -62.667 -26 -119.001 -78 -169.001s-112 -84.667 -180 -104l2 93c28.667 8 55.167 19.833 79.5 35.5s42.166 34.5 53.499 56.5c-4 -1.33301 -10.667 -2 -20 -2c-34.667 0 -63.167 10.5 -85.5 31.5s-33.5 48.5 -33.5 82.5c0 36.667 11.667 67.334 35 92.001s54 37 92 37
c40.667 0 73.334 -15.5 98.001 -46.5s37 -66.5 37 -106.5z" />
    <glyph glyph-name="less" unicode="&#x3c;" 
d="M1036 94l-57 -78l-786 625l786 625l57 -76l-696 -549z" />
    <glyph glyph-name="equal" unicode="=" 
d="M1124 829h-1020v103h1020v-103zM1124 555h-1020v102h1020v-102z" />
    <glyph glyph-name="greater" unicode="&#x3e;" 
d="M1036 641l-786 -625l-57 78l696 547l-696 549l57 76z" />
    <glyph glyph-name="question" unicode="?" 
d="M874 983c0 -36 -4.16602 -68.5 -12.499 -97.5s-19.333 -55.667 -33 -80s-29.167 -47.833 -46.5 -70.5s-39.666 -50 -66.999 -82c-33.333 -38 -58.333 -71.5 -75 -100.5s-28.167 -60 -34.5 -93s-9.5 -77.5 -9.5 -133.5h-88v45c0 68.667 11.5 127.334 34.5 176.001
s57.167 101.5 102.5 158.5s78.5 103.333 99.5 139s31.5 76.5 31.5 122.5c0 37.333 -8.33301 72.5 -25 105.5s-40 59.167 -70 78.5s-63.667 29 -101 29c-58 0 -107.833 -16.5 -149.5 -49.5s-66.5 -76.833 -74.5 -131.5c8.66699 -19.333 13 -41 13 -65
c0 -18 -4.83301 -34.833 -14.5 -50.5s-22.834 -23.5 -39.501 -23.5c-40.667 0 -61 34.333 -61 103c0 52.667 13.833 102.667 41.5 150s66.667 84.666 117 111.999s106.166 41 167.499 41c52.667 0 101.5 -12.333 146.5 -37s80.833 -58.667 107.5 -102s40 -91.333 40 -144z
M668.001 92c0 -32.667 -11.332 -60.333 -33.999 -83s-50.334 -34 -83.001 -34c-32 0 -59.167 11.5 -81.5 34.5s-33.5 50.5 -33.5 82.5s11.167 59.167 33.5 81.5s49.5 33.5 81.5 33.5c20.667 0 40 -5 58 -15s32.333 -24 43 -42s16 -37.333 16 -58z" />
    <glyph glyph-name="at" unicode="@" 
d="M1145 745c0 -61.333 -9.83496 -125.167 -29.502 -191.5s-50.334 -122.666 -92.001 -168.999s-94.167 -69.5 -157.5 -69.5c-35.333 0 -67.5 9 -96.5 27s-49.833 43.333 -62.5 76c-49.333 -68.667 -111 -103 -185 -103c-46.667 0 -84.5 15.333 -113.5 46
s-43.5 70 -43.5 118c0 55.333 10.167 112.333 30.5 171s53.833 109 100.5 151c38 34 80.333 56.5 127 67.5s101.667 16.5 165 16.5h56l-51 -295c-6 -26.667 -9 -54 -9 -82c0 -71.333 27.333 -107 82 -107c44 0 79.667 19 107 57s46.5 82.833 57.5 134.5
s16.5 101.167 16.5 148.5c0 63.333 -9.33301 121.5 -28 174.5s-46 99.667 -82 140s-78 71.166 -126 92.499s-102 32 -162 32c-63.333 0 -131.666 -24 -204.999 -72s-135.666 -122.667 -186.999 -224s-77 -225.333 -77 -372c0 -137.333 36.833 -246.833 110.5 -328.5
s172.167 -122.5 295.5 -122.5c128 0 266.333 48 415 144l37 -90c-39.333 -23.333 -75.666 -42.666 -108.999 -57.999s-68.833 -29.333 -106.5 -42s-77.5 -22.5 -119.5 -29.5s-85.333 -10.5 -130 -10.5c-98 0 -183.833 22.167 -257.5 66.5s-131 107.666 -172 189.999
s-61.5 176.5 -61.5 282.5c0 116.667 22 233.5 66 350.5s109.5 213.167 196.5 288.5s191.167 113 312.5 113c88 0 169.5 -21.667 244.5 -65s134.333 -104.333 178 -183s65.5 -169.667 65.5 -273zM734.998 794.999c-75.333 -6.66699 -126.331 -19 -152.998 -37
c-44 -32 -74.833 -72.667 -92.5 -122s-26.5 -98.333 -26.5 -147c0 -22.667 6 -43 18 -61s29 -27 51 -27c29.333 0 57 13.333 83 40s45.667 55.667 59 87c9.33301 18 17.166 38.333 23.499 61s12.166 49.667 17.499 81s9.33301 54.333 12 69z" />
    <glyph glyph-name="A" unicode="A" 
d="M1184 0h-367v86h168l-113 287h-526l-106 -287h168v-86h-363v86h100l461 1278l477 -1278h101v-86zM844 459l-240 655l-227 -655h467z" />
    <glyph glyph-name="B" unicode="B" 
d="M1077 336c0 -102 -31.334 -183.499 -94.001 -244.499s-144.667 -91.5 -246 -91.5c-29.333 0 -83.5 4.16699 -162.5 12.5s-132.5 12.5 -160.5 12.5c-26.667 0 -56.167 -1 -88.5 -3s-68 -5.16699 -107 -9.5s-70.167 -7.83301 -93.5 -10.5l-19 84l213 25v1019l-217 25v86
c12.667 -1.33301 45 -5.66602 97 -12.999s91.333 -11 118 -11c20.667 0 76.667 4 168 12s152.333 12 183 12c52.667 0 102.5 -10.667 149.5 -32s84.333 -52.5 112 -93.5s41.5 -88.5 41.5 -142.5c0 -40 -8 -78.167 -24 -114.5s-38.167 -68.833 -66.5 -97.5
s-61.166 -52.334 -98.499 -71.001c91.333 -20.667 163.333 -61.334 216 -122.001s79 -138 79 -232zM871.999 965.001c0 62 -20.333 110.166 -61 144.499s-92 51.5 -154 51.5c-32 0 -73 -4 -123 -12s-90.667 -14.333 -122 -19v-417h98c125.333 0 217 24.333 275 73
s87 108.334 87 179.001zM978.999 340c0 51.333 -11.666 98.5 -34.999 141.5s-62.833 78 -118.5 105s-126.834 40.5 -213.501 40.5h-200v-516h71l209 -25c10 -1.33301 24.333 -2 43 -2c74.667 0 134 22 178 66s66 107.333 66 190z" />
    <glyph glyph-name="C" unicode="C" 
d="M1079 1233c-13.333 -34 -21.9971 -67.167 -25.9971 -99.5s-6 -69.5 -6 -111.5l8 -148l-86 -14c-4 70.667 -15.833 129.334 -35.5 176.001s-50.334 82.334 -92.001 107.001s-96.834 37 -165.501 37c-94 0 -171.833 -27.5 -233.5 -82.5s-106.167 -124.667 -133.5 -209
s-41 -172.166 -41 -263.499c0 -90 14.167 -178.167 42.5 -264.5s73 -157.833 134 -214.5s137.5 -85 229.5 -85c101.333 0 178.166 30.667 230.499 92s78.5 145.666 78.5 252.999h92l-2 -248c-56.667 -58 -119.334 -103 -188.001 -135s-141 -48 -217 -48
c-78.667 0 -156.167 22.333 -232.5 67s-139.666 116.5 -189.999 215.5s-75.5 224.167 -75.5 375.5c0 113.333 15.167 211.166 45.5 293.499s70 148.166 119 197.499s103 85.333 162 108s117.5 34 175.5 34c104 0 203 -26.667 297 -80l24 78z" />
    <glyph glyph-name="D" unicode="D" 
d="M1079 598c0 -223.333 -49.333 -378.835 -148 -466.502s-218 -131.5 -358 -131.5c-30 0 -74 4.16699 -132 12.5s-104 12.5 -138 12.5c-18.667 0 -37.334 -1.33301 -56.001 -4s-41.667 -6.5 -69 -11.5s-49.666 -8.83301 -66.999 -11.5l-15 88l170 25v1019l-166 27l11 86
c11.333 -2 37 -6.83301 77 -14.5s74.333 -11.5 103 -11.5c25.333 0 67.333 4 126 12s106 12 142 12c88 0 165 -16 231 -48s120.5 -77.167 163.5 -135.5s74.667 -126.666 95 -204.999s30.5 -163.166 30.5 -254.499zM981 564.998c0 200 -37.167 349.002 -111.5 447.002
s-169.5 147 -285.5 147c-13.333 0 -32.666 -1.33301 -57.999 -4l-168 -25v-1019l211 -25c11.333 -1.33301 27.666 -2 48.999 -2c70 0 132.333 17.667 187 53s97.667 89.166 129 161.499s47 161.166 47 266.499z" />
    <glyph glyph-name="E" unicode="E" 
d="M1085 0l-994.999 -0.000976562v86h211v1069h-211v86h959v-336h-93v37c0 49.333 -1.83301 87 -5.5 113s-11.667 46.333 -24 61s-31 24.834 -56 30.501s-60.5 8.5 -106.5 8.5h-371v-434h324v158h92v-424h-92v180h-324v-549h363c76.667 0 131.167 6.33301 163.5 19
s52.666 34.5 60.999 65.5s12.5 83.5 12.5 157.5v53h92v-381z" />
    <glyph glyph-name="F" unicode="F" 
d="M1073 905l-92 0.000976562v37c0 63.333 -4 109.166 -12 137.499s-25.167 48 -51.5 59s-69.5 16.5 -129.5 16.5h-370v-467h323v158h93v-424h-93v180h-323v-516h368v-86h-665v86h205v1069h-205v86h952v-336z" />
    <glyph glyph-name="G" unicode="G" 
d="M1176 434l-126.998 0.00292969l-2 -276c-30 -28.667 -61 -54 -93 -76s-66 -41 -102 -57s-73.667 -28.333 -113 -37s-77.333 -13 -114 -13c-52 0 -106.333 11.833 -163 35.5s-110.5 61.667 -161.5 114s-92 120.166 -123 203.499s-46.5 181 -46.5 293
c0 114 14.667 212.167 44 294.5s69 149.166 119 200.499s105.667 89.166 167 113.499s122.666 36.5 183.999 36.5c105.333 0 205 -29.333 299 -88l31 86l76 -21c-19.333 -68 -29 -137 -29 -207l16 -166l-94 -14c-10.667 84.667 -23 143.334 -37 176.001
c-18.667 51.333 -51.834 88.833 -99.501 112.5s-101.834 35.5 -162.501 35.5c-45.333 0 -91.833 -8.66699 -139.5 -26s-92.167 -46 -133.5 -86s-75.5 -95 -102.5 -165s-40.5 -156.667 -40.5 -260c0 -130.667 20 -240 60 -328s90.167 -152.333 150.5 -193
s120.833 -61 181.5 -61c54.667 0 111.334 10.667 170.001 32s103 51.666 133 90.999c21.333 28 32 76 32 144v57v49h-237v86h457v-86z" />
    <glyph glyph-name="H" unicode="H" 
d="M1155 0h-420v86h154v508h-549v-508h154v-86h-420v86h174v1069h-174v86h420v-86h-154v-475h549v475h-154v86h420v-86h-174v-1069h174v-86z" />
    <glyph glyph-name="I" unicode="I" 
d="M995 0h-762v86h336v1069h-336v86h762v-86h-333v-1069h333v-86z" />
    <glyph glyph-name="J" unicode="J" 
d="M1098 1155l-210.999 -0.00390625v-874c0 -107.333 -25.333 -185.166 -76 -233.499s-134.667 -72.5 -252 -72.5c-142.667 0 -277.667 37 -405 111v309h92v-49c0 -45.333 2.16699 -83.666 6.5 -114.999s15.166 -58.333 32.499 -81c27.333 -30 67.333 -52.333 120 -67
s104 -22 154 -22c63.333 0 112 9.33301 146 28s57.5 47.334 70.5 86.001s19.5 90.334 19.5 155.001v825h-263v86h566v-86z" />
    <glyph glyph-name="K" unicode="K" 
d="M1202 0l-442.001 0.000976562v86h143l-420 526c-42 -23.333 -90.333 -38.333 -145 -45v-481h168v-86h-430v86h170v1069h-170v86h430v-86h-168v-504c75.333 8 170.333 65.333 285 172c96.667 96 182 206.667 256 332h-164v86h430v-86h-162
c-30.667 -52.667 -60.667 -100.5 -90 -143.5s-61.666 -86.333 -96.999 -130s-71 -83.334 -107 -119.001s-76.667 -70.167 -122 -103.5l457 -573h178v-86z" />
    <glyph glyph-name="L" unicode="L" 
d="M1100 0h-1002v86h228v1069h-228v86h555v-86h-235v-1069h407c62 0 108 14.833 138 44.5s45 68.167 45 115.5v168h92v-414z" />
    <glyph glyph-name="M" unicode="M" 
d="M1182 0h-391v86h151v1032l4 -4l-332 -743l-333 743l6 -2v-1026h151v-86h-391v86h148v1069h-148v86l266 -2l301 -657l299 657l269 2v-86h-148v-1069h148v-86z" />
    <glyph glyph-name="N" unicode="N" 
d="M1167 1155h-131v-1155l-104 2l-631 1112l6 -2v-1026h172v-86h-420v86h156v1069h-156v86l269 -2l620 -1098l-4 2v1012h-178v86h401v-86z" />
    <glyph glyph-name="O" unicode="O" 
d="M1098 621c0 -115.333 -14.667 -215.001 -44 -299.001s-68 -151.5 -116 -202.5s-99.667 -87.833 -155 -110.5s-111.666 -34 -168.999 -34c-77.333 0 -152.833 21.333 -226.5 64s-134.834 112.334 -183.501 209.001s-73 221 -73 373c0 150.667 24.333 274.5 73 371.5
s109.834 166.833 183.501 209.5s149.167 64 226.5 64c57.333 0 114 -11.5 170 -34.5s107.667 -59.5 155 -109.5s85.666 -117 114.999 -201s44 -184 44 -300zM999 620.999c0 189.333 -37.833 329.833 -113.5 421.5s-166.167 137.5 -271.5 137.5
c-104.667 0 -195 -45.833 -271 -137.5s-114 -232.167 -114 -421.5c0 -190.667 38 -331.667 114 -423s166.333 -137 271 -137c106 0 196.667 45.667 272 137s113 232.333 113 423z" />
    <glyph glyph-name="P" unicode="P" 
d="M1061 915c0 -79.333 -18.334 -146.5 -55.001 -201.5s-92.5 -96.167 -167.5 -123.5s-168.833 -41 -281.5 -41h-135v-463h293v-86h-559v86h174v1057l-174 12v88l198 -8c36.667 0 73.834 1 111.501 3s75 4 112 6s73.833 3 110.5 3c74.667 0 140.167 -12.333 196.5 -37
s99.833 -62 130.5 -112s46 -111 46 -183zM962.999 922c0 76.667 -24.167 135.667 -72.5 177s-115.833 62 -202.5 62l-266 -16v-510h149c128 0 225.333 23.167 292 69.5s100 118.833 100 217.5z" />
    <glyph glyph-name="Q" unicode="Q" 
d="M1176 -184l-202.998 1.99805l-142 213c-66 -37.333 -138.333 -56 -217 -56c-77.333 0 -152.833 21.333 -226.5 64s-134.834 112.334 -183.501 209.001s-73 221 -73 373c0 150.667 24.333 274.5 73 371.5s109.834 166.833 183.501 209.5s149.167 64 226.5 64
c57.333 0 114 -11.5 170 -34.5s107.667 -59.5 155 -109.5s85.666 -117 114.999 -201s44 -184 44 -300c0 -65.333 -6 -131.666 -18 -198.999s-31.833 -130 -59.5 -188s-64.834 -108 -111.501 -150l121 -182h146v-86zM999.002 620.998c0 189.333 -37.833 329.833 -113.5 421.5
s-166.167 137.5 -271.5 137.5c-104.667 0 -195 -45.833 -271 -137.5s-114 -232.167 -114 -421.5c0 -190.667 38 -331.667 114 -423s166.333 -137 271 -137c60 0 116 14.333 168 43l-170 263l72 57l172 -262c34.667 36 62.667 80.333 84 133s36.5 107.667 45.5 165
s13.5 111 13.5 161z" />
    <glyph glyph-name="R" unicode="R" 
d="M1176 0l-203.002 1.99902l-377 576h-234v-492h179v-86h-445v86h174v1057l-174 12v88l199 -8c36.667 0 92.334 2 167.001 6s130.334 6 167.001 6c56.667 0 111.667 -11.5 165 -34.5s96.833 -58.5 130.5 -106.5s50.5 -107.333 50.5 -178
c0 -89.333 -25.167 -162.166 -75.5 -218.499s-119.5 -94.833 -207.5 -115.5l338 -508h146v-86zM876.998 927.999c0 76 -27.167 133.834 -81.5 173.501s-120.833 59.5 -199.5 59.5c-11.333 0 -31.333 -0.666992 -60 -2s-50.667 -2.5 -66 -3.5s-34.333 -2.5 -57 -4.5
s-39.667 -3.33301 -51 -4v-483h105c122.667 0 221.667 17.167 297 51.5s113 105.166 113 212.499z" />
    <glyph glyph-name="S" unicode="S" 
d="M1016 317c0 -51.333 -9.83105 -98.001 -29.498 -140.001s-47.834 -78.167 -84.501 -108.5s-79.167 -53.5 -127.5 -69.5s-101.166 -24 -158.499 -24c-122 0 -224.333 31 -307 93l-8 -95l-88 13l18 213c0 55.333 -6 114 -18 176l88 12l10 -84
c7.33301 -52 21.333 -95.5 42 -130.5s53.167 -62.333 97.5 -82s103.166 -29.5 176.499 -29.5c48.667 0 95 8.5 139 25.5s80.333 43.5 109 79.5s43 81.667 43 137c0 90 -28.167 154.5 -84.5 193.5s-139.833 75.167 -250.5 108.5s-194.834 72.333 -252.501 117
s-86.5 116.667 -86.5 216c0 68 18.667 127.167 56 177.5s86 88 146 113s124.333 37.5 193 37.5c95.333 0 180 -22 254 -66l12 92l86 -18l-14 -199c0 -18 2.33301 -46.333 7 -85s8.33398 -68.334 11.001 -89.001l-90 -12c-1.33301 21.333 -3.16602 43.833 -5.49902 67.5
s-5.33301 45 -9 64s-9.83398 37.167 -18.501 54.5c-37.333 70 -110.333 105 -219 105c-82 0 -154.333 -19.333 -217 -58s-94 -96.667 -94 -174c0 -81.333 26 -138.666 78 -171.999s135.167 -68.666 249.5 -105.999s200.666 -80 258.999 -128s87.5 -123 87.5 -225z" />
    <glyph glyph-name="T" unicode="T" 
d="M1114 825l-92 0.000976562v148c0 51.333 -4 89.666 -12 114.999s-23.833 42.833 -47.5 52.5s-61.834 14.5 -114.501 14.5h-189v-1069h236v-86h-563v86h235v1069h-188c-53.333 0 -91.666 -4.83301 -114.999 -14.5s-39 -26.5 -47 -50.5s-12 -63 -12 -117v-148h-92v416h1001
v-416z" />
    <glyph glyph-name="U" unicode="U" 
d="M1133 1155h-144v-797c0 -136 -30.5 -233.833 -91.5 -293.5s-155.5 -89.5 -283.5 -89.5c-127.333 0 -221.5 29.833 -282.5 89.5s-91.5 157.5 -91.5 293.5v797h-144v86h369v-86h-133v-772c0 -116 22.5 -198.667 67.5 -248s116.5 -74 214.5 -74
c98.667 0 170.5 24.667 215.5 74s67.5 132 67.5 248v772h-133v86h369v-86z" />
    <glyph glyph-name="V" unicode="V" 
d="M1165 1155h-131l-358 -1178h-125l-356 1178h-132v86h379v-86h-155l327 -1071l328 1071h-158v86h381v-86z" />
    <glyph glyph-name="W" unicode="W" 
d="M1178 1155h-86l-168 -1182l-97 4l-213 590l-215 -590l-94 -2l-168 1180h-86v86h320v-86h-144l142 -1034h-2l249 704l244 -704l-4 2l145 1032h-143v86h320v-86z" />
    <glyph glyph-name="X" unicode="X" 
d="M1161 0h-409v86h176l-314 475l-313 -475h176v-86h-409v86h125l366 555l-326 514h-116v86h360v-86h-141l278 -440l279 440h-141v86h360v-86h-117l-325 -514l366 -555h125v-86z" />
    <glyph glyph-name="Y" unicode="Y" 
d="M1157 1155h-121l-374 -616v-453h233v-86h-559v86h233v451l-374 618h-123v86h385v-86h-160l319 -526l320 526h-164v86h385v-86z" />
    <glyph glyph-name="Z" unicode="Z" 
d="M1065 0h-901.001v82l723 1073h-367c-62.667 0 -108.667 -2.66699 -138 -8s-51.333 -16 -66 -32s-24.167 -39.167 -28.5 -69.5s-6.5 -75.833 -6.5 -136.5v-28h-93v360h803l-2 -82l-719 -1073h463c58.667 0 104.167 2.66699 136.5 8s55.833 16 70.5 32s23.834 38 27.501 66
s5.5 74.667 5.5 140v28h92v-360z" />
    <glyph glyph-name="bracketleft" unicode="[" 
d="M971 -121h-377v1544h377v-86h-285v-1372h285v-86z" />
    <glyph glyph-name="backslash" unicode="\" 
d="M975 -16l-109 4l-610 1454l104 -4z" />
    <glyph glyph-name="bracketright" unicode="]" 
d="M635 -121h-377v86h285v1372h-285v86h377v-1544z" />
    <glyph glyph-name="asciicircum" unicode="^" 
d="M1010 772l-119 2l-277 512l-284 -512l-115 -2l342 631h113z" />
    <glyph glyph-name="underscore" unicode="_" 
d="M1233 -221h-1237v86h1237v-86z" />
    <glyph glyph-name="grave" unicode="`" 
d="M760 1038l-53 -69l-396 266l84 100z" />
    <glyph glyph-name="a" unicode="a" 
d="M1098 0l-267.003 0.00292969v74c-71.333 -32.667 -138.166 -57.334 -200.499 -74.001s-128.5 -25 -198.5 -25c-77.333 0 -142.333 19 -195 57s-79 95 -79 171c0 48 11.833 90 35.5 126s61.5 66.333 113.5 91s122.667 44 212 58s193.333 21.333 312 22v110
c0 45.333 -3.33301 79.666 -10 102.999s-22.667 41.333 -48 54s-63.333 19 -114 19c-53.333 0 -105.833 -7.5 -157.5 -22.5s-100.167 -37.5 -145.5 -67.5v-108h-92v170c39.333 22 81.333 41.833 126 59.5s89.334 31.167 134.001 40.5s89.667 14 135 14
c70 0 123.833 -7.5 161.5 -22.5s64.334 -40.333 80.001 -76s23.5 -85.834 23.5 -150.501v-537h174v-86zM830.997 172.003v242.001c-155.333 -6 -274 -17.667 -356 -35s-139 -40.333 -171 -69s-48 -64.334 -48 -107.001c0 -50.667 17 -87 51 -109s77.667 -33 131 -33
c108.667 0 239.667 37 393 111z" />
    <glyph glyph-name="b" unicode="b" 
d="M1038 434c0 -84.667 -17.334 -162.17 -52.001 -232.503s-84.167 -125.666 -148.5 -165.999s-140.166 -60.5 -227.499 -60.5c-44.667 0 -90.334 7.83301 -137.001 23.5s-87 37.167 -121 64.5c-7.33301 -28 -28.333 -64 -63 -108l-74 33c24.667 34 40 59.833 46 77.5
s9 45.834 9 84.501v1060c-83.333 -17.333 -146.666 -27.333 -189.999 -30l-14 86c108 2.66699 178 23 210 61c16 19.333 32.667 29 50 29c24 0 36 -28.667 36 -86v-479c84.667 54 175.667 81 273 81c80.667 0 151.667 -19 213 -57s108.333 -90.667 141 -158
s49 -141.666 49 -222.999zM939.999 421.997c0 65.333 -12 125.835 -36 181.502s-59.833 100 -107.5 133s-105.5 49.5 -173.5 49.5c-94.667 0 -181.667 -33.333 -261 -100v-524c28.667 -32 64.667 -56.833 108 -74.5s88 -26.5 134 -26.5c70 0 130.167 15.667 180.5 47
s88.833 74.666 115.5 129.999s40 116.666 40 183.999z" />
    <glyph glyph-name="c" unicode="c" 
d="M1028 70c-55.333 -30.667 -116.999 -54.166 -184.999 -70.499s-134 -24.5 -198 -24.5c-86 0 -164 18.167 -234 54.5s-125 88 -165 155s-60 144.167 -60 231.5c0 86.667 19.5 164.667 58.5 234s93.5 123.666 163.5 162.999s149 59 237 59c64 0 124 -10.833 180 -32.5
s96.333 -56.5 121 -104.5v-194h-86v43c0 134.667 -74.333 202 -223 202c-68.667 0 -129.667 -15.5 -183 -46.5s-94.833 -74 -124.5 -129s-44.5 -115.833 -44.5 -182.5c0 -71.333 15.333 -134.833 46 -190.5s74 -99 130 -130s118.667 -46.5 188 -46.5
c57.333 0 116.666 8 177.999 24s118 37.667 170 65z" />
    <glyph glyph-name="d" unicode="d" 
d="M1059 0h-256.001v51c-36 -22.667 -76.333 -41 -121 -55s-87.667 -21 -129 -21c-77.333 0 -147 20.5 -209 61.5s-110.333 95.167 -145 162.5s-52 140.333 -52 219c0 81.333 17.5 156.5 52.5 225.5s84.333 124.333 148 166s136.834 62.5 219.501 62.5
c82 0 160.667 -18.333 236 -55v393c-85.333 -18 -149 -28 -191 -30l-14 86c108.667 2.66699 179 23 211 61c14.667 19.333 31 29 49 29c14 0 23.667 -8.66699 29 -26s8 -37.333 8 -60v-1184h164v-86zM802.999 145l-0.00195312 572c-74 46 -147 69 -219 69
c-96.667 0 -177.167 -33.5 -241.5 -100.5s-96.5 -154.167 -96.5 -261.5c0 -62 13 -121 39 -177s62.833 -101 110.5 -135s102.834 -51 165.501 -51c84.667 0 165.334 28 242.001 84z" />
    <glyph glyph-name="e" unicode="e" 
d="M1087 78c-68.667 -34 -140.166 -59.666 -214.499 -76.999s-147.5 -26 -219.5 -26c-86.667 0 -165.5 17.167 -236.5 51.5s-127.167 83.666 -168.5 147.999s-62 140.5 -62 228.5c0 85.333 19.333 164 58 236s92.167 128.833 160.5 170.5s145.833 62.5 232.5 62.5
c82.667 0 154.667 -16.833 216 -50.5s108.5 -81.5 141.5 -143.5s49.5 -134.333 49.5 -217l-6 -80h-753c4 -70 23.667 -129.333 59 -178s82.166 -84.5 140.499 -107.5s124.166 -34.5 197.499 -34.5c43.333 0 84.333 3.66699 123 11s78.334 18 119.001 32
s85.667 31.333 135 52zM948.001 467.001c0 46.667 -7.83203 89.833 -23.499 129.5s-38 73.667 -67 102s-62.333 50 -100 65s-77.834 22.5 -120.501 22.5c-58 0 -112.333 -14 -163 -42s-92.167 -66.333 -124.5 -115s-51.833 -102.667 -58.5 -162h657z" />
    <glyph glyph-name="f" unicode="f" 
d="M1153 1176l-62.999 -80c-116 72 -231 108 -345 108c-50 0 -87.667 -10.833 -113 -32.5s-41.833 -49.5 -49.5 -83.5s-11.5 -74.333 -11.5 -121v-76v-43h394v-86h-394v-676h349v-86h-666v86h225v676h-289v86h289v43v55c0 106 15.667 189.833 47 251.5
s101.666 92.5 210.999 92.5c152 0 290.667 -38 416 -114z" />
    <glyph glyph-name="g" unicode="g" 
d="M1130 -127c0 -61.333 -15.3311 -112.499 -45.998 -153.499s-70.5 -73.167 -119.5 -96.5s-102.833 -40 -161.5 -50s-115.334 -15 -170.001 -15c-69.333 0 -134.166 5.16699 -194.499 15.5s-113 32.666 -158 66.999s-67.5 83.833 -67.5 148.5c0 46.667 14.667 90 44 130
s66.666 73 111.999 99c-38.667 16 -58 40.667 -58 74c0 30 12.833 60.667 38.5 92s55.834 59.333 90.501 84c-57.333 24 -102.333 61.167 -135 111.5s-49 106.166 -49 167.499c0 60.667 14.667 116 44 166s70.166 89 122.499 117s111.5 42 177.5 42
c45.333 0 89.666 -8 132.999 -24h271v-86h-150c26 -34.667 45.167 -69.167 57.5 -103.5s18.5 -71.5 18.5 -111.5c0 -98 -29.833 -174.833 -89.5 -230.5s-138.5 -83.5 -236.5 -83.5c-24 0 -48.667 3 -74 9c-22.667 -13.333 -48.334 -33.166 -77.001 -59.499
s-43 -48.166 -43 -65.499c0 -18 44.333 -27 133 -27h280c60.667 0 114.334 -7.33301 161.001 -22s82.667 -38.334 108 -71.001s38 -74 38 -124zM831.002 547.001c0 68.667 -21 125.668 -63 171.001s-97.333 68 -166 68c-67.333 0 -125.5 -21.333 -174.5 -64
s-73.5 -97.667 -73.5 -165c0 -73.333 23.667 -131.333 71 -174s108.333 -64 183 -64c72 0 127.167 21.167 165.5 63.5s57.5 97.166 57.5 164.499zM1032 -140.998c0 57.333 -16.833 94.501 -50.5 111.501s-82.834 25.5 -147.501 25.5h-357c-50.667 -28 -91 -57.333 -121 -88
s-45 -68.334 -45 -113.001c0 -100.667 103.333 -151 310 -151c98.667 0 191.834 15.833 279.501 47.5s131.5 87.5 131.5 167.5z" />
    <glyph glyph-name="h" unicode="h" 
d="M1128 0l-374.001 -0.000976562v86h139v412c0 62 -3 112 -9 150s-22.333 70.5 -49 97.5s-68 40.5 -124 40.5c-98.667 0 -216.334 -43 -353.001 -129v-571h140v-86h-375v86h143v1124c-28 -6 -60.167 -12.167 -96.5 -18.5s-67.5 -10.166 -93.5 -11.499l-15 86
c108.667 2.66699 179 23 211 61c16 19.333 32.667 29 50 29c24 0 36 -28.667 36 -86v-512c60.667 33.333 121.334 60.666 182.001 81.999s118.334 32 173.001 32c94.667 0 163.667 -25.167 207 -75.5s65 -141.166 65 -272.499v-438h143v-86z" />
    <glyph glyph-name="i" unicode="i" 
d="M733 1149c0 -32.667 -11.332 -60.335 -33.999 -83.002s-50.334 -34 -83.001 -34c-32 0 -59.333 11.333 -82 34s-34 50.334 -34 83.001s11.333 60.334 34 83.001s50 34 82 34c21.333 0 41 -5.16699 59 -15.5s32.167 -24.5 42.5 -42.5s15.5 -37.667 15.5 -59z
M1012 -0.000976562h-794.996v86h375v678c-34.667 -6 -93.834 -12.333 -177.501 -19s-155.5 -10.667 -215.5 -12l-15 86c75.333 1.33301 138.166 3.5 188.499 6.5s97.166 9 140.499 18s71.666 21.5 84.999 37.5c14 18.667 30.333 28 49 28c14 0 23.667 -8.66699 29 -26
s8 -37.333 8 -60v-737h328v-86z" />
    <glyph glyph-name="j" unicode="j" 
d="M887 1149c0 -32.667 -11.332 -60.335 -33.999 -83.002s-50.334 -34 -83.001 -34s-60.334 11.333 -83.001 34s-34 50.334 -34 83.001s11.333 60.334 34 83.001s50.334 34 83.001 34c21.333 0 41 -5.16699 59 -15.5s32.167 -24.5 42.5 -42.5s15.5 -37.667 15.5 -59z
M813.001 -10.001l0.000976562 -58.001c0 -78.667 -5 -143.5 -15 -194.5s-34 -93.667 -72 -128s-95.667 -51.5 -173 -51.5c-152 0 -290 38 -414 114l64 80c112.667 -72 226.667 -108 342 -108c51.333 0 89.833 11.333 115.5 34s42.167 51.334 49.5 86.001s11 78 11 130v49
v821c-63.333 -22 -131 -33 -203 -33c-20.667 0 -36.334 0.666992 -47.001 2l-143 10l-15 84l164 -10c48.667 0 97 4.33301 145 13s83 25.667 105 51c12.667 17.333 27 26 43 26c18 0 29.667 -8.83301 35 -26.5s8 -45.5 8 -83.5v-807z" />
    <glyph glyph-name="k" unicode="k" 
d="M1165 0l-372 -0.000976562v86h110l-295 373l-215 -187v-186h137v-86h-409v86h180v1124c-28 -6 -60.167 -12.167 -96.5 -18.5s-67.5 -10.166 -93.5 -11.499l-15 86c108.667 2.66699 179 23 211 61c14.667 19.333 31 29 49 29c14 0 23.667 -8.66699 29 -26s8 -37.333 8 -60
v-893l412 385h-111v86h371v-86h-141l-252 -246l340 -430h153v-86z" />
    <glyph glyph-name="l" unicode="l" 
d="M989 0l-749 0.000976562v86h350v1124c-26 -4.66699 -77.5 -10.5 -154.5 -17.5s-140.167 -11.167 -189.5 -12.5l-15 86c212 3.33301 333.667 23.666 365 60.999c14.667 19.333 31 29 49 29c14 0 23.667 -8.66699 29 -26s8 -37.333 8 -60v-1184h307v-86z" />
    <glyph glyph-name="m" unicode="m" 
d="M1178 0l-277.001 -0.000976562v86h80v510c0 66.667 -5.5 115 -16.5 145s-36.833 45 -77.5 45c-62.667 0 -131 -32.667 -205 -98v-602h80v-86h-252v86h80v510c0 57.333 -5.5 103.333 -16.5 138s-38.167 52 -81.5 52c-30.667 0 -64.167 -9.83301 -100.5 -29.5
s-69.833 -42.5 -100.5 -68.5v-602h80v-86h-297v86h125v678c-16.667 -3.33301 -35.5 -7.5 -56.5 -12.5s-39.333 -8.5 -55 -10.5s-29.834 -3.33301 -42.501 -4l-14 82c82.667 2.66699 140.667 23.334 174 62.001c14 18.667 30.333 28 49 28c14 0 23.667 -8.66699 29 -26
s8 -37.333 8 -60v-35c30.667 24 65.334 44 104.001 60s73.667 24 105 24c36 0 66.833 -8.33301 92.5 -25s45.167 -41 58.5 -73c82.667 65.333 165.334 98 248.001 98c53.333 0 92.5 -13.333 117.5 -40s40.667 -58.167 47 -94.5s9.5 -83.5 9.5 -141.5v-510h105v-86z" />
    <glyph glyph-name="n" unicode="n" 
d="M1128 0l-373.999 -0.000976562v86h139v412c0 62 -3 112 -9 150s-22.333 70.5 -49 97.5s-68 40.5 -124 40.5c-98.667 0 -216.334 -43 -353.001 -129v-571h140v-86h-375v86h143v678c-18 -4 -37 -8.33301 -57 -13s-37.833 -8 -53.5 -10s-29.834 -3.33301 -42.501 -4l-15 82
c38 1.33301 71.667 6.33301 101 15s53.666 24.334 72.999 47.001c15.333 18.667 32 28 50 28c24 0 36 -28.667 36 -86v-65c60.667 33.333 121.334 60.666 182.001 81.999s118.334 32 173.001 32c94.667 0 163.667 -25.167 207 -75.5s65 -141.166 65 -272.499v-438h143v-86z
" />
    <glyph glyph-name="o" unicode="o" 
d="M1051 424c0 -82 -18.667 -157.332 -56 -225.999s-89.5 -123 -156.5 -163s-141.833 -60 -224.5 -60s-157.334 19.833 -224.001 59.5s-118.667 94 -156 163s-56 144.5 -56 226.5s18.667 157.5 56 226.5s89.333 123.167 156 162.5s141.334 59 224.001 59
s157.5 -19.833 224.5 -59.5s119.167 -93.834 156.5 -162.501s56 -144 56 -226zM952 424.001c0 49.333 -8.16699 95.833 -24.5 139.5s-39.166 82 -68.499 115s-64.833 59.167 -106.5 78.5s-87.834 29 -138.501 29c-50 0 -95.667 -9.5 -137 -28.5
s-77.166 -45.667 -107.499 -80s-53.5 -73.5 -69.5 -117.5s-24 -89.333 -24 -136c0 -65.333 14.333 -125.666 43 -180.999s69 -99.5 121 -132.5s110 -49.5 174 -49.5s122.167 16.5 174.5 49.5s92.666 77.167 120.999 132.5s42.5 115.666 42.5 180.999z" />
    <glyph glyph-name="p" unicode="p" 
d="M1051 426c0 -82.667 -18.6641 -158.502 -55.9971 -227.502s-89 -123.5 -155 -163.5s-141.333 -60 -226 -60c-75.333 0 -148.333 16.667 -219 50v-357h180v-86h-399v86h127v1096c-18 -4 -37 -8.33301 -57 -13s-37.833 -8 -53.5 -10s-29.834 -3.33301 -42.501 -4l-15 82
c38 1.33301 71.667 6.33301 101 15s53.666 24.334 72.999 47.001c15.333 18.667 31.666 28 48.999 28c14 0 23.667 -8.66699 29 -26s8 -37.333 8 -60v-65c91.333 76 180.333 114 267 114c78 0 146.833 -20.667 206.5 -62s105 -96.166 136 -164.499s46.5 -141.5 46.5 -219.5z
M952.003 427.998c0 44.667 -6.33105 88.1689 -18.998 130.502s-31.334 80.666 -56.001 114.999s-55.334 61.666 -92.001 81.999s-77.667 30.5 -123 30.5c-52.667 0 -103.667 -14.5 -153 -43.5s-87.333 -65.5 -114 -109.5v-512c70 -40 142.333 -60 217 -60
c65.333 0 124 16.833 176 50.5s92.333 78.5 121 134.5s43 116.667 43 182z" />
    <glyph glyph-name="q" unicode="q" 
d="M1120 -418l-484.997 0.000976562v86h209v324c-20.667 -2 -51 -5.33301 -91 -10s-70.333 -7 -91 -7c-148.667 0 -263 37.5 -343 112.5s-120 183.833 -120 326.5c0 104 21.167 190.667 63.5 260s95.166 119.666 158.499 150.999s127 47 191 47
c82.667 0 164 -23.667 244 -71c7.33301 36.667 21.666 74 42.999 112l82 -34c-18.667 -36 -30.834 -65.333 -36.501 -88s-8.5 -50.667 -8.5 -84v-1039h184v-86zM844.003 80.001l0.00195312 635.001c-28.667 20.667 -64.334 37.667 -107.001 51s-83 20 -121 20
c-68 0 -125.833 -17 -173.5 -51s-83.834 -80.167 -108.501 -138.5s-37 -122.833 -37 -193.5c0 -75.333 14.667 -138.833 44 -190.5s71.166 -89.834 125.499 -114.501s119.5 -37 195.5 -37c68.667 0 129.334 6.33301 182.001 19z" />
    <glyph glyph-name="r" unicode="r" 
d="M1079 725l-97.9971 -39.002c-23.333 66.667 -58 100 -104 100c-52.667 0 -110.834 -22.5 -174.501 -67.5s-133.167 -100.833 -208.5 -167.5v-465h337v-86h-612v86h182v678c-18 -4 -37 -8.33301 -57 -13s-37.833 -8 -53.5 -10s-29.834 -3.33301 -42.501 -4l-15 82
c83.333 2.66699 141.666 23.334 174.999 62.001c14 18.667 30.333 28 49 28c12.667 0 22 -9.33301 28 -28s9 -38 9 -58v-151c90 68 162.5 118.333 217.5 151s114.167 49 177.5 49c43.333 0 81 -13.167 113 -39.5s57.667 -62.166 77 -107.499z" />
    <glyph glyph-name="s" unicode="s" 
d="M1010 221c0 -61.333 -19.999 -110.329 -59.999 -146.996s-88.833 -62.334 -146.5 -77.001s-117.167 -22 -178.5 -22c-55.333 0 -111 6.5 -167 19.5s-103 33.167 -141 60.5l-24 -84l-76 21c14 58.667 21 112.667 21 162c0 54 -8.33301 102.333 -25 145h92
c10 -58 26.5 -104.167 49.5 -138.5s55.5 -59.5 97.5 -75.5s96.667 -24 164 -24c45.333 0 90.166 4.5 134.499 13.5s82.166 25.167 113.499 48.5s47 54.666 47 93.999c0 58 -26.5 96.5 -79.5 115.5s-133.833 35.5 -242.5 49.5s-191 35.667 -247 65s-84 81.666 -84 156.999
c0 56 16.5 104.5 49.5 145.5s76.333 71.667 130 92s109.167 30.5 166.5 30.5c95.333 0 192.333 -18.333 291 -55l23 96l79 -14c-7.33301 -32 -13.5 -66.167 -18.5 -102.5s-7.5 -67.833 -7.5 -94.5l12 -120l-88 2l-6 20c-15.333 68 -41.666 115.333 -78.999 142
s-101.333 40 -192 40c-68.667 0 -129.5 -13.5 -182.5 -40.5s-79.5 -71.5 -79.5 -133.5c0 -56.667 25.5 -94 76.5 -112s131.667 -34.5 242 -49.5s193.833 -37.833 250.5 -68.5s85 -84.334 85 -161.001z" />
    <glyph glyph-name="t" unicode="t" 
d="M1057 45c-94.667 -24 -170.664 -41.668 -227.997 -53.001s-114.666 -17 -171.999 -17c-42.667 0 -78.334 5.5 -107.001 16.5s-52.334 29.833 -71.001 56.5s-32.167 61.667 -40.5 105s-12.5 98.666 -12.5 165.999v443h-281v86h281v235h92v-235h467v-86h-467v-443
c0 -57.333 2.83301 -103.666 8.5 -138.999s19.5 -64 41.5 -86s56 -33 102 -33c35.333 0 73.166 3.5 113.499 10.5s90.666 17.833 150.999 32.5s91.5 22.334 93.5 23.001z" />
    <glyph glyph-name="u" unicode="u" 
d="M1139 0l-258.001 -0.00195312v66c-118 -60.667 -230 -91 -336 -91c-93.333 0 -164.5 28.5 -213.5 85.5s-73.5 144.833 -73.5 263.5v440c-78.667 -17.333 -130 -26.333 -154 -27l-14 82c38 1.33301 71.667 6.33301 101 15s53.666 24.334 72.999 47.001
c14 18.667 30.333 28 49 28c14 0 23.667 -8.66699 29 -26s8 -37.333 8 -60v-467c0 -54.667 4.33301 -101.5 13 -140.5s21.334 -69.5 38.001 -91.5s37.834 -38 63.501 -48s55.834 -15 90.501 -15c54 0 107.667 8.83301 161 26.5s108.333 41.167 165 70.5v606
c-16.667 -3.33301 -35.5 -7.5 -56.5 -12.5s-39.333 -8.5 -55 -10.5s-29.834 -3.33301 -42.501 -4l-14 82c82.667 2.66699 140.667 23.334 174 62.001c14 18.667 30.333 28 49 28c14 0 23.667 -8.66699 29 -26s8 -37.333 8 -60v-737h166v-86z" />
    <glyph glyph-name="v" unicode="v" 
d="M1130 762h-133l-335 -785h-97l-334 785h-133v86h336v-86h-102l282 -690l283 690h-104v86h337v-86z" />
    <glyph glyph-name="w" unicode="w" 
d="M1192 762h-86l-207 -785h-115l-153 457l-148 -457h-118l-211 785h-117v86h332v-86h-125l184 -676l170 528h66l176 -528l180 676h-133v86h305v-86z" />
    <glyph glyph-name="x" unicode="x" 
d="M1153 0h-414v86h148l-295 301l-279 -301h160v-86h-399v86h121l335 363l-307 313h-127v86h383v-86h-129l242 -248l231 248h-131v86h389v-86h-141l-287 -311l357 -365h143v-86z" />
    <glyph glyph-name="y" unicode="y" 
d="M1128 762l-129.001 -0.000976562l-389 -895c-35.333 -78.667 -62.833 -135.667 -82.5 -171s-48.334 -67.166 -86.001 -95.499s-85.167 -42.5 -142.5 -42.5c-34.667 0 -70.167 6 -106.5 18s-70.5 29 -102.5 51l35 78c58 -40.667 118 -61 180 -61
c52.667 0 94.334 22 125.001 66s61.334 103 92.001 177l68 158l-367 717h-123v86h377v-86h-153l313 -612l268 612h-153v86h376v-86z" />
    <glyph glyph-name="z" unicode="z" 
d="M1028 283l-35.001 -283h-792v92l661 670h-383c-51.333 0 -85.666 -2.83301 -102.999 -8.5s-28.5 -16.5 -33.5 -32.5s-11.833 -51.667 -20.5 -107l-7 -45h-88l35 279h731l-2 -80l-667 -682h464c44.667 0 74.667 2.33301 90 7s26.333 16.167 33 34.5s15 55.833 25 112.5
l8 43h84z" />
    <glyph glyph-name="braceleft" unicode="{" 
d="M813 -109c-70 4.66699 -123.334 16.332 -160.001 34.999s-61.834 46.667 -75.501 84s-20.5 89.333 -20.5 156v254c-1.33301 64 -10.166 110.167 -26.499 138.5s-53.166 49.833 -110.499 64.5v12c40 10 69.5 23.333 88.5 40s31.5 37.167 37.5 61.5s9.66699 57.5 11 99.5
v270c0 46.667 4.16699 85.667 12.5 117s22 56.5 41 75.5s45.5 33.167 79.5 42.5s75 14.333 123 15v-53c-64 -9.33301 -107.333 -29.5 -130 -60.5s-34 -75.833 -34 -134.5v-260c-1.33301 -67.333 -11.166 -116.666 -29.499 -147.999s-58.166 -55 -119.499 -71v2
c61.333 -15.333 101.166 -40.166 119.499 -74.499s28.166 -86.833 29.499 -157.5v-260c0 -37.333 4.16699 -69 12.5 -95s24.333 -47.333 48 -64s58.167 -28.334 103.5 -35.001v-54z" />
    <glyph glyph-name="bar" unicode="|" 
d="M666 -160h-103v1590h103v-1590z" />
    <glyph glyph-name="braceright" unicode="}" 
d="M809 612c-56.667 -14 -93.3359 -35.3301 -110.003 -63.9971s-25.667 -74 -27 -136v-271c0 -62.667 -7.83301 -111.667 -23.5 -147s-42 -60.833 -79 -76.5s-88.167 -24.5 -153.5 -26.5v54c65.333 9.33301 109 29.5 131 60.5s33 75.5 33 133.5v260
c1.33301 66.667 11.5 116.667 30.5 150s58.5 57.333 118.5 72v-3c-43.333 12 -75.5 27.667 -96.5 47s-34.667 42.833 -41 70.5s-10.166 65.167 -11.499 112.5v260c0 58.667 -11 103.5 -33 134.5s-65.667 51.167 -131 60.5v53c70 -4.66699 123.333 -16.334 160 -35.001
s61.834 -46.667 75.501 -84s20.5 -89.333 20.5 -156v-254c1.33301 -45.333 4.83301 -79.333 10.5 -102s18.334 -42.334 38.001 -59.001s49.167 -30.334 88.5 -41.001v-13z" />
    <glyph glyph-name="asciitilde" unicode="~" 
d="M1171 864c-22 -40.667 -49 -79.3311 -81 -115.998s-67.667 -66.667 -107 -90s-80.333 -35 -123 -35c-25.333 0 -58.5 6.66699 -99.5 20s-90.167 31.833 -147.5 55.5s-106 42.5 -146 56.5s-72.667 21 -98 21c-54.667 0 -98.167 -16.833 -130.5 -50.5
s-68.833 -85.834 -109.5 -156.501l-74 56c44 75.333 89.667 136.5 137 183.5s102.666 70.5 165.999 70.5c39.333 0 80.666 -6.83301 123.999 -20.5s96.833 -34.334 160.5 -62.001s109.834 -46.5 138.501 -56.5s54.334 -15 77.001 -15c49.333 0 96 19.5 140 58.5
s78 84.5 102 136.5z" />
    <glyph glyph-name="uni00A0" unicode="&#xa0;" horiz-adv-x="1024" 
 />
    <glyph glyph-name="exclamdown" unicode="&#xa1;" 
d="M719 760c0 -32 -11.5 -59.168 -34.5 -81.501s-50.5 -33.5 -82.5 -33.5c-30.667 0 -57.5 11.167 -80.5 33.5s-34.5 49.5 -34.5 81.5c0 32.667 11.333 60.334 34 83.001s49.667 34 81 34c21.333 0 41 -5.16699 59 -15.5s32.167 -24.5 42.5 -42.5s15.5 -37.667 15.5 -59z
M707 -315.001c0 -28.667 -10.168 -52.334 -30.501 -71.001s-45.166 -28 -74.499 -28c-28.667 0 -53.167 9.33301 -73.5 28s-30.5 42.334 -30.5 71.001l67 841h74z" />
    <glyph glyph-name="cent" unicode="&#xa2;" 
d="M1063 262c-117.333 -59.333 -241.667 -92 -373 -98v-234h-92v234c-117.333 20.667 -209.166 73.334 -275.499 158.001s-99.5 187 -99.5 307c0 54.667 9.33301 107.167 28 157.5s44.667 95 78 134s72.5 71.167 117.5 96.5s95.5 42 151.5 50v186h92v-186
c143.333 -8 240.333 -51 291 -129c-5.33301 -20.667 -8 -53.334 -8 -98.001c0 -16.667 2.66699 -51 8 -103h-92v58c0 57.333 -18.667 102.666 -56 135.999s-95.333 50 -174 50c-63.333 0 -120.833 -16.167 -172.5 -48.5s-92 -76 -121 -131s-43.5 -113.167 -43.5 -174.5
c0 -68 14.5 -130.667 43.5 -188s69.667 -103.166 122 -137.499s113.166 -51.5 182.499 -51.5c101.333 0 220 31.333 356 94z" />
    <glyph glyph-name="sterling" unicode="&#xa3;" 
d="M1073 252c0 -46.667 -8.66797 -91.5029 -26.001 -134.503s-43.166 -77.5 -77.499 -103.5s-74.833 -39 -121.5 -39c-48 0 -93.667 15 -137 45s-86.333 69 -129 117c-16.667 -44.667 -46.5 -82.834 -89.5 -114.501s-89.167 -47.5 -138.5 -47.5
c-56.667 0 -105.667 20 -147 60s-62 89 -62 147c0 40.667 9.16699 76.834 27.5 108.501s43.333 56.334 75 74.001s68.5 26.5 110.5 26.5c65.333 0 118.666 -19.667 159.999 -59c-2.66699 25.333 -7.5 51.166 -14.5 77.499s-15.333 53 -25 80s-21.167 59.167 -34.5 96.5
l-4 10h-258v86h232c-31.333 86 -47 162.333 -47 229c0 106.667 29.5 192.5 88.5 257.5s141.167 97.5 246.5 97.5c56 0 110.333 -12.333 163 -37s95 -59.667 127 -105s48 -96.333 48 -153c0 -88.667 -25 -133 -75 -133c-19.333 0 -33.833 8.5 -43.5 25.5
s-14.5 35.833 -14.5 56.5c0 28 12.333 58 37 90c-4.66699 34.667 -19.5 64.834 -44.5 90.501s-55 45.334 -90 59.001s-69.833 20.5 -104.5 20.5c-80 0 -140 -25.5 -180 -76.5s-60 -117.167 -60 -198.5c0 -57.333 15 -131.666 45 -222.999h287v-86h-262
c48.667 -134.667 73 -240.334 73 -317.001l-2 -37c30.667 -44 68.334 -85.167 113.001 -123.5s86.334 -57.5 125.001 -57.5c47.333 0 83.666 20.333 108.999 61s38 87.334 38 140.001zM517.999 212.997c-27.333 31.333 -51.999 54.5 -73.999 69.5s-48.333 22.5 -79 22.5
c-36.667 0 -66 -11.667 -88 -35s-33 -53.333 -33 -90c0 -31.333 11.333 -59 34 -83s50 -36 82 -36c26 0 50.333 7 73 21s41.667 32.833 57 56.5s24.666 48.5 27.999 74.5z" />
    <glyph glyph-name="currency" unicode="&#xa4;" 
d="M1217 225l-77.9971 -71l-221 217c-42.667 -34 -90.334 -60 -143.001 -78s-106.334 -27 -161.001 -27c-114 0 -215 35 -303 105l-219 -217l-78 71l224 219c-67.333 94 -101 193.667 -101 299c0 57.333 8.33301 109.666 25 156.999s42 94.666 76 141.999l-224 222l78 71
l219 -219c88 70 189 105 303 105c113.333 0 214.666 -35 303.999 -105l221 219l78 -71l-226 -222c34 -47.333 59.333 -94.666 76 -141.999s25 -99.666 25 -156.999c0 -105.333 -33.667 -205 -101 -299zM999.003 743c0 70 -16.833 134.833 -50.5 194.5
s-80.167 106.667 -139.5 141s-124.333 51.5 -195 51.5s-135.667 -17.167 -195 -51.5s-105.833 -81.333 -139.5 -141s-50.5 -124.5 -50.5 -194.5s17 -134.667 51 -194s80.667 -106 140 -140s124 -51 194 -51s134.667 17 194 51s106 80.667 140 140s51 124 51 194z" />
    <glyph glyph-name="yen" unicode="&#xa5;" 
d="M1157 1155h-121l-325 -539h290v-86h-339v-102h339v-86h-339v-256h274v-86h-641v86h274v256h-338v86h338v102h-338v86h289l-325 539h-123v86h385v-86h-160l319 -526l320 526h-164v86h385v-86z" />
    <glyph glyph-name="brokenbar" unicode="&#xa6;" 
d="M666 803h-103v627h103v-627zM666 -57h-103v626h103v-626z" />
    <glyph glyph-name="section" unicode="&#xa7;" 
d="M965 424c0 -82 -45.332 -151.002 -135.999 -207.002c28.667 -30.667 49.5 -60 62.5 -88s19.5 -61.333 19.5 -100c0 -48 -13.833 -89.833 -41.5 -125.5s-63.334 -62.667 -107.001 -81s-88.834 -27.5 -135.501 -27.5c-82.667 0 -153.167 23.833 -211.5 71.5
s-87.5 111.834 -87.5 192.501c0 20 4.33301 39.333 13 58s22 28 40 28c17.333 0 30.833 -8.5 40.5 -25.5s14.5 -34.833 14.5 -53.5c0 -14 -4.66699 -33.333 -14 -58c32 -84.667 98.333 -127 199 -127c52.667 0 97.834 13.833 135.501 41.5s56.5 67.834 56.5 120.501
c0 47.333 -22.167 92 -66.5 134s-112.833 96.5 -205.5 163.5s-162 125 -208 174s-69 102.833 -69 161.5c0 45.333 11 84.666 33 117.999s53.333 63 94 89c-44.667 42.667 -67 98.667 -67 168c0 52 12.833 97.5 38.5 136.5s60.167 68.667 103.5 89s90.666 30.5 141.999 30.5
c47.333 0 94 -9.66699 140 -29s83 -47.833 111 -85.5s42 -80.834 42 -129.501c0 -22 -4 -42.833 -12 -62.5s-21 -29.5 -39 -29.5c-15.333 0 -27.666 5.83301 -36.999 17.5s-14 26.167 -14 43.5c0 18.667 4.66699 41.334 14 68.001
c-4.66699 27.333 -17.834 49.833 -39.501 67.5s-46.667 31 -75 40s-56.5 13.5 -84.5 13.5c-53.333 0 -98.666 -15.167 -135.999 -45.5s-56 -71.166 -56 -122.499c0 -50 20.833 -95.167 62.5 -135.5s108.5 -93.666 200.5 -159.999s161.667 -124.333 209 -174
s71 -102.834 71 -159.501zM866.001 421.998c0 59.333 -40.3311 119.333 -120.998 180l-290 225c-62 -38.667 -93 -89.667 -93 -153c0 -24.667 6.66699 -49 20 -73s29.166 -44.667 47.499 -62s43.166 -38 74.499 -62l266 -203c64 32.667 96 82 96 148z" />
    <glyph glyph-name="dieresis" unicode="&#xa8;" 
d="M942 1151c0 -28.667 -10.333 -53.667 -31 -75s-45.667 -32 -75 -32c-30 0 -55.333 10.667 -76 32s-31 46.333 -31 75c0 29.333 10.333 54.333 31 75s46 31 76 31c29.333 0 54.333 -10.333 75 -31s31 -45.667 31 -75zM500 1151c0 -28.667 -10.333 -53.667 -31 -75
s-46 -32 -76 -32c-29.333 0 -54.333 10.667 -75 32s-31 46.333 -31 75c0 29.333 10.333 54.333 31 75s45.667 31 75 31c30 0 55.333 -10.333 76 -31s31 -45.667 31 -75z" />
    <glyph glyph-name="copyright" unicode="&#xa9;" 
d="M1174 621c0 -114.667 -16.498 -213.668 -49.498 -297.001s-77.667 -150.833 -134 -202.5s-116.666 -89 -180.999 -112s-129.5 -34.5 -195.5 -34.5c-88.667 0 -175.834 21.5 -261.501 64.5s-156.667 113 -213 210s-84.5 220.833 -84.5 371.5c0 114.667 17 214 51 298
s78.167 151.333 132.5 202s114.166 87.5 179.499 110.5s130.666 34.5 195.999 34.5c89.333 0 176.833 -21.5 262.5 -64.5s156.667 -113.167 213 -210.5s84.5 -220.666 84.5 -369.999zM1075 620.999c0 130.667 -23 237.834 -69 321.501s-104 144.167 -174 181.5
s-142.667 56 -218 56c-74.667 0 -147 -18.667 -217 -56s-128 -97.833 -174 -181.5s-69 -190.834 -69 -321.501c0 -131.333 23 -238.833 69 -322.5s104 -144.167 174 -181.5s142.333 -56 217 -56c75.333 0 148 18.667 218 56s128 97.833 174 181.5s69 191.167 69 322.5z
M844.002 947.999c-12.667 -23.333 -18.999 -59.998 -18.999 -109.998l2 -76h-55c-0.666992 52.667 -13.834 91 -39.501 115s-65.167 36 -118.5 36c-62 0 -108.167 -28 -138.5 -84s-45.5 -124 -45.5 -204c0 -80.667 15 -151.334 45 -212.001s75.667 -91 137 -91
c54.667 0 97.667 16 129 48s47 76.667 47 134h52l-2 -131c-38 -38.667 -74.667 -68.834 -110 -90.501s-75.333 -32.5 -120 -32.5c-69.333 0 -130.333 31.5 -183 94.5s-79 157.833 -79 284.5c0 124.667 26 215.167 78 271.5s114.667 84.5 188 84.5c72 0 126.667 -15 164 -45
l17 23z" />
    <glyph glyph-name="ordfeminine" unicode="&#xaa;" 
d="M930 731h-197v37c-83.333 -34 -162.333 -51 -237 -51c-54.667 0 -101.167 11.667 -139.5 35s-57.5 60 -57.5 110c0 54 20.5 94.333 61.5 121s89.5 41.667 145.5 45l227 19v32c0 41.333 -5 70.5 -15 87.5s-34.333 25.5 -73 25.5c-70 0 -133.333 -16.333 -190 -49v-74h-86
l2 125c87.333 48 175.333 72 264 72c66 0 115 -13 147 -39c16.667 -13.333 27 -30.333 31 -51s6 -46.667 6 -78v-293h111v-74zM915 514h-604v86h604v-86zM733 852v123c-104.667 -2.66699 -186 -11 -244 -25c-69.333 -16 -104 -45.333 -104 -88c0 -47.333 36.333 -71 109 -71
c63.333 0 143 20.333 239 61z" />
    <glyph glyph-name="guillemotleft" unicode="&#xab;" 
d="M1092 168l-62 -62l-555 517l555 514l62 -62l-496 -454zM756 168l-62 -62l-555 517l555 514l62 -62l-496 -454z" />
    <glyph glyph-name="logicalnot" unicode="&#xac;" 
d="M1124 354h-102v475h-959v103h1061v-578z" />
    <glyph glyph-name="registered" unicode="&#xae;" 
d="M1174 621c0 -114.667 -16.498 -213.668 -49.498 -297.001s-77.667 -150.833 -134 -202.5s-116.666 -89 -180.999 -112s-129.5 -34.5 -195.5 -34.5c-88.667 0 -175.834 21.5 -261.501 64.5s-156.667 113 -213 210s-84.5 220.833 -84.5 371.5c0 114.667 17 214 51 298
s78.167 151.333 132.5 202s114.166 87.5 179.499 110.5s130.666 34.5 195.999 34.5c89.333 0 176.833 -21.5 262.5 -64.5s156.667 -113.167 213 -210.5s84.5 -220.666 84.5 -369.999zM1075 620.999c0 130.667 -23 237.834 -69 321.501s-104 144.167 -174 181.5
s-142.667 56 -218 56c-74.667 0 -147 -18.667 -217 -56s-128 -97.833 -174 -181.5s-69 -190.834 -69 -321.501c0 -131.333 23 -238.833 69 -322.5s104 -144.167 174 -181.5s142.333 -56 217 -56c75.333 0 148 18.667 218 56s128 97.833 174 181.5s69 191.167 69 322.5z
M936.002 249.999l-124.999 2l-229 340h-101v-277h111v-65h-266v65h77v592l-77 8v66l114 -4c21.333 0 52.666 1.33301 93.999 4s72.333 4 93 4c50 0 95.167 -17.5 135.5 -52.5s60.5 -82.167 60.5 -141.5c0 -100 -51.667 -163 -155 -189l190 -287h78v-65zM739.003 785.999
c0 84.667 -43 127 -129 127c-14 0 -25 -0.166992 -33 -0.5s-18.167 -0.833008 -30.5 -1.5s-24.333 -1.5 -36 -2.5s-21.5 -1.5 -29.5 -1.5v-254h56c64.667 0 114.5 8.66699 149.5 26s52.5 53 52.5 107z" />
    <glyph glyph-name="macron" unicode="&#xaf;" 
d="M866 1108h-504v86h504v-86z" />
    <glyph glyph-name="degree" unicode="&#xb0;" 
d="M1016 1130c0 -54.667 -10.166 -106.501 -30.499 -155.501s-49.333 -92 -87 -129s-80.5 -65.667 -128.5 -86s-100 -30.5 -156 -30.5c-72 0 -139 18 -201 54s-110.833 85 -146.5 147s-53.5 128.667 -53.5 200c0 55.333 10.333 107.5 31 156.5s49.167 92 85.5 129
s79.333 65.667 129 86s101.5 30.5 155.5 30.5c55.333 0 107.666 -10.167 156.999 -30.5s92.333 -48.833 129 -85.5s65.167 -79.667 85.5 -129s30.5 -101.666 30.5 -156.999zM918.001 1130c0 42 -7.66699 81.1689 -23 117.502s-37.333 68.833 -66 97.5
s-61.167 50.667 -97.5 66s-75.5 23 -117.5 23c-40.667 0 -78.834 -7.5 -114.501 -22.5s-68 -37 -97 -66s-51.5 -62.333 -67.5 -100s-24 -76.167 -24 -115.5c0 -38.667 7.83301 -76.334 23.5 -113.001s38.167 -69.667 67.5 -99s62.333 -51.833 99 -67.5
s74.334 -23.5 113.001 -23.5c39.333 0 77.833 8 115.5 24s71 38.5 100 67.5s51 61.167 66 96.5s22.5 73.666 22.5 114.999z" />
    <glyph glyph-name="plusminus" unicode="&#xb1;" 
d="M1145 788h-479v-458h-103v458h-479v103h479v459h103v-459h479v-103zM1145 96h-1061v103h1061v-103z" />
    <glyph glyph-name="uni00B2" unicode="&#xb2;" 
d="M856 707l-62.999 -126.998l-414 -2v65l31 33c14.667 16 40.5 42.5 77.5 79.5s72.5 75 106.5 114s61.333 77.167 82 114.5s31 71.666 31 102.999s-11.833 57.333 -35.5 78s-51.5 31 -83.5 31c-43.333 0 -74.666 -17 -93.999 -51c0 -20 -5.83301 -38.333 -17.5 -55
s-27.834 -25 -48.501 -25c-23.333 0 -35 13.667 -35 41c0 46 21.167 84.167 63.5 114.5s86.833 45.5 133.5 45.5c53.333 0 100.166 -16 140.499 -48s60.5 -74 60.5 -126c0 -74.667 -31.667 -146.334 -95 -215.001l-211 -230h256l41 76z" />
    <glyph glyph-name="uni00B3" unicode="&#xb3;" 
d="M842 774c0 -68 -23 -119.83 -69 -155.497s-104.333 -53.5 -175 -53.5c-82.667 0 -153 18.667 -211 56l33 63c54.667 -32.667 114 -49 178 -49c47.333 0 85.833 11.5 115.5 34.5s44.5 57.167 44.5 102.5c0 44 -12.167 77.833 -36.5 101.5s-58.833 35.5 -103.5 35.5h-61v70
h45c82 0 123 31.333 123 94c0 37.333 -10 67.166 -30 89.499s-47.667 33.5 -83 33.5c-24 0 -48.333 -7.33301 -73 -22c-2 -22.667 -9.5 -42.834 -22.5 -60.501s-29.5 -26.5 -49.5 -26.5c-11.333 0 -20.666 4.16699 -27.999 12.5s-11 17.833 -11 28.5c0 15.333 7 34 21 56
s36.333 41.167 67 57.5s67.667 24.5 111 24.5c53.333 0 97 -18 131 -54s51 -80.333 51 -133c0 -29.333 -5.16699 -53.333 -15.5 -72s-27.833 -38.334 -52.5 -59.001l-4 2c39.333 -28 66.666 -53.5 81.999 -76.5s23 -56.167 23 -99.5z" />
    <glyph glyph-name="acute" unicode="&#xb4;" 
d="M920 1235l-396 -266l-53 69l365 297z" />
    <glyph glyph-name="mu" unicode="&#xb5;" 
d="M961 0l-93 0.00195312v154l4 -4c-21.333 -50 -55 -91.667 -101 -125s-97 -50 -153 -50c-38.667 0 -75.167 6.66699 -109.5 20s-64.5 32.166 -90.5 56.499s-47.333 54.166 -64 89.499l6 -2v-545h-92v1254h92v-459c0 -64.667 11.667 -122 35 -172s54.333 -88.5 93 -115.5
s78 -40.5 118 -40.5c80 0 143.667 30.667 191 92s71 140 71 236v459h93v-848z" />
    <glyph glyph-name="paragraph" unicode="&#xb6;" 
d="M1036 1155h-80.001v-1286h-92v1286h-207v-1286h-92v700c-70.667 0 -134.167 13.667 -190.5 41s-100.666 66.333 -132.999 117s-48.5 109.334 -48.5 176.001c0 53.333 10.667 105.166 32 155.499s62 93.333 122 129s143.667 53.5 251 53.5h438v-86z" />
    <glyph glyph-name="cedilla" unicode="&#xb8;" 
d="M858 -295c0 -62 -24.667 -108.502 -74 -139.502s-107.333 -46.5 -174 -46.5c-81.333 0 -154.333 18.333 -219 55v88c78 -38 148.333 -57 211 -57c40.667 0 77.167 8.33301 109.5 25s48.5 42.334 48.5 77.001c0 30 -14 50.5 -42 61.5s-60.333 16.5 -97 16.5l-105 -8
l53 252l88 2l-30 -158h30c36 0 69.167 -6.16699 99.5 -18.5s54.833 -31.166 73.5 -56.499s28 -56.333 28 -93z" />
    <glyph glyph-name="uni00B9" unicode="&#xb9;" 
d="M811 578h-393v69h157v512c-38 -6.66699 -72.667 -10 -104 -10l-39 2l-14 68h41c66.667 0 109.667 10 129 30c8 11.333 19 17 33 17c25.333 0 38 -23.333 38 -70v-549h152v-69z" />
    <glyph glyph-name="ordmasculine" unicode="&#xba;" 
d="M907 991c0 -79.333 -28.665 -144.833 -85.998 -196.5s-126.333 -77.5 -207 -77.5c-79.333 0 -147.833 25.833 -205.5 77.5s-86.5 117.167 -86.5 196.5c0 52.667 13.167 100 39.5 142s61.666 74.667 105.999 98s93.166 35 146.499 35c52.667 0 101.5 -11.667 146.5 -35
s80.667 -56 107 -98s39.5 -89.333 39.5 -142zM915.002 514h-604v86h604v-86zM821.002 991c0 37.333 -9.33398 71.5 -28.001 102.5s-43.5 55.167 -74.5 72.5s-65.833 26 -104.5 26c-38 0 -72.5 -8.66699 -103.5 -26s-55.833 -41.5 -74.5 -72.5s-28 -65.167 -28 -102.5
c0 -56.667 20.333 -104.167 61 -142.5s89 -57.5 145 -57.5c56.667 0 105.334 19.167 146.001 57.5s61 85.833 61 142.5z" />
    <glyph glyph-name="guillemotright" unicode="&#xbb;" 
d="M1090 623l-555 -517l-62 62l496 453l-496 454l62 62zM754 623l-555 -517l-62 62l496 453l-496 454l62 62z" />
    <glyph glyph-name="onequarter" unicode="&#xbc;" 
d="M1153 0h-288.998v70h111v104h-330v66c55.333 90 101.666 173.5 138.999 250.5s66.666 156.5 87.999 238.5l80 -20c-34 -130 -107.667 -285 -221 -465h244v233h84v-233h94v-70h-94v-104h94v-70zM946.002 1266l-569 -1325l-68 39l570 1325zM483.002 578h-393.001v69h158
v512c-38.667 -6.66699 -73.667 -10 -105 -10l-39 2l-14 68h41c66.667 0 109.667 10 129 30c8 11.333 19 17 33 17c16.667 0 27.334 -6.16699 32.001 -18.5s7 -29.5 7 -51.5v-549h151v-69z" />
    <glyph glyph-name="onehalf" unicode="&#xbd;" 
d="M1204 127l-62.999 -126.997l-414 -2v65l31 33c14.667 16.667 40.5 43.5 77.5 80.5s72.5 75 106.5 114s61.333 77.167 82 114.5s31 71.666 31 102.999s-12 57.166 -36 77.499s-51.667 30.5 -83 30.5c-43.333 0 -74.666 -17 -93.999 -51c0 -20 -5.83301 -38.333 -17.5 -55
s-27.834 -25 -48.501 -25c-23.333 0 -35 13.667 -35 41c0 47.333 21.167 85.833 63.5 115.5s86.833 44.5 133.5 44.5c53.333 0 100.166 -16 140.499 -48s60.5 -74 60.5 -126c0 -74.667 -31.667 -146.334 -95 -215.001l-210 -229h256l40 75zM926.001 1266l-570 -1325l-67 39
l569 1325zM463.001 578.003h-393.001v69h157v512c-38 -6.66699 -72.667 -10 -104 -10l-39 2l-14 68h41c25.333 0 50.5 2 75.5 6s42.833 12 53.5 24c8 11.333 18.667 17 32 17c16.667 0 27.334 -6.16699 32.001 -18.5s7 -29.5 7 -51.5v-549h152v-69z" />
    <glyph glyph-name="threequarters" unicode="&#xbe;" 
d="M1153 0h-288.998v70h111v104h-330v66c55.333 90 101.666 173.5 138.999 250.5s66.666 156.5 87.999 238.5l80 -20c-34 -130 -107.667 -285 -221 -465h244v233h84v-233h94v-70h-94v-104h94v-70zM946.002 1266l-569 -1325l-68 39l570 1325zM494.002 774
c0 -68 -23.001 -119.83 -69.001 -155.497s-104.333 -53.5 -175 -53.5c-83.333 0 -153.666 18.667 -210.999 56l33 63c54.667 -32.667 114 -49 178 -49c47.333 0 85.833 11.5 115.5 34.5s44.5 57.167 44.5 102.5c0 44 -12.333 77.833 -37 101.5s-59 35.5 -103 35.5h-61v70h45
c82 0 123 31.333 123 94c0 37.333 -10 67.166 -30 89.499s-47.667 33.5 -83 33.5c-23.333 0 -48 -7.33301 -74 -22c-2 -22.667 -9.5 -42.834 -22.5 -60.501s-29.167 -26.5 -48.5 -26.5c-11.333 0 -20.666 4.16699 -27.999 12.5s-11 17.833 -11 28.5c0 15.333 7 34 21 56
s36.333 41.167 67 57.5s67.667 24.5 111 24.5c53.333 0 97 -18 131 -54s51 -80.333 51 -133c0 -29.333 -5.16699 -53.333 -15.5 -72s-27.833 -38.334 -52.5 -59.001l-4 2c39.333 -28 66.666 -53.5 81.999 -76.5s23 -56.167 23 -99.5z" />
    <glyph glyph-name="questiondown" unicode="&#xbf;" 
d="M690 770c0 -31.333 -11 -58.334 -33 -81.001s-49.333 -34 -82 -34c-32 0 -59.333 11.333 -82 34s-34 49.667 -34 81c0 32.667 11.333 60.334 34 83.001s50 34 82 34c20.667 0 40 -5.33301 58 -16s32 -25 42 -43s15 -37.333 15 -58zM872 -100.001
c0 -52.667 -13.835 -102.665 -41.502 -149.998s-66.667 -84.666 -117 -111.999s-105.833 -41 -166.5 -41c-53.333 0 -102.333 12.167 -147 36.5s-80.5 58.166 -107.5 101.499s-40.5 91.333 -40.5 144c0 63.333 13.167 118.5 39.5 165.5s66.5 101.833 120.5 164.5
c34 39.333 59 73.166 75 101.499s27.167 59.166 33.5 92.499s9.5 78 9.5 134h88v-45c0 -67.333 -12 -126.666 -36 -177.999s-59.167 -106.333 -105.5 -165s-79 -103.834 -98 -135.501s-28.5 -70.834 -28.5 -117.501c0 -59.333 18.5 -109.666 55.5 -150.999
s84.167 -62 141.5 -62c56.667 0 106.334 16.5 149.001 49.5s67.334 76.5 74.001 130.5c-8 20 -12 41.667 -12 65c0 18 4.5 34.833 13.5 50.5s22.167 23.5 39.5 23.5c40.667 0 61 -34 61 -102z" />
    <glyph glyph-name="Agrave" unicode="&#xc0;" 
d="M1184 0h-367v86h168l-113 287h-526l-106 -287h168v-86h-363v86h100l461 1278l477 -1278h101v-86zM844 459l-240 655l-227 -655h467zM760 1472l-53 -69l-396 266l84 100z" />
    <glyph glyph-name="Aacute" unicode="&#xc1;" 
d="M1184 0h-367v86h168l-113 287h-526l-106 -287h168v-86h-363v86h100l461 1278l477 -1278h101v-86zM844 459l-240 655l-227 -655h467zM920 1669l-396 -266l-53 69l365 297z" />
    <glyph glyph-name="Acircumflex" unicode="&#xc2;" 
d="M1184 0h-367v86h168l-113 287h-526l-106 -287h168v-86h-363v86h100l461 1278l477 -1278h101v-86zM844 459l-240 655l-227 -655h467zM963 1421l-56 -55l-293 201l-290 -201l-56 55l348 303z" />
    <glyph glyph-name="Atilde" unicode="&#xc3;" 
d="M1184 0h-367v86h168l-113 287h-526l-106 -287h168v-86h-363v86h100l461 1278l477 -1278h101v-86zM844 459l-240 655l-227 -655h467zM930 1665c0 -63.333 -14.001 -115.667 -42.001 -157s-71.333 -62 -130 -62c-24.667 0 -48.667 5 -72 15s-54.666 26 -93.999 48
c-51.333 32.667 -92.333 49 -123 49c-50.667 0 -76 -38.667 -76 -116h-96c0 62 13.333 113.333 40 154s68.667 61 126 61c40 0 94.667 -19.333 164 -58c36.667 -21.333 63.167 -35.833 79.5 -43.5s32.833 -11.5 49.5 -11.5c48.667 0 73 40.333 73 121h101z" />
    <glyph glyph-name="Adieresis" unicode="&#xc4;" 
d="M1184 0h-367v86h168l-113 287h-526l-106 -287h168v-86h-363v86h100l461 1278l477 -1278h101v-86zM844 459l-240 655l-227 -655h467zM942 1544c0 -28.667 -10.333 -53.667 -31 -75s-45.667 -32 -75 -32c-30 0 -55.333 10.667 -76 32s-31 46.333 -31 75
c0 29.333 10.333 54.333 31 75s46 31 76 31c29.333 0 54.333 -10.333 75 -31s31 -45.667 31 -75zM500 1544c0 -28.667 -10.333 -53.667 -31 -75s-46 -32 -76 -32c-29.333 0 -54.333 10.667 -75 32s-31 46.333 -31 75c0 29.333 10.333 54.333 31 75s45.667 31 75 31
c30 0 55.333 -10.333 76 -31s31 -45.667 31 -75z" />
    <glyph glyph-name="Aring" unicode="&#xc5;" 
d="M1184 0h-367v86h168l-113 287h-526l-106 -287h168v-86h-363v86h100l461 1278l477 -1278h101v-86zM844 459l-240 655l-227 -655h467zM768 1632c0 -48 -16.998 -89.002 -50.998 -123.002s-75 -51 -123 -51c-46.667 0 -87.334 17.333 -122.001 52s-52 75.334 -52 122.001
c0 48 17 89 51 123s75 51 123 51c49.333 0 90.666 -16.667 123.999 -50s50 -74.666 50 -123.999zM670.002 1632c0 22.667 -6.99902 43 -20.999 61s-32.333 27 -55 27c-22 0 -40 -9 -54 -27s-21 -38.333 -21 -61c0 -21.333 7.16699 -41.333 21.5 -60s32.166 -28 53.499 -28
c22 0 40.167 9.33301 54.5 28s21.5 38.667 21.5 60z" />
    <glyph glyph-name="AE" unicode="&#xc6;" 
d="M1163 0l-606.002 0.000976562v86h76v309h-336l-104 -309h137v-86h-289v86h61l394 1153l667 2v-321h-92v49c0 67.333 -12.667 115.166 -38 143.499s-69.333 42.5 -132 42.5h-176v-436h172v121h92v-324h-92v117h-172v-547h152c60.667 0 103.834 4 129.501 12
s42.834 26.333 51.501 55s13 76.667 13 144v78h92v-375zM632.998 481.001v674h-78l-227 -674h305z" />
    <glyph glyph-name="Ccedilla" unicode="&#xc7;" 
d="M1079 1233c-13.333 -34 -21.9971 -67.167 -25.9971 -99.5s-6 -69.5 -6 -111.5l8 -148l-86 -14c-4 70.667 -15.833 129.334 -35.5 176.001s-50.334 82.334 -92.001 107.001s-96.834 37 -165.501 37c-94 0 -171.833 -27.5 -233.5 -82.5s-106.167 -124.667 -133.5 -209
s-41 -172.166 -41 -263.499c0 -90 14.167 -178.167 42.5 -264.5s73 -157.833 134 -214.5s137.5 -85 229.5 -85c101.333 0 178.166 30.667 230.499 92s78.5 145.666 78.5 252.999h92l-2 -248c-56.667 -58 -119.334 -103 -188.001 -135s-141 -48 -217 -48
c-78.667 0 -156.167 22.333 -232.5 67s-139.666 116.5 -189.999 215.5s-75.5 224.167 -75.5 375.5c0 113.333 15.167 211.166 45.5 293.499s70 148.166 119 197.499s103 85.333 162 108s117.5 34 175.5 34c104 0 203 -26.667 297 -80l24 78zM899.003 -295
c0 -62 -24.667 -108.502 -74 -139.502s-107.333 -46.5 -174 -46.5c-81.333 0 -154.333 18.333 -219 55v88c78 -38 148.333 -57 211 -57c40.667 0 77.167 8.33301 109.5 25s48.5 42.334 48.5 77.001c0 30 -14 50.5 -42 61.5s-60.333 16.5 -97 16.5l-105 -8l53 252l88 2
l-30 -158h30c36 0 69.167 -6.16699 99.5 -18.5s54.833 -31.166 73.5 -56.499s28 -56.333 28 -93z" />
    <glyph glyph-name="Egrave" unicode="&#xc8;" 
d="M1085 0l-994.999 -0.000976562v86h211v1069h-211v86h959v-336h-93v37c0 49.333 -1.83301 87 -5.5 113s-11.667 46.333 -24 61s-31 24.834 -56 30.501s-60.5 8.5 -106.5 8.5h-371v-434h324v158h92v-424h-92v180h-324v-549h363c76.667 0 131.167 6.33301 163.5 19
s52.666 34.5 60.999 65.5s12.5 83.5 12.5 157.5v53h92v-381zM760.001 1431l-53 -69l-396 266l84 100z" />
    <glyph glyph-name="Eacute" unicode="&#xc9;" 
d="M1085 0l-994.999 -0.000976562v86h211v1069h-211v86h959v-336h-93v37c0 49.333 -1.83301 87 -5.5 113s-11.667 46.333 -24 61s-31 24.834 -56 30.501s-60.5 8.5 -106.5 8.5h-371v-434h324v158h92v-424h-92v180h-324v-549h363c76.667 0 131.167 6.33301 163.5 19
s52.666 34.5 60.999 65.5s12.5 83.5 12.5 157.5v53h92v-381zM920.001 1628l-396 -266l-53 69l365 297z" />
    <glyph glyph-name="Ecircumflex" unicode="&#xca;" 
d="M1085 0l-994.999 -0.000976562v86h211v1069h-211v86h959v-336h-93v37c0 49.333 -1.83301 87 -5.5 113s-11.667 46.333 -24 61s-31 24.834 -56 30.501s-60.5 8.5 -106.5 8.5h-371v-434h324v158h92v-424h-92v180h-324v-549h363c76.667 0 131.167 6.33301 163.5 19
s52.666 34.5 60.999 65.5s12.5 83.5 12.5 157.5v53h92v-381zM963.001 1421l-56 -55l-293 201l-290 -201l-56 55l348 303z" />
    <glyph glyph-name="Edieresis" unicode="&#xcb;" 
d="M1085 0l-994.999 -0.000976562v86h211v1069h-211v86h959v-336h-93v37c0 49.333 -1.83301 87 -5.5 113s-11.667 46.333 -24 61s-31 24.834 -56 30.501s-60.5 8.5 -106.5 8.5h-371v-434h324v158h92v-424h-92v180h-324v-549h363c76.667 0 131.167 6.33301 163.5 19
s52.666 34.5 60.999 65.5s12.5 83.5 12.5 157.5v53h92v-381zM942.001 1544c0 -28.667 -10.333 -53.667 -31 -75s-45.667 -32 -75 -32c-30 0 -55.333 10.667 -76 32s-31 46.333 -31 75c0 29.333 10.333 54.333 31 75s46 31 76 31c29.333 0 54.333 -10.333 75 -31
s31 -45.667 31 -75zM500.001 1544c0 -28.667 -10.333 -53.667 -31 -75s-46 -32 -76 -32c-29.333 0 -54.333 10.667 -75 32s-31 46.333 -31 75c0 29.333 10.333 54.333 31 75s45.667 31 75 31c30 0 55.333 -10.333 76 -31s31 -45.667 31 -75z" />
    <glyph glyph-name="Igrave" unicode="&#xcc;" 
d="M995 0h-762v86h336v1069h-336v86h762v-86h-333v-1069h333v-86zM760 1431l-53 -69l-396 266l84 100z" />
    <glyph glyph-name="Iacute" unicode="&#xcd;" 
d="M995 0h-762v86h336v1069h-336v86h762v-86h-333v-1069h333v-86zM920 1628l-396 -266l-53 69l365 297z" />
    <glyph glyph-name="Icircumflex" unicode="&#xce;" 
d="M995 0h-762v86h336v1069h-336v86h762v-86h-333v-1069h333v-86zM963 1421l-56 -55l-293 201l-290 -201l-56 55l348 303z" />
    <glyph glyph-name="Idieresis" unicode="&#xcf;" 
d="M995 0h-762v86h336v1069h-336v86h762v-86h-333v-1069h333v-86zM942 1544c0 -28.667 -10.333 -53.667 -31 -75s-45.667 -32 -75 -32c-30 0 -55.333 10.667 -76 32s-31 46.333 -31 75c0 29.333 10.333 54.333 31 75s46 31 76 31c29.333 0 54.333 -10.333 75 -31
s31 -45.667 31 -75zM500 1544c0 -28.667 -10.333 -53.667 -31 -75s-46 -32 -76 -32c-29.333 0 -54.333 10.667 -75 32s-31 46.333 -31 75c0 29.333 10.333 54.333 31 75s45.667 31 75 31c30 0 55.333 -10.333 76 -31s31 -45.667 31 -75z" />
    <glyph glyph-name="Eth" unicode="&#xd0;" 
d="M1079 598c0 -223.333 -49.333 -378.835 -148 -466.502s-218 -131.5 -358 -131.5c-30 0 -74 4.16699 -132 12.5s-104 12.5 -138 12.5c-18.667 0 -37.334 -1.33301 -56.001 -4s-41.667 -6.5 -69 -11.5s-49.666 -8.83301 -66.999 -11.5l-15 88l170 25v487h-166v86h166v446
l-166 27l11 86c11.333 -2 37 -6.83301 77 -14.5s74.333 -11.5 103 -11.5c25.333 0 67.333 4 126 12s106 12 142 12c88 0 165 -16 231 -48s120.5 -77.167 163.5 -135.5s74.667 -126.666 95 -204.999s30.5 -163.166 30.5 -254.499zM981 564.998
c0 200 -37.167 349.002 -111.5 447.002s-169.5 147 -285.5 147c-13.333 0 -32.666 -1.33301 -57.999 -4l-168 -25v-446h299v-86h-299v-487l211 -25c11.333 -1.33301 27.666 -2 48.999 -2c70 0 132.333 17.667 187 53s97.667 89.166 129 161.499s47 161.166 47 266.499z" />
    <glyph glyph-name="Ntilde" unicode="&#xd1;" 
d="M1167 1155h-131v-1155l-104 2l-631 1112l6 -2v-1026h172v-86h-420v86h156v1069h-156v86l269 -2l620 -1098l-4 2v1012h-178v86h401v-86zM930 1665c0 -63.333 -14.001 -115.667 -42.001 -157s-71.333 -62 -130 -62c-24.667 0 -48.667 5 -72 15s-54.666 26 -93.999 48
c-51.333 32.667 -92.333 49 -123 49c-50.667 0 -76 -38.667 -76 -116h-96c0 62 13.333 113.333 40 154s68.667 61 126 61c40 0 94.667 -19.333 164 -58c36.667 -21.333 63.167 -35.833 79.5 -43.5s32.833 -11.5 49.5 -11.5c48.667 0 73 40.333 73 121h101z" />
    <glyph glyph-name="Ograve" unicode="&#xd2;" 
d="M1098 621c0 -115.333 -14.667 -215.001 -44 -299.001s-68 -151.5 -116 -202.5s-99.667 -87.833 -155 -110.5s-111.666 -34 -168.999 -34c-77.333 0 -152.833 21.333 -226.5 64s-134.834 112.334 -183.501 209.001s-73 221 -73 373c0 150.667 24.333 274.5 73 371.5
s109.834 166.833 183.501 209.5s149.167 64 226.5 64c57.333 0 114 -11.5 170 -34.5s107.667 -59.5 155 -109.5s85.666 -117 114.999 -201s44 -184 44 -300zM999 620.999c0 189.333 -37.833 329.833 -113.5 421.5s-166.167 137.5 -271.5 137.5
c-104.667 0 -195 -45.833 -271 -137.5s-114 -232.167 -114 -421.5c0 -190.667 38 -331.667 114 -423s166.333 -137 271 -137c106 0 196.667 45.667 272 137s113 232.333 113 423zM760 1431l-53 -69l-396 266l84 100z" />
    <glyph glyph-name="Oacute" unicode="&#xd3;" 
d="M1098 621c0 -115.333 -14.667 -215.001 -44 -299.001s-68 -151.5 -116 -202.5s-99.667 -87.833 -155 -110.5s-111.666 -34 -168.999 -34c-77.333 0 -152.833 21.333 -226.5 64s-134.834 112.334 -183.501 209.001s-73 221 -73 373c0 150.667 24.333 274.5 73 371.5
s109.834 166.833 183.501 209.5s149.167 64 226.5 64c57.333 0 114 -11.5 170 -34.5s107.667 -59.5 155 -109.5s85.666 -117 114.999 -201s44 -184 44 -300zM999 620.999c0 189.333 -37.833 329.833 -113.5 421.5s-166.167 137.5 -271.5 137.5
c-104.667 0 -195 -45.833 -271 -137.5s-114 -232.167 -114 -421.5c0 -190.667 38 -331.667 114 -423s166.333 -137 271 -137c106 0 196.667 45.667 272 137s113 232.333 113 423zM920 1628l-396 -266l-53 69l365 297z" />
    <glyph glyph-name="Ocircumflex" unicode="&#xd4;" 
d="M1098 621c0 -115.333 -14.667 -215.001 -44 -299.001s-68 -151.5 -116 -202.5s-99.667 -87.833 -155 -110.5s-111.666 -34 -168.999 -34c-77.333 0 -152.833 21.333 -226.5 64s-134.834 112.334 -183.501 209.001s-73 221 -73 373c0 150.667 24.333 274.5 73 371.5
s109.834 166.833 183.501 209.5s149.167 64 226.5 64c57.333 0 114 -11.5 170 -34.5s107.667 -59.5 155 -109.5s85.666 -117 114.999 -201s44 -184 44 -300zM999 620.999c0 189.333 -37.833 329.833 -113.5 421.5s-166.167 137.5 -271.5 137.5
c-104.667 0 -195 -45.833 -271 -137.5s-114 -232.167 -114 -421.5c0 -190.667 38 -331.667 114 -423s166.333 -137 271 -137c106 0 196.667 45.667 272 137s113 232.333 113 423zM963 1421l-56 -55l-293 201l-290 -201l-56 55l348 303z" />
    <glyph glyph-name="Otilde" unicode="&#xd5;" 
d="M1098 621c0 -115.333 -14.667 -215.001 -44 -299.001s-68 -151.5 -116 -202.5s-99.667 -87.833 -155 -110.5s-111.666 -34 -168.999 -34c-77.333 0 -152.833 21.333 -226.5 64s-134.834 112.334 -183.501 209.001s-73 221 -73 373c0 150.667 24.333 274.5 73 371.5
s109.834 166.833 183.501 209.5s149.167 64 226.5 64c57.333 0 114 -11.5 170 -34.5s107.667 -59.5 155 -109.5s85.666 -117 114.999 -201s44 -184 44 -300zM999 620.999c0 189.333 -37.833 329.833 -113.5 421.5s-166.167 137.5 -271.5 137.5
c-104.667 0 -195 -45.833 -271 -137.5s-114 -232.167 -114 -421.5c0 -190.667 38 -331.667 114 -423s166.333 -137 271 -137c106 0 196.667 45.667 272 137s113 232.333 113 423zM930 1665c0 -63.333 -14.001 -115.667 -42.001 -157s-71.333 -62 -130 -62
c-24.667 0 -48.667 5 -72 15s-54.666 26 -93.999 48c-51.333 32.667 -92.333 49 -123 49c-50.667 0 -76 -38.667 -76 -116h-96c0 62 13.333 113.333 40 154s68.667 61 126 61c40 0 94.667 -19.333 164 -58c36.667 -21.333 63.167 -35.833 79.5 -43.5
s32.833 -11.5 49.5 -11.5c48.667 0 73 40.333 73 121h101z" />
    <glyph glyph-name="Odieresis" unicode="&#xd6;" 
d="M1098 621c0 -115.333 -14.667 -215.001 -44 -299.001s-68 -151.5 -116 -202.5s-99.667 -87.833 -155 -110.5s-111.666 -34 -168.999 -34c-77.333 0 -152.833 21.333 -226.5 64s-134.834 112.334 -183.501 209.001s-73 221 -73 373c0 150.667 24.333 274.5 73 371.5
s109.834 166.833 183.501 209.5s149.167 64 226.5 64c57.333 0 114 -11.5 170 -34.5s107.667 -59.5 155 -109.5s85.666 -117 114.999 -201s44 -184 44 -300zM999 620.999c0 189.333 -37.833 329.833 -113.5 421.5s-166.167 137.5 -271.5 137.5
c-104.667 0 -195 -45.833 -271 -137.5s-114 -232.167 -114 -421.5c0 -190.667 38 -331.667 114 -423s166.333 -137 271 -137c106 0 196.667 45.667 272 137s113 232.333 113 423zM942 1544c0 -28.667 -10.333 -53.667 -31 -75s-45.667 -32 -75 -32
c-30 0 -55.333 10.667 -76 32s-31 46.333 -31 75c0 29.333 10.333 54.333 31 75s46 31 76 31c29.333 0 54.333 -10.333 75 -31s31 -45.667 31 -75zM500 1544c0 -28.667 -10.333 -53.667 -31 -75s-46 -32 -76 -32c-29.333 0 -54.333 10.667 -75 32s-31 46.333 -31 75
c0 29.333 10.333 54.333 31 75s45.667 31 75 31c30 0 55.333 -10.333 76 -31s31 -45.667 31 -75z" />
    <glyph glyph-name="multiply" unicode="&#xd7;" 
d="M1169 1225l-483 -482l481 -477l-69 -76l-484 482l-481 -482l-70 76l480 477l-482 484l74 69l479 -481l482 481z" />
    <glyph glyph-name="Oslash" unicode="&#xd8;" 
d="M1098 621c0 -115.333 -14.6689 -215 -44.002 -299s-68 -151.5 -116 -202.5s-99.667 -87.833 -155 -110.5s-111.666 -34 -168.999 -34c-108.667 0 -202.667 35.667 -282 107l-80 -129l-76 47l90 150c-30 37.333 -55.5 83.5 -76.5 138.5s-36 110.5 -45 166.5
s-13.5 111.333 -13.5 166c0 150.667 24.333 274.5 73 371.5s109.834 166.833 183.501 209.5s149.167 64 226.5 64c53.333 0 103 -8.5 149 -25.5s90.667 -44.167 134 -81.5l74 119l78 -47l-86 -139c46 -58.667 80 -130 102 -214s33 -169.667 33 -257zM847.998 1081
c-64 66 -142.001 99 -234.001 99c-104.667 0 -195 -45.833 -271 -137.5s-114 -232.167 -114 -421.5c0 -69.333 7.33301 -138.333 22 -207s37.334 -128 68.001 -178zM998.997 621c0 40.667 -3.16602 85.001 -9.49902 133.001s-16.333 94.167 -30 138.5
s-30.5 82.166 -50.5 113.499l-530 -846c67.333 -66 145.666 -99 234.999 -99c106 0 196.667 45.667 272 137s113 232.333 113 423z" />
    <glyph glyph-name="Ugrave" unicode="&#xd9;" 
d="M1133 1155h-144v-797c0 -136 -30.5 -233.833 -91.5 -293.5s-155.5 -89.5 -283.5 -89.5c-127.333 0 -221.5 29.833 -282.5 89.5s-91.5 157.5 -91.5 293.5v797h-144v86h369v-86h-133v-772c0 -116 22.5 -198.667 67.5 -248s116.5 -74 214.5 -74
c98.667 0 170.5 24.667 215.5 74s67.5 132 67.5 248v772h-133v86h369v-86zM760 1431l-53 -69l-396 266l84 100z" />
    <glyph glyph-name="Uacute" unicode="&#xda;" 
d="M1133 1155h-144v-797c0 -136 -30.5 -233.833 -91.5 -293.5s-155.5 -89.5 -283.5 -89.5c-127.333 0 -221.5 29.833 -282.5 89.5s-91.5 157.5 -91.5 293.5v797h-144v86h369v-86h-133v-772c0 -116 22.5 -198.667 67.5 -248s116.5 -74 214.5 -74
c98.667 0 170.5 24.667 215.5 74s67.5 132 67.5 248v772h-133v86h369v-86zM920 1628l-396 -266l-53 69l365 297z" />
    <glyph glyph-name="Ucircumflex" unicode="&#xdb;" 
d="M1133 1155h-144v-797c0 -136 -30.5 -233.833 -91.5 -293.5s-155.5 -89.5 -283.5 -89.5c-127.333 0 -221.5 29.833 -282.5 89.5s-91.5 157.5 -91.5 293.5v797h-144v86h369v-86h-133v-772c0 -116 22.5 -198.667 67.5 -248s116.5 -74 214.5 -74
c98.667 0 170.5 24.667 215.5 74s67.5 132 67.5 248v772h-133v86h369v-86zM963 1421l-56 -55l-293 201l-290 -201l-56 55l348 303z" />
    <glyph glyph-name="Udieresis" unicode="&#xdc;" 
d="M1133 1155h-144v-797c0 -136 -30.5 -233.833 -91.5 -293.5s-155.5 -89.5 -283.5 -89.5c-127.333 0 -221.5 29.833 -282.5 89.5s-91.5 157.5 -91.5 293.5v797h-144v86h369v-86h-133v-772c0 -116 22.5 -198.667 67.5 -248s116.5 -74 214.5 -74
c98.667 0 170.5 24.667 215.5 74s67.5 132 67.5 248v772h-133v86h369v-86zM942 1544c0 -28.667 -10.333 -53.667 -31 -75s-45.667 -32 -75 -32c-30 0 -55.333 10.667 -76 32s-31 46.333 -31 75c0 29.333 10.333 54.333 31 75s46 31 76 31c29.333 0 54.333 -10.333 75 -31
s31 -45.667 31 -75zM500 1544c0 -28.667 -10.333 -53.667 -31 -75s-46 -32 -76 -32c-29.333 0 -54.333 10.667 -75 32s-31 46.333 -31 75c0 29.333 10.333 54.333 31 75s45.667 31 75 31c30 0 55.333 -10.333 76 -31s31 -45.667 31 -75z" />
    <glyph glyph-name="Yacute" unicode="&#xdd;" 
d="M1157 1155h-121l-374 -616v-453h233v-86h-559v86h233v451l-374 618h-123v86h385v-86h-160l319 -526l320 526h-164v86h385v-86zM920 1628l-396 -266l-53 69l365 297z" />
    <glyph glyph-name="Thorn" unicode="&#xde;" 
d="M1034 754c0 -69.333 -16.666 -127.832 -49.999 -175.499s-80 -83 -140 -106s-128.333 -34.5 -205 -34.5h-178v-352h184v-86h-450v86h174v1069h-174v86h450v-86h-184v-119h264c60.667 0 114.167 -10 160.5 -30s82.666 -51.333 108.999 -94s39.5 -95.334 39.5 -158.001z
M936.001 754.001c0 32.667 -7.66699 64.334 -23 95.001s-36 55.167 -62 73.5s-54.333 27.5 -85 27.5h-305v-426h223c44 0 85.333 9.33301 124 28s69.667 45.667 93 81s35 75.666 35 120.999z" />
    <glyph glyph-name="germandbls" unicode="&#xdf;" 
d="M1057 332c0 -64.667 -12.667 -124.336 -38 -179.003s-62.666 -98 -111.999 -130s-106.666 -48 -171.999 -48c-80.667 0 -142.5 24.333 -185.5 73s-64.5 114 -64.5 196v32h86c0 -143.333 56 -215 168 -215c44 0 82.833 12.333 116.5 37s59.167 56.834 76.5 96.501
s26 82.167 26 127.5c0 107.333 -33.167 183 -99.5 227s-157.833 67 -274.5 69v95c60 2 111.5 8.83301 154.5 20.5s77.833 33.834 104.5 66.501s40 77.334 40 134.001c0 78.667 -22.833 139.334 -68.5 182.001s-108.167 64 -187.5 64c-104 0 -170.667 -32 -200 -96
s-44 -153.667 -44 -269v-57v-758h-256v86h164v784c0 94 15 170.5 45 229.5s69.167 101.5 117.5 127.5s102.5 39 162.5 39c69.333 0 131.666 -12.5 186.999 -37.5s98.833 -61.333 130.5 -109s47.5 -104.167 47.5 -169.5c0 -76.667 -17.833 -140.334 -53.5 -191.001
s-88.834 -81.667 -159.501 -93v8c86 -2.66699 155.667 -37.5 209 -104.5s80 -146.167 80 -237.5z" />
    <glyph glyph-name="agrave" unicode="&#xe0;" 
d="M1098 0l-267.003 0.00292969v74c-71.333 -32.667 -138.166 -57.334 -200.499 -74.001s-128.5 -25 -198.5 -25c-77.333 0 -142.333 19 -195 57s-79 95 -79 171c0 48 11.833 90 35.5 126s61.5 66.333 113.5 91s122.667 44 212 58s193.333 21.333 312 22v110
c0 45.333 -3.33301 79.666 -10 102.999s-22.667 41.333 -48 54s-63.333 19 -114 19c-53.333 0 -105.833 -7.5 -157.5 -22.5s-100.167 -37.5 -145.5 -67.5v-108h-92v170c39.333 22 81.333 41.833 126 59.5s89.334 31.167 134.001 40.5s89.667 14 135 14
c70 0 123.833 -7.5 161.5 -22.5s64.334 -40.333 80.001 -76s23.5 -85.834 23.5 -150.501v-537h174v-86zM830.997 172.003v242.001c-155.333 -6 -274 -17.667 -356 -35s-139 -40.333 -171 -69s-48 -64.334 -48 -107.001c0 -50.667 17 -87 51 -109s77.667 -33 131 -33
c108.667 0 239.667 37 393 111zM759.997 1038l-53 -69l-396 266l84 100z" />
    <glyph glyph-name="aacute" unicode="&#xe1;" 
d="M1098 0l-267.003 0.00292969v74c-71.333 -32.667 -138.166 -57.334 -200.499 -74.001s-128.5 -25 -198.5 -25c-77.333 0 -142.333 19 -195 57s-79 95 -79 171c0 48 11.833 90 35.5 126s61.5 66.333 113.5 91s122.667 44 212 58s193.333 21.333 312 22v110
c0 45.333 -3.33301 79.666 -10 102.999s-22.667 41.333 -48 54s-63.333 19 -114 19c-53.333 0 -105.833 -7.5 -157.5 -22.5s-100.167 -37.5 -145.5 -67.5v-108h-92v170c39.333 22 81.333 41.833 126 59.5s89.334 31.167 134.001 40.5s89.667 14 135 14
c70 0 123.833 -7.5 161.5 -22.5s64.334 -40.333 80.001 -76s23.5 -85.834 23.5 -150.501v-537h174v-86zM830.997 172.003v242.001c-155.333 -6 -274 -17.667 -356 -35s-139 -40.333 -171 -69s-48 -64.334 -48 -107.001c0 -50.667 17 -87 51 -109s77.667 -33 131 -33
c108.667 0 239.667 37 393 111zM919.997 1235l-396 -266l-53 69l365 297z" />
    <glyph glyph-name="acircumflex" unicode="&#xe2;" 
d="M1098 0l-267.003 0.00292969v74c-71.333 -32.667 -138.166 -57.334 -200.499 -74.001s-128.5 -25 -198.5 -25c-77.333 0 -142.333 19 -195 57s-79 95 -79 171c0 48 11.833 90 35.5 126s61.5 66.333 113.5 91s122.667 44 212 58s193.333 21.333 312 22v110
c0 45.333 -3.33301 79.666 -10 102.999s-22.667 41.333 -48 54s-63.333 19 -114 19c-53.333 0 -105.833 -7.5 -157.5 -22.5s-100.167 -37.5 -145.5 -67.5v-108h-92v170c39.333 22 81.333 41.833 126 59.5s89.334 31.167 134.001 40.5s89.667 14 135 14
c70 0 123.833 -7.5 161.5 -22.5s64.334 -40.333 80.001 -76s23.5 -85.834 23.5 -150.501v-537h174v-86zM830.997 172.003v242.001c-155.333 -6 -274 -17.667 -356 -35s-139 -40.333 -171 -69s-48 -64.334 -48 -107.001c0 -50.667 17 -87 51 -109s77.667 -33 131 -33
c108.667 0 239.667 37 393 111zM962.997 1028l-56 -55l-293 201l-290 -201l-56 55l348 303z" />
    <glyph glyph-name="atilde" unicode="&#xe3;" 
d="M1098 0l-267.003 0.00292969v74c-71.333 -32.667 -138.166 -57.334 -200.499 -74.001s-128.5 -25 -198.5 -25c-77.333 0 -142.333 19 -195 57s-79 95 -79 171c0 48 11.833 90 35.5 126s61.5 66.333 113.5 91s122.667 44 212 58s193.333 21.333 312 22v110
c0 45.333 -3.33301 79.666 -10 102.999s-22.667 41.333 -48 54s-63.333 19 -114 19c-53.333 0 -105.833 -7.5 -157.5 -22.5s-100.167 -37.5 -145.5 -67.5v-108h-92v170c39.333 22 81.333 41.833 126 59.5s89.334 31.167 134.001 40.5s89.667 14 135 14
c70 0 123.833 -7.5 161.5 -22.5s64.334 -40.333 80.001 -76s23.5 -85.834 23.5 -150.501v-537h174v-86zM830.997 172.003v242.001c-155.333 -6 -274 -17.667 -356 -35s-139 -40.333 -171 -69s-48 -64.334 -48 -107.001c0 -50.667 17 -87 51 -109s77.667 -33 131 -33
c108.667 0 239.667 37 393 111zM929.997 1272c0 -63.333 -14.001 -115.667 -42.001 -157s-71.333 -62 -130 -62c-24.667 0 -48.667 5 -72 15s-54.666 26 -93.999 48c-51.333 32.667 -92.333 49 -123 49c-50.667 0 -76 -38.667 -76 -116h-96c0 62 13.333 113.333 40 154
s68.667 61 126 61c40 0 94.667 -19.333 164 -58c36.667 -21.333 63.167 -35.833 79.5 -43.5s32.833 -11.5 49.5 -11.5c48.667 0 73 40.333 73 121h101z" />
    <glyph glyph-name="adieresis" unicode="&#xe4;" 
d="M1098 0l-267.003 0.00292969v74c-71.333 -32.667 -138.166 -57.334 -200.499 -74.001s-128.5 -25 -198.5 -25c-77.333 0 -142.333 19 -195 57s-79 95 -79 171c0 48 11.833 90 35.5 126s61.5 66.333 113.5 91s122.667 44 212 58s193.333 21.333 312 22v110
c0 45.333 -3.33301 79.666 -10 102.999s-22.667 41.333 -48 54s-63.333 19 -114 19c-53.333 0 -105.833 -7.5 -157.5 -22.5s-100.167 -37.5 -145.5 -67.5v-108h-92v170c39.333 22 81.333 41.833 126 59.5s89.334 31.167 134.001 40.5s89.667 14 135 14
c70 0 123.833 -7.5 161.5 -22.5s64.334 -40.333 80.001 -76s23.5 -85.834 23.5 -150.501v-537h174v-86zM830.997 172.003v242.001c-155.333 -6 -274 -17.667 -356 -35s-139 -40.333 -171 -69s-48 -64.334 -48 -107.001c0 -50.667 17 -87 51 -109s77.667 -33 131 -33
c108.667 0 239.667 37 393 111zM941.997 1151c0 -28.667 -10.333 -53.667 -31 -75s-45.667 -32 -75 -32c-30 0 -55.333 10.667 -76 32s-31 46.333 -31 75c0 29.333 10.333 54.333 31 75s46 31 76 31c29.333 0 54.333 -10.333 75 -31s31 -45.667 31 -75zM499.997 1151
c0 -28.667 -10.333 -53.667 -31 -75s-46 -32 -76 -32c-29.333 0 -54.333 10.667 -75 32s-31 46.333 -31 75c0 29.333 10.333 54.333 31 75s45.667 31 75 31c30 0 55.333 -10.333 76 -31s31 -45.667 31 -75z" />
    <glyph glyph-name="aring" unicode="&#xe5;" 
d="M1098 0l-267.003 0.00292969v74c-71.333 -32.667 -138.166 -57.334 -200.499 -74.001s-128.5 -25 -198.5 -25c-77.333 0 -142.333 19 -195 57s-79 95 -79 171c0 48 11.833 90 35.5 126s61.5 66.333 113.5 91s122.667 44 212 58s193.333 21.333 312 22v110
c0 45.333 -3.33301 79.666 -10 102.999s-22.667 41.333 -48 54s-63.333 19 -114 19c-53.333 0 -105.833 -7.5 -157.5 -22.5s-100.167 -37.5 -145.5 -67.5v-108h-92v170c39.333 22 81.333 41.833 126 59.5s89.334 31.167 134.001 40.5s89.667 14 135 14
c70 0 123.833 -7.5 161.5 -22.5s64.334 -40.333 80.001 -76s23.5 -85.834 23.5 -150.501v-537h174v-86zM830.997 172.003v242.001c-155.333 -6 -274 -17.667 -356 -35s-139 -40.333 -171 -69s-48 -64.334 -48 -107.001c0 -50.667 17 -87 51 -109s77.667 -33 131 -33
c108.667 0 239.667 37 393 111zM787.997 1157c0 -48 -16.998 -89.002 -50.998 -123.002s-75 -51 -123 -51c-46.667 0 -87.334 17.333 -122.001 52s-52 75.334 -52 122.001c0 48 17 89 51 123s75 51 123 51c49.333 0 90.666 -16.667 123.999 -50s50 -74.666 50 -123.999z
M689.999 1157c0 22.667 -6.99902 43 -20.999 61s-32.333 27 -55 27c-22 0 -40 -9 -54 -27s-21 -38.333 -21 -61c0 -21.333 7.16699 -41.333 21.5 -60s32.166 -28 53.499 -28c22 0 40.167 9.33301 54.5 28s21.5 38.667 21.5 60z" />
    <glyph glyph-name="ae" unicode="&#xe6;" 
d="M1190 115c-111.333 -93.333 -223.333 -140 -336 -140c-42 0 -82.333 8.66699 -121 26s-69.334 42.333 -92.001 75c-75.333 -67.333 -165.333 -101 -270 -101c-79.333 0 -148.666 21.5 -207.999 64.5s-89 102.167 -89 177.5c0 81.333 28.167 143.333 84.5 186
s155.833 64 298.5 64h145v111c0 138.667 -52 208 -156 208c-58 0 -129 -22.333 -213 -67v-103h-92l2 162c134.667 62.667 235.667 94 303 94c42.667 0 82.334 -9.33301 119.001 -28s64 -45.334 82 -80.001c48 72 120.333 108 217 108c95.333 0 168.666 -36.5 219.999 -109.5
s77 -166.833 77 -281.5v-100h-467v-125c0 -69.333 13.5 -119.166 40.5 -149.499s72.833 -45.5 137.5 -45.5c84 0 173.667 41 269 123zM1079 467c0 55.333 -6.83398 106.833 -20.501 154.5s-37.167 87 -70.5 118s-77.333 46.5 -132 46.5
c-39.333 0 -71.166 -8.66699 -95.499 -26s-41.5 -40.5 -51.5 -69.5s-15 -63.167 -15 -102.5v-121h385zM601.999 156v225.001h-149c-68 0 -123.333 -6.33301 -166 -19s-72.5 -30.334 -89.5 -53.001s-25.5 -50.667 -25.5 -84c0 -51.333 19.833 -91.5 59.5 -120.5
s86.167 -43.5 139.5 -43.5c85.333 0 162.333 31.667 231 95z" />
    <glyph glyph-name="ccedilla" unicode="&#xe7;" 
d="M1028 70c-55.333 -30.667 -116.999 -54.166 -184.999 -70.499s-134 -24.5 -198 -24.5c-86 0 -164 18.167 -234 54.5s-125 88 -165 155s-60 144.167 -60 231.5c0 86.667 19.5 164.667 58.5 234s93.5 123.666 163.5 162.999s149 59 237 59c64 0 124 -10.833 180 -32.5
s96.333 -56.5 121 -104.5v-194h-86v43c0 134.667 -74.333 202 -223 202c-68.667 0 -129.667 -15.5 -183 -46.5s-94.833 -74 -124.5 -129s-44.5 -115.833 -44.5 -182.5c0 -71.333 15.333 -134.833 46 -190.5s74 -99 130 -130s118.667 -46.5 188 -46.5
c57.333 0 116.666 8 177.999 24s118 37.667 170 65zM883.001 -294.999c0 -62 -24.667 -108.502 -74 -139.502s-107.333 -46.5 -174 -46.5c-81.333 0 -154.333 18.333 -219 55v88c78 -38 148.333 -57 211 -57c40.667 0 77.167 8.33301 109.5 25s48.5 42.334 48.5 77.001
c0 30 -14 50.5 -42 61.5s-60.333 16.5 -97 16.5l-105 -8l53 252l88 2l-30 -158h30c36 0 69.167 -6.16699 99.5 -18.5s54.833 -31.166 73.5 -56.499s28 -56.333 28 -93z" />
    <glyph glyph-name="egrave" unicode="&#xe8;" 
d="M1087 78c-68.667 -34 -140.166 -59.666 -214.499 -76.999s-147.5 -26 -219.5 -26c-86.667 0 -165.5 17.167 -236.5 51.5s-127.167 83.666 -168.5 147.999s-62 140.5 -62 228.5c0 85.333 19.333 164 58 236s92.167 128.833 160.5 170.5s145.833 62.5 232.5 62.5
c82.667 0 154.667 -16.833 216 -50.5s108.5 -81.5 141.5 -143.5s49.5 -134.333 49.5 -217l-6 -80h-753c4 -70 23.667 -129.333 59 -178s82.166 -84.5 140.499 -107.5s124.166 -34.5 197.499 -34.5c43.333 0 84.333 3.66699 123 11s78.334 18 119.001 32
s85.667 31.333 135 52zM948.001 467.001c0 46.667 -7.83203 89.833 -23.499 129.5s-38 73.667 -67 102s-62.333 50 -100 65s-77.834 22.5 -120.501 22.5c-58 0 -112.333 -14 -163 -42s-92.167 -66.333 -124.5 -115s-51.833 -102.667 -58.5 -162h657zM760.002 1038l-53 -69
l-396 266l84 100z" />
    <glyph glyph-name="eacute" unicode="&#xe9;" 
d="M1087 78c-68.667 -34 -140.166 -59.666 -214.499 -76.999s-147.5 -26 -219.5 -26c-86.667 0 -165.5 17.167 -236.5 51.5s-127.167 83.666 -168.5 147.999s-62 140.5 -62 228.5c0 85.333 19.333 164 58 236s92.167 128.833 160.5 170.5s145.833 62.5 232.5 62.5
c82.667 0 154.667 -16.833 216 -50.5s108.5 -81.5 141.5 -143.5s49.5 -134.333 49.5 -217l-6 -80h-753c4 -70 23.667 -129.333 59 -178s82.166 -84.5 140.499 -107.5s124.166 -34.5 197.499 -34.5c43.333 0 84.333 3.66699 123 11s78.334 18 119.001 32
s85.667 31.333 135 52zM948.001 467.001c0 46.667 -7.83203 89.833 -23.499 129.5s-38 73.667 -67 102s-62.333 50 -100 65s-77.834 22.5 -120.501 22.5c-58 0 -112.333 -14 -163 -42s-92.167 -66.333 -124.5 -115s-51.833 -102.667 -58.5 -162h657zM920.002 1235l-396 -266
l-53 69l365 297z" />
    <glyph glyph-name="ecircumflex" unicode="&#xea;" 
d="M1087 78c-68.667 -34 -140.166 -59.666 -214.499 -76.999s-147.5 -26 -219.5 -26c-86.667 0 -165.5 17.167 -236.5 51.5s-127.167 83.666 -168.5 147.999s-62 140.5 -62 228.5c0 85.333 19.333 164 58 236s92.167 128.833 160.5 170.5s145.833 62.5 232.5 62.5
c82.667 0 154.667 -16.833 216 -50.5s108.5 -81.5 141.5 -143.5s49.5 -134.333 49.5 -217l-6 -80h-753c4 -70 23.667 -129.333 59 -178s82.166 -84.5 140.499 -107.5s124.166 -34.5 197.499 -34.5c43.333 0 84.333 3.66699 123 11s78.334 18 119.001 32
s85.667 31.333 135 52zM948.001 467.001c0 46.667 -7.83203 89.833 -23.499 129.5s-38 73.667 -67 102s-62.333 50 -100 65s-77.834 22.5 -120.501 22.5c-58 0 -112.333 -14 -163 -42s-92.167 -66.333 -124.5 -115s-51.833 -102.667 -58.5 -162h657zM963.002 1028l-56 -55
l-293 201l-290 -201l-56 55l348 303z" />
    <glyph glyph-name="edieresis" unicode="&#xeb;" 
d="M1087 78c-68.667 -34 -140.166 -59.666 -214.499 -76.999s-147.5 -26 -219.5 -26c-86.667 0 -165.5 17.167 -236.5 51.5s-127.167 83.666 -168.5 147.999s-62 140.5 -62 228.5c0 85.333 19.333 164 58 236s92.167 128.833 160.5 170.5s145.833 62.5 232.5 62.5
c82.667 0 154.667 -16.833 216 -50.5s108.5 -81.5 141.5 -143.5s49.5 -134.333 49.5 -217l-6 -80h-753c4 -70 23.667 -129.333 59 -178s82.166 -84.5 140.499 -107.5s124.166 -34.5 197.499 -34.5c43.333 0 84.333 3.66699 123 11s78.334 18 119.001 32
s85.667 31.333 135 52zM948.001 467.001c0 46.667 -7.83203 89.833 -23.499 129.5s-38 73.667 -67 102s-62.333 50 -100 65s-77.834 22.5 -120.501 22.5c-58 0 -112.333 -14 -163 -42s-92.167 -66.333 -124.5 -115s-51.833 -102.667 -58.5 -162h657zM942.002 1151
c0 -28.667 -10.333 -53.667 -31 -75s-45.667 -32 -75 -32c-30 0 -55.333 10.667 -76 32s-31 46.333 -31 75c0 29.333 10.333 54.333 31 75s46 31 76 31c29.333 0 54.333 -10.333 75 -31s31 -45.667 31 -75zM500.002 1151c0 -28.667 -10.333 -53.667 -31 -75s-46 -32 -76 -32
c-29.333 0 -54.333 10.667 -75 32s-31 46.333 -31 75c0 29.333 10.333 54.333 31 75s45.667 31 75 31c30 0 55.333 -10.333 76 -31s31 -45.667 31 -75z" />
    <glyph glyph-name="igrave" unicode="&#xec;" 
d="M1012 0h-794.996v86h375v678c-34.667 -6 -93.834 -12.333 -177.501 -19s-155.5 -10.667 -215.5 -12l-15 86c75.333 1.33301 138.166 3.5 188.499 6.5s97.166 9 140.499 18s71.666 21.5 84.999 37.5c14 18.667 30.333 28 49 28c14 0 23.667 -8.66699 29 -26
s8 -37.333 8 -60v-737h328v-86zM760.004 1038l-53 -69l-396 266l84 100z" />
    <glyph glyph-name="iacute" unicode="&#xed;" 
d="M1012 0h-794.996v86h375v678c-34.667 -6 -93.834 -12.333 -177.501 -19s-155.5 -10.667 -215.5 -12l-15 86c75.333 1.33301 138.166 3.5 188.499 6.5s97.166 9 140.499 18s71.666 21.5 84.999 37.5c14 18.667 30.333 28 49 28c14 0 23.667 -8.66699 29 -26
s8 -37.333 8 -60v-737h328v-86zM920.004 1235l-396 -266l-53 69l365 297z" />
    <glyph glyph-name="icircumflex" unicode="&#xee;" 
d="M1012 0h-794.996v86h375v678c-34.667 -6 -93.834 -12.333 -177.501 -19s-155.5 -10.667 -215.5 -12l-15 86c75.333 1.33301 138.166 3.5 188.499 6.5s97.166 9 140.499 18s71.666 21.5 84.999 37.5c14 18.667 30.333 28 49 28c14 0 23.667 -8.66699 29 -26
s8 -37.333 8 -60v-737h328v-86zM963.004 1028l-56 -55l-293 201l-290 -201l-56 55l348 303z" />
    <glyph glyph-name="idieresis" unicode="&#xef;" 
d="M1012 0h-794.996v86h375v678c-34.667 -6 -93.834 -12.333 -177.501 -19s-155.5 -10.667 -215.5 -12l-15 86c75.333 1.33301 138.166 3.5 188.499 6.5s97.166 9 140.499 18s71.666 21.5 84.999 37.5c14 18.667 30.333 28 49 28c14 0 23.667 -8.66699 29 -26
s8 -37.333 8 -60v-737h328v-86zM942.004 1151c0 -28.667 -10.333 -53.667 -31 -75s-45.667 -32 -75 -32c-30 0 -55.333 10.667 -76 32s-31 46.333 -31 75c0 29.333 10.333 54.333 31 75s46 31 76 31c29.333 0 54.333 -10.333 75 -31s31 -45.667 31 -75zM500.004 1151
c0 -28.667 -10.333 -53.667 -31 -75s-46 -32 -76 -32c-29.333 0 -54.333 10.667 -75 32s-31 46.333 -31 75c0 29.333 10.333 54.333 31 75s45.667 31 75 31c30 0 55.333 -10.333 76 -31s31 -45.667 31 -75z" />
    <glyph glyph-name="eth" unicode="&#xf0;" 
d="M1030 412c0 -78.667 -18.165 -151.501 -54.498 -218.501s-86.666 -120.167 -150.999 -159.5s-135.833 -59 -214.5 -59c-75.333 0 -144.333 19.5 -207 58.5s-112.334 91.333 -149.001 157s-55 135.834 -55 210.501s16.833 145 50.5 211s81 118.667 142 158
s129.833 59 206.5 59c10 0 24.667 -0.666992 44 -2s34.666 -2 45.999 -2l-213 207l-213 -143l-43 63l201 135l-127 123l57 58l135 -133l199 133l43 -64l-184 -125l205 -198c69.333 -68 121.166 -121.167 155.499 -159.5s64 -83.5 89 -135.5s37.5 -110 37.5 -174z
M932.002 409.999c0 97.333 -29.667 177.166 -89 239.499s-137 93.5 -233 93.5c-95.333 0 -171.333 -32.833 -228 -98.5s-85 -147.5 -85 -245.5c0 -92 29.5 -171.333 88.5 -238s133.833 -100 224.5 -100c62 0 117.667 15.667 167 47s87.5 73.833 114.5 127.5
s40.5 111.834 40.5 174.501z" />
    <glyph glyph-name="ntilde" unicode="&#xf1;" 
d="M1128 0l-373.999 -0.000976562v86h139v412c0 62 -3 112 -9 150s-22.333 70.5 -49 97.5s-68 40.5 -124 40.5c-98.667 0 -216.334 -43 -353.001 -129v-571h140v-86h-375v86h143v678c-18 -4 -37 -8.33301 -57 -13s-37.833 -8 -53.5 -10s-29.834 -3.33301 -42.501 -4l-15 82
c38 1.33301 71.667 6.33301 101 15s53.666 24.334 72.999 47.001c15.333 18.667 32 28 50 28c24 0 36 -28.667 36 -86v-65c60.667 33.333 121.334 60.666 182.001 81.999s118.334 32 173.001 32c94.667 0 163.667 -25.167 207 -75.5s65 -141.166 65 -272.499v-438h143v-86z
M930.001 1272c0 -63.333 -14.001 -115.667 -42.001 -157s-71.333 -62 -130 -62c-24.667 0 -48.667 5 -72 15s-54.666 26 -93.999 48c-51.333 32.667 -92.333 49 -123 49c-50.667 0 -76 -38.667 -76 -116h-96c0 62 13.333 113.333 40 154s68.667 61 126 61
c40 0 94.667 -19.333 164 -58c36.667 -21.333 63.167 -35.833 79.5 -43.5s32.833 -11.5 49.5 -11.5c48.667 0 73 40.333 73 121h101z" />
    <glyph glyph-name="ograve" unicode="&#xf2;" 
d="M1051 424c0 -82 -18.667 -157.332 -56 -225.999s-89.5 -123 -156.5 -163s-141.833 -60 -224.5 -60s-157.334 19.833 -224.001 59.5s-118.667 94 -156 163s-56 144.5 -56 226.5s18.667 157.5 56 226.5s89.333 123.167 156 162.5s141.334 59 224.001 59
s157.5 -19.833 224.5 -59.5s119.167 -93.834 156.5 -162.501s56 -144 56 -226zM952 424.001c0 49.333 -8.16699 95.833 -24.5 139.5s-39.166 82 -68.499 115s-64.833 59.167 -106.5 78.5s-87.834 29 -138.501 29c-50 0 -95.667 -9.5 -137 -28.5
s-77.166 -45.667 -107.499 -80s-53.5 -73.5 -69.5 -117.5s-24 -89.333 -24 -136c0 -65.333 14.333 -125.666 43 -180.999s69 -99.5 121 -132.5s110 -49.5 174 -49.5s122.167 16.5 174.5 49.5s92.666 77.167 120.999 132.5s42.5 115.666 42.5 180.999zM760 1038l-53 -69
l-396 266l84 100z" />
    <glyph glyph-name="oacute" unicode="&#xf3;" 
d="M1051 424c0 -82 -18.667 -157.332 -56 -225.999s-89.5 -123 -156.5 -163s-141.833 -60 -224.5 -60s-157.334 19.833 -224.001 59.5s-118.667 94 -156 163s-56 144.5 -56 226.5s18.667 157.5 56 226.5s89.333 123.167 156 162.5s141.334 59 224.001 59
s157.5 -19.833 224.5 -59.5s119.167 -93.834 156.5 -162.501s56 -144 56 -226zM952 424.001c0 49.333 -8.16699 95.833 -24.5 139.5s-39.166 82 -68.499 115s-64.833 59.167 -106.5 78.5s-87.834 29 -138.501 29c-50 0 -95.667 -9.5 -137 -28.5
s-77.166 -45.667 -107.499 -80s-53.5 -73.5 -69.5 -117.5s-24 -89.333 -24 -136c0 -65.333 14.333 -125.666 43 -180.999s69 -99.5 121 -132.5s110 -49.5 174 -49.5s122.167 16.5 174.5 49.5s92.666 77.167 120.999 132.5s42.5 115.666 42.5 180.999zM920 1235l-396 -266
l-53 69l365 297z" />
    <glyph glyph-name="ocircumflex" unicode="&#xf4;" 
d="M1051 424c0 -82 -18.667 -157.332 -56 -225.999s-89.5 -123 -156.5 -163s-141.833 -60 -224.5 -60s-157.334 19.833 -224.001 59.5s-118.667 94 -156 163s-56 144.5 -56 226.5s18.667 157.5 56 226.5s89.333 123.167 156 162.5s141.334 59 224.001 59
s157.5 -19.833 224.5 -59.5s119.167 -93.834 156.5 -162.501s56 -144 56 -226zM952 424.001c0 49.333 -8.16699 95.833 -24.5 139.5s-39.166 82 -68.499 115s-64.833 59.167 -106.5 78.5s-87.834 29 -138.501 29c-50 0 -95.667 -9.5 -137 -28.5
s-77.166 -45.667 -107.499 -80s-53.5 -73.5 -69.5 -117.5s-24 -89.333 -24 -136c0 -65.333 14.333 -125.666 43 -180.999s69 -99.5 121 -132.5s110 -49.5 174 -49.5s122.167 16.5 174.5 49.5s92.666 77.167 120.999 132.5s42.5 115.666 42.5 180.999zM963 1028l-56 -55
l-293 201l-290 -201l-56 55l348 303z" />
    <glyph glyph-name="otilde" unicode="&#xf5;" 
d="M1051 424c0 -82 -18.667 -157.332 -56 -225.999s-89.5 -123 -156.5 -163s-141.833 -60 -224.5 -60s-157.334 19.833 -224.001 59.5s-118.667 94 -156 163s-56 144.5 -56 226.5s18.667 157.5 56 226.5s89.333 123.167 156 162.5s141.334 59 224.001 59
s157.5 -19.833 224.5 -59.5s119.167 -93.834 156.5 -162.501s56 -144 56 -226zM952 424.001c0 49.333 -8.16699 95.833 -24.5 139.5s-39.166 82 -68.499 115s-64.833 59.167 -106.5 78.5s-87.834 29 -138.501 29c-50 0 -95.667 -9.5 -137 -28.5
s-77.166 -45.667 -107.499 -80s-53.5 -73.5 -69.5 -117.5s-24 -89.333 -24 -136c0 -65.333 14.333 -125.666 43 -180.999s69 -99.5 121 -132.5s110 -49.5 174 -49.5s122.167 16.5 174.5 49.5s92.666 77.167 120.999 132.5s42.5 115.666 42.5 180.999zM930 1272
c0 -63.333 -14.001 -115.667 -42.001 -157s-71.333 -62 -130 -62c-24.667 0 -48.667 5 -72 15s-54.666 26 -93.999 48c-51.333 32.667 -92.333 49 -123 49c-50.667 0 -76 -38.667 -76 -116h-96c0 62 13.333 113.333 40 154s68.667 61 126 61c40 0 94.667 -19.333 164 -58
c36.667 -21.333 63.167 -35.833 79.5 -43.5s32.833 -11.5 49.5 -11.5c48.667 0 73 40.333 73 121h101z" />
    <glyph glyph-name="odieresis" unicode="&#xf6;" 
d="M1051 424c0 -82 -18.667 -157.332 -56 -225.999s-89.5 -123 -156.5 -163s-141.833 -60 -224.5 -60s-157.334 19.833 -224.001 59.5s-118.667 94 -156 163s-56 144.5 -56 226.5s18.667 157.5 56 226.5s89.333 123.167 156 162.5s141.334 59 224.001 59
s157.5 -19.833 224.5 -59.5s119.167 -93.834 156.5 -162.501s56 -144 56 -226zM952 424.001c0 49.333 -8.16699 95.833 -24.5 139.5s-39.166 82 -68.499 115s-64.833 59.167 -106.5 78.5s-87.834 29 -138.501 29c-50 0 -95.667 -9.5 -137 -28.5
s-77.166 -45.667 -107.499 -80s-53.5 -73.5 -69.5 -117.5s-24 -89.333 -24 -136c0 -65.333 14.333 -125.666 43 -180.999s69 -99.5 121 -132.5s110 -49.5 174 -49.5s122.167 16.5 174.5 49.5s92.666 77.167 120.999 132.5s42.5 115.666 42.5 180.999zM942 1151
c0 -28.667 -10.333 -53.667 -31 -75s-45.667 -32 -75 -32c-30 0 -55.333 10.667 -76 32s-31 46.333 -31 75c0 29.333 10.333 54.333 31 75s46 31 76 31c29.333 0 54.333 -10.333 75 -31s31 -45.667 31 -75zM500 1151c0 -28.667 -10.333 -53.667 -31 -75s-46 -32 -76 -32
c-29.333 0 -54.333 10.667 -75 32s-31 46.333 -31 75c0 29.333 10.333 54.333 31 75s45.667 31 75 31c30 0 55.333 -10.333 76 -31s31 -45.667 31 -75z" />
    <glyph glyph-name="divide" unicode="&#xf7;" 
d="M709 1061c0 -26.667 -9 -49 -27 -67s-40.667 -27 -68 -27c-26.667 0 -49 9 -67 27s-27 40.333 -27 67s9 49 27 67s40.333 27 67 27c27.333 0 50 -9 68 -27s27 -40.333 27 -67zM1145 692h-1061v103h1061v-103zM709 426c0 -26.667 -9 -49 -27 -67s-40.667 -27 -68 -27
c-26.667 0 -49 9 -67 27s-27 40.333 -27 67s9 49 27 67s40.333 27 67 27c27.333 0 50 -9 68 -27s27 -40.333 27 -67z" />
    <glyph glyph-name="oslash" unicode="&#xf8;" 
d="M1051 424c0 -82 -18.6689 -157.333 -56.002 -226s-89.5 -123 -156.5 -163s-141.833 -60 -224.5 -60c-97.333 0 -182.666 27.333 -255.999 82l-94 -116l-63 55l94 119c-37.333 39.333 -66.166 86.5 -86.499 141.5s-30.5 110.833 -30.5 167.5
c0 61.333 10.833 119.666 32.5 174.999s52.167 103.333 91.5 144s85.333 72.334 138 95.001s110.667 34 174 34c94 0 175.333 -24.333 244 -73l98 119l66 -54l-96 -121c39.333 -38 70 -85.833 92 -143.5s33 -116.167 33 -175.5zM951.998 424
c0 45.333 -6.99902 89.834 -20.999 133.501s-35.667 82.5 -65 116.5l-448 -547c58 -44 123.333 -66 196 -66c64 0 122.167 16.5 174.5 49.5s92.666 77.167 120.999 132.5s42.5 115.666 42.5 180.999zM802.999 729.001c-56.667 38 -119.668 56.999 -189.001 56.999
c-50 0 -95.667 -9.5 -137 -28.5s-77.166 -45.667 -107.499 -80s-53.5 -73.5 -69.5 -117.5s-24 -89.333 -24 -136c0 -91.333 26 -170.666 78 -237.999z" />
    <glyph glyph-name="ugrave" unicode="&#xf9;" 
d="M1139 0l-258.001 -0.00195312v66c-118 -60.667 -230 -91 -336 -91c-93.333 0 -164.5 28.5 -213.5 85.5s-73.5 144.833 -73.5 263.5v440c-78.667 -17.333 -130 -26.333 -154 -27l-14 82c38 1.33301 71.667 6.33301 101 15s53.666 24.334 72.999 47.001
c14 18.667 30.333 28 49 28c14 0 23.667 -8.66699 29 -26s8 -37.333 8 -60v-467c0 -54.667 4.33301 -101.5 13 -140.5s21.334 -69.5 38.001 -91.5s37.834 -38 63.501 -48s55.834 -15 90.501 -15c54 0 107.667 8.83301 161 26.5s108.333 41.167 165 70.5v606
c-16.667 -3.33301 -35.5 -7.5 -56.5 -12.5s-39.333 -8.5 -55 -10.5s-29.834 -3.33301 -42.501 -4l-14 82c82.667 2.66699 140.667 23.334 174 62.001c14 18.667 30.333 28 49 28c14 0 23.667 -8.66699 29 -26s8 -37.333 8 -60v-737h166v-86zM759.999 1038l-53 -69l-396 266
l84 100z" />
    <glyph glyph-name="uacute" unicode="&#xfa;" 
d="M1139 0l-258.001 -0.00195312v66c-118 -60.667 -230 -91 -336 -91c-93.333 0 -164.5 28.5 -213.5 85.5s-73.5 144.833 -73.5 263.5v440c-78.667 -17.333 -130 -26.333 -154 -27l-14 82c38 1.33301 71.667 6.33301 101 15s53.666 24.334 72.999 47.001
c14 18.667 30.333 28 49 28c14 0 23.667 -8.66699 29 -26s8 -37.333 8 -60v-467c0 -54.667 4.33301 -101.5 13 -140.5s21.334 -69.5 38.001 -91.5s37.834 -38 63.501 -48s55.834 -15 90.501 -15c54 0 107.667 8.83301 161 26.5s108.333 41.167 165 70.5v606
c-16.667 -3.33301 -35.5 -7.5 -56.5 -12.5s-39.333 -8.5 -55 -10.5s-29.834 -3.33301 -42.501 -4l-14 82c82.667 2.66699 140.667 23.334 174 62.001c14 18.667 30.333 28 49 28c14 0 23.667 -8.66699 29 -26s8 -37.333 8 -60v-737h166v-86zM919.999 1235l-396 -266l-53 69
l365 297z" />
    <glyph glyph-name="ucircumflex" unicode="&#xfb;" 
d="M1139 0l-258.001 -0.00195312v66c-118 -60.667 -230 -91 -336 -91c-93.333 0 -164.5 28.5 -213.5 85.5s-73.5 144.833 -73.5 263.5v440c-78.667 -17.333 -130 -26.333 -154 -27l-14 82c38 1.33301 71.667 6.33301 101 15s53.666 24.334 72.999 47.001
c14 18.667 30.333 28 49 28c14 0 23.667 -8.66699 29 -26s8 -37.333 8 -60v-467c0 -54.667 4.33301 -101.5 13 -140.5s21.334 -69.5 38.001 -91.5s37.834 -38 63.501 -48s55.834 -15 90.501 -15c54 0 107.667 8.83301 161 26.5s108.333 41.167 165 70.5v606
c-16.667 -3.33301 -35.5 -7.5 -56.5 -12.5s-39.333 -8.5 -55 -10.5s-29.834 -3.33301 -42.501 -4l-14 82c82.667 2.66699 140.667 23.334 174 62.001c14 18.667 30.333 28 49 28c14 0 23.667 -8.66699 29 -26s8 -37.333 8 -60v-737h166v-86zM962.999 1028l-56 -55l-293 201
l-290 -201l-56 55l348 303z" />
    <glyph glyph-name="udieresis" unicode="&#xfc;" 
d="M1139 0l-258.001 -0.00195312v66c-118 -60.667 -230 -91 -336 -91c-93.333 0 -164.5 28.5 -213.5 85.5s-73.5 144.833 -73.5 263.5v440c-78.667 -17.333 -130 -26.333 -154 -27l-14 82c38 1.33301 71.667 6.33301 101 15s53.666 24.334 72.999 47.001
c14 18.667 30.333 28 49 28c14 0 23.667 -8.66699 29 -26s8 -37.333 8 -60v-467c0 -54.667 4.33301 -101.5 13 -140.5s21.334 -69.5 38.001 -91.5s37.834 -38 63.501 -48s55.834 -15 90.501 -15c54 0 107.667 8.83301 161 26.5s108.333 41.167 165 70.5v606
c-16.667 -3.33301 -35.5 -7.5 -56.5 -12.5s-39.333 -8.5 -55 -10.5s-29.834 -3.33301 -42.501 -4l-14 82c82.667 2.66699 140.667 23.334 174 62.001c14 18.667 30.333 28 49 28c14 0 23.667 -8.66699 29 -26s8 -37.333 8 -60v-737h166v-86zM941.999 1151
c0 -28.667 -10.333 -53.667 -31 -75s-45.667 -32 -75 -32c-30 0 -55.333 10.667 -76 32s-31 46.333 -31 75c0 29.333 10.333 54.333 31 75s46 31 76 31c29.333 0 54.333 -10.333 75 -31s31 -45.667 31 -75zM499.999 1151c0 -28.667 -10.333 -53.667 -31 -75s-46 -32 -76 -32
c-29.333 0 -54.333 10.667 -75 32s-31 46.333 -31 75c0 29.333 10.333 54.333 31 75s45.667 31 75 31c30 0 55.333 -10.333 76 -31s31 -45.667 31 -75z" />
    <glyph glyph-name="yacute" unicode="&#xfd;" 
d="M1128 762l-129.001 -0.000976562l-389 -895c-35.333 -78.667 -62.833 -135.667 -82.5 -171s-48.334 -67.166 -86.001 -95.499s-85.167 -42.5 -142.5 -42.5c-34.667 0 -70.167 6 -106.5 18s-70.5 29 -102.5 51l35 78c58 -40.667 118 -61 180 -61
c52.667 0 94.334 22 125.001 66s61.334 103 92.001 177l68 158l-367 717h-123v86h377v-86h-153l313 -612l268 612h-153v86h376v-86zM919.999 1235l-396 -266l-53 69l365 297z" />
    <glyph glyph-name="thorn" unicode="&#xfe;" 
d="M1051 426c0 -82.667 -18.667 -158.5 -56 -227.5s-89 -123.5 -155 -163.5s-141.333 -60 -226 -60c-75.333 0 -148.333 16.667 -219 50v-357h201v-86h-420v86h127v1452c-75.333 -16.667 -126.333 -25.334 -153 -26.001l-15 82c82.667 2.66699 140.667 23 174 61
c16 19.333 32.333 29 49 29c14 0 23.667 -8.66699 29 -26s8 -37.333 8 -60v-422c91.333 76 180.333 114 267 114c78 0 146.833 -20.667 206.5 -62s105 -96.166 136 -164.499s46.5 -141.5 46.5 -219.5zM952 428c0 44.667 -6.33105 88.1689 -18.998 130.502
s-31.334 80.666 -56.001 114.999s-55.334 61.666 -92.001 81.999s-77.667 30.5 -123 30.5c-52.667 0 -103.667 -14.5 -153 -43.5s-87.333 -65.5 -114 -109.5v-512c70 -40 142.333 -60 217 -60c65.333 0 124 16.833 176 50.5s92.333 78.5 121 134.5s43 116.667 43 182z" />
    <glyph glyph-name="ydieresis" unicode="&#xff;" 
d="M1128 762l-129.001 -0.000976562l-389 -895c-35.333 -78.667 -62.833 -135.667 -82.5 -171s-48.334 -67.166 -86.001 -95.499s-85.167 -42.5 -142.5 -42.5c-34.667 0 -70.167 6 -106.5 18s-70.5 29 -102.5 51l35 78c58 -40.667 118 -61 180 -61
c52.667 0 94.334 22 125.001 66s61.334 103 92.001 177l68 158l-367 717h-123v86h377v-86h-153l313 -612l268 612h-153v86h376v-86zM941.999 1151c0 -28.667 -10.333 -53.667 -31 -75s-45.667 -32 -75 -32c-30 0 -55.333 10.667 -76 32s-31 46.333 -31 75
c0 29.333 10.333 54.333 31 75s46 31 76 31c29.333 0 54.333 -10.333 75 -31s31 -45.667 31 -75zM499.999 1151c0 -28.667 -10.333 -53.667 -31 -75s-46 -32 -76 -32c-29.333 0 -54.333 10.667 -75 32s-31 46.333 -31 75c0 29.333 10.333 54.333 31 75s45.667 31 75 31
c30 0 55.333 -10.333 76 -31s31 -45.667 31 -75z" />
    <glyph glyph-name="dotlessi" unicode="&#x131;" 
d="M1012 0h-794.996v86h375v678c-34.667 -6 -93.834 -12.333 -177.501 -19s-155.5 -10.667 -215.5 -12l-15 86c75.333 1.33301 138.166 3.5 188.499 6.5s97.166 9 140.499 18s71.666 21.5 84.999 37.5c14 18.667 30.333 28 49 28c14 0 23.667 -8.66699 29 -26
s8 -37.333 8 -60v-737h328v-86z" />
    <glyph glyph-name="Scaron" unicode="&#x160;" 
d="M1016 317c0 -51.333 -9.83105 -98.001 -29.498 -140.001s-47.834 -78.167 -84.501 -108.5s-79.167 -53.5 -127.5 -69.5s-101.166 -24 -158.499 -24c-122 0 -224.333 31 -307 93l-8 -95l-88 13l18 213c0 55.333 -6 114 -18 176l88 12l10 -84
c7.33301 -52 21.333 -95.5 42 -130.5s53.167 -62.333 97.5 -82s103.166 -29.5 176.499 -29.5c48.667 0 95 8.5 139 25.5s80.333 43.5 109 79.5s43 81.667 43 137c0 90 -28.167 154.5 -84.5 193.5s-139.833 75.167 -250.5 108.5s-194.834 72.333 -252.501 117
s-86.5 116.667 -86.5 216c0 68 18.667 127.167 56 177.5s86 88 146 113s124.333 37.5 193 37.5c95.333 0 180 -22 254 -66l12 92l86 -18l-14 -199c0 -18 2.33301 -46.333 7 -85s8.33398 -68.334 11.001 -89.001l-90 -12c-1.33301 21.333 -3.16602 43.833 -5.49902 67.5
s-5.33301 45 -9 64s-9.83398 37.167 -18.501 54.5c-37.333 70 -110.333 105 -219 105c-82 0 -154.333 -19.333 -217 -58s-94 -96.667 -94 -174c0 -81.333 26 -138.666 78 -171.999s135.167 -68.666 249.5 -105.999s200.666 -80 258.999 -128s87.5 -123 87.5 -225zM1004 1669
l-349 -303l-346 303l56 55l290 -203l293 203z" />
    <glyph glyph-name="scaron" unicode="&#x161;" 
d="M1010 221c0 -61.333 -19.999 -110.329 -59.999 -146.996s-88.833 -62.334 -146.5 -77.001s-117.167 -22 -178.5 -22c-55.333 0 -111 6.5 -167 19.5s-103 33.167 -141 60.5l-24 -84l-76 21c14 58.667 21 112.667 21 162c0 54 -8.33301 102.333 -25 145h92
c10 -58 26.5 -104.167 49.5 -138.5s55.5 -59.5 97.5 -75.5s96.667 -24 164 -24c45.333 0 90.166 4.5 134.499 13.5s82.166 25.167 113.499 48.5s47 54.666 47 93.999c0 58 -26.5 96.5 -79.5 115.5s-133.833 35.5 -242.5 49.5s-191 35.667 -247 65s-84 81.666 -84 156.999
c0 56 16.5 104.5 49.5 145.5s76.333 71.667 130 92s109.167 30.5 166.5 30.5c95.333 0 192.333 -18.333 291 -55l23 96l79 -14c-7.33301 -32 -13.5 -66.167 -18.5 -102.5s-7.5 -67.833 -7.5 -94.5l12 -120l-88 2l-6 20c-15.333 68 -41.666 115.333 -78.999 142
s-101.333 40 -192 40c-68.667 0 -129.5 -13.5 -182.5 -40.5s-79.5 -71.5 -79.5 -133.5c0 -56.667 25.5 -94 76.5 -112s131.667 -34.5 242 -49.5s193.833 -37.833 250.5 -68.5s85 -84.334 85 -161.001zM963.001 1276l-349 -303l-346 303l56 55l290 -203l293 203z" />
    <glyph glyph-name="Ydieresis" unicode="&#x178;" 
d="M1157 1155h-121l-374 -616v-453h233v-86h-559v86h233v451l-374 618h-123v86h385v-86h-160l319 -526l320 526h-164v86h385v-86zM942 1544c0 -28.667 -10.333 -53.667 -31 -75s-45.667 -32 -75 -32c-30 0 -55.333 10.667 -76 32s-31 46.333 -31 75
c0 29.333 10.333 54.333 31 75s46 31 76 31c29.333 0 54.333 -10.333 75 -31s31 -45.667 31 -75zM500 1544c0 -28.667 -10.333 -53.667 -31 -75s-46 -32 -76 -32c-29.333 0 -54.333 10.667 -75 32s-31 46.333 -31 75c0 29.333 10.333 54.333 31 75s45.667 31 75 31
c30 0 55.333 -10.333 76 -31s31 -45.667 31 -75z" />
    <glyph glyph-name="circumflex" unicode="&#x2c6;" 
d="M963 1028l-56 -55l-293 201l-290 -201l-56 55l348 303z" />
    <glyph glyph-name="caron" unicode="&#x2c7;" 
d="M963 1276l-349 -303l-346 303l56 55l290 -203l293 203z" />
    <glyph glyph-name="ring" unicode="&#x2da;" 
d="M788 1157c0 -48 -16.998 -89.002 -50.998 -123.002s-75 -51 -123 -51c-46.667 0 -87.334 17.333 -122.001 52s-52 75.334 -52 122.001c0 48 17 89 51 123s75 51 123 51c49.333 0 90.666 -16.667 123.999 -50s50 -74.666 50 -123.999zM690.002 1157
c0 22.667 -6.99902 43 -20.999 61s-32.333 27 -55 27c-22 0 -40 -9 -54 -27s-21 -38.333 -21 -61c0 -21.333 7.16699 -41.333 21.5 -60s32.166 -28 53.499 -28c22 0 40.167 9.33301 54.5 28s21.5 38.667 21.5 60z" />
    <glyph glyph-name="tilde" unicode="&#x2dc;" 
d="M930 1272c0 -63.333 -14.001 -115.667 -42.001 -157s-71.333 -62 -130 -62c-24.667 0 -48.667 5 -72 15s-54.666 26 -93.999 48c-51.333 32.667 -92.333 49 -123 49c-50.667 0 -76 -38.667 -76 -116h-96c0 62 13.333 113.333 40 154s68.667 61 126 61
c40 0 94.667 -19.333 164 -58c36.667 -21.333 63.167 -35.833 79.5 -43.5s32.833 -11.5 49.5 -11.5c48.667 0 73 40.333 73 121h101z" />
    <glyph glyph-name="quoteleft" unicode="&#x2018;" 
d="M745 973c0 -36.667 -11.666 -67.333 -34.999 -92s-54 -37 -92 -37c-38.667 0 -70.834 15.5 -96.501 46.5s-38.5 66.5 -38.5 106.5c0 62.667 26.167 119.167 78.5 169.5s112.833 84.833 181.5 103.5l-4 -90c-66 -20 -110.333 -51.667 -133 -95c4 1.33301 11 2 21 2
c34 0 62.167 -10.5 84.5 -31.5s33.5 -48.5 33.5 -82.5z" />
    <glyph glyph-name="quoteright" unicode="&#x2019;" 
d="M745 1112c0 -41.333 -12.334 -80.834 -37.001 -118.501s-56.667 -69.5 -96 -95.5s-81 -44.667 -125 -56l2 90c28.667 8 55.167 19.667 79.5 35s42.5 34.333 54.5 57c-4.66699 -1.33301 -11.667 -2 -21 -2c-34 0 -62.333 10.5 -85 31.5s-34 48.833 -34 83.5
c0 36.667 12 67.334 36 92.001s54.333 37 91 37c40.667 0 73.334 -15.5 98.001 -46.5s37 -66.833 37 -107.5z" />
    <glyph glyph-name="quotedblleft" unicode="&#x201c;" 
d="M948 973c0 -36.667 -11.667 -67.333 -35 -92s-54 -37 -92 -37c-26 0 -49.333 7.16699 -70 21.5s-36.667 33.833 -48 58.5s-17 49 -17 73c0 62.667 26.167 119.167 78.5 169.5s112.833 84.833 181.5 103.5l-4 -90c-66 -20 -110.333 -51.667 -133 -95
c4 1.33301 10.667 2 20 2c34.667 0 63.167 -10.5 85.5 -31.5s33.5 -48.5 33.5 -82.5zM543 973.001c0 -36.667 -11.666 -67.333 -34.999 -92s-54 -37 -92 -37c-26 0 -49.333 7.16699 -70 21.5s-36.667 33.833 -48 58.5s-17 49 -17 73c0 62.667 26.167 119.167 78.5 169.5
s112.833 84.833 181.5 103.5l-4 -90c-66.667 -20 -111.334 -51.667 -134.001 -95c4.66699 1.33301 11.667 2 21 2c34.667 0 63.167 -10.5 85.5 -31.5s33.5 -48.5 33.5 -82.5z" />
    <glyph glyph-name="quotedblright" unicode="&#x201d;" 
d="M948 1112c0 -41.333 -12.333 -80.834 -37 -118.501s-56.667 -69.5 -96 -95.5s-81 -44.667 -125 -56l2 90c67.333 19.333 111.666 50 132.999 92c-4 -1.33301 -10.667 -2 -20 -2c-34.667 0 -63.167 10.5 -85.5 31.5s-33.5 48.833 -33.5 83.5
c0 36.667 11.667 67.334 35 92.001s54 37 92 37c40.667 0 73.334 -15.5 98.001 -46.5s37 -66.833 37 -107.5zM543 1112c0 -41.333 -12.333 -80.834 -37 -118.501s-56.667 -69.5 -96 -95.5s-81 -44.667 -125 -56l2 90c28.667 8 55.167 19.833 79.5 35.5
s42.166 34.5 53.499 56.5c-4 -1.33301 -11 -2 -21 -2c-34 0 -62.167 10.5 -84.5 31.5s-33.5 48.833 -33.5 83.5c0 36.667 11.667 67.334 35 92.001s54 37 92 37c40.667 0 73.334 -15.5 98.001 -46.5s37 -66.833 37 -107.5z" />
    <glyph glyph-name="fraction" unicode="&#x2044;" 
d="M946 1266l-569 -1325l-68 39l570 1325z" />
    <glyph glyph-name="minus" unicode="&#x2212;" 
d="M1145 692h-1061v103h1061v-103z" />
    <glyph glyph-name="uni2219" unicode="&#x2219;" 
d="M723 743c0 -29.333 -10.667 -54.666 -32 -75.999s-47 -32 -77 -32c-29.333 0 -54.666 10.667 -75.999 32s-32 46.666 -32 75.999c0 30 10.667 55.667 32 77s46.666 32 75.999 32c30 0 55.667 -10.667 77 -32s32 -47 32 -77z" />
    <glyph glyph-name="uniF001" unicode="&#xf001;" 
d="M1153 0h-288.998v70h111v104h-330v66c55.333 90 101.666 173.5 138.999 250.5s66.666 156.5 87.999 238.5l80 -20c-34 -130 -107.667 -285 -221 -465h244v233h84v-233h94v-70h-94v-104h94v-70z" />
    <glyph glyph-name=".null" horiz-adv-x="0" 
 />
    <glyph glyph-name="nonmarkingreturn" horiz-adv-x="0" 
 />
  </font>
</defs>
</svg>
