<?xml version="1.0" standalone="no"?>
<!DOCTYPE svg PUBLIC "-//W3C//DTD SVG 1.1//EN" "http://www.w3.org/Graphics/SVG/1.1/DTD/svg11.dtd" >
<svg>
<metadata>
Created by FontForge 20120731 at Fri Oct  6 11:38:45 2017
 By www-data
Generated by Fonts 4 Web (http://fonts4web.org.uk) on behalf of:Company: Lukey ShawName: Lukey ShaweMail: lukey@snails.emailThis is licensed under Creative Commons - Share Alike which legal transcript can be found at: https://creativecommons.org/licenses/by-sa/4.0/legalcode
</metadata>
<defs>
<font id="labtopthin" horiz-adv-x="285" >
  <font-face 
    font-family="Labtop Thin"
    font-weight="100"
    font-stretch="normal"
    units-per-em="1000"
    panose-1="2 0 2 3 0 0 0 0 0 0"
    ascent="800"
    descent="-200"
    x-height="565"
    cap-height="797"
    bbox="-83 -259 882 1002"
    underline-thickness="31"
    underline-position="-75"
    unicode-range="U+000D-FB02"
  />
<missing-glyph horiz-adv-x="500" 
d="M63 0v997h375v-997h-375zM125 63h250v872h-250v-872z" />
    <glyph glyph-name=".notdef" horiz-adv-x="500" 
d="M63 0v997h375v-997h-375zM125 63h250v872h-250v-872z" />
    <glyph glyph-name=".null" horiz-adv-x="0" 
 />
    <glyph glyph-name=".null" horiz-adv-x="0" 
 />
    <glyph glyph-name="nonmarkingreturn" unicode="&#xd;" horiz-adv-x="175" 
 />
    <glyph glyph-name="space" unicode=" " horiz-adv-x="175" 
 />
    <glyph glyph-name="exclam" unicode="!" horiz-adv-x="142" 
d="M60 126v673h24v-673h-24zM61 4v27h21v-27h-21z" />
    <glyph glyph-name="quotedbl" unicode="&#x22;" horiz-adv-x="245" 
d="M159 596v183h28v-183h-28zM61 596v183h28v-183h-28z" />
    <glyph glyph-name="numbersign" unicode="#" horiz-adv-x="399" 
d="M375 409h-101l-9 -114h100l-3 -23l-101 -1l-11 -127h-24l11 127h-86l-11 -129h-23l12 129l-101 -1l2 24h101l11 113l-101 -1l2 24h101l12 129h23l-12 -129l87 1l11 129h24l-12 -129l100 1zM165 407l-11 -113l87 1l9 112h-85z" />
    <glyph glyph-name="dollar" unicode="$" 
d="M155 -3v-42h-20v42q-91 7 -91 117v52h25v-54q0 -90 66 -98v438q-91 6 -91 117v121q0 110 91 116v45h20v-45q86 -8 86 -116v-58h-22v60q0 89 -64 99v-325q75 -6 86 -89v-263q0 -109 -86 -117zM135 791q-66 -7 -66 -99v-126q0 -91 66 -100v325zM219 371q0 70 -64 80v-437
q64 9 64 98v259z" />
    <glyph glyph-name="percent" unicode="%" horiz-adv-x="577" 
d="M130 407q-98 0 -98 118v160q0 116 98 116q100 0 100 -116v-160q0 -118 -100 -118zM121 -3h-22l336 809h22zM425 0q-25 0 -32 6q-7 5 -22 19q-22 25 -22 91v160q0 118 97 118q99 0 99 -118v-160q0 -65 -26 -91q-25 -25 -94 -25zM205 687q0 98 -75 98q-74 0 -74 -98v-165
q0 -46 12 -68q15 -30 62 -30q75 0 75 98v165zM521 279q0 97 -75 97t-75 -97v-165q0 -44 12 -69q19 -30 63 -30q75 0 75 99v165z" />
    <glyph glyph-name="ampersand" unicode="&#x26;" 
d="M227 22q-31 -25 -96 -25q-97 0 -97 117v245q0 45 8 64q9 22 55 44q-53 24 -53 109v114q0 116 98 116q99 0 99 -116v-114q0 -42 -11 -69q-20 -47 -88 -47q-43 0 -74 -29q-12 -13 -12 -71v-248q0 -100 75 -100q48 0 73 17q23 17 23 66v135q0 94 -70 97v17q88 -3 94 -105h1
v-228q0 -96 70 -99v-16q-92 3 -95 126zM217 692q0 98 -75 98t-75 -98v-118q0 -99 75 -99t75 99v118z" />
    <glyph glyph-name="quotesingle" unicode="'" horiz-adv-x="150" 
d="M61 596v183h28v-183h-28z" />
    <glyph glyph-name="parenleft" unicode="(" horiz-adv-x="150" 
d="M44 -110v855q0 57 20 85q21 27 73 31v-17q-40 -4 -57 -29q-13 -19 -13 -69v-859q0 -49 13 -69q14 -24 57 -29v-15q-52 1 -73 30q-20 29 -20 86z" />
    <glyph glyph-name="parenright" unicode=")" horiz-adv-x="150" 
d="M44 -226v15q43 5 57 29q13 20 13 69v859q0 48 -12 67q-15 25 -58 31v17q53 -5 72 -31q21 -27 21 -85v-855q0 -58 -21 -86q-20 -28 -72 -30z" />
    <glyph glyph-name="asterisk" unicode="*" horiz-adv-x="356" 
d="M297 547l-106 62v-123h-27v123l-106 -62l-14 25l105 60l-105 61l14 25l106 -61v122h27v-122l106 61l13 -25l-104 -61l104 -60z" />
    <glyph glyph-name="plus" unicode="+" horiz-adv-x="366" 
d="M195 329v-149h-22v149h-148v21h148v147h22v-147h148v-21h-148z" />
    <glyph glyph-name="comma" unicode="," horiz-adv-x="142" 
d="M81 36l-20 -104h-23l15 77h-19v27h47z" />
    <glyph glyph-name="hyphen" unicode="-" horiz-adv-x="270" 
d="M44 329v21h182v-21h-182z" />
    <glyph glyph-name="period" unicode="." horiz-adv-x="142" 
d="M60 9v27h22v-27h-22z" />
    <glyph glyph-name="slash" unicode="/" horiz-adv-x="291" 
d="M35 5h-22l245 801h22z" />
    <glyph glyph-name="zero" unicode="0" 
d="M142 -3q-98 0 -98 117v576q0 116 98 116q99 0 99 -116v-576q0 -117 -99 -117zM142 790q-75 0 -75 -98v-525l149 555q-11 68 -74 68zM217 642l-148 -556q8 -74 73 -74q75 0 75 100v530z" />
    <glyph glyph-name="one" unicode="1" horiz-adv-x="132" 
d="M29 5v21h26v740l-35 -14v21l59 24v-771h27v-21h-77z" />
    <glyph glyph-name="two" unicode="2" horiz-adv-x="272" 
d="M44 5v352q0 73 45 90q18 5 42 8q52 4 70 19q16 15 16 67v151q0 98 -75 98t-75 -98v-55h-23v53q0 116 98 116q99 0 99 -116v-151q0 -60 -19 -79q-20 -18 -81 -24q-62 -6 -71 -44q-3 -14 -3 -36v-334h174v-17h-197z" />
    <glyph glyph-name="three" unicode="3" horiz-adv-x="265" 
d="M130 -3q-98 0 -98 117v57h23v-59q0 -100 75 -100t75 100v249q0 52 -16 71q-19 22 -69 22h-28v16h28q55 0 71 22q14 19 14 70v130q0 98 -75 98t-75 -98v-55h-23v53q0 116 98 116q99 0 99 -116v-131q0 -74 -71 -98q71 -21 71 -96v-251q0 -117 -99 -117z" />
    <glyph glyph-name="four" unicode="4" horiz-adv-x="273" 
d="M215 454v-449h-23v449h-181l177 345h27v-329h53v-16h-53zM192 755l-145 -285h145v285z" />
    <glyph glyph-name="five" unicode="5" 
d="M142 -3q-98 0 -98 117v57h23v-59q0 -100 75 -100t75 100v249q0 53 -14 72q-16 22 -71 22h-88v344h197v-18h-174v-310h73q62 0 83 -29q18 -26 18 -90v-238q0 -117 -99 -117z" />
    <glyph glyph-name="six" unicode="6" 
d="M142 -3q-98 0 -98 117v576q0 116 98 116q99 0 99 -116v-58h-24v60q0 98 -75 98t-75 -98v-257q40 36 79 36q95 0 95 -116v-241q0 -117 -99 -117zM217 356q0 99 -71 99q-79 0 -79 -99v-244q0 -100 75 -100t75 100v244z" />
    <glyph glyph-name="seven" unicode="7" horiz-adv-x="222" 
d="M32 5h-21l178 776h-169v18h196z" />
    <glyph glyph-name="eight" unicode="8" 
d="M142 -3q-98 0 -98 117v245q0 82 53 108q-53 24 -53 109v114q0 116 98 116q99 0 99 -116v-114q0 -83 -53 -109q53 -26 53 -108v-245q0 -117 -99 -117zM217 692q0 98 -75 98t-75 -98v-118q0 -99 75 -99t75 99v118zM217 360q0 99 -75 99t-75 -99v-248q0 -100 75 -100t75 100
v248z" />
    <glyph glyph-name="nine" unicode="9" 
d="M142 -3q-98 0 -98 117v57h23v-59q0 -100 75 -100t75 100v377q-37 -37 -83 -37q-90 0 -90 115v123q0 116 98 116q99 0 99 -116v-576q0 -117 -99 -117zM217 692q0 98 -75 98t-75 -98v-125q0 -98 72 -98q78 0 78 98v125z" />
    <glyph glyph-name="colon" unicode=":" horiz-adv-x="142" 
d="M60 331v28h22v-28h-22zM60 9v27h22v-27h-22z" />
    <glyph glyph-name="semicolon" unicode=";" horiz-adv-x="142" 
d="M60 331v28h22v-28h-22zM81 36l-20 -104h-23l15 77h-19v27h47z" />
    <glyph glyph-name="less" unicode="&#x3c;" horiz-adv-x="441" 
d="M61 325v17l329 176v-28l-284 -156l284 -158v-27z" />
    <glyph glyph-name="equal" unicode="=" horiz-adv-x="641" 
d="M75 391v24h491v-24h-491zM75 251v25h491v-25h-491z" />
    <glyph glyph-name="greater" unicode="&#x3e;" horiz-adv-x="441" 
d="M61 149v27l284 158l-284 156v28l329 -176v-17z" />
    <glyph glyph-name="question" unicode="?" horiz-adv-x="251" 
d="M192 493q-19 -30 -72 -38v-329h-24v344q52 1 70 22q17 22 17 78v122q0 98 -75 98t-75 -98v-55h-25v53q0 116 100 116q99 0 99 -116v-119q0 -55 -15 -78zM96 9v27h22v-27h-22z" />
    <glyph glyph-name="at" unicode="@" horiz-adv-x="659" 
d="M542 89q-46 -52 -96 -52q-43 0 -53 31q-6 17 -7 66q-33 -24 -76 -24q-85 0 -85 87q0 10 5 63q12 117 112 117q44 0 72 -26l8 81q1 7 1 22q0 76 -66 76q-72 0 -85 -103h-23l1 2q12 118 111 118q87 0 87 -90q0 -4 -2 -26l-39 -322q0 -49 45 -49q52 0 92 61q57 85 57 273
q0 122 -60 204q-67 91 -185 91q-110 0 -190 -92q-108 -126 -108 -333q0 -144 63 -238q75 -114 210 -114q111 0 207 90l4 -9q-93 -101 -207 -101q-124 0 -201 86q-98 110 -98 293q0 154 65 272q95 167 257 167q108 0 179 -78q84 -94 84 -240q0 -77 -17 -159q-23 -99 -62 -144
zM338 361q-78 0 -85 -99l-6 -89q-1 -17 21 -33q24 -15 45 -15q66 0 82 70l10 95q0 71 -67 71z" />
    <glyph glyph-name="A" unicode="A" horiz-adv-x="280" 
d="M241 5l-53 379h-97l-55 -379h-20l114 794h20l114 -794h-23zM140 731l-47 -326h93z" />
    <glyph glyph-name="B" unicode="B" horiz-adv-x="279" 
d="M223 33q-19 -28 -84 -28h-96v794h96q100 0 100 -107v-131q0 -74 -68 -97q68 -23 68 -98v-241q0 -70 -16 -92zM217 689q0 51 -17 73q-18 20 -70 20h-63v-311h63q52 0 70 22q17 20 17 72v124zM217 364q0 52 -18 72t-69 20h-63v-435h63q52 0 70 21q17 20 17 72v250z" />
    <glyph glyph-name="C" unicode="C" horiz-adv-x="265" 
d="M142 -3q-98 0 -98 117v576q0 116 98 116q99 0 99 -116v-53h-24v55q0 98 -75 98t-75 -98v-580q0 -100 75 -100t75 100v59h24v-57q0 -117 -99 -117z" />
    <glyph glyph-name="D" unicode="D" horiz-adv-x="277" 
d="M140 5h-96v794h96q62 0 83 -31q18 -22 18 -89v-568q0 -106 -101 -106zM217 690q0 51 -17 71q-18 20 -68 20h-65v-760h65q55 0 71 22q14 19 14 71v576z" />
    <glyph glyph-name="E" unicode="E" horiz-adv-x="257" 
d="M43 5v794h194v-17h-170v-311h170v-15h-170v-435h170v-16h-194z" />
    <glyph glyph-name="F" unicode="F" horiz-adv-x="250" 
d="M72 781v-307h147v-17h-147v-452h-24v794h194v-18h-170z" />
    <glyph glyph-name="G" unicode="G" 
d="M142 -3q-98 0 -98 117v576q0 116 98 116q99 0 99 -116v-53h-24v55q0 98 -75 98t-75 -98v-580q0 -100 75 -100t75 100v340h-56v22h80v-360q0 -117 -99 -117z" />
    <glyph glyph-name="H" unicode="H" horiz-adv-x="281" 
d="M221 5v451h-150v-451h-24v794h24v-328h150v328h22v-794h-22z" />
    <glyph glyph-name="I" unicode="I" horiz-adv-x="111" 
d="M24 6v21h21v749h-21v21h66v-21h-22v-749h22v-21h-66z" />
    <glyph glyph-name="J" unicode="J" horiz-adv-x="265" 
d="M122 -3q-100 0 -100 117v57h25v-59q0 -100 75 -100t75 100v687h24v-685q0 -117 -99 -117z" />
    <glyph glyph-name="K" unicode="K" horiz-adv-x="295" 
d="M223 5v359q0 52 -18 72t-69 20h-63v-451h-24v794h24v-328h63q52 0 70 22q17 20 17 72v234h22v-238q0 -74 -68 -97q68 -23 68 -98v-361h-22z" />
    <glyph glyph-name="L" unicode="L" horiz-adv-x="246" 
d="M46 5v794h24v-778h171v-16h-195z" />
    <glyph glyph-name="M" unicode="M" horiz-adv-x="459" 
d="M391 5v713l-154 -664h-19l-148 657v-706h-24v794h26l155 -697l161 697h26v-794h-23z" />
    <glyph glyph-name="N" unicode="N" horiz-adv-x="287" 
d="M70 799v-2h3l154 -676v678h23l5 -794h-28v13l-157 693v-706h-24v794h24z" />
    <glyph glyph-name="O" unicode="O" 
d="M142 -3q-98 0 -98 117v576q0 116 98 116q99 0 99 -116v-576q0 -117 -99 -117zM217 692q0 98 -75 98t-75 -98v-580q0 -100 75 -100t75 100v580z" />
    <glyph glyph-name="P" unicode="P" horiz-adv-x="280" 
d="M149 457h-72v-452h-24v794h96q63 0 84 -30q16 -22 16 -90v-117q0 -105 -100 -105zM227 690q0 54 -16 70q-19 21 -71 21h-63v-307h63q51 0 71 20q16 19 16 72v124z" />
    <glyph glyph-name="Q" unicode="Q" 
d="M160 -2v-59q0 -95 70 -98v-16q-94 3 -94 116v56q-92 6 -92 117v576q0 116 98 116q99 0 99 -116v-576q0 -106 -81 -116zM217 692q0 98 -75 98t-75 -98v-212q93 -6 93 -116v-350q57 14 57 98v580zM136 366q0 92 -69 99v-353q0 -94 69 -98v352z" />
    <glyph glyph-name="R" unicode="R" horiz-adv-x="298" 
d="M223 5v347q0 47 -19 72q-22 22 -68 22h-63v-441h-24v794h96q63 0 84 -30q16 -22 16 -90v-122q0 -76 -68 -96q68 -26 68 -105v-351h-22zM223 690q0 54 -16 70q-19 21 -71 21h-63v-314h63q52 0 71 22q16 17 16 71v130z" />
    <glyph glyph-name="S" unicode="S" horiz-adv-x="267" 
d="M134 -3q-100 0 -100 117v52h25v-54q0 -98 75 -98t75 98v259q0 80 -75 80q-100 0 -100 118v121q0 116 100 116q97 0 97 -116v-58h-22v60q0 99 -75 99t-75 -99v-126q0 -100 75 -100q87 0 96 -89h1v-263q0 -117 -97 -117z" />
    <glyph glyph-name="T" unicode="T" horiz-adv-x="274" 
d="M151 781v-776h-24v776h-113v18h246v-18h-109z" />
    <glyph glyph-name="U" unicode="U" 
d="M142 -3q-98 0 -98 117v685h23v-687q0 -100 75 -100t75 100v687h24v-685q0 -117 -99 -117z" />
    <glyph glyph-name="V" unicode="V" horiz-adv-x="280" 
d="M150 5h-20l-114 794h24l100 -704l100 704h24z" />
    <glyph glyph-name="W" unicode="W" horiz-adv-x="459" 
d="M316 -3q-68 2 -77 93q-1 3 -4 41h-10q-5 -49 -14 -74q-21 -59 -69 -60q-49 -1 -73.5 28.5t-24.5 88.5v685h23v-687q0 -100 75 -100q41 0 63 88q12 50 12 121v578h24v-578q0 -68 11 -123q20 -86 64 -86q75 0 75 100v687h24v-685q0 -120 -99 -117z" />
    <glyph glyph-name="X" unicode="X" horiz-adv-x="280" 
d="M236 5l-97 363l-99 -363h-23l110 406l-110 388h26l97 -358l100 358h23l-111 -395l111 -399h-27z" />
    <glyph glyph-name="Y" unicode="Y" horiz-adv-x="267" 
d="M146 413v-408h-24v410l-110 384h26l97 -358l100 358h23z" />
    <glyph glyph-name="Z" unicode="Z" horiz-adv-x="262" 
d="M55 21h181v-16h-211l184 776h-181v18h210z" />
    <glyph glyph-name="bracketleft" unicode="[" horiz-adv-x="150" 
d="M46 -219v1071h89v-16h-65v-1040h65v-15h-89z" />
    <glyph glyph-name="backslash" unicode="\" horiz-adv-x="291" 
d="M258 5l-245 801h22l245 -801h-22z" />
    <glyph glyph-name="bracketright" unicode="]" horiz-adv-x="150" 
d="M46 -219v15h65v1040h-65v16h89v-1071h-89z" />
    <glyph glyph-name="asciicircum" unicode="^" horiz-adv-x="332" 
d="M191 541l-25 161l-25 -161h-23l38 248h20l38 -248h-23z" />
    <glyph glyph-name="underscore" unicode="_" horiz-adv-x="558" 
d="M4 -95v23h550v-23h-550z" />
    <glyph glyph-name="grave" unicode="`" horiz-adv-x="150" 
d="M89 654l-57 115l25 13l58 -115z" />
    <glyph glyph-name="a" unicode="a" 
d="M239 81v-80h-23v20q-32 -24 -74 -24q-98 0 -98 117v122q0 116 98 116q44 0 75 -26v125q0 99 -75 99t-75 -99v-26h-23v24q0 117 98 117q99 0 99 -117v-335q0 -11 -2 -33zM216 266q-7 70 -74 70q-75 0 -75 -97v-127q0 -100 75 -100q65 0 74 73v181z" />
    <glyph glyph-name="b" unicode="b" horiz-adv-x="275" 
d="M142 -3q-43 0 -75 25v-21h-23v788h23v-249q32 26 75 26q99 0 99 -117v-335q0 -117 -99 -117zM217 451q0 99 -75 99t-75 -99v-339q0 -100 75 -100t75 100v339z" />
    <glyph glyph-name="c" unicode="c" horiz-adv-x="272" 
d="M142 -3q-98 0 -98 117v335q0 117 98 117q99 0 99 -117v-52h-24v54q0 99 -75 99t-75 -99v-339q0 -100 75 -100t75 100v59h24v-57q0 -117 -99 -117z" />
    <glyph glyph-name="d" unicode="d" 
d="M219 1v21q-32 -25 -75 -25q-100 0 -100 117v335q0 117 100 117q43 0 75 -26v249h22v-788h-22zM217 451q0 99 -73 99q-77 0 -77 -99v-339q0 -100 77 -100q73 0 73 100v339z" />
    <glyph glyph-name="e" unicode="e" horiz-adv-x="278" 
d="M142 -3q-98 0 -98 117v335q0 117 98 117q99 0 99 -117v-143h-174v-194q0 -100 75 -100t75 100v14h24v-12q0 -117 -99 -117zM217 451q0 99 -75 99t-75 -99v-124h150v124z" />
    <glyph glyph-name="f" unicode="f" horiz-adv-x="254" 
d="M223 669v15q0 47 -12 68q-17 30 -63 30q-75 0 -75 -98v-119h136v-20h-136v-548h-24v684q0 118 99 118q100 0 100 -118v-12h-25z" />
    <glyph glyph-name="g" unicode="g" 
d="M144 -226q-100 0 -100 116v57h25v-60q0 -50 13 -70q16 -28 62 -28q75 0 75 98v135q-32 -25 -77 -25q-98 0 -98 117v335q0 117 98 117q43 0 77 -26v24h23v-674q0 -116 -98 -116zM217 451q0 99 -75 99t-75 -99v-339q0 -100 75 -100t75 100v339z" />
    <glyph glyph-name="h" unicode="h" 
d="M217 -3v457q0 100 -75 100t-75 -100v-457h-26v802h24v-259q32 29 77 29q99 0 99 -117v-455h-24z" />
    <glyph glyph-name="i" unicode="i" horiz-adv-x="116" 
d="M46 669v22h24v-22h-24zM46 5v564h24v-564h-24z" />
    <glyph glyph-name="j" unicode="j" horiz-adv-x="104" 
d="M43 670v22h23v-22h-23zM-30 -226v15q71 3 71 98v677h22v-674q0 -113 -93 -116z" />
    <glyph glyph-name="k" unicode="k" horiz-adv-x="281" 
d="M218 5v239q0 54 -18 74q-13 13 -69 13h-63v-326h-24v794h24v-448h63q52 0 70 22q17 20 17 72v124l22 1v-129q0 -75 -64 -97q64 -19 64 -98v-241h-22z" />
    <glyph glyph-name="l" unicode="l" horiz-adv-x="116" 
d="M46 5v764l24 23v-787h-24z" />
    <glyph glyph-name="m" unicode="m" horiz-adv-x="452" 
d="M392 -3v457q0 100 -75 100t-75 -100v-457h-25v457q0 100 -75 100t-75 -100v-457h-26v572h24v-29q32 29 77 29q61 0 88 -47q26 47 87 47q99 0 99 -117v-455h-24z" />
    <glyph glyph-name="n" unicode="n" horiz-adv-x="279" 
d="M217 -3v457q0 100 -75 100t-75 -100v-457h-26v572h24v-29q32 29 77 29q99 0 99 -117v-455h-24z" />
    <glyph glyph-name="o" unicode="o" horiz-adv-x="277" 
d="M142 -3q-98 0 -98 117v335q0 117 98 117q99 0 99 -117v-335q0 -117 -99 -117zM217 451q0 99 -75 99t-75 -99v-339q0 -100 75 -100t75 100v339z" />
    <glyph glyph-name="p" unicode="p" horiz-adv-x="275" 
d="M136 -4q-44 0 -75 26v-248h-22v787h22v-22q31 26 75 26q100 0 100 -116v-335q0 -118 -100 -118zM212 450q0 100 -76 100q-74 0 -74 -100v-339q0 -99 74 -99q76 0 76 99v339z" />
    <glyph glyph-name="q" unicode="q" horiz-adv-x="275" 
d="M212 -226v248q-31 -26 -75 -26q-98 0 -98 118v335q0 116 98 116q44 0 75 -26v22h24v-787h-24zM212 450q0 100 -75 100t-75 -100v-339q0 -99 75 -99t75 99v339z" />
    <glyph glyph-name="r" unicode="r" horiz-adv-x="259" 
d="M217 390v59q0 40 -13 71q-15 27 -62 27q-57 0 -72 -62q0 -10 -1 -17v-16v-450h-25v567h26v-29q21 14 42 20q25 5 43 5q52 0 72 -35q15 -27 15 -84v-56h-25z" />
    <glyph glyph-name="s" unicode="s" horiz-adv-x="267" 
d="M137 -3q-100 0 -100 117v52h25v-54q0 -98 75 -98t75 98v107q0 80 -75 80q-100 0 -100 116v34q0 117 100 117q97 0 97 -117v-40h-22v42q0 99 -75 99t-75 -99v-29q0 -108 75 -108q87 0 96 -90h1v-110q0 -117 -97 -117z" />
    <glyph glyph-name="t" unicode="t" horiz-adv-x="190" 
d="M70 550v-545h-24v690h24v-125h111v-20h-111z" />
    <glyph glyph-name="u" unicode="u" 
d="M142 -3q-98 0 -98 117v455h23v-457q0 -100 75 -100t75 100v457h24v-455q0 -117 -99 -117z" />
    <glyph glyph-name="v" unicode="v" horiz-adv-x="219" 
d="M121 5h-19l-87 562h24l72 -475l73 475h24z" />
    <glyph glyph-name="w" unicode="w" horiz-adv-x="459" 
d="M316 -3q-68 2 -77 93q-1 3 -4 41h-10q-5 -49 -14 -74q-21 -59 -69 -60q-49 -1 -73.5 28.5t-24.5 88.5v455h23v-457q0 -100 75 -100q41 0 63 88q12 50 12 121v348h24v-348q0 -68 11 -123q20 -86 64 -86q75 0 75 100v457h24v-455q0 -120 -99 -117z" />
    <glyph glyph-name="x" unicode="x" horiz-adv-x="245" 
d="M208 7l-83 266l-79 -266h-25l88 289l-77 269h22l70 -233l73 233h24l-78 -261l87 -297h-22z" />
    <glyph glyph-name="y" unicode="y" 
d="M242 568v-678q0 -116 -98 -116q-100 0 -100 116v57h25v-60q0 -50 13 -70q16 -28 62 -28q75 0 75 98v135q-32 -25 -77 -25q-98 0 -98 117v455h23v-457q0 -100 75 -100t75 100v457h24z" />
    <glyph glyph-name="z" unicode="z" horiz-adv-x="245" 
d="M40 21h182v-16h-208l191 547h-182v18h209z" />
    <glyph glyph-name="braceleft" unicode="{" horiz-adv-x="270" 
d="M158 -195q-24 31 -21 85l23 418l-121 37v20l121 38l-23 342q-5 54 21 84q22 27 72 32v-17q-45 -6 -58 -30q-14 -26 -11 -68l21 -359l-93 -32l93 -32l-21 -436q-2 -41 13 -67q15 -28 56 -31v-15q-51 3 -72 31z" />
    <glyph glyph-name="bar" unicode="|" horiz-adv-x="560" 
d="M265 -259v1109h30v-1109h-30z" />
    <glyph glyph-name="braceright" unicode="}" horiz-adv-x="270" 
d="M109 308l22 -418q6 -110 -92 -116v15q43 5 56 29q13 26 12 69l-21 436l95 32l-95 32l21 359q3 45 -11 68q-15 24 -57 30v17q100 -8 92 -116l-22 -342l121 -38v-20z" />
    <glyph glyph-name="asciitilde" unicode="~" horiz-adv-x="491" 
d="M450 387q-65 -50 -111 -50q-34 0 -105 47q-48 34 -73 37q-45 6 -125 -54l4 26q64 49 111 51q29 1 89 -40q60 -40 90 -45q46 -5 123 52z" />
    <glyph glyph-name="nonbreakingspace" unicode="&#xa0;" 
 />
    <glyph glyph-name="exclamdown" unicode="&#xa1;" horiz-adv-x="142" 
d="M61 585v27h21v-27h-21zM60 -183v674h24v-674h-24z" />
    <glyph glyph-name="cent" unicode="&#xa2;" horiz-adv-x="275" 
d="M155 111v-65h-24v65q-87 9 -87 115v335q0 107 87 116v84h24v-84q86 -9 86 -116v-52h-24v54q0 87 -62 99v-536q62 11 62 98v59h24v-57q0 -106 -86 -115zM131 662q-64 -13 -64 -99v-339q0 -89 64 -99v537z" />
    <glyph glyph-name="sterling" unicode="&#xa3;" horiz-adv-x="246" 
d="M46 5v322h-43v25h43v115h-43v24h43v308h24v-308h134v-24h-134v-115h134v-25h-134v-306h171v-16h-195z" />
    <glyph glyph-name="currency" unicode="&#xa4;" horiz-adv-x="295" 
d="M167 -3q-99 0 -99 117v232h-60v25h60v114h-32v25h32v180q0 116 99 116t99 -116v-53h-24v55q0 98 -75 98t-75 -98v-182h140v-25h-140v-114h113v-25h-113v-234q0 -100 75 -100t75 100v59h24v-57q0 -117 -99 -117z" />
    <glyph glyph-name="yen" unicode="&#xa5;" horiz-adv-x="263" 
d="M144 413v-52h90v-25h-90v-87h90v-25h-90v-219h-24v219h-88v25h88v87h-88v25h88v54l-110 384h26l97 -358l100 358h23z" />
    <glyph glyph-name="brokenbar" unicode="&#xa6;" horiz-adv-x="244" 
d="M106 374v403h30v-403h-30zM106 -186v403h30v-403h-30z" />
    <glyph glyph-name="section" unicode="&#xa7;" 
d="M241 -9v-52q0 -117 -97 -117q-100 0 -100 117v52h25v-54q0 -98 75 -98t75 98v107q0 80 -75 80q-100 0 -100 121v45q0 69 56 96q-49 24 -56 84v110q0 116 97 116q100 0 100 -116v-53h-24v55q0 98 -76 98q-74 0 -74 -98v-107q0 -79 75 -79q99 0 99 -121v-46q0 -71 -57 -95
q50 -24 56 -85h1v-10q0 -4 1 -7v-11zM217 276h-1v5q0 41 -11 65q-18 29 -61 29q-75 0 -75 -99v-37q0 -47 11 -66q18 -29 61 -29q76 0 76 98v34z" />
    <glyph glyph-name="dieresis" unicode="&#xa8;" horiz-adv-x="174" 
d="M125 692v27h22v-27h-22zM26 692v27h23v-27h-23z" />
    <glyph glyph-name="copyright" unicode="&#xa9;" horiz-adv-x="932" 
d="M466 32q-155 0 -236 100q-75 93 -75 260q0 166 71 258q80 102 240 102q311 0 311 -360q0 -165 -71 -257q-79 -103 -240 -103zM466 727q-286 0 -286 -335q0 -150 66 -238q74 -98 220 -98q286 0 286 336q0 335 -286 335zM465 136q-98 0 -98 116v297q0 117 98 117
q100 0 100 -117v-52h-24v54q0 99 -76 99q-74 0 -74 -99v-301q0 -99 74 -99q76 0 76 99v59h24v-57q0 -116 -100 -116z" />
    <glyph glyph-name="ordfeminine" unicode="&#xaa;" 
d="M239 426v-81h-24v22q-31 -26 -74 -26q-97 0 -97 118v40q0 116 97 116q45 0 76 -26v92q0 98 -76 98q-74 0 -74 -98v-5h-23v3q0 117 97 117q100 0 100 -117v-220q0 -15 -2 -33zM215 527q-6 72 -74 72q-74 0 -74 -98v-45q0 -99 74 -99q65 0 74 72v98z" />
    <glyph glyph-name="guillemotleft" unicode="&#xab;" horiz-adv-x="482" 
d="M210 324v19l217 173v-27l-188 -155l188 -157v-26zM61 324v19l219 173v-27l-188 -155l188 -157v-26z" />
    <glyph glyph-name="logicalnot" unicode="&#xac;" horiz-adv-x="497" 
d="M434 269v92h-393v24h415v-116h-22z" />
    <glyph glyph-name="sfthyphen" unicode="&#xad;" horiz-adv-x="270" 
d="M44 329v21h182v-21h-182z" />
    <glyph glyph-name="registered" unicode="&#xae;" horiz-adv-x="932" 
d="M466 32q-155 0 -236 100q-75 93 -75 260q0 166 71 258q80 102 240 102q311 0 311 -360q0 -165 -71 -257q-79 -103 -240 -103zM466 727q-286 0 -286 -335q0 -150 66 -238q74 -98 220 -98q286 0 286 336q0 335 -286 335zM572 250v-114h-22v163q0 49 -19 71t-67 22h-64v-256
h-24v515h96q63 0 84 -29q18 -26 18 -91v-29q0 -77 -70 -96q70 -25 70 -105v-51h-2zM550 542q0 54 -16 71q-20 21 -70 21h-64v-222h64q51 0 70 22q16 19 16 71v37z" />
    <glyph glyph-name="macron" unicode="&#xaf;" horiz-adv-x="266" 
d="M52 896v24h162v-24h-162z" />
    <glyph glyph-name="degree" unicode="&#xb0;" horiz-adv-x="369" 
d="M184 501q-59 0 -102 41q-40 42 -40 102t42 102q42 40 101 40t100 -42q41 -43 41 -100q0 -59 -42 -101q-44 -42 -100 -42zM185 769q-54 0 -89 -36q-36 -36 -36 -89q0 -54 36 -90q35 -35 89 -35q53 0 89 37q35 37 35 88t-37 88q-36 37 -87 37z" />
    <glyph glyph-name="plusminus" unicode="&#xb1;" horiz-adv-x="399" 
d="M214 329v-149h-22v149h-148v21h148v147h22v-147h148v-21h-148zM44 105v21h318v-21h-318z" />
    <glyph glyph-name="twosuperior" unicode="&#xb2;" horiz-adv-x="229" 
d="M81 322v213q0 57 54 61q19 2 37 8q13 7 13 42v90q0 22 -7 40q-13 16 -36 16t-35 -15q-7 -13 -7 -41v-35h-19v34q0 71 61 71q62 0 62 -71v-91q0 -49 -27 -58q-11 -1 -53 -10q-24 -6 -24 -41v-199h104v-14h-123z" />
    <glyph glyph-name="threesuperior" unicode="&#xb3;" horiz-adv-x="229" 
d="M142 315q-61 0 -61 72v37h19v-38q0 -56 42 -56q43 0 43 56v150q0 32 -9 42q-9 11 -40 11h-19v13h19q28 0 42 14q7 15 7 41v78q0 21 -7 39q-14 17 -36 17q-25 0 -35 -16q-7 -11 -7 -40v-35h-19v32q0 73 61 73q62 0 62 -73v-77q0 -41 -34 -59q34 -16 34 -59v-150
q0 -72 -62 -72z" />
    <glyph glyph-name="acute" unicode="&#xb4;" horiz-adv-x="150" 
d="M57 654l-25 13l57 115l26 -13z" />
    <glyph glyph-name="mu" unicode="&#x3bc;" 
d="M154 -9v6h-12q-41 0 -75 29v-235h-23v778h23v-457q0 -100 75 -100t75 100v457h24v-455q0 -92 -64 -113v-16q0 -92 70 -95v-16q-93 3 -93 117z" />
    <glyph glyph-name="paragraph" unicode="&#xb6;" horiz-adv-x="366" 
d="M309 777v-832h-24v832h-60v-832h-24v512h-72q-102 0 -102 105v117q0 65 18 90q23 30 84 30h210v-22h-30z" />
    <glyph glyph-name="periodcentered" unicode="&#xb7;" horiz-adv-x="426" 
d="M336 352l-34 34q-40 -36 -95 -36q-47 0 -90 32l-30 -30l-15 14l30 30q-36 40 -36 96q0 54 36 94l-30 29l15 15l30 -30q43 35 92 35q55 0 95 -37l32 32l14 -15l-32 -33q32 -41 32 -90q0 -51 -33 -91l33 -35zM209 616q-53 0 -89 -36t-36 -88t36 -90q38 -36 89 -36
q53 0 88 36q35 38 35 90q0 54 -36 88q-34 36 -87 36z" />
    <glyph glyph-name="cedilla" unicode="&#xb8;" horiz-adv-x="249" 
d="M115 -179v-1q36 0 36 36v38q0 30 -27 30q-6 2 -12 0h-2v76h12v-66h15q30 0 30 -35v-43q0 -46 -47 -46h-39v11h34z" />
    <glyph glyph-name="onesuperior" unicode="&#xb9;" horiz-adv-x="226" 
d="M115 320v17h16v439l-21 -8v17l40 15v-463h16v-17h-51z" />
    <glyph glyph-name="ordmasculine" unicode="&#xba;" horiz-adv-x="187" 
d="M94 476q-68 0 -68 73v187q0 71 68 71q67 0 67 -71v-187q0 -73 -67 -73zM140 736q0 58 -46 58q-47 0 -47 -58v-189q0 -57 47 -57q46 0 46 57v189z" />
    <glyph glyph-name="guillemotright" unicode="&#xbb;" horiz-adv-x="482" 
d="M210 151v26l188 157l-188 155v27l217 -173v-19zM61 151v26l189 157l-189 155v27l219 -173v-19z" />
    <glyph glyph-name="onequarter" unicode="&#xbc;" horiz-adv-x="291" 
d="M381 275v-270h-19v270h-110l108 210h21v-198h30v-12h-30zM35 5h-22l245 801h22zM-51 326v18h15v438l-22 -9v18l40 16v-463h17v-18h-50zM362 447l-80 -160h80v160z" />
    <glyph glyph-name="onehalf" unicode="&#xbd;" horiz-adv-x="291" 
d="M284 5v212q0 56 53 62q20 3 30 5q15 4 18 21q2 12 2 24v90q0 57 -43 57q-22 0 -36 -17q-7 -18 -7 -40v-35h-17v33q0 73 60 73q61 0 61 -73v-91q0 -36 -11 -46q-9 -9 -43 -15q-20 -3 -44 -16q-6 -7 -6 -32v-197h104v-15h-121zM35 5h-22l245 801h22zM-51 326v18h15v438
l-22 -9v18l40 16v-463h17v-18h-50z" />
    <glyph glyph-name="threequarters" unicode="&#xbe;" horiz-adv-x="291" 
d="M381 275v-270h-19v270h-110l108 210h21v-198h30v-12h-30zM35 5h-22l245 801h22zM-21 315q-62 0 -62 72v37h19v-38q0 -25 7 -40q13 -16 36 -16q42 0 42 56v150q0 32 -9 42q-11 11 -40 11h-20v13h20q30 0 40 12q9 14 9 43v78q0 26 -7 39q-11 17 -35 17q-23 0 -36 -16
q-7 -15 -7 -40v-35h-19v32q0 73 62 73q61 0 61 -73v-77q0 -41 -34 -59q34 -16 34 -59v-150q0 -72 -61 -72zM362 447l-80 -160h80v160z" />
    <glyph glyph-name="questiondown" unicode="&#xbf;" horiz-adv-x="275" 
d="M121 594v27h23v-27h-23zM131 -178q-99 0 -99 118v117q0 54 16 79q21 32 72 39v329h24v-344q-51 -2 -69 -25q-19 -19 -19 -75v-123q0 -97 75 -97t75 97v55h25v-52q0 -118 -100 -118z" />
    <glyph glyph-name="Agrave" unicode="&#xc0;" horiz-adv-x="280" 
d="M156 854l-58 115l26 11l58 -113zM241 5l-53 379h-97l-55 -379h-20l114 794h20l114 -794h-23zM140 731l-47 -326h93z" />
    <glyph glyph-name="Aacute" unicode="&#xc1;" horiz-adv-x="280" 
d="M124 854l-26 13l58 113l26 -11zM241 5l-53 379h-97l-55 -379h-20l114 794h20l114 -794h-23zM140 731l-47 -326h93z" />
    <glyph glyph-name="Acircumflex" unicode="&#xc2;" horiz-adv-x="280" 
d="M176 847l-36 106l-35 -106h-23l43 145h30l43 -145h-22zM241 5l-53 379h-97l-55 -379h-20l114 794h20l114 -794h-23zM140 731l-47 -326h93z" />
    <glyph glyph-name="Atilde" unicode="&#xc3;" horiz-adv-x="280" 
d="M255 908q-41 -42 -70 -39q-17 2 -47 27q-28 23 -45 28q-25 1 -71 -45l3 26q40 42 71 41q13 -2 44 -27q33 -27 47 -28q24 -1 71 44zM241 5l-53 379h-97l-55 -379h-20l114 794h20l114 -794h-23zM140 731l-47 -326h93z" />
    <glyph glyph-name="Adieresis" unicode="&#xc4;" horiz-adv-x="280" 
d="M177 894v27h23v-27h-23zM79 894v27h22v-27h-22zM241 5l-53 379h-97l-55 -379h-20l114 794h20l114 -794h-23zM140 731l-47 -326h93z" />
    <glyph glyph-name="Aring" unicode="&#xc5;" horiz-adv-x="280" 
d="M141 822q-32 0 -57 22q-22 25 -22 57t23 57q23 23 56 23t56 -23q23 -25 23 -57q0 -33 -23 -56t-56 -23zM241 5l-53 379h-97l-55 -379h-20l114 794h20l114 -794h-23zM141 960q-24 0 -41 -17q-16 -16 -16 -42t16 -42q17 -17 41 -17q26 0 41 17q17 16 17 42t-17 42
q-15 17 -41 17zM140 731l-47 -326h93z" />
    <glyph glyph-name="AE" unicode="&#xc6;" horiz-adv-x="475" 
d="M242 5l2 379h-99l-109 -379h-19l228 794h189v-17h-170v-311h170v-15h-170v-435h170v-16h-192zM150 405h94l1 325z" />
    <glyph glyph-name="Ccedilla" unicode="&#xc7;" horiz-adv-x="275" 
d="M139 -179v-1q36 0 36 36v38q0 30 -28 30q-7 2 -12 0h-3v72q-88 10 -88 118v576q0 116 98 116q99 0 99 -116v-53h-24v55q0 98 -75 98t-75 -98v-580q0 -100 75 -100t75 100v59h24v-57q0 -111 -95 -117v-63h15q30 0 30 -35v-43q0 -46 -47 -46h-39v11h34z" />
    <glyph glyph-name="Egrave" unicode="&#xc8;" horiz-adv-x="290" 
d="M161 854l-58 115l26 11l58 -113zM60 5v794h194v-17h-170v-311h170v-15h-170v-435h170v-16h-194z" />
    <glyph glyph-name="Eacute" unicode="&#xc9;" horiz-adv-x="290" 
d="M129 854l-26 13l58 113l26 -11zM60 5v794h194v-17h-170v-311h170v-15h-170v-435h170v-16h-194z" />
    <glyph glyph-name="Ecircumflex" unicode="&#xca;" horiz-adv-x="290" 
d="M181 847l-36 106l-35 -106h-23l43 145h30l42 -145h-21zM47 5v794h194v-17h-170v-311h170v-15h-170v-435h170v-16h-194z" />
    <glyph glyph-name="Edieresis" unicode="&#xcb;" horiz-adv-x="290" 
d="M182 894v27h23v-27h-23zM84 894v27h22v-27h-22zM47 5v794h194v-17h-170v-311h170v-15h-170v-435h170v-16h-194z" />
    <glyph glyph-name="Igrave" unicode="&#xcc;" horiz-adv-x="127" 
d="M81 854l-59 115l25 11l58 -113zM75 799v-2h22v-21h-22v-749h22v-21h-22v-1h-23v1h-21v21h21v749h-21v21h21v2h23z" />
    <glyph glyph-name="Iacute" unicode="&#xcd;" horiz-adv-x="127" 
d="M47 854l-25 13l59 113l24 -11zM75 799v-2h22v-21h-22v-749h22v-21h-22v-1h-23v1h-21v21h21v749h-21v21h21v2h23z" />
    <glyph glyph-name="Icircumflex" unicode="&#xce;" horiz-adv-x="127" 
d="M100 847l-36 106l-36 -106h-22l42 145h30l44 -145h-22zM75 799v-2h22v-21h-22v-749h22v-21h-22v-1h-23v1h-21v21h21v749h-21v21h21v2h23z" />
    <glyph glyph-name="Idieresis" unicode="&#xcf;" horiz-adv-x="127" 
d="M101 894v27h23v-27h-23zM4 894v27h21v-27h-21zM75 799v-2h22v-21h-22v-749h22v-21h-22v-1h-23v1h-21v21h21v749h-21v21h21v2h23z" />
    <glyph glyph-name="Eth" unicode="&#xd0;" 
d="M140 5h-96v494h-39v21h39v279h96q62 0 83 -31q18 -22 18 -89v-568q0 -106 -101 -106zM217 690q0 51 -17 71q-18 20 -68 20h-65v-261h103v-21h-103v-478h65q55 0 71 22q14 19 14 71v576z" />
    <glyph glyph-name="Ntilde" unicode="&#xd1;" horiz-adv-x="287" 
d="M259 908q-42 -42 -72 -39q-14 2 -45 26l-5 5q-27 21 -40 24q-24 2 -71 -45l3 26q37 43 70 41q15 -2 45 -27q35 -27 46 -28q24 -2 71 45zM70 799v-2h3l154 -676v678h23l5 -794h-28v13l-157 693v-706h-24v794h24z" />
    <glyph glyph-name="Ograve" unicode="&#xd2;" 
d="M158 854l-57 115l26 11l57 -113zM142 -3q-98 0 -98 117v576q0 116 98 116q99 0 99 -116v-576q0 -117 -99 -117zM217 692q0 98 -75 98t-75 -98v-580q0 -100 75 -100t75 100v580z" />
    <glyph glyph-name="Oacute" unicode="&#xd3;" 
d="M127 854l-26 13l57 113l26 -11zM142 -3q-98 0 -98 117v576q0 116 98 116q99 0 99 -116v-576q0 -117 -99 -117zM217 692q0 98 -75 98t-75 -98v-580q0 -100 75 -100t75 100v580z" />
    <glyph glyph-name="Ocircumflex" unicode="&#xd4;" 
d="M179 847l-37 106l-35 -106h-21l42 145h29l43 -145h-21zM142 -3q-98 0 -98 117v576q0 116 98 116q99 0 99 -116v-576q0 -117 -99 -117zM217 692q0 98 -75 98t-75 -98v-580q0 -100 75 -100t75 100v580z" />
    <glyph glyph-name="Otilde" unicode="&#xd5;" 
d="M257 908q-40 -42 -70 -39q-12 2 -45 26l-7 5q-11 9 -39 24q-24 2 -72 -45l3 26q40 43 70 41q14 -1 47 -27q31 -26 45 -28q25 -2 71 44zM142 -3q-98 0 -98 117v576q0 116 98 116q99 0 99 -116v-576q0 -117 -99 -117zM217 692q0 98 -75 98t-75 -98v-580q0 -100 75 -100
t75 100v580z" />
    <glyph glyph-name="Odieresis" unicode="&#xd6;" 
d="M180 894v27h22v-27h-22zM82 894v27h22v-27h-22zM142 -3q-98 0 -98 117v576q0 116 98 116q99 0 99 -116v-576q0 -117 -99 -117zM217 692q0 98 -75 98t-75 -98v-580q0 -100 75 -100t75 100v580z" />
    <glyph glyph-name="multiply" unicode="&#xd7;" horiz-adv-x="309" 
d="M264 219l-105 105l-105 -105l-16 16l105 104l-105 105l16 15l105 -105l105 105l14 -15l-105 -105l105 -104z" />
    <glyph glyph-name="Oslash" unicode="&#xd8;" 
d="M239 727q2 -22 2 -37v-576q0 -117 -99 -117q-56 0 -85 47l-10 -39h-23l22 82q-2 18 -2 27v576q0 116 98 116q54 0 85 -40l9 40h24zM142 790q-75 0 -75 -98v-521l148 555q-10 64 -73 64zM217 649l-148 -562q5 -75 73 -75q75 0 75 100v537z" />
    <glyph glyph-name="Ugrave" unicode="&#xd9;" 
d="M158 854l-57 115l26 11l57 -113zM142 -3q-98 0 -98 117v685h23v-687q0 -100 75 -100t75 100v687h24v-685q0 -117 -99 -117z" />
    <glyph glyph-name="Uacute" unicode="&#xda;" 
d="M127 854l-26 13l57 113l26 -11zM142 -3q-98 0 -98 117v685h23v-687q0 -100 75 -100t75 100v687h24v-685q0 -117 -99 -117z" />
    <glyph glyph-name="Ucircumflex" unicode="&#xdb;" 
d="M179 847l-37 106l-35 -106h-21l42 145h29l43 -145h-21zM142 -3q-98 0 -98 117v685h23v-687q0 -100 75 -100t75 100v687h24v-685q0 -117 -99 -117z" />
    <glyph glyph-name="Udieresis" unicode="&#xdc;" 
d="M180 894v27h22v-27h-22zM82 894v27h22v-27h-22zM142 -3q-98 0 -98 117v685h23v-687q0 -100 75 -100t75 100v687h24v-685q0 -117 -99 -117z" />
    <glyph glyph-name="Yacute" unicode="&#xdd;" horiz-adv-x="280" 
d="M124 854l-26 13l58 113l26 -11zM151 413v-408h-24v410l-110 384h26l97 -358l100 358h23z" />
    <glyph glyph-name="Thorn" unicode="&#xde;" horiz-adv-x="284" 
d="M147 250h-77v-245h-24v794h24v-208h77q63 0 84 -29q18 -25 18 -92v-115q0 -105 -102 -105zM226 482q0 54 -16 71q-19 21 -70 21h-70v-309h70q52 0 68 21q18 20 18 71v125z" />
    <glyph glyph-name="germandbls" unicode="&#xdf;" horiz-adv-x="326" 
d="M196 -69v17q70 7 70 98v315q0 53 -16 73q-17 20 -69 20h-40v16h8q35 0 54 21q14 20 14 71v130q0 98 -75 98t-75 -98v-683h-23v681q0 116 98 116q99 0 99 -116v-131q0 -62 -32 -88q61 -9 72 -45q10 -36 10 -61v-316q0 -115 -95 -118z" />
    <glyph glyph-name="agrave" unicode="&#xe0;" 
d="M158 652l-57 113l26 13l57 -114zM239 81v-80h-23v20q-32 -24 -74 -24q-98 0 -98 117v122q0 116 98 116q44 0 75 -26v125q0 99 -75 99t-75 -99v-26h-23v24q0 117 98 117q99 0 99 -117v-335q0 -11 -2 -33zM216 266q-7 70 -74 70q-75 0 -75 -97v-127q0 -100 75 -100
q65 0 74 73v181z" />
    <glyph glyph-name="aacute" unicode="&#xe1;" 
d="M127 652l-26 12l57 114l26 -13zM239 81v-80h-23v20q-32 -24 -74 -24q-98 0 -98 117v122q0 116 98 116q44 0 75 -26v125q0 99 -75 99t-75 -99v-26h-23v24q0 117 98 117q99 0 99 -117v-335q0 -11 -2 -33zM216 266q-7 70 -74 70q-75 0 -75 -97v-127q0 -100 75 -100
q65 0 74 73v181z" />
    <glyph glyph-name="acircumflex" unicode="&#xe2;" 
d="M179 647l-37 106l-35 -107h-21l42 145h29l43 -145zM239 81v-80h-23v20q-32 -24 -74 -24q-98 0 -98 117v122q0 116 98 116q44 0 75 -26v125q0 99 -75 99t-75 -99v-26h-23v24q0 117 98 117q99 0 99 -117v-335q0 -11 -2 -33zM216 266q-7 70 -74 70q-75 0 -75 -97v-127
q0 -100 75 -100q65 0 74 73v181z" />
    <glyph glyph-name="atilde" unicode="&#xe3;" 
d="M257 716q-37 -41 -70 -40q-11 2 -45 25l-7 5q-27 24 -39 25q-26 1 -72 -45l3 27q41 42 69 39q15 -2 46 -26q33 -26 47 -27q25 -3 71 43zM239 81v-80h-23v20q-32 -24 -74 -24q-98 0 -98 117v122q0 116 98 116q44 0 75 -26v125q0 99 -75 99t-75 -99v-26h-23v24
q0 117 98 117q99 0 99 -117v-335q0 -11 -2 -33zM216 266q-7 70 -74 70q-75 0 -75 -97v-127q0 -100 75 -100q65 0 74 73v181z" />
    <glyph glyph-name="adieresis" unicode="&#xe4;" 
d="M180 681v28h22v-28h-22zM82 681v28h22v-28h-22zM239 81v-80h-23v20q-32 -24 -74 -24q-98 0 -98 117v122q0 116 98 116q44 0 75 -26v125q0 99 -75 99t-75 -99v-26h-23v24q0 117 98 117q99 0 99 -117v-335q0 -11 -2 -33zM216 266q-7 70 -74 70q-75 0 -75 -97v-127
q0 -100 75 -100q65 0 74 73v181z" />
    <glyph glyph-name="aring" unicode="&#xe5;" 
d="M139 617q-34 0 -55 23q-23 22 -23 56q0 33 23 56t56 23t56 -23t23 -56t-23 -56q-25 -23 -57 -23zM239 81v-80h-23v20q-32 -24 -74 -24q-98 0 -98 117v122q0 116 98 116q44 0 75 -26v125q0 99 -75 99t-75 -99v-26h-23v24q0 117 98 117q99 0 99 -117v-335q0 -11 -2 -33z
M140 755q-23 0 -42 -17q-16 -18 -16 -42t16 -42q19 -17 42 -17q24 0 41 17q16 16 16 42t-16 42q-17 17 -41 17zM216 266q-7 70 -74 70q-75 0 -75 -97v-127q0 -100 75 -100q65 0 74 73v181z" />
    <glyph glyph-name="ae" unicode="&#xe6;" horiz-adv-x="462" 
d="M317 -3q-44 0 -78 31v-27h-23v20q-32 -24 -74 -24q-98 0 -98 117v122q0 116 98 116q44 0 75 -26v125q0 99 -75 99t-75 -99v-26h-23v24q0 117 98 117q61 0 88 -51q27 51 87 51q99 0 99 -117v-143h-174v-194q0 -100 75 -100t75 100v14h24v-12q0 -117 -99 -117zM392 451
q0 99 -75 99t-75 -99v-124h150v124zM216 266q-7 70 -74 70q-75 0 -75 -97v-127q0 -100 75 -100q65 0 74 73v181z" />
    <glyph glyph-name="ccedilla" unicode="&#xe7;" horiz-adv-x="275" 
d="M144 -179v-1q36 0 36 36v38q0 28 -27 30q-6 1 -13 0h-1v73q-95 6 -95 117v335q0 117 98 117q99 0 99 -117v-52h-24v54q0 99 -75 99t-75 -99v-339q0 -100 75 -100t75 100v59h24v-57q0 -107 -90 -118v-62h15q30 0 30 -35v-43q0 -46 -47 -46h-39v11h34z" />
    <glyph glyph-name="egrave" unicode="&#xe8;" 
d="M158 652l-57 113l26 13l57 -114zM142 -3q-98 0 -98 117v335q0 117 98 117q99 0 99 -117v-143h-174v-194q0 -100 75 -100t75 100v14h24v-12q0 -117 -99 -117zM217 451q0 99 -75 99t-75 -99v-124h150v124z" />
    <glyph glyph-name="eacute" unicode="&#xe9;" 
d="M127 652l-26 12l57 114l26 -13zM142 -3q-98 0 -98 117v335q0 117 98 117q99 0 99 -117v-143h-174v-194q0 -100 75 -100t75 100v14h24v-12q0 -117 -99 -117zM217 451q0 99 -75 99t-75 -99v-124h150v124z" />
    <glyph glyph-name="ecircumflex" unicode="&#xea;" 
d="M179 647l-37 106l-35 -107h-21l42 145h29l43 -145zM142 -3q-98 0 -98 117v335q0 117 98 117q99 0 99 -117v-143h-174v-194q0 -100 75 -100t75 100v14h24v-12q0 -117 -99 -117zM217 451q0 99 -75 99t-75 -99v-124h150v124z" />
    <glyph glyph-name="edieresis" unicode="&#xeb;" 
d="M180 681v28h22v-28h-22zM82 681v28h22v-28h-22zM142 -3q-98 0 -98 117v335q0 117 98 117q99 0 99 -117v-143h-174v-194q0 -100 75 -100t75 100v14h24v-12q0 -117 -99 -117zM217 451q0 99 -75 99t-75 -99v-124h150v124z" />
    <glyph glyph-name="igrave" unicode="&#xec;" horiz-adv-x="116" 
d="M74 652l-57 113l25 13l57 -114zM46 5v564h24v-564h-24z" />
    <glyph glyph-name="iacute" unicode="&#xed;" horiz-adv-x="116" 
d="M42 652l-25 12l57 114l25 -13zM46 5v564h24v-564h-24z" />
    <glyph glyph-name="icircumflex" unicode="&#xee;" horiz-adv-x="116" 
d="M94 647l-37 106l-35 -107h-21l42 145h30l42 -145zM46 5v564h24v-564h-24z" />
    <glyph glyph-name="idieresis" unicode="&#xef;" horiz-adv-x="116" 
d="M96 681v28h23v-28h-23zM-3 681v28h23v-28h-23zM46 5v564h24v-564h-24z" />
    <glyph glyph-name="eth" unicode="&#xf0;" horiz-adv-x="359" 
d="M331 592q-40 -43 -70 -40q-3 0 -20 6v-444q0 -117 -97 -117q-100 0 -100 117v241q0 116 95 116q39 0 80 -36v139l-4 4l-6 5q-28 23 -40 23q-22 4 -71 -43l3 26q40 43 69 40q14 -1 49 -28v91q0 98 -75 98t-75 -98v-60h-25v58q0 116 100 116q97 0 97 -116v-107q14 -8 22 -9
q25 -3 71 43zM219 356q0 99 -80 99q-70 0 -70 -99v-244q0 -100 75 -100t75 100v244z" />
    <glyph glyph-name="ntilde" unicode="&#xf1;" 
d="M257 716q-37 -41 -70 -40q-11 2 -45 25l-7 5q-27 24 -39 25q-26 1 -72 -45l3 27q41 42 69 39q15 -2 46 -26q33 -26 47 -27q25 -3 71 43zM217 -3v457q0 100 -75 100t-75 -100v-457h-26v572h24v-29q32 29 77 29q99 0 99 -117v-455h-24z" />
    <glyph glyph-name="ograve" unicode="&#xf2;" 
d="M158 652l-57 113l26 13l57 -114zM142 -3q-98 0 -98 117v335q0 117 98 117q99 0 99 -117v-335q0 -117 -99 -117zM217 451q0 99 -75 99t-75 -99v-339q0 -100 75 -100t75 100v339z" />
    <glyph glyph-name="oacute" unicode="&#xf3;" 
d="M127 652l-26 12l57 114l26 -13zM142 -3q-98 0 -98 117v335q0 117 98 117q99 0 99 -117v-335q0 -117 -99 -117zM217 451q0 99 -75 99t-75 -99v-339q0 -100 75 -100t75 100v339z" />
    <glyph glyph-name="ocircumflex" unicode="&#xf4;" 
d="M179 647l-37 106l-35 -107h-21l42 145h29l43 -145zM142 -3q-98 0 -98 117v335q0 117 98 117q99 0 99 -117v-335q0 -117 -99 -117zM217 451q0 99 -75 99t-75 -99v-339q0 -100 75 -100t75 100v339z" />
    <glyph glyph-name="otilde" unicode="&#xf5;" 
d="M257 716q-37 -41 -70 -40q-11 2 -45 25l-7 5q-27 24 -39 25q-26 1 -72 -45l3 27q41 42 69 39q15 -2 46 -26q33 -26 47 -27q25 -3 71 43zM142 -3q-98 0 -98 117v335q0 117 98 117q99 0 99 -117v-335q0 -117 -99 -117zM217 451q0 99 -75 99t-75 -99v-339q0 -100 75 -100
t75 100v339z" />
    <glyph glyph-name="odieresis" unicode="&#xf6;" 
d="M180 681v28h22v-28h-22zM82 681v28h22v-28h-22zM142 -3q-98 0 -98 117v335q0 117 98 117q99 0 99 -117v-335q0 -117 -99 -117zM217 451q0 99 -75 99t-75 -99v-339q0 -100 75 -100t75 100v339z" />
    <glyph glyph-name="divide" unicode="&#xf7;" horiz-adv-x="377" 
d="M177 429v27h23v-27h-23zM30 329v21h319v-21h-319zM177 210v27h23v-27h-23z" />
    <glyph glyph-name="oslash" unicode="&#xf8;" 
d="M142 -3q-32 0 -61 17l-6 -24h-24l11 43q-18 30 -18 81v335q0 117 98 117q30 0 58 -14l11 38h23l-14 -56q21 -32 21 -85v-335q0 -117 -99 -117zM142 550q-75 0 -75 -99v-350q0 -5 8 -26l121 457q-21 18 -54 18zM217 466q0 12 -4 40l-128 -472q22 -22 57 -22q75 0 75 100
v354z" />
    <glyph glyph-name="ugrave" unicode="&#xf9;" 
d="M158 652l-57 113l26 13l57 -114zM142 -3q-98 0 -98 117v455h23v-457q0 -100 75 -100t75 100v457h24v-455q0 -117 -99 -117z" />
    <glyph glyph-name="uacute" unicode="&#xfa;" 
d="M127 652l-26 12l57 114l26 -13zM142 -3q-98 0 -98 117v455h23v-457q0 -100 75 -100t75 100v457h24v-455q0 -117 -99 -117z" />
    <glyph glyph-name="ucircumflex" unicode="&#xfb;" 
d="M179 647l-37 106l-35 -107h-21l42 145h29l43 -145zM142 -3q-98 0 -98 117v455h23v-457q0 -100 75 -100t75 100v457h24v-455q0 -117 -99 -117z" />
    <glyph glyph-name="udieresis" unicode="&#xfc;" 
d="M180 681v28h22v-28h-22zM82 681v28h22v-28h-22zM142 -3q-98 0 -98 117v455h23v-457q0 -100 75 -100t75 100v457h24v-455q0 -117 -99 -117z" />
    <glyph glyph-name="yacute" unicode="&#xfd;" 
d="M127 652l-26 12l57 114l26 -13zM242 568v-678q0 -116 -98 -116q-100 0 -100 116v57h25v-60q0 -50 13 -70q16 -28 62 -28q75 0 75 98v135q-32 -25 -77 -25q-98 0 -98 117v455h23v-457q0 -100 75 -100t75 100v457h24z" />
    <glyph glyph-name="thorn" unicode="&#xfe;" horiz-adv-x="275" 
d="M136 -4q-44 0 -75 26v-248h-22v968h22v-203q31 26 75 26q100 0 100 -116v-335q0 -118 -100 -118zM212 450q0 100 -76 100q-74 0 -74 -100v-339q0 -99 74 -99q76 0 76 99v339z" />
    <glyph glyph-name="ydieresis" unicode="&#xff;" 
d="M180 681v28h22v-28h-22zM82 681v28h22v-28h-22zM242 568v-678q0 -116 -98 -116q-100 0 -100 116v57h25v-60q0 -50 13 -70q16 -28 62 -28q75 0 75 98v135q-32 -25 -77 -25q-98 0 -98 117v455h23v-457q0 -100 75 -100t75 100v457h24z" />
    <glyph glyph-name="quotesinglbase" unicode="&#x201a;" horiz-adv-x="142" 
d="M81 36l-20 -104h-23l15 77h-19v27h47z" />
    <glyph glyph-name="florin" unicode="&#x192;" horiz-adv-x="301" 
d="M275 708l-1 -6h-20v7q1 3 1 15q0 66 -50 66q-53 0 -61 -81l-14 -165h72l-2 -17h-71l-44 -547q-8 -98 -86 -98q-70 0 -70 80v9q0 5 1 8l1 6h20v-5q-1 -3 -1 -15q0 -66 50 -66q53 0 61 81l59 727q8 99 86 99q70 0 70 -81v-9q0 -5 -1 -8z" />
    <glyph glyph-name="quotedblbase" unicode="&#x201e;" horiz-adv-x="225" 
d="M185 36l-20 -104h-23l15 77h-20v27h48zM81 36l-20 -104h-23l15 77h-19v27h47z" />
    <glyph glyph-name="ellipsis" unicode="&#x2026;" horiz-adv-x="457" 
d="M387 9v27h23v-27h-23zM229 9v27h22v-27h-22zM60 9v27h22v-27h-22z" />
    <glyph glyph-name="dagger" unicode="&#x2020;" 
d="M152 649v-683h-21v683h-76v15h76v135h21v-135h78v-15h-78z" />
    <glyph glyph-name="daggerdbl" unicode="&#x2021;" 
d="M152 76v-110h-21v110h-76v16h76v559h-76v16h76v132h21v-132h78v-16h-78v-559h78v-16h-78z" />
    <glyph glyph-name="circumflex" unicode="&#x2c6;" horiz-adv-x="332" 
d="M203 580l-37 106l-35 -107h-23l43 145h30l43 -145z" />
    <glyph glyph-name="perthousand" unicode="&#x2030;" horiz-adv-x="792" 
d="M637 0q-21 0 -34 5q-3 2 -19 20q-23 28 -23 91v160q0 118 98 118q100 0 100 -118v-160q0 -66 -27 -91q-25 -25 -95 -25zM146 407q-97 0 -97 118v160q0 116 97 116q100 0 100 -116v-160q0 -118 -100 -118zM121 -3h-22l336 809h22zM392 0q-22 0 -34 5q-22 12 -34 50
q-9 30 -9 61v160q0 118 99 118q98 0 98 -118v-160q0 -65 -26 -91q-25 -25 -94 -25zM735 279q0 97 -76 97q-74 0 -74 -97v-165q0 -46 12 -69q15 -30 62 -30q76 0 76 99v165zM222 687q0 98 -76 98q-74 0 -74 -98v-165q0 -47 13 -69q17 -29 61 -29q76 0 76 98v165zM489 279
q0 97 -75 97t-75 -97v-165q0 -49 12 -70q17 -29 63 -29q75 0 75 99v165z" />
    <glyph glyph-name="Scaron" unicode="&#x160;" 
d="M157 847h-29l-42 145h21l35 -107l37 106l21 1zM144 -3q-100 0 -100 117v52h25v-54q0 -98 75 -98t75 98v259q0 80 -75 80q-100 0 -100 118v121q0 116 100 116q97 0 97 -116v-58h-22v60q0 99 -75 99t-75 -99v-126q0 -100 75 -100q87 0 96 -89h1v-263q0 -117 -97 -117z" />
    <glyph glyph-name="guilsinglleft" unicode="&#x2039;" horiz-adv-x="325" 
d="M61 324v19l219 173v-27l-188 -155l188 -157v-26z" />
    <glyph glyph-name="OE" unicode="&#x152;" horiz-adv-x="449" 
d="M219 5v21q-35 -29 -77 -29q-98 0 -98 117v576q0 116 98 116q45 0 77 -28v21h193v-17h-170v-311h170v-15h-170v-435h170v-16h-193zM217 692q0 98 -75 98t-75 -98v-580q0 -100 75 -100t75 100v580z" />
    <glyph glyph-name="quoteleft" unicode="&#x2018;" horiz-adv-x="142" 
d="M32 632l46 169h22l-30 -114h42v-55h-80z" />
    <glyph glyph-name="quoteright" unicode="&#x2019;" horiz-adv-x="142" 
d="M110 801l-47 -169h-21l31 114h-43v55h80z" />
    <glyph glyph-name="quotedblleft" unicode="&#x201c;" horiz-adv-x="289" 
d="M180 632l46 169h22l-30 -114h42v-55h-80zM32 632l46 169h22l-30 -114h42v-55h-80z" />
    <glyph glyph-name="quotedblright" unicode="&#x201d;" horiz-adv-x="289" 
d="M258 801l-47 -169h-22l32 114h-44v55h81zM110 801l-47 -169h-21l31 114h-43v55h80z" />
    <glyph glyph-name="bullet" unicode="&#x2022;" horiz-adv-x="200" 
d="M52 297v92h88v-92h-88z" />
    <glyph glyph-name="endash" unicode="&#x2013;" horiz-adv-x="507" 
d="M4 332v14h500v-14h-500z" />
    <glyph glyph-name="emdash" unicode="&#x2014;" horiz-adv-x="886" 
d="M4 332v14h878v-14h-878z" />
    <glyph glyph-name="tilde" unicode="&#x2dc;" horiz-adv-x="327" 
d="M282 718q-39 -40 -70 -39q-18 2 -45 26l-7 4q-20 17 -39 25q-24 1 -71 -46l2 27q40 43 70 41q13 -2 44 -28q31 -25 49 -27q24 -2 70 44z" />
    <glyph glyph-name="trademark" unicode="&#x2122;" horiz-adv-x="719" 
d="M654 442v320l-153 -232h-22l-147 237v-325h-23v357h27l154 -247l159 247h27v-357h-22zM134 781v-339h-24v339h-103v18h229v-18h-102z" />
    <glyph glyph-name="scaron" unicode="&#x161;" 
d="M157 646h-29l-42 145h21l35 -106l37 106h21zM144 -3q-100 0 -100 117v52h25v-54q0 -98 75 -98t75 98v107q0 74 -75 74q-100 0 -100 122v34q0 117 100 117q97 0 97 -117v-40h-22v42q0 99 -75 99t-75 -99v-29q0 -108 75 -108q87 0 96 -90h1v-110q0 -117 -97 -117z" />
    <glyph glyph-name="guilsinglright" unicode="&#x203a;" horiz-adv-x="325" 
d="M61 151v26l189 157l-189 155v27l219 -173v-19z" />
    <glyph glyph-name="oe" unicode="&#x153;" horiz-adv-x="456" 
d="M317 -3q-60 0 -87 51q-27 -51 -88 -51q-98 0 -98 117v335q0 117 98 117q61 0 88 -51q27 51 87 51q99 0 99 -117v-143h-174v-194q0 -100 75 -100t75 100v14h24v-12q0 -117 -99 -117zM392 451q0 99 -75 99t-75 -99v-124h150v124zM217 451q0 99 -75 99t-75 -99v-339
q0 -100 75 -100t75 100v339z" />
    <glyph glyph-name="Ydieresis" unicode="&#x178;" horiz-adv-x="280" 
d="M177 894v27h23v-27h-23zM79 894v27h22v-27h-22zM151 413v-408h-24v410l-110 384h26l97 -358l100 358h23z" />
    <glyph glyph-name="minus" unicode="&#x2212;" horiz-adv-x="384" 
d="M39 355v24h306v-24h-306z" />
    <glyph glyph-name="ccaron" unicode="&#x10d;" horiz-adv-x="226" 
d="M115 161v18h16v438l-21 -8v18l40 15v-463h16v-18h-51z" />
    <glyph glyph-name="dcroat" unicode="&#x111;" horiz-adv-x="229" 
d="M81 164v212q0 56 54 61q12 1 33 6q17 8 17 44v90q0 22 -7 40q-14 17 -36 17q-24 0 -35 -17q-7 -13 -7 -40v-35h-19v34q0 73 61 73q62 0 62 -73v-91q0 -36 -11 -47q-10 -11 -43 -16q-6 -1 -11.5 -2t-9 -1.5t-6 -1t-3.5 -0.5q-18 -6 -19 -21q-1 -5 -1 -20v-199h104v-13
h-123z" />
    <glyph glyph-name="Gbreve" unicode="&#x11e;" horiz-adv-x="229" 
d="M142 157q-61 0 -61 73v35h19v-38q0 -56 42 -56q43 0 43 56v150q0 31 -9 43q-8 11 -40 11h-19v13h19q30 0 42 13q7 15 7 42v77q0 18 -6 40q-13 16 -37 16q-23 0 -35 -15q-7 -13 -7 -41v-35h-19v34q0 72 61 72q62 0 62 -72v-79q0 -42 -35 -57q35 -17 35 -60v-149
q0 -73 -62 -73z" />
    <glyph glyph-name="gbreve" unicode="&#x11f;" horiz-adv-x="226" 
d="M189 431v-270h-19v270h-110l108 210h21v-197h31v-13h-31zM170 605l-81 -161h81v161z" />
    <glyph glyph-name="dotlessi" unicode="&#x131;" horiz-adv-x="116" 
d="M46 5v564h24v-564h-24z" />
    <glyph glyph-name="Lslash" unicode="&#x141;" horiz-adv-x="246" 
d="M46 5v366l-85 -43l-8 19l93 47v405h24v-392l84 42l8 -19l-92 -47v-362h171v-16h-195z" />
    <glyph glyph-name="lslash" unicode="&#x142;" horiz-adv-x="116" 
d="M70 380v-375h-24v362l-86 -43l-8 19l94 48v378l24 23v-389l83 42l8 -19z" />
    <glyph glyph-name="Zcaron" unicode="&#x17d;" horiz-adv-x="270" 
d="M159 857h-29l-42 145h21l35 -106l37 106h21zM58 21h181v-16h-211l184 776h-181v18h210z" />
    <glyph glyph-name="zcaron" unicode="&#x17e;" horiz-adv-x="270" 
d="M157 646h-29l-42 145h21l35 -106l37 106h21zM57 21h182v-16h-208l191 547h-182v18h209z" />
    <glyph glyph-name="caron" unicode="&#x2c7;" 
d="M157 646h-29l-42 145h21l35 -106l37 106h21z" />
    <glyph glyph-name="fi" unicode="&#xfb01;" horiz-adv-x="261" 
d="M206 669v15q0 47 -12 68q-16 30 -63 30q-75 0 -75 -98v-119h174v-564h-24v544h-150v-543h-24v679q0 118 99 118q100 0 100 -118v-12h-25z" />
    <glyph glyph-name="fl" unicode="&#xfb02;" horiz-adv-x="360" 
d="M287 5v540h-231v-543h-24v679q0 118 99 118q100 0 100 -118v-12h-25v15q0 47 -12 68q-16 30 -63 30q-75 0 -75 -98v-119h231v204l23 23v-787h-23z" />
    <glyph glyph-name="glyph230" horiz-adv-x="175" 
 />
    <glyph glyph-name="glyph231" horiz-adv-x="175" 
 />
    <glyph glyph-name="glyph232" horiz-adv-x="175" 
 />
    <glyph glyph-name="glyph227" horiz-adv-x="150" 
d="M320 318v18l200 53l-1 -20l-153 -43l154 -40v-22z" />
    <glyph glyph-name="glyph228" 
d="M451 449l-25 160l-24 -162h-24l38 249h20l38 -249z" />
    <glyph glyph-name="glyph98" horiz-adv-x="452" 
d="M392 -3v457q0 100 -75 100t-75 -100v-457h-25v457q0 100 -75 100t-75 -100v-457h-26v572h24v-29q32 29 77 29q61 0 88 -47q26 47 87 47q99 0 99 -117v-455h-24z" />
    <glyph glyph-name="glyph99" horiz-adv-x="280" 
d="M210 5l-73 261l-69 -261h-26l83 291l-73 273h23l61 -231l63 231h26l-75 -265l83 -299h-23z" />
    <glyph glyph-name="glyph111" 
d="M131 -59v425q0 95 -71 98v16q95 -3 95 -116v-425q0 -95 70 -98v-16q-94 3 -94 116z" />
    <glyph glyph-name="glyph112" horiz-adv-x="287" 
d="M70 799v-2h3l154 -676v678h23l5 -794h-28v13l-157 693v-706h-24v794h24z" />
    <glyph glyph-name="glyph113" horiz-adv-x="459" 
d="M391 5v794h23v-794h-23zM46 5v794h24v-794h-24z" />
    <glyph glyph-name="glyph114" horiz-adv-x="932" 
d="M642 260q-24 0 -62 20l-7 5q-38 20 -54 20q-31 0 -84 -54v28q43 48 84 48q22 0 62 -23q44 -22 61 -22q32 0 84 55v-29q-46 -48 -84 -48z" />
    <glyph glyph-name="apple" horiz-adv-x="884" 
d="M582 729l-95 -50l150 202l-10 13l-166 -215v5l54 128l149 116zM736 71l-138 -85l-70 18l-68 18l-140 -36l-137 94l-117 322l64 186l177 79l79 -18l73 -18l69 19l80 19l183 -84l-99 -28l36 -73l-129 -29l64 -66l-53 -80h114l-2 -100l91 5z" />
  </font>
</defs>
</svg>
