<?xml version="1.0" standalone="no"?>
<!DOCTYPE svg PUBLIC "-//W3C//DTD SVG 1.1//EN" "http://www.w3.org/Graphics/SVG/1.1/DTD/svg11.dtd" >
<svg xmlns="http://www.w3.org/2000/svg" xmlns:xlink="http://www.w3.org/1999/xlink" version="1.1">
<metadata>
Created by FontForge 20170731 at Tue Apr  2 02:02:23 2002
 By Simon Antony Roberts,,,
Copyright 1987, 1995, 1999 , 2002Adobe Systems Incorporated. All Rights Reserved. 
</metadata>
<defs>
<font id="PrestigeEliteStd-Bd" horiz-adv-x="600" >
  <font-face 
    font-family="Prestige Elite Std"
    font-weight="700"
    font-stretch="normal"
    units-per-em="1000"
    panose-1="2 6 5 9 2 2 6 2 3 4"
    ascent="656"
    descent="-344"
    x-height="414"
    cap-height="600"
    bbox="-20 -288 620 846"
    underline-thickness="50"
    underline-position="-100"
    stemh="36"
    stemv="62"
    unicode-range="U+0020-FB02"
  />
<missing-glyph 
d="M50 0v700h500v-700h-500zM300 395l170 255h-340zM330 350l170 -255v510zM130 50h340l-170 255zM100 605v-510l170 255z" />
    <glyph glyph-name=".notdef" 
d="M50 0v700h500v-700h-500zM300 395l170 255h-340zM330 350l170 -255v510zM130 50h340l-170 255zM100 605v-510l170 255z" />
    <glyph glyph-name="space" unicode=" " 
 />
    <glyph glyph-name="exclam" unicode="!" 
d="M325 154h-50l-35 404c-3 32 29 54 60 54s63 -22 60 -54zM241 45c0 32 28 57 59 57s59 -25 59 -57s-27 -57 -59 -57s-59 25 -59 57z" />
    <glyph glyph-name="quotedbl" unicode="&#x22;" 
d="M218 315h-52l-28 183c-3 22 -8 58 -8 76c0 15 25 38 62 38s62 -23 62 -38c0 -18 -5 -54 -8 -76zM434 315h-52l-28 183c-3 22 -8 58 -8 76c0 15 25 38 62 38s62 -23 62 -38c0 -18 -5 -54 -8 -76z" />
    <glyph glyph-name="numbersign" unicode="#" 
d="M255 805h75l-166 -901h-75l60 326h-133l15 66h130l24 132h-131l12 66h132zM341 -96h-75l166 901h75l-57 -311h133l-13 -66h-133l-24 -132h134l-12 -66h-134z" />
    <glyph glyph-name="dollar" unicode="$" 
d="M336 15v-131h-62v131c-43 0 -122 25 -164 36l5 59c2 28 -5 56 -14 83h67c1 -25 3 -62 17 -82c22 -31 86 -40 120 -40c64 0 128 34 128 104c0 143 -306 90 -306 264c0 82 69 149 147 161v106h62v-106c62 0 108 -16 142 -54c-5 -15 -7 -30 -6 -46l6 -73h-65v28
c0 64 -36 89 -101 89c-62 0 -120 -35 -120 -101c0 -126 306 -80 306 -266c0 -88 -79 -154 -162 -162z" />
    <glyph glyph-name="percent" unicode="%" 
d="M435 16c49 0 58 65 58 101s-9 101 -58 101s-58 -65 -58 -101s9 -101 58 -101zM419 633l34 -20l-278 -638l-34 21zM435 -12c-72 0 -94 69 -94 129s22 129 94 129s94 -69 94 -129s-22 -129 -94 -129zM165 354c-72 0 -94 69 -94 129s22 129 94 129s94 -69 94 -129
s-22 -129 -94 -129zM165 382c49 0 58 65 58 101s-9 101 -58 101s-58 -65 -58 -101s9 -101 58 -101z" />
    <glyph glyph-name="ampersand" unicode="&#x26;" 
d="M373 95l-11 26c-17 39 -29 75 -55 109l-64 85c-58 -20 -85 -75 -85 -135c0 -68 37 -136 112 -136c41 0 76 20 103 51zM539 247h-50c-5 -56 -19 -110 -47 -159c5 -11 17 -33 29 -33c15 0 18 34 21 43l48 -28c-5 -39 -24 -73 -68 -73c-36 0 -49 17 -72 43
c-35 -35 -87 -52 -137 -52c-105 0 -170 94 -170 192c0 77 44 150 115 179c-28 39 -51 88 -51 137c0 70 64 116 129 116c49 0 89 -27 118 -65l-45 -45c-20 24 -42 54 -76 54c-35 0 -61 -27 -61 -62c0 -45 32 -93 59 -128l34 -43c40 -50 74 -102 97 -163c14 47 20 95 21 143
h106v-56z" />
    <glyph glyph-name="quotesingle" unicode="'" 
d="M326 315h-52l-28 183c-3 22 -8 58 -8 76c0 15 25 38 62 38s62 -23 62 -38c0 -18 -5 -54 -8 -76z" />
    <glyph glyph-name="parenleft" unicode="(" 
d="M473 -70l-39 -47c-139 102 -196 241 -196 410s57 308 196 410l39 -47c-128 -81 -170 -219 -170 -363c0 -145 42 -283 170 -363z" />
    <glyph glyph-name="parenright" unicode=")" 
d="M127 656l39 47c139 -102 196 -241 196 -410s-57 -308 -196 -410l-39 47c128 81 170 219 170 363c0 145 -42 283 -170 363z" />
    <glyph glyph-name="asterisk" unicode="*" 
d="M323 494l7 -7c20 14 54 46 80 46c23 0 46 -17 46 -42c0 -55 -82 -44 -116 -49l-4 -6l23 -14c21 -13 51 -30 51 -59c0 -23 -19 -43 -42 -43c-44 0 -58 60 -64 94h-8l-21 -54c-9 -23 -23 -42 -51 -42c-24 0 -40 22 -40 44c0 18 14 31 27 41l47 34l-2 9c-8 0 -21 1 -35 3
c-26 3 -77 3 -77 49c0 21 21 39 41 39c31 0 58 -28 82 -48l9 6c-5 20 -18 52 -18 73c0 25 20 44 45 44c26 0 41 -21 41 -45c0 -22 -14 -53 -21 -73z" />
    <glyph glyph-name="plus" unicode="+" 
d="M575 393v-66h-240v-237h-70v237h-240v66h240v237h70v-237h240z" />
    <glyph glyph-name="comma" unicode="," 
d="M240 -98v58c22 5 42 14 58 30c-33 2 -59 27 -59 61c0 40 29 69 69 69c44 0 73 -39 73 -81c0 -73 -76 -123 -141 -137z" />
    <glyph glyph-name="hyphen" unicode="-" 
d="M428 272h-258v56h258v-56z" />
    <glyph glyph-name="period" unicode="." 
d="M230 57c0 38 32 69 70 69s70 -31 70 -69c0 -39 -32 -69 -70 -69s-70 30 -70 69z" />
    <glyph glyph-name="slash" unicode="/" 
d="M187 -27h-75l301 774h75z" />
    <glyph glyph-name="zero" unicode="0" 
d="M300 -12c-104 0 -207 83 -207 312s103 312 207 312s207 -83 207 -312s-103 -312 -207 -312zM300 556c-124 0 -142 -164 -142 -256s18 -256 142 -256s142 164 142 256s-18 256 -142 256z" />
    <glyph glyph-name="one" unicode="1" 
d="M341 560v-504h134v-56h-339v56h143v469c-34 -6 -68 -12 -103 -10l-28 2l-10 55l34 -3c16 0 38 0 59 4c22 4 42 11 53 24c8 9 14 15 27 15c31 0 30 -30 30 -52z" />
    <glyph glyph-name="two" unicode="2" 
d="M444 122l56 -14l-51 -108h-343v55l190 203c45 48 101 126 101 196c0 60 -52 102 -109 102c-34 0 -68 -12 -90 -39c1 -41 -16 -79 -52 -79c-20 0 -27 16 -27 33c0 86 93 141 171 141c89 0 172 -62 172 -156c0 -78 -43 -148 -93 -203l-163 -178l-19 -19h222z" />
    <glyph glyph-name="three" unicode="3" 
d="M281 299l-51 -5v61c12 -2 24 -4 36 -4c60 0 113 23 113 92c0 66 -37 113 -105 113c-25 0 -50 -8 -69 -24c-2 -31 -24 -72 -59 -72c-19 0 -29 15 -29 33c0 32 24 61 48 80c33 26 75 39 118 39c92 0 161 -71 161 -162c0 -59 -20 -83 -61 -121v-1c60 -45 91 -73 91 -154
c0 -117 -94 -186 -205 -186c-64 0 -133 14 -189 48l25 50c47 -28 105 -42 159 -42c79 0 145 40 145 127c0 81 -48 128 -128 128z" />
    <glyph glyph-name="four" unicode="4" 
d="M375 421h62v-209h86v-56h-86v-100h86v-56h-248v56h100v100h-293v54c82 137 160 280 199 436l62 -17c-39 -150 -117 -286 -198 -417h230v209z" />
    <glyph glyph-name="five" unicode="5" 
d="M440 600v-56h-230l-12 -137l57 5c121 0 212 -71 212 -198c0 -139 -112 -226 -245 -226c-52 0 -98 11 -146 29l16 54c43 -17 79 -27 127 -27c101 0 183 61 183 168c0 88 -59 144 -146 144c-42 0 -83 -8 -123 -20l21 264h286z" />
    <glyph glyph-name="six" unicode="6" 
d="M433 612v-56c-149 1 -221 -83 -253 -221c42 35 79 56 136 56c112 0 189 -90 189 -199s-79 -204 -193 -204c-82 0 -202 53 -202 258c0 203 104 370 323 366zM440 190c0 73 -45 145 -125 145c-76 0 -140 -57 -140 -135c0 -75 51 -156 134 -156c79 0 131 71 131 146z" />
    <glyph glyph-name="seven" unicode="7" 
d="M106 600h377l-252 -612h-67l233 556h-291v56z" />
    <glyph glyph-name="eight" unicode="8" 
d="M439 166c0 77 -73 110 -139 118c-66 -8 -139 -41 -139 -118c0 -71 72 -122 139 -122s139 51 139 122zM300 -12c-104 0 -204 71 -204 178c0 74 53 129 124 152c-58 29 -102 84 -102 151c0 59 47 143 182 143s182 -84 182 -143c0 -67 -44 -122 -102 -151
c71 -23 124 -78 124 -152c0 -107 -100 -178 -204 -178zM300 556c-55 0 -117 -24 -117 -88c0 -72 56 -100 117 -127c61 27 117 55 117 127c0 64 -62 88 -117 88z" />
    <glyph glyph-name="nine" unicode="9" 
d="M147 -9v56l51 -5c130 -13 211 107 232 227c-41 -36 -80 -59 -136 -59c-110 0 -189 87 -189 195c0 111 76 207 192 207c80 0 198 -56 198 -256c0 -185 -92 -368 -299 -368c-16 0 -33 2 -49 3zM300 556c-78 0 -130 -70 -130 -144c0 -73 44 -146 130 -146s130 73 130 146
c0 74 -52 144 -130 144z" />
    <glyph glyph-name="colon" unicode=":" 
d="M230 57c0 38 32 69 70 69s70 -31 70 -69c0 -39 -32 -69 -70 -69s-70 30 -70 69zM230 357c0 38 32 69 70 69s70 -31 70 -69c0 -39 -32 -69 -70 -69s-70 30 -70 69z" />
    <glyph glyph-name="semicolon" unicode=";" 
d="M240 -98v58c22 5 42 14 58 30c-33 2 -59 27 -59 61c0 40 29 69 69 69c44 0 73 -39 73 -81c0 -73 -76 -123 -141 -137zM239 357c0 38 32 69 70 69s70 -31 70 -69c0 -39 -32 -69 -70 -69s-70 30 -70 69z" />
    <glyph glyph-name="less" unicode="&#x3c;" 
d="M475 720l42 -52l-333 -308l333 -308l-42 -52l-393 360z" />
    <glyph glyph-name="equal" unicode="=" 
d="M575 452v-66h-550v66h550zM575 334v-66h-550v66h550z" />
    <glyph glyph-name="greater" unicode="&#x3e;" 
d="M82 668l42 52l393 -360l-393 -360l-42 52l333 308z" />
    <glyph glyph-name="question" unicode="?" 
d="M300 154h-60v35c0 141 129 179 129 275c0 49 -34 92 -85 92c-48 0 -92 -28 -99 -77c4 -10 6 -21 6 -32c0 -19 -11 -41 -33 -41c-33 0 -40 28 -40 55c0 81 71 151 166 151c76 0 149 -58 149 -141c0 -141 -133 -150 -133 -290v-27zM211 45c0 32 28 57 59 57s59 -25 59 -57
s-27 -57 -59 -57s-59 25 -59 57z" />
    <glyph glyph-name="at" unicode="@" 
d="M489 115l23 -56c-68 -43 -149 -71 -231 -71c-131 0 -245 92 -245 262c0 165 95 362 283 362c144 0 244 -110 244 -252c0 -85 -38 -211 -143 -211c-38 0 -51 14 -77 41c-28 -25 -48 -41 -86 -41c-50 0 -86 35 -86 90c0 120 90 194 174 194h74l-22 -137
c-2 -12 -8 -38 -8 -50c0 -21 10 -41 32 -41c61 0 77 104 77 149c0 125 -84 202 -180 202c-73 0 -217 -72 -217 -306c0 -123 62 -206 185 -206c76 0 140 32 203 71zM334 308l14 66c-25 -5 -53 -6 -70 -26c-21 -25 -42 -76 -42 -109c0 -16 7 -34 25 -34c34 0 60 42 73 103z
" />
    <glyph glyph-name="A" unicode="A" 
d="M296 656l235 -600h50v-56h-202v56h86l-48 129h-238l-47 -129h87v-56h-200v56h50zM397 241l-101 275l-98 -275h199z" />
    <glyph glyph-name="B" unicode="B" 
d="M224 295v-237l119 -12c81 -8 134 46 134 121c0 65 -38 128 -174 128h-79zM71 -11l-14 47l105 20v476l-104 7v61c37 -4 75 -12 112 -12c56 0 111 12 167 12c79 0 155 -48 155 -134c0 -52 -34 -105 -80 -131c81 -26 130 -82 130 -169c0 -112 -75 -166 -172 -166
c-55 0 -111 12 -166 12c-47 0 -95 -13 -133 -23zM224 533v-182h44c123 0 159 58 159 112c0 56 -42 81 -95 81c-36 0 -73 -5 -108 -11z" />
    <glyph glyph-name="C" unicode="C" 
d="M464 578l13 34l56 -18c-14 -33 -20 -69 -18 -105l5 -76l-59 -10c-4 92 -27 153 -131 153c-139 0 -186 -139 -186 -255c0 -113 50 -257 184 -257c102 0 140 68 140 162h62v-128c-56 -54 -126 -90 -205 -90c-108 0 -246 83 -246 318c0 229 138 306 248 306
c47 0 96 -13 137 -34z" />
    <glyph glyph-name="D" unicode="D" 
d="M186 536v-480h100c108 0 181 60 181 228c0 200 -121 270 -209 260zM154 4l-103 -12l-9 56l82 8v480l-79 17l2 47c32 -4 63 -12 95 -12c39 0 77 12 123 12c145 0 267 -94 267 -304c0 -220 -110 -296 -244 -296c-45 0 -90 9 -134 4z" />
    <glyph glyph-name="E" unicode="E" 
d="M372 544h-169v-189h137v84h62v-234h-62v94h-137v-243h187c76 0 83 9 83 120v19h62v-195h-494v56h100v488h-100v56h475v-174h-62v26c0 83 -3 92 -82 92z" />
    <glyph glyph-name="F" unicode="F" 
d="M55 600h473v-174h-62v26c0 80 -4 92 -83 92h-168v-205h137v85h62v-235h-62v94h-137v-227h176v-56h-336v56h98v488h-98v56z" />
    <glyph glyph-name="G" unicode="G" 
d="M453 574l14 39l52 -16c-10 -33 -16 -67 -16 -101c0 -29 4 -57 9 -85l-63 -9c-7 91 -27 154 -134 154c-72 0 -190 -46 -190 -245c0 -187 95 -267 177 -267c45 0 112 17 139 55c16 22 13 58 13 85v21h-133v56h256v-56h-61v-126c-53 -52 -130 -91 -205 -91
c-171 0 -251 161 -251 312c0 228 135 312 255 312c55 0 90 -14 138 -38z" />
    <glyph glyph-name="H" unicode="H" 
d="M33 600h228v-56h-83v-208h244v208h-83v56h228v-56h-83v-488h83v-56h-228v56h83v224h-244v-224h83v-56h-228v56h83v488h-83v56z" />
    <glyph glyph-name="I" unicode="I" 
d="M109 600h382v-56h-160v-488h160v-56h-382v56h160v488h-160v56z" />
    <glyph glyph-name="J" unicode="J" 
d="M252 600h289v-56h-102v-405c0 -111 -44 -151 -177 -151c-62 0 -128 17 -192 55v158h62v-25c0 -71 2 -132 141 -132c99 0 104 36 104 119v381h-125v56z" />
    <glyph glyph-name="K" unicode="K" 
d="M33 600h224v-56h-81v-220c63 11 159 99 236 220h-73v56h223v-56h-80c-51 -84 -112 -167 -192 -226l211 -262h89v-56h-229v56h60l-186 231c-18 -10 -38 -16 -59 -19v-212h81v-56h-224v56h81v488h-81v56z" />
    <glyph glyph-name="L" unicode="L" 
d="M44 600h283v-56h-113v-488h158c110 0 107 19 107 126v28h62v-210h-497v56h108v488h-108v56z" />
    <glyph glyph-name="M" unicode="M" 
d="M20 600h143l137 -299l137 299h143v-56h-70v-488h70v-56h-214v56h82v426h-2l-146 -321l-146 321h-2v-426h83v-56h-215v56h70v488h-70v56z" />
    <glyph glyph-name="N" unicode="N" 
d="M26 600h143l277 -485h2v429h-94v56h219v-56h-63v-544h-64l-284 491v-435h92v-56h-228v56h74v488h-74v56z" />
    <glyph glyph-name="O" unicode="O" 
d="M300 612c166 0 240 -160 240 -312s-74 -312 -240 -312s-240 160 -240 312s74 312 240 312zM300 44c129 0 175 142 175 256s-46 256 -175 256s-175 -142 -175 -256s46 -256 175 -256z" />
    <glyph glyph-name="P" unicode="P" 
d="M72 552v48c35 -4 69 -12 104 -12c57 0 114 12 171 12c95 0 176 -45 176 -157c0 -113 -75 -191 -221 -188l-85 2v-201h150v-56h-295v56h83v486zM217 313l83 -2c107 -3 158 47 158 131c0 75 -53 112 -123 112c-40 0 -79 -8 -118 -12v-229z" />
    <glyph glyph-name="Q" unicode="Q" 
d="M367 60l-81 121l47 38l82 -122c45 64 60 126 60 203c0 114 -46 256 -175 256s-175 -142 -175 -256s46 -256 175 -256c24 0 44 5 67 16zM465 -87l-66 99c-33 -16 -70 -24 -99 -24c-166 0 -240 160 -240 312s74 312 240 312s240 -160 240 -312c0 -95 -21 -170 -90 -253
l53 -78h72v-56h-110z" />
    <glyph glyph-name="R" unicode="R" 
d="M188 537v-210l52 -1c127 -2 176 47 176 112c0 76 -55 106 -125 106c-33 0 -67 -3 -103 -7zM351 283l154 -227h72v-56h-110l-182 273h-97v-217h95v-56h-239v56h82v481l-82 10v53c31 -7 58 -12 92 -12c51 0 103 12 154 12c99 0 191 -45 191 -155c0 -85 -51 -139 -130 -162z
" />
    <glyph glyph-name="S" unicode="S" 
d="M114 450c0 108 102 162 199 162c36 0 81 -9 113 -26l6 39l60 -11l-9 -100c-3 -30 3 -59 9 -88l-61 -9c-2 28 -1 68 -14 93c-19 35 -61 46 -106 46c-55 0 -132 -26 -132 -102c0 -161 323 -73 323 -297c0 -101 -87 -169 -200 -169c-55 0 -92 11 -140 36l-3 -37l-60 8
l10 106c3 30 -4 60 -10 89l60 9l6 -48c9 -71 49 -107 142 -107c59 0 130 31 130 107c0 178 -323 80 -323 299z" />
    <glyph glyph-name="T" unicode="T" 
d="M51 600h498v-211h-62v76c0 70 -6 79 -75 79h-81v-488h131v-56h-324v56h131v488h-81c-69 0 -75 -9 -75 -79v-76h-62v211z" />
    <glyph glyph-name="U" unicode="U" 
d="M353 600h203v-56h-67v-369c0 -130 -64 -187 -189 -187s-189 57 -189 187v369h-67v56h203v-56h-74v-360c0 -108 45 -140 127 -140s127 32 127 140v360h-74v56z" />
    <glyph glyph-name="V" unicode="V" 
d="M28 600h209v-56h-83l146 -468l145 468h-82v56h209v-56h-64l-171 -556h-75l-170 556h-64v56z" />
    <glyph glyph-name="W" unicode="W" 
d="M21 600h181v-56h-78l63 -434h2l111 311l111 -311h2l63 434h-78v56h181v-56h-43l-81 -556h-60l-95 261l-95 -261h-60l-81 556h-43v56z" />
    <glyph glyph-name="X" unicode="X" 
d="M300 359l120 185h-72v56h199v-56h-60l-151 -234l170 -254h65v-56h-224v56h89l-136 202l-136 -202h89v-56h-224v56h65l170 254l-151 234h-60v56h200v-56h-72z" />
    <glyph glyph-name="Y" unicode="Y" 
d="M31 600h212v-56h-82l139 -226l139 226h-82v56h212v-56h-62l-176 -284v-204h131v-56h-324v56h131v204l-176 284h-62v56z" />
    <glyph glyph-name="Z" unicode="Z" 
d="M491 600v-48l-339 -496h229c74 0 82 9 82 112v27h62v-195h-449v48l340 496h-183c-74 0 -82 -11 -82 -112v-27h-62v195h402z" />
    <glyph glyph-name="bracketleft" unicode="[" 
d="M489 703v-56h-145v-700h145v-56h-207v812h207z" />
    <glyph glyph-name="backslash" unicode="\" 
d="M413 -27l-301 774h75l301 -774h-75z" />
    <glyph glyph-name="bracketright" unicode="]" 
d="M111 647v56h207v-812h-207v56h145v700h-145z" />
    <glyph glyph-name="asciicircum" unicode="^" 
d="M177 357h-74l164 323h66l164 -323h-74l-123 242z" />
    <glyph glyph-name="underscore" unicode="_" 
d="M600 -108h-600v36h600v-36z" />
    <glyph glyph-name="grave" unicode="`" 
d="M194 660l188 -151l-36 -44l-203 134z" />
    <glyph glyph-name="a" unicode="a" 
d="M395 0v30c-60 -25 -118 -42 -182 -42c-73 0 -140 34 -140 115c0 82 63 111 132 127c62 15 123 18 190 20v26c0 57 9 94 -67 94c-50 0 -100 -11 -142 -39v-59h-62v96c58 35 130 58 195 58c102 0 138 -27 138 -125v-245h83v-56h-145zM395 93v104c-57 -2 -119 -7 -173 -20
c-41 -10 -84 -24 -84 -74c0 -47 38 -59 78 -59c62 0 123 23 179 49z" />
    <glyph glyph-name="b" unicode="b" 
d="M188 327v-241c26 -29 69 -42 107 -42c97 0 152 69 152 163c0 82 -46 163 -137 163c-46 0 -86 -14 -122 -43zM188 606v-211c43 19 75 31 122 31c124 0 202 -95 202 -214c0 -127 -84 -224 -214 -224c-44 0 -82 13 -118 36c-8 -18 -20 -34 -32 -50l-52 26c25 35 30 36 30 78
v493l-90 -12l-9 51c32 6 82 2 105 29c8 9 14 17 27 17c29 0 29 -28 29 -50z" />
    <glyph glyph-name="c" unicode="c" 
d="M487 88l22 -51c-57 -31 -130 -49 -194 -49c-127 0 -229 84 -229 215c0 132 99 223 229 223c55 0 125 -17 153 -70l-2 -50l3 -51h-64l1 28c2 65 -33 87 -96 87c-93 0 -159 -67 -159 -160c0 -99 67 -166 166 -166c57 0 119 18 170 44z" />
    <glyph glyph-name="d" unicode="d" 
d="M393 80v262c-29 17 -62 28 -96 28c-96 0 -152 -76 -152 -167c0 -81 56 -159 142 -159c38 0 76 14 106 36zM393 0v16c-38 -16 -68 -28 -110 -28c-118 0 -203 102 -203 216s83 222 203 222c35 0 76 -11 110 -21v166l-90 -12l-9 51c32 6 82 2 105 29c8 9 14 17 27 17
c29 0 29 -28 29 -50v-550h78v-56h-140z" />
    <glyph glyph-name="e" unicode="e" 
d="M510 183h-358c6 -87 74 -139 181 -139c63 0 123 20 185 47l18 -51c-63 -31 -141 -52 -211 -52c-181 0 -238 120 -238 210c0 128 94 228 223 228c123 0 204 -77 204 -201c0 -14 -1 -28 -4 -42zM152 239h299c0 78 -65 131 -140 131c-76 0 -144 -56 -159 -131z" />
    <glyph glyph-name="f" unicode="f" 
d="M487 414v-56h-199v-302h177v-56h-356v56h117v302h-147v56h147v59c0 112 41 150 133 150c70 0 152 -23 210 -61l-39 -49c-50 36 -113 54 -172 54c-68 0 -70 -46 -70 -98v-55h199z" />
    <glyph glyph-name="g" unicode="g" 
d="M347 414h144v-56h-73c20 -31 30 -54 30 -92c0 -99 -69 -156 -165 -156l-34 3c-12 -6 -50 -38 -50 -50c0 -7 35 -7 50 -7h153c89 0 142 -35 142 -108c0 -127 -147 -156 -247 -156c-78 0 -209 11 -209 116c0 44 30 85 67 108c-10 7 -21 20 -21 42c0 28 30 53 54 75
c-52 31 -80 70 -80 132c0 86 73 161 159 161c27 0 54 -5 80 -12zM383 265c0 61 -39 105 -101 105c-59 0 -109 -39 -109 -100c0 -68 46 -104 112 -104c67 0 98 42 98 99zM392 0h-169c-32 -22 -71 -46 -71 -89c0 -61 95 -63 139 -63c66 0 188 12 188 93c0 55 -43 59 -87 59z
" />
    <glyph glyph-name="h" unicode="h" 
d="M182 606v-228c51 24 101 48 159 48c48 0 100 -18 123 -63c18 -35 17 -81 17 -120v-187h68v-56h-198v56h68v185c0 61 4 129 -78 129c-57 0 -112 -27 -159 -56v-258h68v-56h-198v56h68v515l-90 -12l-9 51c32 6 82 2 105 29c8 9 14 17 27 17c29 0 29 -28 29 -50z" />
    <glyph glyph-name="i" unicode="i" 
d="M102 0v56h199v300c-34 -6 -68 -12 -103 -10l-85 5l-10 55l91 -6c31 -2 90 2 112 28c8 9 14 15 27 15c31 0 30 -30 30 -52v-335h176v-56h-437zM386 579c0 -35 -30 -62 -64 -62c-35 0 -65 27 -65 62c0 36 30 63 65 63c34 0 64 -27 64 -63z" />
    <glyph glyph-name="j" unicode="j" 
d="M404 391v-388c0 -43 2 -93 -11 -134c-17 -55 -68 -77 -123 -77c-71 0 -150 20 -210 60l40 50c49 -33 107 -54 166 -54c84 0 76 72 76 133v375c-34 -6 -68 -12 -103 -10l-85 5l-10 55l91 -6c31 -2 90 2 112 28c8 9 14 15 27 15c31 0 30 -30 30 -52zM439 579
c0 -35 -30 -62 -64 -62c-35 0 -65 27 -65 62c0 36 30 63 65 63c34 0 64 -27 64 -63z" />
    <glyph glyph-name="k" unicode="k" 
d="M191 606v-403l169 155h-42v56h194v-56h-71l-114 -108l156 -194h77v-56h-196v56h45l-125 156l-93 -79v-77h75v-56h-232v56h95v515l-90 -12l-9 51c32 6 82 2 105 29c8 9 14 17 27 17c29 0 29 -28 29 -50z" />
    <glyph glyph-name="l" unicode="l" 
d="M339 604v-548h167v-56h-416v56h187v513c-34 -6 -68 -9 -103 -10l-58 -2l-10 55l64 1c31 0 90 2 112 28c8 9 14 15 27 15c31 0 30 -30 30 -52z" />
    <glyph glyph-name="m" unicode="m" 
d="M153 328v-272h41v-56h-163v56h60v302l-73 -10l-9 51c32 2 65 6 88 27c8 9 14 17 27 17c29 0 29 -28 29 -50c28 18 58 33 92 33c31 0 60 -14 75 -41c33 25 73 41 115 41c39 0 75 -21 85 -60c7 -25 7 -52 7 -78v-232h60v-56h-163v56h41v232c0 30 6 82 -37 82
c-31 0 -65 -22 -88 -42v-272h41v-56h-144v56h41v232c0 26 3 82 -35 82c-33 0 -65 -23 -90 -42z" />
    <glyph glyph-name="n" unicode="n" 
d="M182 314v-258h68v-56h-198v56h68v302l-73 -10l-9 51c32 2 65 6 88 27c8 9 14 17 27 17c29 0 29 -28 29 -50v-15c51 24 101 48 159 48c48 0 100 -18 123 -63c18 -35 17 -81 17 -120v-187h68v-56h-198v56h68v185c0 61 4 129 -78 129c-57 0 -112 -27 -159 -56z" />
    <glyph glyph-name="o" unicode="o" 
d="M300 -12c-124 0 -218 96 -218 219c0 124 94 219 218 219s218 -95 218 -219c0 -123 -94 -219 -218 -219zM300 44c92 0 153 75 153 163c0 89 -61 163 -153 163s-153 -74 -153 -163c0 -88 61 -163 153 -163z" />
    <glyph glyph-name="p" unicode="p" 
d="M204 304v-235c30 -17 61 -25 95 -25c92 0 153 77 153 165c0 77 -44 161 -130 161c-45 0 -93 -29 -118 -66zM204 7v-148h96v-56h-218v56h60v499l-73 -10l-9 51c32 2 65 6 88 27c8 9 14 17 27 17c29 0 29 -28 29 -50v-11c40 26 69 44 119 44c122 0 194 -103 194 -217
c0 -168 -145 -221 -203 -221c-38 0 -74 9 -110 19z" />
    <glyph glyph-name="q" unicode="q" 
d="M463 340v-481h88v-56h-260v56h110v135c-16 -1 -32 -3 -48 -4c-17 -2 -33 -2 -49 -2c-131 0 -212 84 -212 215c0 172 140 223 207 223c45 0 72 -10 111 -29l21 54l54 -22c-16 -36 -22 -49 -22 -89zM401 50v291c-27 18 -67 29 -100 29c-95 0 -144 -85 -144 -172
c0 -108 64 -154 166 -154c26 0 52 1 78 6z" />
    <glyph glyph-name="r" unicode="r" 
d="M251 264v-208h181v-56h-330v56h87v301l-73 -10l-9 51c32 2 65 6 88 27c8 9 14 17 27 17c29 0 29 -28 29 -50v-53c55 40 108 87 180 87c52 0 85 -35 101 -81l-62 -25c-8 21 -18 50 -45 50c-51 0 -135 -71 -174 -106z" />
    <glyph glyph-name="s" unicode="s" 
d="M430 403l10 44l55 -11c-8 -32 -14 -64 -14 -97c0 -22 2 -43 7 -64l-60 -5l-3 22c-7 49 -22 78 -121 78c-47 0 -116 -14 -116 -74c0 -106 312 -15 312 -187c0 -96 -115 -121 -193 -121c-56 0 -92 10 -143 32l-10 -36l-53 16c8 26 12 53 12 80c0 25 -3 51 -13 74l62 8
c12 -83 30 -118 150 -118c37 0 123 11 123 66c0 111 -312 12 -312 182c0 92 92 134 179 134c44 0 86 -9 128 -23z" />
    <glyph glyph-name="t" unicode="t" 
d="M263 525v-111h233v-56h-233v-200c0 -52 -6 -114 64 -114c54 0 122 17 175 33l20 -53c-61 -17 -139 -36 -201 -36c-75 0 -120 44 -120 142v228h-144v56h144v111h62z" />
    <glyph glyph-name="u" unicode="u" 
d="M418 0v25c-49 -20 -90 -37 -145 -37c-96 0 -152 51 -152 171v199l-73 -10l-9 51c32 2 65 6 88 27c8 9 14 17 27 17c29 0 29 -28 29 -50v-214c0 -103 23 -135 89 -135c50 0 102 20 146 42v272l-73 -10l-9 51c32 2 65 6 88 27c8 9 14 17 27 17c29 0 29 -28 29 -50v-337h80
v-56h-142z" />
    <glyph glyph-name="v" unicode="v" 
d="M44 414h189v-56h-61l128 -301l128 301h-61v56h189v-56h-67l-159 -370h-60l-159 370h-67v56z" />
    <glyph glyph-name="w" unicode="w" 
d="M5 414h196v-56h-71l82 -288l77 235h38l80 -235l80 288h-75v56h183v-56h-52l-99 -370h-69l-67 195l-63 -195h-71l-102 370h-67v56z" />
    <glyph glyph-name="x" unicode="x" 
d="M44 414h222v-56h-73l97 -96l92 96h-62v56h214v-56h-73l-130 -138l164 -164h72v-56h-239v56h84l-122 122l-115 -122h91v-56h-232v56h62l153 163l-140 139h-65v56z" />
    <glyph glyph-name="y" unicode="y" 
d="M40 414h208v-56h-78l135 -260l117 260h-79v56h207v-56h-64l-185 -417c-33 -74 -62 -149 -157 -149c-39 0 -80 14 -111 36l24 54c25 -20 57 -34 90 -34c52 0 78 71 96 111l31 69l-171 330h-63v56z" />
    <glyph glyph-name="z" unicode="z" 
d="M489 414v-48l-310 -310h203c47 0 49 -4 57 37l7 38l3 20h58l-19 -151h-395v54l305 304h-164c-68 0 -58 -3 -68 -73l-3 -20h-60l20 149h366z" />
    <glyph glyph-name="braceleft" unicode="{" 
d="M457 4v-56h-12c-112 0 -184 5 -184 134v124c0 80 -23 76 -99 95v2c76 19 99 15 99 95v124c0 129 72 134 184 134h12v-56c-90 0 -134 -4 -134 -97v-99c0 -43 2 -79 -41 -102c43 -23 41 -59 41 -102v-99c0 -93 44 -97 134 -97z" />
    <glyph glyph-name="bar" unicode="|" 
d="M267 -288v1080h66v-1080h-66z" />
    <glyph glyph-name="braceright" unicode="}" 
d="M145 600v56h12c112 0 184 -5 184 -134v-124c0 -80 23 -76 99 -95v-2c-76 -19 -99 -15 -99 -95v-124c0 -129 -72 -134 -184 -134h-12v56c90 0 134 4 134 97v99c0 43 -2 79 41 102c-43 23 -41 59 -41 102v99c0 93 -44 97 -134 97z" />
    <glyph glyph-name="asciitilde" unicode="~" 
d="M183 434c37 0 84 -18 127 -37s83 -37 107 -37c51 0 93 57 112 98l52 -38c-31 -61 -89 -126 -163 -126c-40 0 -106 30 -144 45c-26 11 -63 29 -91 29c-59 0 -86 -63 -113 -106l-52 39c38 65 81 133 165 133z" />
    <glyph glyph-name="uni00A0" unicode="&#xa0;" 
 />
    <glyph glyph-name="exclamdown" unicode="&#xa1;" 
d="M275 261h50l35 -404c3 -32 -29 -54 -60 -54s-63 22 -60 54zM241 369c0 32 28 57 59 57s59 -25 59 -57s-27 -57 -59 -57s-59 25 -59 57z" />
    <glyph glyph-name="cent" unicode="&#xa2;" 
d="M283 635h62v-108c53 -4 111 -19 141 -66l-3 -40l3 -63h-63v29c0 62 -32 84 -101 84c-90 0 -153 -72 -153 -159c0 -91 62 -169 157 -169c61 0 122 21 176 46l22 -52c-56 -29 -117 -46 -179 -50v-129h-62v129c-108 22 -179 113 -179 221c0 128 71 190 179 219v108z" />
    <glyph glyph-name="sterling" unicode="&#xa3;" 
d="M245 106c-18 20 -35 38 -64 38c-32 0 -49 -20 -49 -51c0 -27 19 -49 46 -49c32 0 62 32 67 62zM257 337h149v-56h-132c15 -46 35 -92 32 -142l-1 -15c21 -29 69 -80 104 -80c50 0 64 57 63 97l57 -9c1 -71 -38 -144 -118 -144c-50 0 -92 35 -124 70
c-33 -41 -55 -70 -112 -70s-108 46 -108 105c0 53 35 107 98 107c27 0 52 -9 77 -17l-31 98h-127v56h108c-11 33 -19 65 -19 101c0 104 64 174 169 174c86 0 171 -59 171 -147c0 -26 -12 -70 -45 -70c-25 0 -37 23 -37 46c0 18 6 31 17 44c-8 46 -63 71 -105 71
c-70 0 -105 -49 -105 -116c0 -38 6 -68 19 -103z" />
    <glyph glyph-name="currency" unicode="&#xa4;" 
d="M120 506l-109 107l33 32l108 -107c42 34 94 52 148 52s106 -18 148 -52l108 107l33 -32l-109 -107c33 -45 50 -90 50 -146s-17 -101 -50 -146l109 -107l-33 -32l-108 107c-42 -34 -94 -52 -148 -52s-106 18 -148 52l-108 -107l-33 32l109 107c-33 45 -50 90 -50 146
s17 101 50 146zM300 169c108 0 191 83 191 191s-83 192 -191 192s-191 -84 -191 -192s83 -191 191 -191z" />
    <glyph glyph-name="yen" unicode="&#xa5;" 
d="M360 306h115v-56h-143v-194h131v-56h-324v56h131v194h-142v56h114l-148 238h-62v56h212v-56h-82l139 -226l139 226h-82v56h211v-56h-61z" />
    <glyph glyph-name="brokenbar" unicode="&#xa6;" 
d="M267 432v360h66v-360h-66zM267 -288v360h66v-360h-66z" />
    <glyph glyph-name="section" unicode="&#xa7;" 
d="M252 220l124 -93c22 12 36 35 36 60c0 35 -28 59 -54 79l-136 103c-18 -17 -34 -32 -34 -59c0 -41 34 -68 64 -90zM286 392l92 -69c44 -33 99 -73 99 -135c0 -45 -26 -75 -62 -99c24 -26 36 -52 36 -88c0 -76 -78 -117 -146 -117c-72 0 -151 47 -151 128c0 23 7 52 35 52
c23 0 35 -25 35 -45c0 -10 -3 -17 -7 -27c15 -37 47 -52 86 -52c42 0 83 21 83 68c0 46 -52 77 -85 102l-101 78c-42 32 -77 69 -77 125c0 43 28 67 57 93c-18 20 -28 51 -28 77c0 82 69 129 145 129c71 0 149 -44 149 -123c0 -20 -7 -50 -33 -50c-21 0 -34 15 -34 36
c0 11 3 21 7 31c-6 35 -56 50 -86 50c-44 0 -83 -24 -83 -72c0 -41 39 -70 69 -92z" />
    <glyph glyph-name="dieresis" unicode="&#xa8;" 
d="M134 562c0 33 28 58 60 58s60 -25 60 -58s-28 -58 -60 -58s-60 25 -60 58zM346 562c0 33 28 58 60 58s60 -25 60 -58s-28 -58 -60 -58s-60 25 -60 58z" />
    <glyph glyph-name="copyright" unicode="&#xa9;" 
d="M300 -12c-118 0 -270 78 -270 312s152 312 270 312s270 -78 270 -312s-152 -312 -270 -312zM300 44c90 0 205 64 205 256s-115 256 -205 256s-205 -64 -205 -256s115 -256 205 -256zM366 448l7 18l34 -15c-7 -17 -10 -35 -9 -54l3 -39l-35 -5c-2 48 -16 76 -63 76
c-61 0 -80 -69 -80 -128c0 -58 21 -129 79 -129c45 0 71 31 70 80h37v-67c-32 -27 -66 -49 -109 -49c-61 0 -129 46 -129 167c0 118 68 162 130 162c25 0 47 -9 65 -17z" />
    <glyph glyph-name="ordfeminine" unicode="&#xaa;" 
d="M456 262v-42h-300v42h300zM355 509v13c0 33 7 52 -37 52c-30 0 -59 -6 -85 -21v-25h-50v49c36 20 85 35 127 35c24 0 57 -3 76 -17c20 -16 19 -42 19 -64v-136h53v-38h-103v16c-34 -13 -71 -23 -108 -23c-45 0 -97 17 -97 71c0 87 145 84 205 88zM355 416v56
c-37 0 -76 -2 -113 -13c-21 -6 -42 -14 -42 -39c0 -26 24 -32 46 -32c39 0 75 14 109 28z" />
    <glyph glyph-name="guillemotleft" unicode="&#xab;" 
d="M287 554l41 -40l-236 -214l236 -214l-41 -40l-278 254zM496 554l41 -40l-236 -214l236 -214l-41 -40l-278 254z" />
    <glyph glyph-name="logicalnot" unicode="&#xac;" 
d="M505 161v225h-480v66h550v-291h-70z" />
    <glyph glyph-name="uni00AD" unicode="&#xad;" 
d="M428 272h-258v56h258v-56z" />
    <glyph glyph-name="registered" unicode="&#xae;" 
d="M169 417v36h122c50 0 100 -21 100 -80c0 -46 -30 -69 -67 -80l73 -109h33v-36h-58l-88 133h-39v-97h33v-36h-109v36h33v233h-33zM245 417v-100h22c58 0 81 23 81 52c0 34 -25 48 -60 48h-43zM300 -12c-118 0 -270 78 -270 312s152 312 270 312s270 -78 270 -312
s-152 -312 -270 -312zM300 44c90 0 205 64 205 256s-115 256 -205 256s-205 -64 -205 -256s115 -256 205 -256z" />
    <glyph glyph-name="macron" unicode="&#xaf;" 
d="M430 522h-260v56h260v-56z" />
    <glyph glyph-name="degree" unicode="&#xb0;" 
d="M87 556c0 118 98 209 213 209c116 0 213 -91 213 -209c0 -117 -97 -208 -213 -208c-115 0 -213 91 -213 208zM167 556c0 -73 60 -132 133 -132s133 59 133 132c0 74 -60 133 -133 133s-133 -59 -133 -133z" />
    <glyph glyph-name="plusminus" unicode="&#xb1;" 
d="M575 444v-66h-240v-237h-70v237h-240v66h240v237h70v-237h240zM575 105v-66h-550v66h550z" />
    <glyph glyph-name="uni00B2" unicode="&#xb2;" 
d="M366 356l39 -9l-30 -62h-184v33l13 13c43 43 145 136 145 195c0 30 -27 50 -55 50c-20 0 -30 -4 -44 -17c0 -23 -10 -44 -33 -44c-13 0 -19 9 -19 21c0 48 54 76 96 76c48 0 98 -31 98 -83c0 -40 -21 -72 -45 -103l-91 -97l-8 -8h98z" />
    <glyph glyph-name="uni00B3" unicode="&#xb3;" 
d="M290 442l-33 -3v40c9 -2 17 -3 25 -3c30 0 58 10 58 45c0 29 -19 55 -51 55c-11 0 -28 -1 -36 -11c-2 -19 -15 -39 -37 -39c-11 0 -20 9 -20 20c0 40 58 66 91 66c54 0 96 -34 96 -89c0 -29 -12 -44 -32 -62c31 -22 48 -41 48 -81c0 -68 -58 -101 -119 -101
c-36 0 -74 9 -104 27l17 33c26 -16 56 -24 87 -24c40 0 76 19 76 63c0 41 -26 64 -66 64z" />
    <glyph glyph-name="acute" unicode="&#xb4;" 
d="M406 660l51 -61l-202 -134l-37 44z" />
    <glyph glyph-name="mu" unicode="&#xb5;" 
d="M414 191v223h62v-414h-62v43c-26 -34 -68 -55 -112 -55c-45 0 -88 18 -116 52v-237h-62v611h62v-233c0 -94 47 -137 114 -137s114 53 114 147z" />
    <glyph glyph-name="paragraph" unicode="&#xb6;" 
d="M269 -91v359c-96 -3 -179 63 -179 165c0 62 31 167 190 167h230v-46h-36v-645h-62v645h-81v-645h-62z" />
    <glyph glyph-name="periodcentered" unicode="&#xb7;" 
d="M220 360c0 43 37 80 80 80s80 -37 80 -80s-37 -80 -80 -80s-80 37 -80 80z" />
    <glyph glyph-name="cedilla" unicode="&#xb8;" 
d="M341 30l-15 -54c54 1 109 -25 109 -86c0 -69 -69 -96 -128 -96c-39 0 -80 9 -114 28v59c35 -16 72 -31 111 -31c25 0 66 9 66 40c0 27 -38 30 -58 30l-61 -6l29 116h61z" />
    <glyph glyph-name="uni00B9" unicode="&#xb9;" 
d="M327 578v-257h63v-36h-175v36h69v239c-17 -4 -34 -6 -50 -5l-21 1l-6 34h19c13 0 51 1 59 10c7 7 10 12 21 12c22 0 21 -18 21 -34z" />
    <glyph glyph-name="ordmasculine" unicode="&#xba;" 
d="M450 262v-42h-300v42h300zM300 350c-75 0 -144 52 -144 131c0 80 69 131 144 131s144 -51 144 -131c0 -79 -69 -131 -144 -131zM300 574c-53 0 -94 -40 -94 -93s41 -93 94 -93s94 40 94 93s-41 93 -94 93z" />
    <glyph glyph-name="guillemotright" unicode="&#xbb;" 
d="M63 514l41 40l278 -254l-278 -254l-41 40l236 214zM272 514l41 40l278 -254l-278 -254l-41 40l236 214z" />
    <glyph glyph-name="onequarter" unicode="&#xbc;" 
d="M434 633l40 -23l-278 -638l-40 24zM496 226h43v-108h46v-36h-46v-46h46v-36h-143v36h54v46h-159v31c45 73 88 149 109 233l43 -12c-21 -78 -63 -149 -106 -216h113v108zM167 578v-257h63v-36h-175v36h69v239c-17 -4 -34 -6 -50 -5l-21 1l-6 34h19c13 0 51 1 59 10
c7 7 10 12 21 12c22 0 21 -18 21 -34z" />
    <glyph glyph-name="onehalf" unicode="&#xbd;" 
d="M425 633l40 -23l-278 -638l-40 24zM535 71l39 -9l-30 -62h-193v32l13 14c41 44 145 135 145 195c0 30 -27 50 -55 50c-20 0 -30 -5 -44 -20c0 -21 -10 -42 -33 -42c-13 0 -19 9 -19 21c0 48 54 77 96 77c48 0 98 -32 98 -84c0 -40 -19 -74 -45 -102l-91 -97l-8 -8h107z
M167 578v-257h63v-36h-175v36h69v239c-17 -4 -34 -6 -50 -5l-21 1l-6 34h19c13 0 51 1 59 10c7 7 10 12 21 12c22 0 21 -18 21 -34z" />
    <glyph glyph-name="threequarters" unicode="&#xbe;" 
d="M426 633l40 -23l-278 -638l-40 24zM496 226h43v-108h46v-36h-46v-46h46v-36h-143v36h54v46h-159v31c45 73 88 149 109 233l43 -12c-21 -78 -63 -149 -106 -216h113v108zM130 442l-33 -3v40c9 -2 17 -3 25 -3c30 0 58 10 58 45c0 29 -19 55 -51 55c-11 0 -28 -1 -36 -11
c-2 -19 -15 -39 -37 -39c-11 0 -20 9 -20 20c0 40 58 66 91 66c54 0 96 -34 96 -89c0 -29 -12 -44 -32 -62c31 -22 48 -41 48 -81c0 -68 -58 -101 -119 -101c-36 0 -74 9 -104 27l17 33c26 -16 56 -24 87 -24c40 0 76 19 76 63c0 41 -26 64 -66 64z" />
    <glyph glyph-name="questiondown" unicode="&#xbf;" 
d="M300 261h60v-35c0 -141 -129 -179 -129 -275c0 -49 34 -92 85 -92c48 0 92 28 99 77c-4 10 -6 21 -6 32c0 19 11 41 33 41c33 0 40 -28 40 -55c0 -81 -71 -151 -166 -151c-76 0 -149 58 -149 141c0 141 133 150 133 290v27zM271 369c0 32 28 57 59 57s59 -25 59 -57
s-27 -57 -59 -57s-59 25 -59 57z" />
    <glyph glyph-name="Agrave" unicode="&#xc0;" 
d="M296 656l235 -600h50v-56h-202v56h86l-48 129h-238l-47 -129h87v-56h-200v56h50zM397 241l-101 275l-98 -275h199zM194 846l188 -151l-36 -44l-203 134z" />
    <glyph glyph-name="Aacute" unicode="&#xc1;" 
d="M296 656l235 -600h50v-56h-202v56h86l-48 129h-238l-47 -129h87v-56h-200v56h50zM397 241l-101 275l-98 -275h199zM394 846l51 -61l-202 -134l-37 44z" />
    <glyph glyph-name="Acircumflex" unicode="&#xc2;" 
d="M296 656l235 -600h50v-56h-202v56h86l-48 129h-238l-47 -129h87v-56h-200v56h50zM397 241l-101 275l-98 -275h199zM300 749l-141 -96l-37 37l178 154l178 -154l-37 -37z" />
    <glyph glyph-name="Atilde" unicode="&#xc3;" 
d="M296 656l235 -600h50v-56h-202v56h86l-48 129h-238l-47 -129h87v-56h-200v56h50zM397 241l-101 275l-98 -275h199zM204 692h-64c-2 30 3 59 17 81s37 36 71 36c29 0 56 -13 80 -27s45 -28 60 -28c28 0 26 39 28 58h64c3 -30 -3 -59 -17 -81s-38 -36 -74 -36
c-29 0 -57 16 -82 30c-14 8 -38 24 -55 24c-29 0 -29 -37 -28 -57z" />
    <glyph glyph-name="Adieresis" unicode="&#xc4;" 
d="M296 656l235 -600h50v-56h-202v56h86l-48 129h-238l-47 -129h87v-56h-200v56h50zM397 241l-101 275l-98 -275h199zM134 748c0 33 28 58 60 58s60 -25 60 -58s-28 -58 -60 -58s-60 25 -60 58zM346 748c0 33 28 58 60 58s60 -25 60 -58s-28 -58 -60 -58s-60 25 -60 58z" />
    <glyph glyph-name="Aring" unicode="&#xc5;" 
d="M296 656l235 -600h50v-56h-202v56h86l-48 129h-238l-47 -129h87v-56h-200v56h50zM397 241l-101 275l-98 -275h199zM208 748c0 50 43 89 92 89c50 0 92 -38 92 -89c0 -50 -42 -89 -92 -89s-92 39 -92 89zM267 748c0 -19 12 -40 33 -40s33 21 33 40s-12 40 -33 40
s-33 -21 -33 -40z" />
    <glyph glyph-name="AE" unicode="&#xc6;" 
d="M300 242v302h-22l-104 -302h126zM430 544h-68v-190h59v67h62v-187h-62v64h-59v-242h63c73 0 84 3 84 79v56h62v-191h-317v56h46v130h-145l-45 -130h82v-56h-175v56h31l189 544h334v-167h-62v18c0 91 -13 93 -79 93z" />
    <glyph glyph-name="Ccedilla" unicode="&#xc7;" 
d="M464 578l13 34l56 -18c-14 -33 -20 -69 -18 -105l5 -76l-59 -10c-4 92 -27 153 -131 153c-139 0 -186 -139 -186 -255c0 -113 50 -257 184 -257c102 0 140 68 140 162h62v-128c-55 -53 -124 -89 -201 -90l-3 -12c54 1 109 -25 109 -86c0 -69 -69 -96 -128 -96
c-39 0 -80 9 -114 28v59c35 -16 72 -31 111 -31c25 0 66 9 66 40c0 27 -38 30 -58 30l-61 -6l20 82c-95 23 -192 113 -192 310c0 229 138 306 248 306c47 0 96 -13 137 -34z" />
    <glyph glyph-name="Egrave" unicode="&#xc8;" 
d="M372 544h-169v-189h137v84h62v-234h-62v94h-137v-243h187c76 0 83 9 83 120v19h62v-195h-494v56h100v488h-100v56h475v-174h-62v26c0 83 -3 92 -82 92zM194 846l188 -151l-36 -44l-203 134z" />
    <glyph glyph-name="Eacute" unicode="&#xc9;" 
d="M372 544h-169v-189h137v84h62v-234h-62v94h-137v-243h187c76 0 83 9 83 120v19h62v-195h-494v56h100v488h-100v56h475v-174h-62v26c0 83 -3 92 -82 92zM406 846l51 -61l-202 -134l-37 44z" />
    <glyph glyph-name="Ecircumflex" unicode="&#xca;" 
d="M372 544h-169v-189h137v84h62v-234h-62v94h-137v-243h187c76 0 83 9 83 120v19h62v-195h-494v56h100v488h-100v56h475v-174h-62v26c0 83 -3 92 -82 92zM300 749l-141 -96l-37 37l178 154l178 -154l-37 -37z" />
    <glyph glyph-name="Edieresis" unicode="&#xcb;" 
d="M372 544h-169v-189h137v84h62v-234h-62v94h-137v-243h187c76 0 83 9 83 120v19h62v-195h-494v56h100v488h-100v56h475v-174h-62v26c0 83 -3 92 -82 92zM134 748c0 33 28 58 60 58s60 -25 60 -58s-28 -58 -60 -58s-60 25 -60 58zM346 748c0 33 28 58 60 58s60 -25 60 -58
s-28 -58 -60 -58s-60 25 -60 58z" />
    <glyph glyph-name="Igrave" unicode="&#xcc;" 
d="M109 600h382v-56h-160v-488h160v-56h-382v56h160v488h-160v56zM194 846l188 -151l-36 -44l-203 134z" />
    <glyph glyph-name="Iacute" unicode="&#xcd;" 
d="M109 600h382v-56h-160v-488h160v-56h-382v56h160v488h-160v56zM406 846l51 -61l-202 -134l-37 44z" />
    <glyph glyph-name="Icircumflex" unicode="&#xce;" 
d="M109 600h382v-56h-160v-488h160v-56h-382v56h160v488h-160v56zM300 749l-141 -96l-37 37l178 154l178 -154l-37 -37z" />
    <glyph glyph-name="Idieresis" unicode="&#xcf;" 
d="M109 600h382v-56h-160v-488h160v-56h-382v56h160v488h-160v56zM134 748c0 33 28 58 60 58s60 -25 60 -58s-28 -58 -60 -58s-60 25 -60 58zM346 748c0 33 28 58 60 58s60 -25 60 -58s-28 -58 -60 -58s-60 25 -60 58z" />
    <glyph glyph-name="Eth" unicode="&#xd0;" 
d="M206 536v-190h96v-56h-96v-234h100c108 0 181 60 181 228c0 200 -121 270 -209 260zM174 4l-103 -12l-9 56l82 8v234h-82v56h82v190l-79 17l2 47c32 -4 63 -12 95 -12c39 0 77 12 123 12c145 0 267 -94 267 -304c0 -220 -110 -296 -244 -296c-45 0 -90 9 -134 4z" />
    <glyph glyph-name="Ntilde" unicode="&#xd1;" 
d="M26 600h143l277 -485h2v429h-94v56h219v-56h-63v-544h-64l-284 491v-435h92v-56h-228v56h74v488h-74v56zM204 692h-64c-2 30 3 59 17 81s37 36 71 36c29 0 56 -13 80 -27s45 -28 60 -28c28 0 26 39 28 58h64c3 -30 -3 -59 -17 -81s-38 -36 -74 -36c-29 0 -57 16 -82 30
c-14 8 -38 24 -55 24c-29 0 -29 -37 -28 -57z" />
    <glyph glyph-name="Ograve" unicode="&#xd2;" 
d="M300 612c166 0 240 -160 240 -312s-74 -312 -240 -312s-240 160 -240 312s74 312 240 312zM300 44c129 0 175 142 175 256s-46 256 -175 256s-175 -142 -175 -256s46 -256 175 -256zM194 846l188 -151l-36 -44l-203 134z" />
    <glyph glyph-name="Oacute" unicode="&#xd3;" 
d="M300 612c166 0 240 -160 240 -312s-74 -312 -240 -312s-240 160 -240 312s74 312 240 312zM300 44c129 0 175 142 175 256s-46 256 -175 256s-175 -142 -175 -256s46 -256 175 -256zM406 846l51 -61l-202 -134l-37 44z" />
    <glyph glyph-name="Ocircumflex" unicode="&#xd4;" 
d="M300 612c166 0 240 -160 240 -312s-74 -312 -240 -312s-240 160 -240 312s74 312 240 312zM300 44c129 0 175 142 175 256s-46 256 -175 256s-175 -142 -175 -256s46 -256 175 -256zM300 749l-141 -96l-37 37l178 154l178 -154l-37 -37z" />
    <glyph glyph-name="Otilde" unicode="&#xd5;" 
d="M300 612c166 0 240 -160 240 -312s-74 -312 -240 -312s-240 160 -240 312s74 312 240 312zM300 44c129 0 175 142 175 256s-46 256 -175 256s-175 -142 -175 -256s46 -256 175 -256zM204 692h-64c-2 30 3 59 17 81s37 36 71 36c29 0 56 -13 80 -27s45 -28 60 -28
c28 0 26 39 28 58h64c3 -30 -3 -59 -17 -81s-38 -36 -74 -36c-29 0 -57 16 -82 30c-14 8 -38 24 -55 24c-29 0 -29 -37 -28 -57z" />
    <glyph glyph-name="Odieresis" unicode="&#xd6;" 
d="M300 612c166 0 240 -160 240 -312s-74 -312 -240 -312s-240 160 -240 312s74 312 240 312zM300 44c129 0 175 142 175 256s-46 256 -175 256s-175 -142 -175 -256s46 -256 175 -256zM134 748c0 33 28 58 60 58s60 -25 60 -58s-28 -58 -60 -58s-60 25 -60 58zM346 748
c0 33 28 58 60 58s60 -25 60 -58s-28 -58 -60 -58s-60 25 -60 58z" />
    <glyph glyph-name="multiply" unicode="&#xd7;" 
d="M300 312l-227 -228l-48 48l228 228l-228 228l48 48l227 -228l227 228l48 -48l-228 -228l228 -228l-48 -48z" />
    <glyph glyph-name="Oslash" unicode="&#xd8;" 
d="M166 34l-37 -59l-50 32l45 70c-49 71 -64 149 -64 223c0 152 74 312 240 312c49 0 95 -15 133 -46l35 55l50 -32l-42 -66c49 -71 64 -137 64 -223c0 -152 -74 -312 -240 -312c-49 0 -95 15 -134 46zM440 466l-242 -381c28 -27 63 -41 102 -41c129 0 175 142 175 256
c0 57 -12 120 -35 166zM160 134l242 382c-29 26 -63 40 -102 40c-129 0 -174 -142 -175 -256c0 -57 9 -115 35 -166z" />
    <glyph glyph-name="Ugrave" unicode="&#xd9;" 
d="M353 600h203v-56h-67v-369c0 -130 -64 -187 -189 -187s-189 57 -189 187v369h-67v56h203v-56h-74v-360c0 -108 45 -140 127 -140s127 32 127 140v360h-74v56zM194 846l188 -151l-36 -44l-203 134z" />
    <glyph glyph-name="Uacute" unicode="&#xda;" 
d="M353 600h203v-56h-67v-369c0 -130 -64 -187 -189 -187s-189 57 -189 187v369h-67v56h203v-56h-74v-360c0 -108 45 -140 127 -140s127 32 127 140v360h-74v56zM406 846l51 -61l-202 -134l-37 44z" />
    <glyph glyph-name="Ucircumflex" unicode="&#xdb;" 
d="M353 600h203v-56h-67v-369c0 -130 -64 -187 -189 -187s-189 57 -189 187v369h-67v56h203v-56h-74v-360c0 -108 45 -140 127 -140s127 32 127 140v360h-74v56zM300 749l-141 -96l-37 37l178 154l178 -154l-37 -37z" />
    <glyph glyph-name="Udieresis" unicode="&#xdc;" 
d="M353 600h203v-56h-67v-369c0 -130 -64 -187 -189 -187s-189 57 -189 187v369h-67v56h203v-56h-74v-360c0 -108 45 -140 127 -140s127 32 127 140v360h-74v56zM134 748c0 33 28 58 60 58s60 -25 60 -58s-28 -58 -60 -58s-60 25 -60 58zM346 748c0 33 28 58 60 58
s60 -25 60 -58s-28 -58 -60 -58s-60 25 -60 58z" />
    <glyph glyph-name="Yacute" unicode="&#xdd;" 
d="M31 600h212v-56h-82l139 -226l139 226h-82v56h212v-56h-62l-176 -284v-204h131v-56h-324v56h131v204l-176 284h-62v56zM406 846l51 -61l-202 -134l-37 44z" />
    <glyph glyph-name="Thorn" unicode="&#xde;" 
d="M72 544v56h227v-56h-82v-94h130c95 0 176 -32 176 -112c0 -82 -75 -136 -221 -136h-85v-146h82v-56h-227v56h83v488h-83zM217 404v-156h83c107 0 158 31 158 88c0 51 -53 68 -123 68h-118z" />
    <glyph glyph-name="germandbls" unicode="&#xdf;" 
d="M276 292v59c70 1 143 9 143 97c0 70 -43 108 -112 108c-117 0 -108 -106 -108 -192v-364h-141v56h79v348c0 169 80 208 170 208c94 0 177 -56 177 -157c0 -66 -19 -93 -71 -129c69 -23 108 -91 108 -161c0 -97 -62 -177 -163 -177c-83 0 -128 54 -128 135v22h59v-20
c0 -47 18 -81 71 -81c63 0 96 58 96 116c0 112 -87 131 -180 132z" />
    <glyph glyph-name="agrave" unicode="&#xe0;" 
d="M395 0v30c-60 -25 -118 -42 -182 -42c-73 0 -140 34 -140 115c0 82 63 111 132 127c62 15 123 18 190 20v26c0 57 9 94 -67 94c-50 0 -100 -11 -142 -39v-59h-62v96c58 35 130 58 195 58c102 0 138 -27 138 -125v-245h83v-56h-145zM395 93v104c-57 -2 -119 -7 -173 -20
c-41 -10 -84 -24 -84 -74c0 -47 38 -59 78 -59c62 0 123 23 179 49zM194 660l188 -151l-36 -44l-203 134z" />
    <glyph glyph-name="aacute" unicode="&#xe1;" 
d="M395 0v30c-60 -25 -118 -42 -182 -42c-73 0 -140 34 -140 115c0 82 63 111 132 127c62 15 123 18 190 20v26c0 57 9 94 -67 94c-50 0 -100 -11 -142 -39v-59h-62v96c58 35 130 58 195 58c102 0 138 -27 138 -125v-245h83v-56h-145zM395 93v104c-57 -2 -119 -7 -173 -20
c-41 -10 -84 -24 -84 -74c0 -47 38 -59 78 -59c62 0 123 23 179 49zM406 660l51 -61l-202 -134l-37 44z" />
    <glyph glyph-name="acircumflex" unicode="&#xe2;" 
d="M395 0v30c-60 -25 -118 -42 -182 -42c-73 0 -140 34 -140 115c0 82 63 111 132 127c62 15 123 18 190 20v26c0 57 9 94 -67 94c-50 0 -100 -11 -142 -39v-59h-62v96c58 35 130 58 195 58c102 0 138 -27 138 -125v-245h83v-56h-145zM395 93v104c-57 -2 -119 -7 -173 -20
c-41 -10 -84 -24 -84 -74c0 -47 38 -59 78 -59c62 0 123 23 179 49zM300 563l-141 -96l-37 37l178 154l178 -154l-37 -37z" />
    <glyph glyph-name="atilde" unicode="&#xe3;" 
d="M395 0v30c-60 -25 -118 -42 -182 -42c-73 0 -140 34 -140 115c0 82 63 111 132 127c62 15 123 18 190 20v26c0 57 9 94 -67 94c-50 0 -100 -11 -142 -39v-59h-62v96c58 35 130 58 195 58c102 0 138 -27 138 -125v-245h83v-56h-145zM395 93v104c-57 -2 -119 -7 -173 -20
c-41 -10 -84 -24 -84 -74c0 -47 38 -59 78 -59c62 0 123 23 179 49zM204 506h-64c-2 30 3 59 17 81s37 36 71 36c29 0 56 -13 80 -27s45 -28 60 -28c28 0 26 39 28 58h64c3 -30 -3 -59 -17 -81s-38 -36 -74 -36c-29 0 -57 16 -82 30c-14 8 -38 24 -55 24
c-29 0 -29 -37 -28 -57z" />
    <glyph glyph-name="adieresis" unicode="&#xe4;" 
d="M395 0v30c-60 -25 -118 -42 -182 -42c-73 0 -140 34 -140 115c0 82 63 111 132 127c62 15 123 18 190 20v26c0 57 9 94 -67 94c-50 0 -100 -11 -142 -39v-59h-62v96c58 35 130 58 195 58c102 0 138 -27 138 -125v-245h83v-56h-145zM395 93v104c-57 -2 -119 -7 -173 -20
c-41 -10 -84 -24 -84 -74c0 -47 38 -59 78 -59c62 0 123 23 179 49zM134 562c0 33 28 58 60 58s60 -25 60 -58s-28 -58 -60 -58s-60 25 -60 58zM346 562c0 33 28 58 60 58s60 -25 60 -58s-28 -58 -60 -58s-60 25 -60 58z" />
    <glyph glyph-name="aring" unicode="&#xe5;" 
d="M395 0v30c-60 -25 -118 -42 -182 -42c-73 0 -140 34 -140 115c0 82 63 111 132 127c62 15 123 18 190 20v26c0 57 9 94 -67 94c-50 0 -100 -11 -142 -39v-59h-62v96c58 35 130 58 195 58c102 0 138 -27 138 -125v-245h83v-56h-145zM395 93v104c-57 -2 -119 -7 -173 -20
c-41 -10 -84 -24 -84 -74c0 -47 38 -59 78 -59c62 0 123 23 179 49zM208 562c0 50 43 89 92 89c50 0 92 -38 92 -89c0 -50 -42 -89 -92 -89s-92 39 -92 89zM267 562c0 -19 12 -40 33 -40s33 21 33 40s-12 40 -33 40s-33 -21 -33 -40z" />
    <glyph glyph-name="ae" unicode="&#xe6;" 
d="M347 239h166c0 66 -25 131 -97 131c-61 0 -69 -39 -69 -109v-22zM285 183h-55c-94 0 -132 -19 -132 -70c0 -47 43 -69 86 -69c39 0 73 15 101 41v98zM573 235l-4 -52h-222v-39c0 -71 8 -100 76 -100c51 0 93 29 130 61l34 -46c-49 -40 -106 -71 -172 -71
c-37 0 -79 14 -103 44c-38 -29 -82 -44 -129 -44c-61 0 -150 33 -150 122c0 60 35 129 187 129h65v34c0 65 -15 97 -66 97c-30 0 -65 -14 -92 -28v-61h-62v98c45 21 105 47 155 47c40 0 72 -14 96 -44c25 32 64 44 104 44c97 0 161 -81 153 -191z" />
    <glyph glyph-name="ccedilla" unicode="&#xe7;" 
d="M487 88l22 -51c-56 -30 -127 -48 -190 -49l-3 -12c54 1 109 -25 109 -86c0 -69 -69 -96 -128 -96c-39 0 -80 9 -114 28v59c35 -16 72 -31 111 -31c25 0 66 9 66 40c0 27 -38 30 -58 30l-61 -6l20 80c-101 20 -175 97 -175 209c0 132 99 223 229 223c55 0 125 -17 153 -70
l-2 -50l3 -51h-64l1 28c2 65 -33 87 -96 87c-93 0 -159 -67 -159 -160c0 -99 67 -166 166 -166c57 0 119 18 170 44z" />
    <glyph glyph-name="egrave" unicode="&#xe8;" 
d="M510 183h-358c6 -87 74 -139 181 -139c63 0 123 20 185 47l18 -51c-63 -31 -141 -52 -211 -52c-181 0 -238 120 -238 210c0 128 94 228 223 228c123 0 204 -77 204 -201c0 -14 -1 -28 -4 -42zM152 239h299c0 78 -65 131 -140 131c-76 0 -144 -56 -159 -131zM194 660
l188 -151l-36 -44l-203 134z" />
    <glyph glyph-name="eacute" unicode="&#xe9;" 
d="M510 183h-358c6 -87 74 -139 181 -139c63 0 123 20 185 47l18 -51c-63 -31 -141 -52 -211 -52c-181 0 -238 120 -238 210c0 128 94 228 223 228c123 0 204 -77 204 -201c0 -14 -1 -28 -4 -42zM152 239h299c0 78 -65 131 -140 131c-76 0 -144 -56 -159 -131zM406 660
l51 -61l-202 -134l-37 44z" />
    <glyph glyph-name="ecircumflex" unicode="&#xea;" 
d="M510 183h-358c6 -87 74 -139 181 -139c63 0 123 20 185 47l18 -51c-63 -31 -141 -52 -211 -52c-181 0 -238 120 -238 210c0 128 94 228 223 228c123 0 204 -77 204 -201c0 -14 -1 -28 -4 -42zM152 239h299c0 78 -65 131 -140 131c-76 0 -144 -56 -159 -131zM300 563
l-141 -96l-37 37l178 154l178 -154l-37 -37z" />
    <glyph glyph-name="edieresis" unicode="&#xeb;" 
d="M510 183h-358c6 -87 74 -139 181 -139c63 0 123 20 185 47l18 -51c-63 -31 -141 -52 -211 -52c-181 0 -238 120 -238 210c0 128 94 228 223 228c123 0 204 -77 204 -201c0 -14 -1 -28 -4 -42zM152 239h299c0 78 -65 131 -140 131c-76 0 -144 -56 -159 -131zM134 562
c0 33 28 58 60 58s60 -25 60 -58s-28 -58 -60 -58s-60 25 -60 58zM346 562c0 33 28 58 60 58s60 -25 60 -58s-28 -58 -60 -58s-60 25 -60 58z" />
    <glyph glyph-name="igrave" unicode="&#xec;" 
d="M102 0v56h199v300c-34 -6 -68 -12 -103 -10l-85 5l-10 55l91 -6c31 -2 90 2 112 28c8 9 14 15 27 15c31 0 30 -30 30 -52v-335h176v-56h-437zM194 660l188 -151l-36 -44l-203 134z" />
    <glyph glyph-name="iacute" unicode="&#xed;" 
d="M102 0v56h199v300c-34 -6 -68 -12 -103 -10l-85 5l-10 55l91 -6c31 -2 90 2 112 28c8 9 14 15 27 15c31 0 30 -30 30 -52v-335h176v-56h-437zM406 660l51 -61l-202 -134l-37 44z" />
    <glyph glyph-name="icircumflex" unicode="&#xee;" 
d="M102 0v56h199v300c-34 -6 -68 -12 -103 -10l-85 5l-10 55l91 -6c31 -2 90 2 112 28c8 9 14 15 27 15c31 0 30 -30 30 -52v-335h176v-56h-437zM300 563l-141 -96l-37 37l178 154l178 -154l-37 -37z" />
    <glyph glyph-name="idieresis" unicode="&#xef;" 
d="M102 0v56h199v300c-34 -6 -68 -12 -103 -10l-85 5l-10 55l91 -6c31 -2 90 2 112 28c8 9 14 15 27 15c31 0 30 -30 30 -52v-335h176v-56h-437zM134 562c0 33 28 58 60 58s60 -25 60 -58s-28 -58 -60 -58s-60 25 -60 58zM346 562c0 33 28 58 60 58s60 -25 60 -58
s-28 -58 -60 -58s-60 25 -60 58z" />
    <glyph glyph-name="eth" unicode="&#xf0;" 
d="M300 44c92 0 153 75 153 163c0 89 -61 163 -153 163s-153 -74 -153 -163c0 -88 61 -163 153 -163zM321 599l77 57l26 -35l-68 -51c87 -79 162 -204 162 -363c0 -123 -94 -219 -218 -219s-218 96 -218 219c0 124 94 219 218 219c35 0 74 -9 106 -26
c-25 56 -58 101 -94 138l-92 -69l-26 35l87 65c-30 27 -61 48 -87 65l10 22c36 -8 77 -28 117 -57z" />
    <glyph glyph-name="ntilde" unicode="&#xf1;" 
d="M182 314v-258h68v-56h-198v56h68v302l-73 -10l-9 51c32 2 65 6 88 27c8 9 14 17 27 17c29 0 29 -28 29 -50v-15c51 24 101 48 159 48c48 0 100 -18 123 -63c18 -35 17 -81 17 -120v-187h68v-56h-198v56h68v185c0 61 4 129 -78 129c-57 0 -112 -27 -159 -56zM204 506h-64
c-2 30 3 59 17 81s37 36 71 36c29 0 56 -13 80 -27s45 -28 60 -28c28 0 26 39 28 58h64c3 -30 -3 -59 -17 -81s-38 -36 -74 -36c-29 0 -57 16 -82 30c-14 8 -38 24 -55 24c-29 0 -29 -37 -28 -57z" />
    <glyph glyph-name="ograve" unicode="&#xf2;" 
d="M300 -12c-124 0 -218 96 -218 219c0 124 94 219 218 219s218 -95 218 -219c0 -123 -94 -219 -218 -219zM300 44c92 0 153 75 153 163c0 89 -61 163 -153 163s-153 -74 -153 -163c0 -88 61 -163 153 -163zM194 660l188 -151l-36 -44l-203 134z" />
    <glyph glyph-name="oacute" unicode="&#xf3;" 
d="M300 -12c-124 0 -218 96 -218 219c0 124 94 219 218 219s218 -95 218 -219c0 -123 -94 -219 -218 -219zM300 44c92 0 153 75 153 163c0 89 -61 163 -153 163s-153 -74 -153 -163c0 -88 61 -163 153 -163zM406 660l51 -61l-202 -134l-37 44z" />
    <glyph glyph-name="ocircumflex" unicode="&#xf4;" 
d="M300 -12c-124 0 -218 96 -218 219c0 124 94 219 218 219s218 -95 218 -219c0 -123 -94 -219 -218 -219zM300 44c92 0 153 75 153 163c0 89 -61 163 -153 163s-153 -74 -153 -163c0 -88 61 -163 153 -163zM300 563l-141 -96l-37 37l178 154l178 -154l-37 -37z" />
    <glyph glyph-name="otilde" unicode="&#xf5;" 
d="M300 -12c-124 0 -218 96 -218 219c0 124 94 219 218 219s218 -95 218 -219c0 -123 -94 -219 -218 -219zM300 44c92 0 153 75 153 163c0 89 -61 163 -153 163s-153 -74 -153 -163c0 -88 61 -163 153 -163zM204 506h-64c-2 30 3 59 17 81s37 36 71 36c29 0 56 -13 80 -27
s45 -28 60 -28c28 0 26 39 28 58h64c3 -30 -3 -59 -17 -81s-38 -36 -74 -36c-29 0 -57 16 -82 30c-14 8 -38 24 -55 24c-29 0 -29 -37 -28 -57z" />
    <glyph glyph-name="odieresis" unicode="&#xf6;" 
d="M300 -12c-124 0 -218 96 -218 219c0 124 94 219 218 219s218 -95 218 -219c0 -123 -94 -219 -218 -219zM300 44c92 0 153 75 153 163c0 89 -61 163 -153 163s-153 -74 -153 -163c0 -88 61 -163 153 -163zM134 562c0 33 28 58 60 58s60 -25 60 -58s-28 -58 -60 -58
s-60 25 -60 58zM346 562c0 33 28 58 60 58s60 -25 60 -58s-28 -58 -60 -58s-60 25 -60 58z" />
    <glyph glyph-name="divide" unicode="&#xf7;" 
d="M575 393v-66h-550v66h550zM355 210c0 -30 -25 -55 -55 -55s-55 25 -55 55s25 55 55 55s55 -25 55 -55zM355 510c0 -30 -25 -55 -55 -55s-55 25 -55 55s25 55 55 55s55 -25 55 -55z" />
    <glyph glyph-name="oslash" unicode="&#xf8;" 
d="M179 24l-46 -55l-43 36l46 56c-35 45 -54 87 -54 146c-1 124 94 219 218 219c41 0 84 -13 115 -31l47 57l45 -37l-47 -56c38 -48 58 -89 58 -152c0 -123 -94 -219 -218 -219c-46 0 -83 14 -121 36zM420 312l-204 -243c27 -15 59 -25 84 -25c92 0 153 75 153 163
c0 41 -11 72 -33 105zM176 109l201 241c-24 13 -50 20 -77 20c-92 0 -153 -74 -153 -163c0 -37 9 -67 29 -98z" />
    <glyph glyph-name="ugrave" unicode="&#xf9;" 
d="M418 0v25c-49 -20 -90 -37 -145 -37c-96 0 -152 51 -152 171v199l-73 -10l-9 51c32 2 65 6 88 27c8 9 14 17 27 17c29 0 29 -28 29 -50v-214c0 -103 23 -135 89 -135c50 0 102 20 146 42v272l-73 -10l-9 51c32 2 65 6 88 27c8 9 14 17 27 17c29 0 29 -28 29 -50v-337h80
v-56h-142zM194 660l188 -151l-36 -44l-203 134z" />
    <glyph glyph-name="uacute" unicode="&#xfa;" 
d="M418 0v25c-49 -20 -90 -37 -145 -37c-96 0 -152 51 -152 171v199l-73 -10l-9 51c32 2 65 6 88 27c8 9 14 17 27 17c29 0 29 -28 29 -50v-214c0 -103 23 -135 89 -135c50 0 102 20 146 42v272l-73 -10l-9 51c32 2 65 6 88 27c8 9 14 17 27 17c29 0 29 -28 29 -50v-337h80
v-56h-142zM406 660l51 -61l-202 -134l-37 44z" />
    <glyph glyph-name="ucircumflex" unicode="&#xfb;" 
d="M418 0v25c-49 -20 -90 -37 -145 -37c-96 0 -152 51 -152 171v199l-73 -10l-9 51c32 2 65 6 88 27c8 9 14 17 27 17c29 0 29 -28 29 -50v-214c0 -103 23 -135 89 -135c50 0 102 20 146 42v272l-73 -10l-9 51c32 2 65 6 88 27c8 9 14 17 27 17c29 0 29 -28 29 -50v-337h80
v-56h-142zM300 563l-141 -96l-37 37l178 154l178 -154l-37 -37z" />
    <glyph glyph-name="udieresis" unicode="&#xfc;" 
d="M418 0v25c-49 -20 -90 -37 -145 -37c-96 0 -152 51 -152 171v199l-73 -10l-9 51c32 2 65 6 88 27c8 9 14 17 27 17c29 0 29 -28 29 -50v-214c0 -103 23 -135 89 -135c50 0 102 20 146 42v272l-73 -10l-9 51c32 2 65 6 88 27c8 9 14 17 27 17c29 0 29 -28 29 -50v-337h80
v-56h-142zM134 562c0 33 28 58 60 58s60 -25 60 -58s-28 -58 -60 -58s-60 25 -60 58zM346 562c0 33 28 58 60 58s60 -25 60 -58s-28 -58 -60 -58s-60 25 -60 58z" />
    <glyph glyph-name="yacute" unicode="&#xfd;" 
d="M40 414h208v-56h-78l135 -260l117 260h-79v56h207v-56h-64l-185 -417c-33 -74 -62 -149 -157 -149c-39 0 -80 14 -111 36l24 54c25 -20 57 -34 90 -34c52 0 78 71 96 111l31 69l-171 330h-63v56zM406 660l51 -61l-202 -134l-37 44z" />
    <glyph glyph-name="thorn" unicode="&#xfe;" 
d="M204 304v-235c30 -17 61 -25 95 -25c92 0 153 77 153 165c0 77 -44 161 -130 161c-45 0 -93 -29 -118 -66zM204 562v-180c40 26 69 44 119 44c122 0 194 -103 194 -217c0 -168 -145 -221 -203 -221c-38 0 -74 9 -110 19v-148h96v-56h-218v56h60v668l-73 -10l-9 51
c32 2 65 6 88 27c8 9 14 17 27 17c29 0 29 -28 29 -50z" />
    <glyph glyph-name="ydieresis" unicode="&#xff;" 
d="M40 414h208v-56h-78l135 -260l117 260h-79v56h207v-56h-64l-185 -417c-33 -74 -62 -149 -157 -149c-39 0 -80 14 -111 36l24 54c25 -20 57 -34 90 -34c52 0 78 71 96 111l31 69l-171 330h-63v56zM134 562c0 33 28 58 60 58s60 -25 60 -58s-28 -58 -60 -58s-60 25 -60 58z
M346 562c0 33 28 58 60 58s60 -25 60 -58s-28 -58 -60 -58s-60 25 -60 58z" />
    <glyph glyph-name="dcroat" unicode="&#x111;" 
d="M393 80v262c-29 17 -62 28 -96 28c-96 0 -152 -76 -152 -167c0 -81 56 -159 142 -159c38 0 76 14 106 36zM393 0v16c-38 -16 -68 -28 -110 -28c-118 0 -203 102 -203 216s83 222 203 222c35 0 76 -11 110 -21v63h-147v56h147v47l-90 -12l-9 51c32 6 82 2 105 29
c8 9 14 17 27 17c29 0 29 -28 29 -50v-82h78v-56h-78v-412h78v-56h-140z" />
    <glyph glyph-name="Hbar" unicode="&#x126;" 
d="M178 326h244v81h-244v-81zM484 407v-351h83v-56h-228v56h83v214h-244v-214h83v-56h-228v56h83v351h-83v56h83v81h-83v56h228v-56h-83v-81h244v81h-83v56h228v-56h-83v-81h83v-56h-83z" />
    <glyph glyph-name="hbar" unicode="&#x127;" 
d="M182 606v-82h139v-56h-139v-90c51 24 101 48 159 48c48 0 100 -18 123 -63c18 -35 17 -81 17 -120v-187h68v-56h-198v56h68v185c0 61 4 129 -78 129c-57 0 -112 -27 -159 -56v-258h68v-56h-200v56h70v412h-99v56h99v47l-90 -12l-9 51c32 6 82 2 105 29c8 9 14 17 27 17
c29 0 29 -28 29 -50z" />
    <glyph glyph-name="dotlessi" unicode="&#x131;" 
d="M102 0v56h199v300c-34 -6 -68 -12 -103 -10l-85 5l-10 55l91 -6c31 -2 90 2 112 28c8 9 14 15 27 15c31 0 30 -30 30 -52v-335h176v-56h-437z" />
    <glyph glyph-name="IJ" unicode="&#x132;" 
d="M46 600h222v-56h-80v-488h80v-56h-222v56h80v488h-80v56zM404 600h174v-56h-50v-413c0 -72 -12 -143 -102 -143c-44 0 -85 26 -115 58v156h62v-25c0 -40 -7 -131 55 -131c41 0 38 58 38 86v412h-62v56z" />
    <glyph glyph-name="ij" unicode="&#x133;" 
d="M40 0v56h117v300c-34 -6 -68 -12 -103 -10l-28 2l-10 55l34 -3c16 0 38 0 59 4c22 4 42 11 53 24c8 9 14 15 27 15c31 0 30 -30 30 -52v-335h117v-56h-296zM242 579c0 -35 -30 -62 -64 -62c-35 0 -65 27 -65 62c0 36 30 63 65 63c34 0 64 -27 64 -63zM509 391v-388
c0 -43 2 -93 -11 -134c-17 -55 -68 -77 -123 -77c-71 0 -150 20 -210 60l40 50c49 -33 107 -54 166 -54c84 0 76 72 76 133v375c-34 -6 -68 -12 -103 -10l-28 2l-10 55l34 -3c16 0 38 0 59 4c22 4 42 11 53 24c8 9 14 15 27 15c31 0 30 -30 30 -52zM545 579
c0 -35 -30 -62 -64 -62c-35 0 -65 27 -65 62c0 36 30 63 65 63c34 0 64 -27 64 -63z" />
    <glyph glyph-name="kgreenlandic" unicode="&#x138;" 
d="M191 480v-261l217 266c28 34 80 45 118 45v-56c-28 0 -69 -15 -98 -50l-126 -155l181 -213h77v-56h-196v56h45l-142 170l-76 -93v-77h75v-56h-232v56h95v389l-90 -12l-9 51c32 6 82 2 105 29c8 9 14 17 27 17c29 0 29 -28 29 -50z" />
    <glyph glyph-name="Ldot" unicode="&#x13f;" 
d="M44 600h283v-56h-113v-488h158c110 0 107 19 107 126v28h62v-210h-497v56h108v488h-108v56zM435 414c0 32 27 59 59 59s59 -27 59 -59c0 -33 -27 -60 -59 -60s-59 27 -59 60z" />
    <glyph glyph-name="ldot" unicode="&#x140;" 
d="M482 367c0 32 27 59 59 59s59 -27 59 -59c0 -33 -27 -59 -59 -59s-59 26 -59 59zM289 604v-548h147v-56h-356v56h147v513c-34 -6 -68 -10 -103 -10l-18 -2l-10 55l24 1c16 1 38 0 59 4c22 4 42 11 53 24c8 9 14 15 27 15c31 0 30 -30 30 -52z" />
    <glyph glyph-name="Lslash" unicode="&#x141;" 
d="M214 387l126 66v-65l-126 -66v-266h158c110 0 107 19 107 126v28h62v-210h-496v56h107v232l-121 -66v65l121 66v191h-108v56h283v-56h-113v-157z" />
    <glyph glyph-name="lslash" unicode="&#x142;" 
d="M339 604v-217l139 77v-65l-139 -77v-266h167v-56h-416v56h187v232l-139 -76v65l139 76v216c-34 -6 -68 -9 -103 -10l-58 -2l-10 55l64 1c31 0 90 2 112 28c8 9 14 15 27 15c31 0 30 -30 30 -52z" />
    <glyph glyph-name="napostrophe" unicode="&#x149;" 
d="M273 314v-258h54v-56h-170v56h54v302l-56 -10l-9 51c28 2 55 6 76 27c6 9 11 17 22 17c25 0 29 -28 29 -50v-15c39 24 81 48 131 48c41 0 85 -18 106 -62c17 -36 18 -82 18 -121v-187h53v-56h-168v56h53v185c0 61 -1 129 -62 129c-48 0 -95 -27 -131 -56zM20 394v58
c22 5 42 14 58 30c-33 2 -59 27 -59 61c0 40 29 69 69 69c44 0 73 -39 73 -81c0 -73 -76 -123 -141 -137z" />
    <glyph glyph-name="Eng" unicode="&#x14a;" 
d="M194 600v-80h2c28 60 75 92 134 92c94 0 166 -50 166 -148v-436c0 -98 -84 -108 -146 -108v56c57 0 84 10 84 72v397c0 80 -46 111 -108 111c-73 0 -132 -90 -132 -173v-327h74v-56h-209v56h73v488h-73v56h135z" />
    <glyph glyph-name="eng" unicode="&#x14b;" 
d="M132 56v302l-73 -10l-9 51c32 2 65 6 88 27c8 9 14 17 27 17c29 0 29 -28 29 -50v-15c51 24 101 48 159 48c48 0 100 -18 123 -63c18 -35 17 -81 17 -120v-215c0 -98 -84 -108 -146 -108v56c57 0 84 10 84 72v193c0 61 4 129 -78 129c-57 0 -112 -27 -159 -56v-258h68
v-56h-200v56h70z" />
    <glyph glyph-name="OE" unicode="&#x152;" 
d="M418 544h-71v-188h64v65h62v-187h-62v66h-64v-244h63c73 0 85 0 85 79v56h62v-191h-243c-15 -3 -32 -6 -51 -8s-40 -4 -66 -4c-65 0 -168 79 -168 306c0 221 103 318 168 318c51 0 86 -6 117 -12h243v-167h-62v18c0 89 -15 93 -77 93zM285 52v497c-16 4 -38 7 -77 7
c-59 0 -114 -97 -114 -256c0 -181 67 -256 114 -256c39 0 60 4 77 8z" />
    <glyph glyph-name="oe" unicode="&#x153;" 
d="M558 235l-4 -52h-221v-34c0 -71 2 -105 75 -105c51 0 93 29 130 61l34 -46c-50 -41 -106 -71 -173 -71c-42 0 -60 11 -92 36c-36 -17 -73 -36 -113 -36s-166 46 -166 220c0 109 65 218 184 218c34 0 72 -12 95 -38c32 28 55 38 98 38c97 0 161 -81 153 -191zM271 96v213
c0 39 -13 61 -65 61c-83 0 -113 -89 -113 -161c0 -77 29 -165 118 -165c32 0 60 12 60 52zM333 239h166c0 66 -26 131 -98 131c-60 0 -68 -38 -68 -101v-30z" />
    <glyph glyph-name="Scaron" unicode="&#x160;" 
d="M114 450c0 108 102 162 199 162c36 0 81 -9 113 -26l6 39l60 -11l-9 -100c-3 -30 3 -59 9 -88l-61 -9c-2 28 -1 68 -14 93c-19 35 -61 46 -106 46c-55 0 -132 -26 -132 -102c0 -161 323 -73 323 -297c0 -101 -87 -169 -200 -169c-55 0 -92 11 -140 36l-3 -37l-60 8
l10 106c3 30 -4 60 -10 89l60 9l6 -48c9 -71 49 -107 142 -107c59 0 130 31 130 107c0 178 -323 80 -323 299zM300 747l141 97l37 -38l-178 -154l-178 154l37 38z" />
    <glyph glyph-name="scaron" unicode="&#x161;" 
d="M430 403l10 44l55 -11c-8 -32 -14 -64 -14 -97c0 -22 2 -43 7 -64l-60 -5l-3 22c-7 49 -22 78 -121 78c-47 0 -116 -14 -116 -74c0 -106 312 -15 312 -187c0 -96 -115 -121 -193 -121c-56 0 -92 10 -143 32l-10 -36l-53 16c8 26 12 53 12 80c0 25 -3 51 -13 74l62 8
c12 -83 30 -118 150 -118c37 0 123 11 123 66c0 111 -312 12 -312 182c0 92 92 134 179 134c44 0 86 -9 128 -23zM300 561l141 97l37 -38l-178 -154l-178 154l37 38z" />
    <glyph glyph-name="Tbar" unicode="&#x166;" 
d="M51 600h498v-189h-62v54c0 70 -6 79 -75 79h-81v-222h156v-56h-156v-210h131v-56h-324v56h131v210h-156v56h156v222h-81c-69 0 -75 -9 -75 -79v-54h-62v189z" />
    <glyph glyph-name="tbar" unicode="&#x167;" 
d="M496 274v-56h-233v-60c0 -52 -6 -114 64 -114c54 0 122 17 175 33l20 -53c-61 -17 -139 -36 -201 -36c-75 0 -120 44 -120 142v88h-144v56h144v84h-144v56h144v111h62v-111h233v-56h-233v-84h233z" />
    <glyph glyph-name="Ydieresis" unicode="&#x178;" 
d="M31 600h212v-56h-82l139 -226l139 226h-82v56h212v-56h-62l-176 -284v-204h131v-56h-324v56h131v204l-176 284h-62v56zM134 748c0 33 28 58 60 58s60 -25 60 -58s-28 -58 -60 -58s-60 25 -60 58zM346 748c0 33 28 58 60 58s60 -25 60 -58s-28 -58 -60 -58s-60 25 -60 58z
" />
    <glyph glyph-name="Zcaron" unicode="&#x17d;" 
d="M491 600v-48l-339 -496h229c74 0 82 9 82 112v27h62v-195h-449v48l340 496h-183c-74 0 -82 -11 -82 -112v-27h-62v195h402zM300 747l141 97l37 -38l-178 -154l-178 154l37 38z" />
    <glyph glyph-name="zcaron" unicode="&#x17e;" 
d="M489 414v-48l-310 -310h203c47 0 49 -4 57 37l7 38l3 20h58l-19 -151h-395v54l305 304h-164c-68 0 -58 -3 -68 -73l-3 -20h-60l20 149h366zM300 561l141 97l37 -38l-178 -154l-178 154l37 38z" />
    <glyph glyph-name="florin" unicode="&#x192;" 
d="M355 458l-9 -72h98v-56h-105l-35 -278c-11 -88 -29 -157 -134 -157h-45v56h38c61 0 69 12 81 109l34 270h-107v56h114l11 106c7 70 50 131 135 131h43v-56h-46c-66 0 -67 -59 -73 -109z" />
    <glyph glyph-name="circumflex" unicode="&#x2c6;" 
d="M300 563l-141 -96l-37 37l178 154l178 -154l-37 -37z" />
    <glyph glyph-name="caron" unicode="&#x2c7;" 
d="M300 561l141 97l37 -38l-178 -154l-178 154l37 38z" />
    <glyph glyph-name="uni02C9" unicode="&#x2c9;" 
d="M430 522h-260v56h260v-56z" />
    <glyph glyph-name="breve" unicode="&#x2d8;" 
d="M393 637h58c10 -93 -53 -141 -151 -141s-161 48 -151 141h58c-8 -58 39 -80 93 -80s101 22 93 80z" />
    <glyph glyph-name="dotaccent" unicode="&#x2d9;" 
d="M240 562c0 33 28 58 60 58s60 -25 60 -58s-28 -58 -60 -58s-60 25 -60 58z" />
    <glyph glyph-name="ring" unicode="&#x2da;" 
d="M208 562c0 50 43 89 92 89c50 0 92 -38 92 -89c0 -50 -42 -89 -92 -89s-92 39 -92 89zM267 562c0 -19 12 -40 33 -40s33 21 33 40s-12 40 -33 40s-33 -21 -33 -40z" />
    <glyph glyph-name="ogonek" unicode="&#x2db;" 
d="M436 -113v-60c-37 -14 -65 -23 -104 -23c-65 0 -129 27 -129 101c0 56 43 95 91 116h99c-32 -27 -125 -66 -125 -115c0 -38 31 -46 67 -46c35 0 68 13 101 27z" />
    <glyph glyph-name="tilde" unicode="&#x2dc;" 
d="M204 506h-64c-2 30 3 59 17 81s37 36 71 36c29 0 56 -13 80 -27s45 -28 60 -28c28 0 26 39 28 58h64c3 -30 -3 -59 -17 -81s-38 -36 -74 -36c-29 0 -57 16 -82 30c-14 8 -38 24 -55 24c-29 0 -29 -37 -28 -57z" />
    <glyph glyph-name="hungarumlaut" unicode="&#x2dd;" 
d="M471 660l51 -61l-203 -134l-36 44zM267 660l51 -61l-203 -134l-36 44z" />
    <glyph glyph-name="Gamma" unicode="&#x393;" 
d="M174 600h288v-56h-226v-544h-62v600z" />
    <glyph glyph-name="Theta" unicode="&#x398;" 
d="M300 -12c-123 0 -268 105 -268 312s145 312 268 312s268 -105 268 -312s-145 -312 -268 -312zM300 44c133 0 203 136 203 256s-70 256 -203 256s-203 -136 -203 -256s70 -256 203 -256zM155 328h290v-46h-290v46z" />
    <glyph glyph-name="Phi" unicode="&#x3a6;" 
d="M269 612h62v-56c141 2 235 -120 235 -256s-94 -258 -235 -256v-56h-62v56c-141 -2 -235 120 -235 256s94 258 235 256v56zM269 90v420c-112 2 -170 -107 -170 -210s58 -212 170 -210zM331 510v-420c112 -2 170 107 170 210s-58 212 -170 210z" />
    <glyph glyph-name="uni03A9" unicode="&#x3a9;" 
d="M553 0h-218v125c108 15 156 105 156 208c0 105 -70 223 -191 223s-191 -118 -191 -223c0 -103 48 -193 156 -208v-125h-218v56h160v36c-107 25 -163 143 -163 244c0 141 100 276 256 276s256 -135 256 -276c0 -101 -56 -219 -163 -244v-36h160v-56z" />
    <glyph glyph-name="alpha" unicode="&#x3b1;" 
d="M255 44c88 0 119 94 119 163s-31 163 -119 163s-119 -94 -119 -163s31 -163 119 -163zM420 294l48 139l51 -15l-76 -205l62 -213h-55l-34 131c-26 -79 -73 -143 -161 -143c-122 0 -184 101 -184 219s62 219 184 219c87 0 140 -56 165 -132z" />
    <glyph glyph-name="delta" unicode="&#x3b4;" 
d="M443 197c0 84 -61 147 -145 147c-85 0 -141 -69 -141 -152c0 -77 60 -148 141 -148c84 0 145 71 145 153zM202 544l163 -124c75 -57 143 -117 143 -219c0 -118 -91 -213 -210 -213c-114 0 -206 96 -206 208c0 147 110 206 203 210l-155 116v78h323v-56h-261z" />
    <glyph glyph-name="epsilon" unicode="&#x3b5;" 
d="M436 67l16 -50c-41 -21 -96 -29 -144 -29c-87 0 -160 48 -160 127c0 52 30 93 87 112c-41 15 -62 52 -62 88c0 62 52 111 125 111c47 0 79 -15 101 -34l-28 -41c-15 10 -33 19 -56 19c-41 0 -77 -8 -77 -55c0 -45 32 -58 82 -58h19v-56h-29c-56 0 -97 -28 -97 -81
c0 -48 56 -76 110 -76c41 0 80 9 113 23z" />
    <glyph glyph-name="uni03BC" unicode="&#x3bc;" 
d="M414 191v223h62v-414h-62v43c-26 -34 -68 -55 -112 -55c-45 0 -88 18 -116 52v-237h-62v611h62v-233c0 -94 47 -137 114 -137s114 53 114 147z" />
    <glyph glyph-name="pi" unicode="&#x3c0;" 
d="M60 414h480v-56h-80v-358h-62v358h-196v-358h-62v358h-80v56z" />
    <glyph glyph-name="sigma" unicode="&#x3c3;" 
d="M555 426v-49l-145 7l-2 -2c61 -36 96 -108 96 -175c0 -115 -84 -219 -204 -219s-208 104 -208 219c0 67 30 134 84 175c58 44 129 44 199 44h180zM298 370c-85 0 -141 -79 -141 -163s56 -163 141 -163s141 79 141 163s-56 163 -141 163z" />
    <glyph glyph-name="tau" unicode="&#x3c4;" 
d="M473 414v-56h-142v-358h-62v358h-41c-32 0 -65 -2 -101 -16v52l23 8c26 9 49 12 75 12h248z" />
    <glyph glyph-name="phi1" unicode="&#x3d5;" 
d="M331 342v-276c78 8 121 63 121 138s-43 130 -121 138zM269 438h62v-50c100 -7 186 -80 186 -184s-86 -177 -186 -184v-50h-62v50c-100 7 -186 80 -186 184s86 177 186 184v50zM269 66v276c-78 -8 -121 -63 -121 -138s43 -130 121 -138z" />
    <glyph glyph-name="endash" unicode="&#x2013;" 
d="M450 272h-300v56h300v-56z" />
    <glyph glyph-name="emdash" unicode="&#x2014;" 
d="M0 216v72h600v-72h-600z" />
    <glyph glyph-name="underscoredbl" unicode="&#x2017;" 
d="M600 -108h-600v36h600v-36zM600 -216h-600v36h600v-36z" />
    <glyph glyph-name="quoteleft" unicode="&#x2018;" 
d="M380 612v-58c-22 -5 -42 -14 -58 -30c33 -2 59 -27 59 -61c0 -40 -29 -69 -69 -69c-44 0 -73 39 -73 81c0 73 76 123 141 137z" />
    <glyph glyph-name="quoteright" unicode="&#x2019;" 
d="M240 394v58c22 5 42 14 58 30c-33 2 -59 27 -59 61c0 40 29 69 69 69c44 0 73 -39 73 -81c0 -73 -76 -123 -141 -137z" />
    <glyph glyph-name="quotesinglbase" unicode="&#x201a;" 
d="M240 -98v58c22 5 42 14 58 30c-33 2 -59 27 -59 61c0 40 29 69 69 69c44 0 73 -39 73 -81c0 -73 -76 -123 -141 -137z" />
    <glyph glyph-name="quotereversed" unicode="&#x201b;" 
d="M380 452v-58c-65 14 -141 64 -141 137c0 42 29 81 73 81c40 0 69 -29 69 -69c0 -34 -26 -59 -59 -61c16 -16 36 -25 58 -30z" />
    <glyph glyph-name="quotedblleft" unicode="&#x201c;" 
d="M281 612v-58c-22 -5 -42 -14 -58 -30c33 -2 59 -27 59 -61c0 -40 -29 -69 -69 -69c-44 0 -73 39 -73 81c0 73 76 123 141 137zM475 612v-58c-22 -5 -42 -14 -58 -30c33 -2 59 -27 59 -61c0 -40 -29 -69 -69 -69c-44 0 -73 39 -73 81c0 73 76 123 141 137z" />
    <glyph glyph-name="quotedblright" unicode="&#x201d;" 
d="M141 394v58c22 5 42 14 58 30c-33 2 -59 27 -59 61c0 40 29 69 69 69c44 0 73 -39 73 -81c0 -73 -76 -123 -141 -137zM335 394v58c22 5 42 14 58 30c-33 2 -59 27 -59 61c0 40 29 69 69 69c44 0 73 -39 73 -81c0 -73 -76 -123 -141 -137z" />
    <glyph glyph-name="quotedblbase" unicode="&#x201e;" 
d="M141 -98v58c22 5 42 14 58 30c-33 2 -59 27 -59 61c0 40 29 69 69 69c44 0 73 -39 73 -81c0 -73 -76 -123 -141 -137zM335 -98v58c22 5 42 14 58 30c-33 2 -59 27 -59 61c0 40 29 69 69 69c44 0 73 -39 73 -81c0 -73 -76 -123 -141 -137z" />
    <glyph glyph-name="dagger" unicode="&#x2020;" 
d="M263 600h74l-6 -165l107 6v-66l-106 6l4 -70l-17 -311h-38l-17 311l4 70l-106 -6v66l107 -6z" />
    <glyph glyph-name="daggerdbl" unicode="&#x2021;" 
d="M270 151l-108 -6v66l108 -6v190l-108 -6v66l108 -6l-7 151h74l-7 -151l108 6v-66l-108 6v-190l108 6v-66l-108 6l7 -151h-74z" />
    <glyph glyph-name="bullet" unicode="&#x2022;" 
d="M200 384c0 55 46 97 100 97s100 -42 100 -97s-46 -97 -100 -97s-100 42 -100 97z" />
    <glyph glyph-name="ellipsis" unicode="&#x2026;" 
d="M53 45c0 32 28 57 59 57s59 -25 59 -57s-27 -57 -59 -57s-59 25 -59 57zM241 45c0 32 28 57 59 57s59 -25 59 -57s-27 -57 -59 -57s-59 25 -59 57zM429 45c0 32 28 57 59 57s59 -25 59 -57s-27 -57 -59 -57s-59 25 -59 57z" />
    <glyph glyph-name="perthousand" unicode="&#x2030;" 
d="M290 16c49 0 58 65 58 101s-9 101 -58 101s-58 -65 -58 -101s9 -101 58 -101zM311 633l34 -20l-278 -638l-34 21zM290 -12c-72 0 -94 69 -94 129s22 129 94 129s94 -69 94 -129s-22 -129 -94 -129zM94 354c-72 0 -94 69 -94 129s22 129 94 129s94 -69 94 -129
s-22 -129 -94 -129zM94 382c49 0 58 65 58 101s-9 101 -58 101s-58 -65 -58 -101s9 -101 58 -101zM506 -12c-72 0 -94 69 -94 129s22 129 94 129s94 -69 94 -129s-22 -129 -94 -129zM506 16c49 0 58 65 58 101s-9 101 -58 101s-58 -65 -58 -101s9 -101 58 -101z" />
    <glyph glyph-name="guilsinglleft" unicode="&#x2039;" 
d="M402 554l41 -40l-236 -214l236 -214l-41 -40l-278 254z" />
    <glyph glyph-name="guilsinglright" unicode="&#x203a;" 
d="M157 514l41 40l278 -254l-278 -254l-41 40l236 214z" />
    <glyph glyph-name="exclamdbl" unicode="&#x203c;" 
d="M124 45c0 32 28 57 59 57s59 -25 59 -57s-27 -57 -59 -57s-59 25 -59 57zM442 154h-50l-35 404c-3 32 29 54 60 54s63 -22 60 -54zM358 45c0 32 28 57 59 57s59 -25 59 -57s-27 -57 -59 -57s-59 25 -59 57zM208 154h-50l-35 404c-3 32 29 54 60 54s63 -22 60 -54z" />
    <glyph glyph-name="uni203E" unicode="&#x203e;" 
d="M532 -104h-464v55h464v-55z" />
    <glyph glyph-name="fraction" unicode="&#x2044;" 
d="M419 633l40 -23l-278 -638l-40 24z" />
    <glyph glyph-name="uni207F" unicode="&#x207f;" 
d="M227 545v-155h51v-36h-137v36h43v180l-45 -7l-7 33l19 3c15 2 28 3 38 14c5 5 10 9 18 9c19 0 20 -17 20 -30v-9c31 16 59 29 103 29c60 0 93 -43 93 -109v-113h46v-36h-137v36h48v96c0 52 2 90 -55 90c-35 0 -67 -14 -98 -31z" />
    <glyph glyph-name="franc" unicode="&#x20a3;" 
d="M10 600h314v-127h-46v24c0 35 1 47 -53 47h-113v-205h88v63h46v-191h-46v72h-88v-227h99v-56h-201v56h46v488h-46v56zM327 56h52v301l-42 -10l-7 51c18 2 37 6 52 27c6 9 10 17 26 17c27 0 27 -28 27 -50v-41h2c17 36 42 75 82 75c35 0 58 -35 71 -66l-46 -28
c-8 20 -11 38 -33 38c-35 0 -61 -63 -76 -87v-227h108v-56h-216v56z" />
    <glyph glyph-name="peseta" unicode="&#x20a7;" 
d="M15 544v56h165c65 0 120 -45 120 -157c0 -113 -51 -187 -151 -185h-36v-202h73v-56h-171v56h42v488h-42zM113 544v-230h35c73 0 96 44 96 128c0 75 -25 102 -72 102h-59zM444 525v-111h91v-56h-91v-200c0 -52 -1 -114 44 -114c32 0 59 14 84 33l13 -53
c-29 -17 -73 -36 -115 -36c-51 0 -82 44 -82 142v228h-62v56h62v111h56z" />
    <glyph glyph-name="Euro" unicode="&#x20ac;" 
d="M44 202l22 56h75c-1 15 -1 24 -1 41c0 12 1 30 1 41h-93l21 56h77c25 160 119 216 205 216c95 0 138 -61 162 -82v-87h-50c-6 81 -53 113 -111 113c-85 0 -128 -68 -141 -160h272l-22 -56h-256c-1 -13 -1 -26 -1 -39c0 -14 0 -29 1 -43h224l-22 -56h-195
c14 -88 54 -158 138 -158c86 0 117 48 120 128h52v-94c-43 -55 -97 -90 -176 -90c-85 0 -177 60 -199 214h-103z" />
    <glyph glyph-name="afii61289" unicode="&#x2113;" 
d="M491 137l31 -25c-47 -81 -114 -119 -194 -119c-111 0 -161 79 -167 157c-1 4 -1 7 -1 10c-19 -13 -41 -31 -62 -45l-20 35c29 21 57 39 82 60v242c0 164 81 210 152 210c89 0 128 -69 128 -142c0 -114 -91 -218 -225 -330v-17c0 -94 64 -136 125 -136
c70 0 126 54 151 100zM215 464v-221c99 92 178 179 178 272c0 58 -21 106 -83 106c-40 0 -95 -38 -95 -157z" />
    <glyph glyph-name="trademark" unicode="&#x2122;" 
d="M33 600h226v-100h-36v35c0 24 -3 29 -28 29h-28v-205h51v-36h-143v36h49v205h-28c-24 0 -27 -5 -27 -29v-35h-36v100zM538 564v-205h29v-36h-104v36h32v178h-2l-60 -132l-61 132h-1v-178h34v-36h-106v36h29v205h-29v36h78l56 -122l57 122h77v-36h-29z" />
    <glyph glyph-name="Omega" unicode="&#x2126;" 
d="M553 0h-218v125c108 15 156 105 156 208c0 105 -70 223 -191 223s-191 -118 -191 -223c0 -103 48 -193 156 -208v-125h-218v56h160v36c-107 25 -163 143 -163 244c0 141 100 276 256 276s256 -135 256 -276c0 -101 -56 -219 -163 -244v-36h160v-56z" />
    <glyph glyph-name="estimated" unicode="&#x212e;" 
d="M599 251h-485c-3 0 -4 0 -4 -2v-147c0 -7 2 -12 7 -17c46 -49 111 -80 183 -80c78 0 146 36 193 89h43c-53 -63 -140 -104 -237 -104c-165 0 -299 121 -299 269c0 149 134 270 299 270c166 0 300 -121 300 -270v-8zM489 270v148c0 7 -3 13 -7 17c-47 47 -111 77 -182 77
s-136 -31 -182 -78c-6 -5 -8 -12 -8 -19v-145s1 -4 4 -4h372c2 0 3 4 3 4z" />
    <glyph glyph-name="oneeighth" unicode="&#x215b;" 
d="M513 164c37 -19 63 -36 63 -82c0 -59 -62 -94 -115 -94s-115 35 -115 94c0 46 27 63 63 82c-29 22 -51 39 -51 79c0 55 56 78 103 78s103 -23 103 -78c0 -40 -22 -57 -51 -79zM461 285c-28 0 -60 -11 -60 -43c0 -36 30 -50 60 -62c31 12 60 27 60 62c0 33 -32 43 -60 43z
M533 84c0 39 -39 55 -72 59c-33 -4 -72 -20 -72 -59c0 -36 39 -60 72 -60c34 0 72 24 72 60zM425 633l40 -23l-278 -638l-40 24zM167 578v-257h63v-36h-175v36h69v239c-17 -4 -34 -6 -50 -5l-21 1l-6 34h19c13 0 51 1 59 10c7 7 10 12 21 12c22 0 21 -18 21 -34z" />
    <glyph glyph-name="threeeighths" unicode="&#x215c;" 
d="M513 164c37 -19 63 -36 63 -82c0 -59 -62 -94 -115 -94s-115 35 -115 94c0 46 27 63 63 82c-29 22 -51 39 -51 79c0 55 56 78 103 78s103 -23 103 -78c0 -40 -22 -57 -51 -79zM461 285c-28 0 -60 -11 -60 -43c0 -36 30 -50 60 -62c31 12 60 27 60 62c0 33 -32 43 -60 43z
M533 84c0 39 -39 55 -72 59c-33 -4 -72 -20 -72 -59c0 -36 39 -60 72 -60c34 0 72 24 72 60zM419 633l40 -23l-278 -638l-40 24zM130 442l-33 -3v40c9 -2 17 -3 25 -3c30 0 58 10 58 45c0 29 -19 55 -51 55c-11 0 -28 -1 -36 -11c-2 -19 -15 -39 -37 -39c-11 0 -20 9 -20 20
c0 40 58 66 91 66c54 0 96 -34 96 -89c0 -29 -12 -44 -32 -62c31 -22 48 -41 48 -81c0 -68 -58 -101 -119 -101c-36 0 -74 9 -104 27l17 33c26 -16 56 -24 87 -24c40 0 76 19 76 63c0 41 -26 64 -66 64z" />
    <glyph glyph-name="fiveeighths" unicode="&#x215d;" 
d="M513 164c37 -19 63 -36 63 -82c0 -59 -62 -94 -115 -94s-115 35 -115 94c0 46 27 63 63 82c-29 22 -51 39 -51 79c0 55 56 78 103 78s103 -23 103 -78c0 -40 -22 -57 -51 -79zM461 285c-28 0 -60 -11 -60 -43c0 -36 30 -50 60 -62c31 12 60 27 60 62c0 33 -32 43 -60 43z
M533 84c0 39 -39 55 -72 59c-33 -4 -72 -20 -72 -59c0 -36 39 -60 72 -60c34 0 72 24 72 60zM220 600v-36h-124l-6 -65l26 2c61 5 119 -35 119 -103c0 -79 -62 -125 -137 -125c-29 0 -57 7 -84 17l10 34c24 -9 45 -15 71 -15c52 0 95 29 95 84c0 45 -29 72 -74 72
c-24 0 -48 -4 -71 -11l12 146h163zM413 633l40 -23l-278 -638l-40 24z" />
    <glyph glyph-name="seveneighths" unicode="&#x215e;" 
d="M513 164c37 -19 63 -36 63 -82c0 -59 -62 -94 -115 -94s-115 35 -115 94c0 46 27 63 63 82c-29 22 -51 39 -51 79c0 55 56 78 103 78s103 -23 103 -78c0 -40 -22 -57 -51 -79zM461 285c-28 0 -60 -11 -60 -43c0 -36 30 -50 60 -62c31 12 60 27 60 62c0 33 -32 43 -60 43z
M533 84c0 39 -39 55 -72 59c-33 -4 -72 -20 -72 -59c0 -36 39 -60 72 -60c34 0 72 24 72 60zM30 600h215l-139 -327h-46l126 291h-156v36zM383 633l40 -23l-278 -638l-40 24z" />
    <glyph glyph-name="arrowleft" unicode="&#x2190;" 
d="M136 382h460v-44h-460c15 -23 49 -98 49 -123c0 -8 -5 -16 -14 -16s-17 14 -21 20c-31 46 -77 95 -125 123c-6 3 -21 10 -21 18s15 15 21 18c48 28 94 77 125 123c4 6 12 20 21 20s14 -8 14 -16c0 -25 -34 -100 -49 -123z" />
    <glyph glyph-name="arrowup" unicode="&#x2191;" 
d="M322 524v-460h-44v460c-23 -15 -98 -49 -123 -49c-8 0 -16 5 -16 14s14 17 20 21c46 31 95 77 123 125c3 6 10 21 18 21s15 -15 18 -21c28 -48 77 -94 123 -125c6 -4 20 -12 20 -21s-8 -14 -16 -14c-25 0 -100 34 -123 49z" />
    <glyph glyph-name="arrowright" unicode="&#x2192;" 
d="M4 382h460c-15 23 -49 98 -49 123c0 8 5 16 14 16s17 -14 21 -20c31 -46 77 -95 125 -123c6 -3 21 -10 21 -18s-15 -15 -21 -18c-48 -28 -94 -77 -125 -123c-4 -6 -12 -20 -21 -20s-14 8 -14 16c0 25 34 100 49 123h-460v44z" />
    <glyph glyph-name="arrowdown" unicode="&#x2193;" 
d="M322 656v-460c23 15 98 49 123 49c8 0 16 -5 16 -14s-14 -17 -20 -21c-46 -31 -95 -77 -123 -125c-3 -6 -10 -21 -18 -21s-15 15 -18 21c-28 48 -77 94 -123 125c-6 4 -20 12 -20 21s8 14 16 14c25 0 100 -34 123 -49v460h44z" />
    <glyph glyph-name="arrowboth" unicode="&#x2194;" 
d="M464 338h-328c15 -23 49 -98 49 -123c0 -8 -5 -16 -14 -16s-17 14 -21 20c-31 46 -77 95 -125 123c-6 3 -21 10 -21 18s15 15 21 18c48 28 94 77 125 123c4 6 12 20 21 20s14 -8 14 -16c0 -25 -34 -100 -49 -123h328c-15 23 -49 98 -49 123c0 8 5 16 14 16s17 -14 21 -20
c31 -46 77 -95 125 -123c6 -3 21 -10 21 -18s-15 -15 -21 -18c-48 -28 -94 -77 -125 -123c-4 -6 -12 -20 -21 -20s-14 8 -14 16c0 25 34 100 49 123z" />
    <glyph glyph-name="arrowupdn" unicode="&#x2195;" 
d="M278 196v328c-23 -15 -98 -49 -123 -49c-8 0 -16 5 -16 14s14 17 20 21c46 31 95 77 123 125c3 6 10 21 18 21s15 -15 18 -21c28 -48 77 -94 123 -125c6 -4 20 -12 20 -21s-8 -14 -16 -14c-25 0 -100 34 -123 49v-328c23 15 98 49 123 49c8 0 16 -5 16 -14
s-14 -17 -20 -21c-46 -31 -95 -77 -123 -125c-3 -6 -10 -21 -18 -21s-15 15 -18 21c-28 48 -77 94 -123 125c-6 4 -20 12 -20 21s8 14 16 14c25 0 100 -34 123 -49z" />
    <glyph glyph-name="arrowupdnbse" unicode="&#x21a8;" 
d="M278 261v328c-23 -15 -98 -49 -123 -49c-8 0 -16 5 -16 14s14 17 20 21c46 31 95 77 123 125c3 6 10 21 18 21s15 -15 18 -21c28 -48 77 -94 123 -125c6 -4 20 -12 20 -21s-8 -14 -16 -14c-25 0 -100 34 -123 49v-328c23 15 98 49 123 49c8 0 16 -5 16 -14
s-14 -17 -20 -21c-46 -31 -95 -77 -123 -125c-3 -6 -10 -21 -18 -21s-15 15 -18 21c-28 48 -77 94 -123 125c-6 4 -20 12 -20 21s8 14 16 14c25 0 100 -34 123 -49zM461 44v-44h-322v44h322z" />
    <glyph glyph-name="partialdiff" unicode="&#x2202;" 
d="M127 582l-25 36c33 24 88 51 173 51c135 0 260 -119 260 -329c0 -168 -87 -349 -269 -349c-140 0 -201 115 -201 201c0 130 102 213 219 213c108 0 174 -79 191 -106c2 13 2 34 2 47c0 175 -98 279 -206 279c-68 0 -116 -24 -144 -43zM270 35c109 0 179 103 196 211
c-16 41 -80 116 -172 116c-91 0 -171 -73 -171 -167c0 -86 58 -160 147 -160z" />
    <glyph glyph-name="Delta" unicode="&#x2206;" 
d="M17 0v43l249 577h70l247 -577v-43h-566zM78 46h439l-149 356c-18 44 -53 131 -67 168h-5c-10 -26 -41 -105 -60 -150z" />
    <glyph glyph-name="product" unicode="&#x220f;" 
d="M592 552h-94v-634h-57v634h-282v-634h-57v634h-94v49h584v-49z" />
    <glyph glyph-name="summation" unicode="&#x2211;" 
d="M145 600h307v-56h-243l166 -228l-172 -260h252v-56h-310v60l166 258l-166 223v59z" />
    <glyph glyph-name="minus" unicode="&#x2212;" 
d="M575 393v-66h-550v66h550z" />
    <glyph glyph-name="uni2215" unicode="&#x2215;" 
d="M419 633l40 -23l-278 -638l-40 24z" />
    <glyph glyph-name="uni2219" unicode="&#x2219;" 
d="M233 360c0 37 30 68 67 68s68 -31 68 -68s-31 -67 -68 -67s-67 30 -67 67z" />
    <glyph glyph-name="radical" unicode="&#x221a;" 
d="M2 443h157l68 -249l178 601h193v-66h-143l-230 -776l-116 424h-107v66z" />
    <glyph glyph-name="infinity" unicode="&#x221e;" 
d="M300 302c-35 -51 -88 -99 -153 -99c-89 0 -134 75 -134 157c0 79 48 157 134 157c68 0 114 -48 153 -97c39 53 84 97 154 97c85 0 133 -74 133 -153s-41 -161 -130 -161c-72 0 -112 51 -157 99zM83 360c0 -40 15 -91 63 -91c51 0 92 52 115 91c-23 39 -64 91 -115 91
c-48 0 -63 -51 -63 -91zM517 360c0 40 -15 91 -63 91c-51 0 -92 -52 -115 -91c23 -39 64 -91 115 -91c48 0 63 51 63 91z" />
    <glyph glyph-name="intersection" unicode="&#x2229;" 
d="M590 0h-70v432c0 137 -109 236 -220 236s-220 -99 -220 -236v-432h-70v433c0 169 125 301 290 301s290 -132 290 -301v-433z" />
    <glyph glyph-name="integral" unicode="&#x222b;" 
d="M464 717l-12 -38c-8 7 -27 12 -40 12c-16 0 -39 -4 -53 -19c-27 -28 -37 -77 -37 -157c0 -133 14 -301 14 -436c0 -96 -23 -146 -44 -173s-55 -41 -90 -41c-25 0 -54 10 -66 17l12 39c9 -5 28 -14 50 -14c17 0 36 8 48 19c22 25 40 61 40 154c0 137 -15 308 -15 441
c0 92 15 145 53 179c26 23 55 32 85 32c21 0 44 -9 55 -15z" />
    <glyph glyph-name="approxequal" unicode="&#x2248;" 
d="M173 506c37 0 84 -18 127 -37s83 -37 107 -37c51 0 93 57 112 98l52 -38c-31 -61 -89 -126 -163 -126c-40 0 -106 30 -144 45c-26 11 -63 29 -91 29c-59 0 -86 -63 -113 -106l-52 39c38 65 81 133 165 133zM194 362c37 0 84 -18 127 -37s83 -37 107 -37
c51 0 93 57 112 98l52 -38c-31 -61 -89 -126 -163 -126c-40 0 -106 30 -144 45c-26 11 -63 29 -91 29c-59 0 -86 -63 -113 -106l-52 39c38 65 81 133 165 133z" />
    <glyph glyph-name="notequal" unicode="&#x2260;" 
d="M280 269l-72 -130l-59 32l59 98h-183v65h218l30 52h-248v65h286c22 39 42 75 69 125c25 -12 36 -17 58 -30l-55 -95h192v-65h-229l-31 -52h260v-65h-295z" />
    <glyph glyph-name="equivalence" unicode="&#x2261;" 
d="M575 511v-66h-550v66h550zM575 393v-66h-550v66h550zM575 275v-66h-550v66h550z" />
    <glyph glyph-name="lessequal" unicode="&#x2264;" 
d="M476 720l43 -54l-325 -239l325 -239l-43 -54l-396 293zM88 0v66h424v-66h-424z" />
    <glyph glyph-name="greaterequal" unicode="&#x2265;" 
d="M80 666l43 54l396 -293l-396 -293l-43 54l325 239zM88 0v66h424v-66h-424z" />
    <glyph glyph-name="dotmath" unicode="&#x22c5;" 
d="M250 360c0 20 16 36 36 36s36 -16 36 -36s-16 -36 -36 -36s-36 16 -36 36z" />
    <glyph glyph-name="house" unicode="&#x2302;" 
d="M590 0h-580v406l290 169l290 -169v-406zM40 30h520v361l-260 152l-260 -152v-361z" />
    <glyph glyph-name="uni2304" unicode="&#x2304;" 
d="M103 680h74l123 -242l123 242h74l-164 -323h-66z" />
    <glyph glyph-name="revlogicalnot" unicode="&#x2310;" 
d="M74 0h-44v276h540v-44h-496v-232z" />
    <glyph glyph-name="uni2319" unicode="&#x2319;" 
d="M30 276h44v-232h496v-44h-540v276z" />
    <glyph glyph-name="integraltp" unicode="&#x2320;" 
d="M279 -288v264c0 136 -12 508 185 508c77 0 136 -70 136 -139c0 -26 -9 -58 -41 -58c-72 0 -25 157 -106 157c-23 0 -55 -6 -82 -67c-27 -62 -48 -179 -48 -251v-414h-44z" />
    <glyph glyph-name="integralbt" unicode="&#x2321;" 
d="M323 792v-264c0 -136 12 -508 -185 -508c-77 0 -136 70 -136 139c0 26 9 58 41 58c72 0 25 -157 106 -157c23 0 55 6 82 67c27 62 48 179 48 251v414h44z" />
    <glyph glyph-name="SF100000" unicode="&#x2500;" 
d="M-20 216v72h640v-72h-640z" />
    <glyph glyph-name="SF110000" unicode="&#x2502;" 
d="M264 -288v1080h72v-1080h-72z" />
    <glyph glyph-name="SF010000" unicode="&#x250c;" 
d="M264 -288v576h356v-72h-284v-504h-72z" />
    <glyph glyph-name="SF030000" unicode="&#x2510;" 
d="M336 288v-576h-72v504h-284v72h356z" />
    <glyph glyph-name="SF020000" unicode="&#x2514;" 
d="M264 216v576h72v-504h284v-72h-356z" />
    <glyph glyph-name="SF040000" unicode="&#x2518;" 
d="M336 792v-576h-356v72h284v504h72z" />
    <glyph glyph-name="SF080000" unicode="&#x251c;" 
d="M264 -288v1080h72v-504h284v-72h-284v-504h-72z" />
    <glyph glyph-name="SF090000" unicode="&#x2524;" 
d="M-20 216v72h284v504h72v-1080h-72v504h-284z" />
    <glyph glyph-name="SF060000" unicode="&#x252c;" 
d="M-20 216v72h640v-72h-284v-504h-72v504h-284z" />
    <glyph glyph-name="SF070000" unicode="&#x2534;" 
d="M-20 216v72h284v504h72v-504h284v-72h-640z" />
    <glyph glyph-name="SF050000" unicode="&#x253c;" 
d="M-20 216v72h284v504h72v-504h284v-72h-284v-504h-72v504h-284z" />
    <glyph glyph-name="SF430000" unicode="&#x2550;" 
d="M-20 144v72h640v-72h-640zM-20 288v72h640v-72h-640z" />
    <glyph glyph-name="SF240000" unicode="&#x2551;" 
d="M192 -288v1080h72v-1080h-72zM336 -288v1080h72v-1080h-72z" />
    <glyph glyph-name="SF510000" unicode="&#x2552;" 
d="M264 -288v648h356v-72h-284v-72h284v-72h-284v-432h-72z" />
    <glyph glyph-name="SF520000" unicode="&#x2553;" 
d="M620 288v-72h-212v-504h-72v504h-72v-504h-72v576h428z" />
    <glyph glyph-name="SF390000" unicode="&#x2554;" 
d="M192 -288v648h428v-72h-356v-576h-72zM336 -288v504h284v-72h-212v-432h-72z" />
    <glyph glyph-name="SF220000" unicode="&#x2555;" 
d="M336 360v-648h-72v432h-284v72h284v72h-284v72h356z" />
    <glyph glyph-name="SF210000" unicode="&#x2556;" 
d="M-20 216v72h428v-576h-72v504h-72v-504h-72v504h-212z" />
    <glyph glyph-name="SF250000" unicode="&#x2557;" 
d="M-20 144v72h284v-504h-72v432h-212zM-20 288v72h428v-648h-72v576h-356z" />
    <glyph glyph-name="SF500000" unicode="&#x2558;" 
d="M264 144v648h72v-432h284v-72h-284v-72h284v-72h-356z" />
    <glyph glyph-name="SF490000" unicode="&#x2559;" 
d="M192 216v576h72v-504h72v504h72v-504h212v-72h-428z" />
    <glyph glyph-name="SF380000" unicode="&#x255a;" 
d="M192 144v648h72v-576h356v-72h-428zM336 288v504h72v-432h212v-72h-284z" />
    <glyph glyph-name="SF280000" unicode="&#x255b;" 
d="M336 792v-648h-356v72h284v72h-284v72h284v432h72z" />
    <glyph glyph-name="SF270000" unicode="&#x255c;" 
d="M408 792v-576h-428v72h212v504h72v-504h72v504h72z" />
    <glyph glyph-name="SF260000" unicode="&#x255d;" 
d="M-20 144v72h356v576h72v-648h-428zM-20 288v72h212v432h72v-504h-284z" />
    <glyph glyph-name="SF360000" unicode="&#x255e;" 
d="M620 216v-72h-284v-432h-72v1080h72v-432h284v-72h-284v-72h284z" />
    <glyph glyph-name="SF370000" unicode="&#x255f;" 
d="M192 -288v1080h72v-1080h-72zM336 -288v1080h72v-504h212v-72h-212v-504h-72z" />
    <glyph glyph-name="SF420000" unicode="&#x2560;" 
d="M192 -288v1080h72v-1080h-72zM336 -288v504h284v-72h-212v-432h-72zM336 288v504h72v-432h212v-72h-284z" />
    <glyph glyph-name="SF190000" unicode="&#x2561;" 
d="M-20 144v72h284v72h-284v72h284v432h72v-1080h-72v432h-284z" />
    <glyph glyph-name="SF200000" unicode="&#x2562;" 
d="M-20 216v72h212v504h72v-1080h-72v504h-212zM336 -288v1080h72v-1080h-72z" />
    <glyph glyph-name="SF230000" unicode="&#x2563;" 
d="M336 -288v1080h72v-1080h-72zM264 792v-504h-284v72h212v432h72zM264 216v-504h-72v432h-212v72h284z" />
    <glyph glyph-name="SF470000" unicode="&#x2564;" 
d="M-20 144v72h640v-72h-284v-432h-72v432h-284zM-20 288v72h640v-72h-640z" />
    <glyph glyph-name="SF480000" unicode="&#x2565;" 
d="M-20 216v72h640v-72h-212v-504h-72v504h-72v-504h-72v504h-212z" />
    <glyph glyph-name="SF410000" unicode="&#x2566;" 
d="M-20 144v72h284v-504h-72v432h-212zM-20 288v72h640v-72h-640zM336 -288v504h284v-72h-212v-432h-72z" />
    <glyph glyph-name="SF450000" unicode="&#x2567;" 
d="M-20 144v72h640v-72h-640zM-20 288v72h284v432h72v-432h284v-72h-640z" />
    <glyph glyph-name="SF460000" unicode="&#x2568;" 
d="M-20 216v72h212v504h72v-504h72v504h72v-504h212v-72h-640z" />
    <glyph glyph-name="SF400000" unicode="&#x2569;" 
d="M-20 144v72h640v-72h-640zM-20 288v72h212v432h72v-504h-284zM336 288v504h72v-432h212v-72h-284z" />
    <glyph glyph-name="SF540000" unicode="&#x256a;" 
d="M-20 144v72h284v72h-284v72h284v432h72v-432h284v-72h-284v-72h284v-72h-284v-432h-72v432h-284z" />
    <glyph glyph-name="SF530000" unicode="&#x256b;" 
d="M-20 216v72h212v504h72v-504h72v504h72v-504h212v-72h-212v-504h-72v504h-72v-504h-72v504h-212z" />
    <glyph glyph-name="SF440000" unicode="&#x256c;" 
d="M-20 144v72h284v-504h-72v432h-212zM-20 288v72h212v432h72v-504h-284zM336 -288v504h284v-72h-212v-432h-72zM336 288v504h72v-432h212v-72h-284z" />
    <glyph glyph-name="upblock" unicode="&#x2580;" 
d="M0 252v540h600v-540h-600z" />
    <glyph glyph-name="dnblock" unicode="&#x2584;" 
d="M0 -288v540h600v-540h-600z" />
    <glyph glyph-name="block" unicode="&#x2588;" 
d="M0 -288v1080h600v-1080h-600z" />
    <glyph glyph-name="lfblock" unicode="&#x258c;" 
d="M0 -288v1080h300v-1080h-300z" />
    <glyph glyph-name="rtblock" unicode="&#x2590;" 
d="M300 -288v1080h300v-1080h-300z" />
    <glyph glyph-name="ltshade" unicode="&#x2591;" 
d="M0 -288v98h100v-98h-100zM200 -288v98h100v-98h-100zM400 -288v98h100v-98h-100zM0 694v98h100v-98h-100zM200 694v98h100v-98h-100zM400 694v98h100v-98h-100zM0 497v98h100v-98h-100zM200 497v98h100v-98h-100zM400 497v98h100v-98h-100zM0 -91v98h100v-98h-100z
M200 -91v98h100v-98h-100zM400 -91v98h100v-98h-100zM0 105v98h100v-98h-100zM200 105v98h100v-98h-100zM400 105v98h100v-98h-100zM0 301v98h100v-98h-100zM200 301v98h100v-98h-100zM400 301v98h100v-98h-100z" />
    <glyph glyph-name="shade" unicode="&#x2592;" 
d="M0 -288v97h99v-97h-99zM200 -288v97h99v-97h-99zM400 -288v97h99v-97h-99zM0 695v97h99v-97h-99zM200 695v97h99v-97h-99zM400 695v97h99v-97h-99zM0 499v97h99v-97h-99zM200 499v97h99v-97h-99zM400 499v97h99v-97h-99zM0 -92v97h99v-97h-99zM200 -92v97h99v-97h-99z
M400 -92v97h99v-97h-99zM0 105v97h99v-97h-99zM200 105v97h99v-97h-99zM400 105v97h99v-97h-99zM0 302v97h99v-97h-99zM200 302v97h99v-97h-99zM400 302v97h99v-97h-99zM100 597v97h99v-97h-99zM300 597v97h99v-97h-99zM500 597v97h100v-97h-100zM100 400v97h99v-97h-99z
M300 400v97h99v-97h-99zM500 400v97h100v-97h-100zM500 203v97h100v-97h-100zM300 203v97h99v-97h-99zM100 203v97h99v-97h-99zM100 6v97h99v-97h-99zM300 6v97h99v-97h-99zM500 6v97h100v-97h-100zM500 -190v97h100v-97h-100zM300 -190v97h99v-97h-99zM100 -190v97h99v-97
h-99z" />
    <glyph glyph-name="dkshade" unicode="&#x2593;" 
d="M138 -92h-138v97h138v-97zM200 -190h-138v97h138v-97zM200 6h-138v97h138v-97zM138 -288h-138v97h138v-97zM338 -92h-138v97h138v-97zM400 -190h-138v97h138v-97zM400 6h-138v97h138v-97zM338 -288h-138v97h138v-97zM538 -92h-138v97h138v-97zM600 -190h-138v97h138v-97z
M600 6h-138v97h138v-97zM538 -288h-138v97h138v-97zM200 597h-138v97h138v-97zM138 695h-138v97h138v-97zM138 499h-138v97h138v-97zM400 597h-138v97h138v-97zM338 695h-138v97h138v-97zM338 499h-138v97h138v-97zM600 597h-138v97h138v-97zM538 695h-138v97h138v-97z
M538 499h-138v97h138v-97zM138 105h-138v97h138v-97zM200 203h-138v97h138v-97zM338 105h-138v97h138v-97zM400 203h-138v97h138v-97zM538 105h-138v97h138v-97zM600 203h-138v97h138v-97zM138 302h-138v97h138v-97zM200 400h-138v97h138v-97zM338 302h-138v97h138v-97z
M400 400h-138v97h138v-97zM538 302h-138v97h138v-97zM600 400h-138v97h138v-97z" />
    <glyph glyph-name="filledbox" unicode="&#x25a0;" 
d="M100 100v400h400v-400h-400z" />
    <glyph glyph-name="triagup" unicode="&#x25b2;" 
d="M46 122l254 474l254 -474h-508z" />
    <glyph glyph-name="uni25B6" unicode="&#x25b6;" 
d="M63 106v508l474 -254z" />
    <glyph glyph-name="triagdn" unicode="&#x25bc;" 
d="M300 122l-254 474h508z" />
    <glyph glyph-name="uni25C0" unicode="&#x25c0;" 
d="M537 614v-508l-474 254z" />
    <glyph glyph-name="lozenge" unicode="&#x25ca;" 
d="M535 300l-212 -347h-46l-212 347l211 348h46zM481 299l-162 267c-7 11 -15 29 -19 39h-2c-5 -13 -12 -25 -20 -39l-160 -264l162 -268c10 -16 16 -29 19 -37h3c3 9 12 26 18 37z" />
    <glyph glyph-name="circle" unicode="&#x25cb;" 
d="M71 252c0 126 103 229 229 229s229 -103 229 -229s-103 -229 -229 -229s-229 103 -229 229zM113 252c0 -103 84 -187 187 -187s187 84 187 187c0 102 -84 187 -187 187s-187 -85 -187 -187z" />
    <glyph glyph-name="invbullet" unicode="&#x25d8;" 
d="M0 -288v1080h600v-1080h-600zM177 252c0 -69 54 -123 123 -123c67 0 123 54 123 123c0 67 -56 123 -123 123s-123 -56 -123 -123z" />
    <glyph glyph-name="invcircle" unicode="&#x25d9;" 
d="M0 -288v1080h600v-1080h-600zM71 252c0 -126 103 -229 229 -229s229 103 229 229s-103 229 -229 229s-229 -103 -229 -229zM131 252c0 92 76 168 169 168s169 -76 169 -168c0 -93 -76 -168 -169 -168s-169 75 -169 168z" />
    <glyph glyph-name="smileface" unicode="&#x263a;" 
d="M10 330c0 162 127 290 290 290s290 -128 290 -290s-127 -290 -290 -290s-290 128 -290 290zM300 605c-154 0 -274 -121 -274 -275s120 -275 274 -275s274 121 274 275s-120 275 -274 275zM132 429c0 28 22 50 50 50s50 -22 50 -50s-22 -50 -50 -50s-50 22 -50 50z
M368 429c0 28 22 50 50 50s50 -22 50 -50s-22 -50 -50 -50s-50 22 -50 50zM300 110c-46 0 -102 16 -140 62c-34 40 -13 89 2 62c42 -76 96 -90 138 -90s96 14 138 90c15 27 36 -22 2 -62c-38 -46 -94 -62 -140 -62z" />
    <glyph glyph-name="invsmileface" unicode="&#x263b;" 
d="M10 330c0 162 127 290 290 290s290 -128 290 -290s-127 -290 -290 -290s-290 128 -290 290zM132 429c0 -28 22 -50 50 -50s50 22 50 50s-22 50 -50 50s-50 -22 -50 -50zM368 429c0 -28 22 -50 50 -50s50 22 50 50s-22 50 -50 50s-50 -22 -50 -50zM300 110
c46 0 102 16 140 62c34 40 13 89 -2 62c-42 -76 -96 -90 -138 -90s-96 14 -138 90c-15 27 -36 -22 -2 -62c38 -46 94 -62 140 -62z" />
    <glyph glyph-name="sun" unicode="&#x263c;" 
d="M518 513l-88 -88c22 -25 32 -59 36 -90h124v-32h-125c-5 -36 -17 -62 -38 -84l88 -88l-23 -23l-87 87c-24 -23 -55 -37 -89 -42v-123h-32v123c-34 5 -66 16 -89 37l-87 -87l-22 23l87 87c-24 26 -36 56 -39 90h-124v32h124c-1 40 11 70 35 96l-87 87l22 24l88 -88
c26 20 62 29 92 31v125h32v-125c31 -1 61 -12 91 -37l88 87zM166 319c0 -75 50 -134 131 -134c83 0 137 59 137 134c-2 76 -55 134 -136 134c-82 -1 -132 -60 -132 -134z" />
    <glyph glyph-name="female" unicode="&#x2640;" 
d="M318 0h-36v171h-126v36h126v109c-87 15 -144 84 -144 164c0 89 73 160 162 160c91 0 162 -71 162 -160c0 -80 -55 -149 -144 -164v-109h126v-36h-126v-171zM170 478c0 -73 57 -130 129 -130c74 0 131 57 131 130s-57 130 -131 130c-72 0 -129 -57 -129 -130z" />
    <glyph glyph-name="male" unicode="&#x2642;" 
d="M305 140c51 52 51 132 0 183c-52 53 -133 53 -184 1c-52 -52 -52 -132 1 -184c50 -51 131 -51 183 0zM315 359l170 171l-104 38v2h170v-170h-2l-39 104l-170 -170c51 -72 42 -161 -14 -218c-63 -63 -165 -61 -228 2c-64 64 -64 164 -1 227c56 57 144 67 218 14z" />
    <glyph glyph-name="spade" unicode="&#x2660;" 
d="M542 0h-484l4 22c157 5 229 90 229 247h-2c-28 -63 -81 -110 -155 -110c-70 0 -131 56 -131 128c0 86 73 143 133 195c77 66 139 127 163 230h2c24 -103 86 -164 163 -230c60 -52 133 -109 133 -195c0 -72 -61 -128 -131 -128c-74 0 -127 47 -155 110h-2
c0 -157 72 -242 229 -247z" />
    <glyph glyph-name="uni2662" unicode="&#x2662;" 
d="M300 712c84 -129 188 -249 297 -362c-109 -113 -213 -233 -297 -362c-84 129 -188 249 -297 362c109 113 213 233 297 362zM300 11c76 119 175 232 277 339c-102 107 -201 220 -277 339c-76 -119 -175 -232 -277 -339c102 -107 201 -220 277 -339z" />
    <glyph glyph-name="club" unicode="&#x2663;" 
d="M503 0h-406l6 21c109 25 192 72 192 275h-2c-21 -64 -80 -138 -153 -138c-88 0 -137 83 -137 162c0 64 40 160 109 160c35 0 62 -15 86 -30c-19 37 -32 64 -32 106c0 72 48 156 134 156s134 -84 134 -156c0 -42 -13 -69 -32 -106c24 15 51 30 86 30
c69 0 109 -96 109 -160c0 -79 -49 -162 -137 -162c-73 0 -132 74 -153 138h-2c0 -203 83 -250 192 -275z" />
    <glyph glyph-name="heart" unicode="&#x2665;" 
d="M301 -12h-2c-29 120 -106 224 -180 322c-53 72 -116 161 -116 253c0 83 59 149 144 149c79 0 137 -73 152 -145h2c15 72 73 145 152 145c85 0 144 -66 144 -149c0 -92 -63 -181 -116 -253c-74 -98 -151 -202 -180 -322z" />
    <glyph glyph-name="diamond" unicode="&#x2666;" 
d="M300 712c84 -129 188 -249 297 -362c-109 -113 -213 -233 -297 -362c-84 129 -188 249 -297 362c109 113 213 233 297 362z" />
    <glyph glyph-name="musicalnote" unicode="&#x266a;" 
d="M286 181v531h44v-63l23 -29l39 -46c62 -75 102 -147 102 -246c0 -58 -21 -122 -59 -166h-29c29 49 43 96 43 154c0 73 -39 168 -119 181v-314c0 -117 -67 -173 -155 -173c-41 0 -69 22 -69 64c0 64 62 118 124 118c18 0 40 -4 56 -11z" />
    <glyph glyph-name="uni266C" unicode="&#x266c;" 
d="M545 202v280l-309 -93v-241c0 -121 -67 -175 -156 -175c-41 0 -69 22 -69 63c0 65 63 118 125 118c18 0 40 -4 56 -11v469l397 112v-517c0 -121 -67 -175 -156 -175c-41 0 -69 22 -69 63c0 65 63 118 125 118c18 0 40 -4 56 -11zM236 468l309 94v72l-309 -94v-72z" />
    <glyph glyph-name="uniE000" unicode="&#xe000;" 
d="M100 260v200h400v-200h-400z" />
    <glyph glyph-name="uniE001" unicode="&#xe001;" 
d="M16 554v46h80c104 0 166 -94 166 -300s-56 -300 -125 -300h-121v46h25v508h-25zM97 554v-508h25c50 0 84 104 84 254s-43 254 -84 254h-25zM272 0v46h25v508h-25v46h95l61 -237l79 237h77v-46h-25v-508h25v-46h-121v46h40v428h-2l-73 -271l-73 271h-2v-428h40v-46h-121z
" />
    <glyph glyph-name="uniF638" unicode="&#xf638;" 
d="M176 159l219 346c-21 31 -52 51 -95 51c-124 0 -142 -164 -142 -256c0 -40 4 -93 18 -141zM469 621l50 -32l-53 -84c25 -48 41 -115 41 -205c0 -229 -103 -312 -207 -312c-46 0 -91 16 -128 54l-42 -67l-50 32l55 87c-26 48 -42 115 -42 206c0 229 103 312 207 312
c46 0 91 -16 128 -55zM424 439l-219 -345c21 -30 51 -50 95 -50c124 0 142 164 142 256c0 40 -3 93 -18 139z" />
    <glyph glyph-name="uniFB01" unicode="&#xfb01;" 
d="M304 414v-56h-87v-302h72v-56h-250v56h116v302h-117v56h117v72c0 102 51 137 125 137c45 0 91 -6 134 -20l-36 -50c-30 10 -61 14 -92 14c-58 0 -69 -16 -69 -101v-52h87zM339 0v56h99v302h-89v56h54c22 0 28 1 40 14c8 9 14 15 27 15c31 0 30 -30 30 -52v-335h76v-56
h-237zM535 532c0 -35 -30 -62 -64 -62c-35 0 -65 27 -65 62c0 36 30 63 65 63c34 0 64 -27 64 -63z" />
    <glyph glyph-name="uniFB02" unicode="&#xfb02;" 
d="M492 606v-550h80v-56h-240v56h98v511c-21 -6 -43 -10 -66 -10c-19 0 -38 3 -57 5c-20 3 -39 5 -58 5c-24 0 -45 -5 -54 -30c-9 -24 -7 -64 -7 -91v-32h110v-56h-110v-302h71v-56h-232v56h99v302h-118v56h118v32c0 34 -3 77 10 108c21 50 63 69 114 69
c38 0 74 -10 111 -10c27 0 56 4 75 26c8 9 14 17 27 17c29 0 29 -29 29 -50z" />
    <glyph glyph-name="emdash" 
d="M600 272h-600v56h600v-56z" />
  </font>
</defs>
</svg>
